<svg xmlns="http://www.w3.org/2000/svg" xmlns:xlink="http://www.w3.org/1999/xlink" width="164.572" height="256" viewBox="0 0 164.572 256">
  <defs>
    <style>
      .a, .d {
        fill: none;
      }

      .b {
        clip-path: url(#a);
      }

      .c, .g {
        fill: #008852;
      }

      .d {
        stroke: #a7a9ac;
        stroke-width: 3px;
      }

      .e {
        fill: #fff;
      }

      .f {
        clip-path: url(#b);
      }

      .g {
        fill-rule: evenodd;
      }

      .h {
        clip-path: url(#d);
      }

      .i {
        clip-path: url(#e);
      }
    </style>
    <clipPath id="a">
      <rect class="a" width="164.57152" height="256"/>
    </clipPath>
    <clipPath id="b">
      <rect class="a" x="26.69728" y="167.1312" width="107.26713" height="36.71343"/>
    </clipPath>
    <clipPath id="d">
      <rect class="a" x="64.27448" y="119.2224" width="35.83999" height="46.81152"/>
    </clipPath>
    <clipPath id="e">
      <rect class="a" x="65.45304" y="122.51424" width="34.66143" height="41.61347"/>
    </clipPath>
  </defs>
  <title>dekra</title>
  <g>
    <g class="b">
      <rect class="c" x="3.89306" y="4.6246" width="156.78476" height="167.11634"/>
      <rect class="d" x="3.89306" y="4.6246" width="156.78476" height="167.11634"/>
      <path class="c" d="M82.28582,251.37523a78.39238,78.39238,0,1,0-78.3927-78.3927,78.48154,78.48154,0,0,0,78.3927,78.3927"/>
      <circle class="d" cx="82.28582" cy="172.98269" r="78.39246"/>
      <path class="e" d="M82.19435,235.99859A62.77661,62.77661,0,1,0,19.41774,173.222a62.77673,62.77673,0,0,0,62.77661,62.77661"/>
      <g class="f">
        <path class="g" d="M30.46751,199.58073h7.1204c7.32423,0,12.43456-5.587,12.43456-12.80936,0-7.32488-4.97421-12.87773-12.401-12.87773H30.46751Zm5.00776-21.32635h.81732c5.6896,0,8.55117,2.89577,8.55117,8.4828,0,5.07614-2.38486,8.48281-8.55117,8.48281h-.81732Z"/>
        <polygon class="c" points="66.468 178.254 66.468 173.894 53.182 173.894 53.182 199.581 66.468 199.581 66.468 195.22 58.189 195.22 58.189 188.271 66.161 188.271 66.161 183.91 58.189 183.91 58.189 178.254 66.468 178.254"/>
        <path class="g" d="M110.32126,199.58085l9.62136-24.75107a2.52566,2.52566,0,0,1,2.3539-1.61722,2.49433,2.49433,0,0,1,2.3539,1.61722l9.31431,24.75107h-5.349l-1.97588-5.41738h-8.926l-2.112,5.41738Zm8.82405-9.50525,3.117-9.30012h.06774l2.91317,9.30012Z"/>
        <polygon class="c" points="75.896 184.727 75.828 184.727 75.828 173.894 70.82 173.894 70.82 199.581 75.828 199.581 75.828 188.032 75.896 188.032 84.106 199.581 90.546 199.581 80.256 185.749 90 173.894 83.834 173.894 75.896 184.727"/>
      </g>
      <g class="f">
        <path class="c" d="M100.62938,177.9819H97.95487v7.73257h2.67451a3.87652,3.87652,0,0,0,0-7.73257m2.65,11.085,7.04169,10.51352h-6.06311l-6.30308-10.35676v10.35676H92.94711V173.894H101.566a7.68323,7.68323,0,0,1,1.71334,15.17292"/>
        <path class="c" d="M-8.95332,167.35646l21.705,12.56617a6.70628,6.70628,0,0,1,0,11.59918l-29.74593,17.22363v-7.73321l26.407-15.28969L-4.779,177.50615v11.59919l-6.67851,3.86661.00129-24.16534a1.66439,1.66439,0,0,1,.83344-1.45015,1.66161,1.66161,0,0,1,1.66947,0"/>
      </g>
      <g class="h">
        <path class="g" d="M112.9148,154.96358h7.12039c7.32424,0,12.43456-5.58705,12.43456-12.80936,0-7.32488-4.97421-12.87773-12.401-12.87773H112.9148Zm5.00775-21.32635h.81732c5.6896,0,8.55118,2.89577,8.55118,8.4828,0,5.07614-2.38487,8.4828-8.55118,8.4828h-.81732Z"/>
        <polygon class="c" points="148.915 133.637 148.915 129.276 135.629 129.276 135.629 154.964 148.915 154.964 148.915 150.603 140.637 150.603 140.637 143.653 148.608 143.653 148.608 139.293 140.637 139.293 140.637 133.637 148.915 133.637"/>
        <polygon class="c" points="158.344 140.11 158.275 140.11 158.275 129.276 153.267 129.276 153.267 154.964 158.275 154.964 158.275 143.415 158.344 143.415 166.553 154.964 172.993 154.964 162.704 141.132 172.448 129.276 166.281 129.276 158.344 140.11"/>
      </g>
      <g class="i">
        <path class="c" d="M73.494,122.73925l21.705,12.56616a6.70628,6.70628,0,0,1,0,11.59918L65.4531,164.12823V156.395l26.407-15.28969-14.19176-8.21638v11.59918l-6.67851,3.86661.00128-24.16534a1.6682,1.6682,0,0,1,2.50292-1.45014"/>
      </g>
    </g>
    <path class="c" d="M50.54053,213.06152l-.47315.53321-1.13965-.793a2.41776,2.41776,0,0,1-.62158,1.43652,2.19616,2.19616,0,0,1-1.71728.80957,3.02066,3.02066,0,0,1-1.9668-.87305,3.48469,3.48469,0,0,1-.43066-.45605,1.10846,1.10846,0,0,0-1.17383.23926.4847.4847,0,0,0-.11182.5039,1.8289,1.8289,0,0,0,.54737.68164l.98535.874a2.95316,2.95316,0,0,1,1.05175,1.61328,1.77015,1.77015,0,0,1-.49707,1.53809A2.11254,2.11254,0,0,1,43,219.9209a5.3005,5.3005,0,0,1-2.59375-1.43457,3.95159,3.95159,0,0,1-1.32373-1.90137,1.75354,1.75354,0,0,1,.42676-1.67285,1.72336,1.72336,0,0,1,1.105-.58984,2.20556,2.20556,0,0,1,1.36035.30859,1.18439,1.18439,0,0,1-.0918-.61719,1.05846,1.05846,0,0,1,.2749-.60058,1.19609,1.19609,0,0,1,.63526-.39063,2.307,2.307,0,0,1,.90478.01367,2.00259,2.00259,0,0,1-.1665-1.22851,2.37471,2.37471,0,0,1,.59277-1.2168,2.41162,2.41162,0,0,1,1.79981-.92285,2.9964,2.9964,0,0,1,1.99414.88476,3.77555,3.77555,0,0,1,.69678.79981ZM40.332,215.624a1.01062,1.01062,0,0,0-.229,1.02246,2.81608,2.81608,0,0,0,.88574,1.20313,4.075,4.075,0,0,0,1.854,1.07812,1.30037,1.30037,0,0,0,1.27442-.4082.909.909,0,0,0,.27636-.876,2.89148,2.89148,0,0,0-.895-1.10742l-1.01075-.89746a1.78106,1.78106,0,0,0-1.13818-.51855A1.30894,1.30894,0,0,0,40.332,215.624Zm4.644-4.31347a1.51228,1.51228,0,0,0-.4541,1.17675,1.762,1.762,0,0,0,.65283,1.11524,1.43828,1.43828,0,0,0,2.29834-.10352,1.4794,1.4794,0,0,0-.13574-2.36328,1.64974,1.64974,0,0,0-1.19922-.49121A1.72373,1.72373,0,0,0,44.97607,211.31055Z"/>
    <path class="c" d="M50.34814,222.11914a3.4145,3.4145,0,0,1-1.62207-2.27051,3.8862,3.8862,0,0,1,.7378-2.85644,4.31741,4.31741,0,0,1,2.311-1.90137,2.94393,2.94393,0,0,1,2.57178.42481,2.80841,2.80841,0,0,1,1.34277,1.98535,3.52429,3.52429,0,0,1-.65429,2.47558l-.39209.59571-4.28223-2.81934a2.948,2.948,0,0,0-.541,2.02637,2.28924,2.28924,0,0,0,1.104,1.54,5.98512,5.98512,0,0,0,2.26172.88671l-.55274.83985a6.05725,6.05725,0,0,1-1.14843-.3125A6.39284,6.39284,0,0,1,50.34814,222.11914Zm3.46778-5.82324a1.847,1.847,0,0,0-1.51563-.29883A2.691,2.691,0,0,0,50.8877,217.002l3.25,2.13965a2.47646,2.47646,0,0,0,.5-1.625A1.67185,1.67185,0,0,0,53.81592,216.2959Z"/>
    <path class="c" d="M57.106,225.89551a3.17963,3.17963,0,0,1-1.79834-2.00586,4.08591,4.08591,0,0,1,.45947-2.91406,4.218,4.218,0,0,1,2.09033-2.18457,3.23342,3.23342,0,0,1,2.748.22851,5.13116,5.13116,0,0,1,.91064.58106,3.57872,3.57872,0,0,1,.6333.61718l-.73584.70313a5.56237,5.56237,0,0,0-.6206-.584,3.63524,3.63524,0,0,0-.65625-.43554q-2.03028-1.01074-3.31738,1.582a3.43392,3.43392,0,0,0-.44092,2.13086,1.92193,1.92193,0,0,0,1.14111,1.38672,5.00692,5.00692,0,0,0,1.8877.49023l-.44434.89453A4.082,4.082,0,0,1,57.106,225.89551Z"/>
    <path class="c" d="M64.01465,228.63184a3.41668,3.41668,0,0,1-2.16651-1.75977,3.89124,3.89124,0,0,1-.04638-2.94922,4.31879,4.31879,0,0,1,1.72558-2.44629,2.94566,2.94566,0,0,1,2.5918-.27246,2.80982,2.80982,0,0,1,1.82129,1.5586,3.52633,3.52633,0,0,1,.0249,2.56054l-.22021.67871-4.876-1.583a2.952,2.952,0,0,0,.01563,2.09765,2.28923,2.28923,0,0,0,1.47168,1.19141,5.9813,5.9813,0,0,0,2.416.25586l-.31055.95605a5.97822,5.97822,0,0,1-1.18945.00293A6.36671,6.36671,0,0,1,64.01465,228.63184Zm1.80078-6.53321a1.83893,1.83893,0,0,0-1.541.11328,2.6866,2.6866,0,0,0-1.0957,1.34375l3.7002,1.20118a2.47792,2.47792,0,0,0,.05224-1.7002A1.66769,1.66769,0,0,0,65.81543,222.09863Z"/>
    <path class="c" d="M73.38135,223.043a4.31992,4.31992,0,0,1,.8584.24707l-.3501.99707a3.93907,3.93907,0,0,0-.78125-.25293,1.98651,1.98651,0,0,0-1.65576.42969,2.67188,2.67188,0,0,0-.97364,1.67383l-.75146,3.92187-1.10742-.21289,1.40039-7.30957.91406.1748-.13232,1.37891.05273.00977a3.27611,3.27611,0,0,1,1.19238-.91309A2.24266,2.24266,0,0,1,73.38135,223.043Z"/>
    <path class="c" d="M77.27832,230.40137a3.52129,3.52129,0,0,0,.57861.02148,3.814,3.814,0,0,0,.44873-.04l-.09814.85645a2.06316,2.06316,0,0,1-.55225.084,4.12865,4.12865,0,0,1-.64453-.01562,1.96172,1.96172,0,0,1-1.8872-2.50586l.50292-4.39942-1.05859-.12109.062-.54,1.11133-.34375.65234-1.52441.64844.07324-.1958,1.71484,2.14551.24512-.09961.87012-2.14551-.2461-.49756,4.35254a1.5047,1.5047,0,0,0,.2002,1.06153A1.1074,1.1074,0,0,0,77.27832,230.40137Z"/>
    <path class="c" d="M80.3584,231.35645l-1.12647-.043.28272-7.43848,1.126.043Zm-.86279-9.499a.75143.75143,0,0,1,.21191-.56054.70435.70435,0,0,1,.94287.04.73248.73248,0,0,1,.17529.57032.74707.74707,0,0,1-.21826.55957.68857.68857,0,0,1-.94287-.03614A.76357.76357,0,0,1,79.49561,221.85742Z"/>
    <path class="c" d="M86.978,224.67969,85.085,224.752l.24951,6.56153-1.12695.043-.24951-6.56153-1.33008.04981-.019-.50977,1.31445-.45605-.01563-.41407q-.104-2.74218,2.29151-2.834a4.90118,4.90118,0,0,1,1.39355.18652l-.25781.91211a3.74986,3.74986,0,0,0-1.1206-.168,1.08663,1.08663,0,0,0-.92725.46,2.37386,2.37386,0,0,0-.25342,1.37305l.01807.48145,1.89306-.07227Z"/>
    <path class="c" d="M87.397,221.69824a.74974.74974,0,0,1,.10987-.58886.7053.7053,0,0,1,.93505-.127.73564.73564,0,0,1,.27295.53125.74485.74485,0,0,1-.11621.58887.68935.68935,0,0,1-.93457.13086A.76341.76341,0,0,1,87.397,221.69824Zm2.52149,9.19922-1.11621.15625-1.03174-7.37109,1.11621-.15625Z"/>
    <path class="c" d="M96.3291,229.83691a3.17329,3.17329,0,0,1-2.667-.374,4.08749,4.08749,0,0,1-1.52832-2.52441,4.221,4.221,0,0,1,.18994-3.0166,3.23814,3.23814,0,0,1,2.24951-1.59766,5.061,5.061,0,0,1,1.06983-.1416,3.50592,3.50592,0,0,1,.88232.06445l-.10937,1.01172a5.2737,5.2737,0,0,0-.85059-.04785,3.62375,3.62375,0,0,0-.78223.08984q-2.20312.5376-1.51709,3.34863a3.44621,3.44621,0,0,0,1.03662,1.91407,1.93117,1.93117,0,0,0,1.76758.32422,5.006,5.006,0,0,0,1.75782-.84278l.2373.96973A4.06989,4.06989,0,0,1,96.3291,229.83691Z"/>
    <path class="c" d="M103.417,227.61719a3.42044,3.42044,0,0,1-2.7915-.01367,3.89083,3.89083,0,0,1-1.8833-2.27051,4.3073,4.3073,0,0,1-.1875-2.98633,2.94572,2.94572,0,0,1,1.84814-1.83789,2.80658,2.80658,0,0,1,2.39649.07519,3.52155,3.52155,0,0,1,1.62451,1.9795l.25293.666-4.792,1.82227a2.946,2.946,0,0,0,1.32617,1.624,2.28412,2.28412,0,0,0,1.89453.00684,5.9834,5.9834,0,0,0,2.043-1.31446l.35742.93946a5.92582,5.92582,0,0,1-.92529.74707A6.35711,6.35711,0,0,1,103.417,227.61719Zm-2.6914-6.21973a1.83641,1.83641,0,0,0-1.12842,1.05274,2.69475,2.69475,0,0,0-.01319,1.73437l3.6377-1.38281a2.48376,2.48376,0,0,0-1.02441-1.35742A1.67355,1.67355,0,0,0,100.72559,221.39746Z"/>
    <path class="c" d="M110.59521,224.292a3.42327,3.42327,0,0,1-2.77294.32715,3.89236,3.89236,0,0,1-2.14551-2.02344,4.31208,4.31208,0,0,1-.55078-2.94336,2.94433,2.94433,0,0,1,1.61084-2.04687,2.80241,2.80241,0,0,1,2.38769-.21875,3.52274,3.52274,0,0,1,1.85352,1.7666l.33252.63086-4.53467,2.39258A2.94935,2.94935,0,0,0,108.29,223.627a2.292,2.292,0,0,0,1.88184-.22461,5.9902,5.9902,0,0,0,1.86718-1.55371l.46924.88867a5.959,5.959,0,0,1-.82764.85547A6.3473,6.3473,0,0,1,110.59521,224.292Zm-3.43017-5.8457a1.84394,1.84394,0,0,0-.9917,1.18359,2.69736,2.69736,0,0,0,.19873,1.72364l3.44141-1.81641a2.47781,2.47781,0,0,0-1.18262-1.22266A1.67687,1.67687,0,0,0,107.165,218.44629Z"/>
    <path class="c" d="M113.07959,213.55957a4.49208,4.49208,0,0,1,.77734-.43945l.46778.94922a3.76954,3.76954,0,0,0-.728.37988,1.984,1.984,0,0,0-.85205,1.48242,2.67745,2.67745,0,0,0,.51367,1.86719l2.2749,3.28222-.92675.64161-4.24024-6.11719.76465-.53027.8916,1.05957.04443-.03028a3.27866,3.27866,0,0,1,.18213-1.48926A2.2526,2.2526,0,0,1,113.07959,213.55957Z"/>
    <path class="c" d="M122.584,214.08789l-.04589.041a2.651,2.651,0,0,1-.99512,2.39941,2.76424,2.76424,0,0,1-2.36133.75977,4.39607,4.39607,0,0,1-2.49121-1.584,4.47609,4.47609,0,0,1-1.28809-2.67969,2.7421,2.7421,0,0,1,1.02-2.26757,2.707,2.707,0,0,1,2.46778-.71875l.06591-.0586-.39111-.36914-.36767-.37305-2.00977-2.26562.84326-.748,7.0127,7.9043-.68555.6084Zm-1.561,1.63867a2.05266,2.05266,0,0,0,.83545-1.58105,3.1771,3.1771,0,0,0-.957-1.86133l-.15772-.17676a3.73113,3.73113,0,0,0-1.89209-1.33984,2.00042,2.00042,0,0,0-1.70556.61035,1.72339,1.72339,0,0,0-.624,1.583,3.83455,3.83455,0,0,0,1.05127,1.97754,3.67006,3.67006,0,0,0,1.81983,1.26367A1.77206,1.77206,0,0,0,121.023,215.72656Z"/>
    <g>
      <path class="e" d="M16.147,87.56641l-1.04-3.32715q-.09815-.3047-.36718-1.38672h-.04151q-.20654.90527-.3623,1.39746l-1.0708,3.31641h-.99366l-1.54687-5.6709H11.625q.54785,2.1372.83545,3.25488a13.29527,13.29527,0,0,1,.32861,1.50488h.04151q.05639-.29444.18359-.76269.1267-.46875.21973-.74219l1.04-3.25488h.93164l1.01416,3.25488a10.99065,10.99065,0,0,1,.39306,1.49512h.04151a5.41811,5.41811,0,0,1,.11133-.57422q.09007-.38819,1.07861-4.17578h.89014l-1.56788,5.6709Z"/>
      <path class="e" d="M24.38965,87.56641l-1.04-3.32715q-.09814-.3047-.36719-1.38672h-.0415q-.20655.90527-.36231,1.39746l-1.0708,3.31641h-.99365l-1.54687-5.6709h.90039q.54785,2.1372.83545,3.25488a13.2976,13.2976,0,0,1,.32861,1.50488h.0415q.0564-.29444.1836-.76269.1267-.46875.21972-.74219l1.04-3.25488h.93164l1.01416,3.25488a10.99237,10.99237,0,0,1,.39307,1.49512h.0415a5.41811,5.41811,0,0,1,.11133-.57422q.09009-.38819,1.07861-4.17578h.89014l-1.56787,5.6709Z"/>
      <path class="e" d="M32.63232,87.56641l-1.04-3.32715q-.09814-.3047-.36719-1.38672h-.04151q-.20653.90527-.3623,1.39746l-1.0708,3.31641h-.99365L27.21,81.89551h.90039q.54786,2.1372.83545,3.25488a13.29527,13.29527,0,0,1,.32861,1.50488h.04151q.0564-.29444.18359-.76269.12671-.46875.21973-.74219l1.04-3.25488h.93164l1.01416,3.25488a10.99065,10.99065,0,0,1,.39306,1.49512h.04151a5.41811,5.41811,0,0,1,.11133-.57422q.09009-.38819,1.07861-4.17578h.89014l-1.56787,5.6709Z"/>
      <path class="e" d="M35.48389,87.01758a.76684.76684,0,0,1,.15771-.52442.57126.57126,0,0,1,.45264-.17871.61116.61116,0,0,1,.46826.17871.7359.7359,0,0,1,.16846.52442.72479.72479,0,0,1-.1709.51758.67783.67783,0,0,1-.90283.01855A.70938.70938,0,0,1,35.48389,87.01758Z"/>
      <path class="e" d="M42.28809,86.80566H42.2417a2.018,2.018,0,0,1-1.77979.86426,2.10651,2.10651,0,0,1-1.73095-.76074,3.34752,3.34752,0,0,1-.61817-2.16309,3.40555,3.40555,0,0,1,.62061-2.17773,2.08979,2.08979,0,0,1,1.72851-.77637,2.06284,2.06284,0,0,1,1.76954.83789h.06738l-.03662-.4082-.02051-.39844V79.51563h.85889v8.05078h-.69873Zm-1.71778.14454a1.56248,1.56248,0,0,0,1.27539-.47852,2.41474,2.41474,0,0,0,.396-1.544v-.18164a2.84413,2.84413,0,0,0-.40088-1.71972,1.52227,1.52227,0,0,0-1.28076-.51563,1.314,1.314,0,0,0-1.15625.58789,2.91816,2.91816,0,0,0-.40137,1.65821,2.80032,2.80032,0,0,0,.39844,1.64062A1.34846,1.34846,0,0,0,40.57031,86.9502Z"/>
      <path class="e" d="M47.31738,87.66992a2.60368,2.60368,0,0,1-1.98388-.76562,2.96489,2.96489,0,0,1-.727-2.127,3.29045,3.29045,0,0,1,.67529-2.17871,2.24133,2.24133,0,0,1,1.81347-.80664,2.13662,2.13662,0,0,1,1.68653.70117,2.6871,2.6871,0,0,1,.62109,1.84961v.543H45.49609a2.249,2.249,0,0,0,.50489,1.5166,1.7447,1.7447,0,0,0,1.34765.51758,4.57491,4.57491,0,0,0,1.811-.38281v.76562a4.62284,4.62284,0,0,1-.86133.28223A4.86778,4.86778,0,0,1,47.31738,87.66992ZM47.085,82.51074a1.40177,1.40177,0,0,0-1.08935.44531,2.05038,2.05038,0,0,0-.47852,1.23145h2.96484a1.89022,1.89022,0,0,0-.3623-1.24414A1.27523,1.27523,0,0,0,47.085,82.51074Z"/>
      <path class="e" d="M51.71582,84.66406a10.04528,10.04528,0,0,1,.67773-.82812l1.83155-1.94043h1.01953l-2.29736,2.416,2.458,3.25489h-1.04l-2.00244-2.68067-.647.55957v2.1211h-.84863V79.51563h.84863v4.26855q0,.28417-.0415.87988Z"/>
      <path class="e" d="M59.0166,81.792a3.39306,3.39306,0,0,1,.67774.06153l-.11914.79687a2.92276,2.92276,0,0,0-.6211-.07715,1.51195,1.51195,0,0,0-1.17676.5586,2.03907,2.03907,0,0,0-.48925,1.39257v3.042H56.4292v-5.6709h.709l.09815,1.0498h.0415a2.50017,2.50017,0,0,1,.76074-.85351A1.71028,1.71028,0,0,1,59.0166,81.792Z"/>
      <path class="e" d="M64.24219,87.56641l-.17041-.80762h-.04151a2.387,2.387,0,0,1-.84619.72266,2.5932,2.5932,0,0,1-1.05273.18847,1.89344,1.89344,0,0,1-1.32227-.43457,1.58642,1.58642,0,0,1-.47851-1.23633q0-1.71825,2.74756-1.80078l.9624-.03125v-.35156a1.43887,1.43887,0,0,0-.28711-.98633,1.1819,1.1819,0,0,0-.91846-.31836,3.75139,3.75139,0,0,0-1.604.43457l-.26367-.65625a4.10987,4.10987,0,0,1,1.91943-.48633,2.16035,2.16035,0,0,1,1.50293.44922,1.8814,1.8814,0,0,1,.48926,1.44434v3.87012Zm-1.93994-.60547a1.74442,1.74442,0,0,0,1.25976-.43946A1.62766,1.62766,0,0,0,64.02,85.29v-.5127l-.85889.03614a3.1341,3.1341,0,0,0-1.47754.31836.96018.96018,0,0,0-.45263.877.8836.8836,0,0,0,.28222.709A1.16914,1.16914,0,0,0,62.30225,86.96094Z"/>
      <path class="e" d="M66.17236,85.11914V84.332h2.54053v.78711Z"/>
      <path class="e" d="M73.7168,86.01953a1.42047,1.42047,0,0,1-.58985,1.2207,2.77372,2.77372,0,0,1-1.65576.42969,3.59744,3.59744,0,0,1-1.75928-.35742v-.79687a4.20407,4.20407,0,0,0,.877.32617,3.63037,3.63037,0,0,0,.90283.11914,2.04432,2.04432,0,0,0,1.03516-.21485.73851.73851,0,0,0,.0747-1.2207,4.49693,4.49693,0,0,0-1.12011-.55664A6.06661,6.06661,0,0,1,70.356,84.4541a1.54722,1.54722,0,0,1-.49658-.499,1.30708,1.30708,0,0,1-.16309-.668,1.27088,1.27088,0,0,1,.564-1.09375,2.62633,2.62633,0,0,1,1.54737-.40137,4.53154,4.53154,0,0,1,1.79.37207l-.30518.69922a4.11631,4.11631,0,0,0-1.54687-.35254,1.78807,1.78807,0,0,0-.92139.19141.59314.59314,0,0,0-.31006.52832.64115.64115,0,0,0,.11621.38769,1.1452,1.1452,0,0,0,.375.30567,8.34319,8.34319,0,0,0,.99365.41894,3.70178,3.70178,0,0,1,1.36328.74024A1.30416,1.30416,0,0,1,73.7168,86.01953Z"/>
      <path class="e" d="M77.50928,87.66992a2.60372,2.60372,0,0,1-1.98389-.76562,2.96493,2.96493,0,0,1-.72705-2.127,3.29051,3.29051,0,0,1,.67529-2.17871,2.24134,2.24134,0,0,1,1.81348-.80664,2.13658,2.13658,0,0,1,1.68652.70117,2.68705,2.68705,0,0,1,.6211,1.84961v.543H75.688a2.24905,2.24905,0,0,0,.50488,1.5166,1.74474,1.74474,0,0,0,1.34766.51758,4.57486,4.57486,0,0,0,1.811-.38281v.76562a4.62284,4.62284,0,0,1-.86133.28223A4.8676,4.8676,0,0,1,77.50928,87.66992Zm-.23242-5.15918a1.4018,1.4018,0,0,0-1.08936.44531A2.05038,2.05038,0,0,0,75.709,84.1875h2.96485a1.89022,1.89022,0,0,0-.36231-1.24414A1.27521,1.27521,0,0,0,77.27686,82.51074Z"/>
      <path class="e" d="M84.54639,87.56641l-.17041-.80762h-.04151a2.387,2.387,0,0,1-.84619.72266,2.5932,2.5932,0,0,1-1.05273.18847,1.89344,1.89344,0,0,1-1.32227-.43457,1.58642,1.58642,0,0,1-.47851-1.23633q0-1.71825,2.74755-1.80078l.96241-.03125v-.35156a1.43887,1.43887,0,0,0-.28711-.98633,1.1819,1.1819,0,0,0-.91846-.31836,3.75139,3.75139,0,0,0-1.604.43457l-.26368-.65625a4.11,4.11,0,0,1,1.91944-.48633,2.16035,2.16035,0,0,1,1.50293.44922,1.8814,1.8814,0,0,1,.48926,1.44434v3.87012Zm-1.93994-.60547a1.74442,1.74442,0,0,0,1.25976-.43946,1.62766,1.62766,0,0,0,.458-1.23144v-.5127l-.85889.03614a3.1341,3.1341,0,0,0-1.47754.31836.96018.96018,0,0,0-.45263.877.8836.8836,0,0,0,.28222.709A1.16914,1.16914,0,0,0,82.60645,86.96094Z"/>
      <path class="e" d="M87.81152,87.56641h-.85888V79.51563h.85888Z"/>
      <path class="e" d="M89.50879,87.01758a.76689.76689,0,0,1,.15771-.52442.57126.57126,0,0,1,.45264-.17871.61113.61113,0,0,1,.46826.17871.73586.73586,0,0,1,.16846.52442.72479.72479,0,0,1-.1709.51758.67783.67783,0,0,1-.90283.01855A.70942.70942,0,0,1,89.50879,87.01758Z"/>
      <path class="e" d="M94.71924,87.66992a2.42072,2.42072,0,0,1-1.90674-.75781,3.11849,3.11849,0,0,1-.67529-2.14453,3.21419,3.21419,0,0,1,.68554-2.19922,2.46764,2.46764,0,0,1,1.95313-.77637,3.878,3.878,0,0,1,.81738.08789,2.69565,2.69565,0,0,1,.6416.207l-.26367.7295a3.99617,3.99617,0,0,0-.62109-.18848,2.72358,2.72358,0,0,0-.59473-.0752q-1.72851,0-1.72851,2.20411a2.62223,2.62223,0,0,0,.42187,1.60351,1.46656,1.46656,0,0,0,1.24951.55957,3.81016,3.81016,0,0,0,1.4541-.30566V87.375A3.10323,3.10323,0,0,1,94.71924,87.66992Z"/>
      <path class="e" d="M102.39258,84.72559a3.12949,3.12949,0,0,1-.69873,2.166,2.46158,2.46158,0,0,1-1.92969.77832,2.55339,2.55339,0,0,1-1.35059-.35742,2.3484,2.3484,0,0,1-.91064-1.02441,3.56818,3.56818,0,0,1-.3208-1.5625,3.12344,3.12344,0,0,1,.69336-2.16016,2.45132,2.45132,0,0,1,1.9248-.77344,2.39845,2.39845,0,0,1,1.89112.792A3.11323,3.11323,0,0,1,102.39258,84.72559Zm-4.3208,0a2.69522,2.69522,0,0,0,.43457,1.65625,1.72647,1.72647,0,0,0,2.55908.002,2.67653,2.67653,0,0,0,.437-1.6582,2.634,2.634,0,0,0-.437-1.64258,1.53748,1.53748,0,0,0-1.291-.56153,1.51135,1.51135,0,0,0-1.273.55372A2.66148,2.66148,0,0,0,98.07178,84.72559Z"/>
      <path class="e" d="M111.12646,87.56641V83.87695a1.53145,1.53145,0,0,0-.28955-1.0166,1.12276,1.12276,0,0,0-.90039-.33887,1.45237,1.45237,0,0,0-1.18506.46094,2.18581,2.18581,0,0,0-.38281,1.417v3.167h-.85888V83.87695a1.52879,1.52879,0,0,0-.29-1.0166,1.12831,1.12831,0,0,0-.90528-.33887,1.4042,1.4042,0,0,0-1.18261.4834,2.62138,2.62138,0,0,0-.375,1.58594v2.97559H103.898v-5.6709h.69873l.13965.77637h.0415a1.68721,1.68721,0,0,1,.68555-.64747,2.093,2.093,0,0,1,.99072-.23242,1.6854,1.6854,0,0,1,1.73877.96192h.041a1.8141,1.8141,0,0,1,.73486-.70313,2.27606,2.27606,0,0,1,1.09717-.25879,1.92174,1.92174,0,0,1,1.44092.49414,2.21172,2.21172,0,0,1,.47851,1.58106v3.69922Z"/>
    </g>
    <g>
      <path class="e" d="M11.80859,46.61426v-8.752h1.01758v8.752Z"/>
      <path class="e" d="M20.16553,44.28516a2.14938,2.14938,0,0,1-.83838,1.80273,3.63588,3.63588,0,0,1-2.2749.64649,5.69129,5.69129,0,0,1-2.394-.40137v-.98145a6.25134,6.25134,0,0,0,1.17285.3584,6.17136,6.17136,0,0,0,1.25733.13184,2.54192,2.54192,0,0,0,1.53271-.38575,1.26791,1.26791,0,0,0,.51465-1.07421,1.3844,1.3844,0,0,0-.18261-.7461,1.68935,1.68935,0,0,0-.61084-.53515,8.442,8.442,0,0,0-1.30176-.55664,4.16079,4.16079,0,0,1-1.74512-1.03614,2.28588,2.28588,0,0,1-.52393-1.5625,1.94446,1.94446,0,0,1,.76026-1.61035,3.16346,3.16346,0,0,1,2.01172-.59863,5.92806,5.92806,0,0,1,2.40039.47949l-.31739.88574a5.41719,5.41719,0,0,0-2.10693-.45508,2.03894,2.03894,0,0,0-1.26318.34766,1.14452,1.14452,0,0,0-.45508.96387,1.48176,1.48176,0,0,0,.16748.74512,1.57412,1.57412,0,0,0,.56592.53222,6.95649,6.95649,0,0,0,1.21826.53613,4.822,4.822,0,0,1,1.89453,1.05372A2.07031,2.07031,0,0,1,20.16553,44.28516Z"/>
      <path class="e" d="M29.55176,42.22656a4.818,4.818,0,0,1-1.0625,3.30371,3.73469,3.73469,0,0,1-2.9541,1.20411,3.78361,3.78361,0,0,1-2.98438-1.18262A4.85738,4.85738,0,0,1,21.5,42.21484a4.79788,4.79788,0,0,1,1.05371-3.31347,3.81049,3.81049,0,0,1,2.99317-1.17676,3.72935,3.72935,0,0,1,2.94531,1.19727A4.81164,4.81164,0,0,1,29.55176,42.22656Zm-6.97412,0a4.15092,4.15092,0,0,0,.75732,2.69629,2.68525,2.68525,0,0,0,2.2002.919,2.659,2.659,0,0,0,2.19677-.916,4.21028,4.21028,0,0,0,.74219-2.69922,4.17743,4.17743,0,0,0-.73926-2.67871,2.6496,2.6496,0,0,0-2.188-.91308,2.702,2.702,0,0,0-2.21192.91894A4.10923,4.10923,0,0,0,22.57764,42.22656Z"/>
      <path class="e" d="M34.67627,37.8623l-3.2627,8.752h-.99365l3.2627-8.752Z"/>
      <path class="e" d="M36.00488,46.61426v-8.752h1.01758v8.752Z"/>
      <path class="e" d="M44.30176,46.61426H39.42285v-8.752h4.87891v.9043H40.44043v2.81934h3.62793v.89746H40.44043v3.2207h3.86133Z"/>
      <path class="e" d="M49.98877,38.64648a2.86121,2.86121,0,0,0-2.27783.96094,3.876,3.876,0,0,0-.835,2.63086,3.95253,3.95253,0,0,0,.80517,2.65527,2.86274,2.86274,0,0,0,2.29541.93653,7.8284,7.8284,0,0,0,2.08936-.3291v.8916a6.43052,6.43052,0,0,1-2.24463.3418,3.79807,3.79807,0,0,1-2.98438-1.17383,4.83246,4.83246,0,0,1-1.05078-3.334,5.26866,5.26866,0,0,1,.50586-2.37109,3.63613,3.63613,0,0,1,1.46094-1.56836,4.41934,4.41934,0,0,1,2.24756-.55078,5.4287,5.4287,0,0,1,2.40674.50293l-.43116.874A4.63582,4.63582,0,0,0,49.98877,38.64648Z"/>
      <path class="e" d="M62.30859,46.61426H56.55566v-.85645l2.30469-2.3164A16.90817,16.90817,0,0,0,60.249,41.9209a3.86965,3.86965,0,0,0,.50293-.88574,2.53505,2.53505,0,0,0,.16748-.92774,1.47154,1.47154,0,0,0-.4248-1.11035,1.627,1.627,0,0,0-1.1792-.41016,2.95618,2.95618,0,0,0-1.03272.17969,4.09333,4.09333,0,0,0-1.08642.65235l-.52686-.67676a4.03747,4.03747,0,0,1,2.63379-1.00586,2.78307,2.78307,0,0,1,1.9336.63183,2.17357,2.17357,0,0,1,.70068,1.69727,3.27715,3.27715,0,0,1-.46729,1.64648,10.46612,10.46612,0,0,1-1.748,2.0586l-1.91553,1.874v.04785h4.502Z"/>
      <path class="e" d="M64.67285,46.61426l3.62744-7.83594h-4.771v-.916H69.354v.7959l-3.57959,7.95606Z"/>
      <path class="e" d="M76.37646,42.22656a6.39147,6.39147,0,0,1-.71533,3.3877,2.64158,2.64158,0,0,1-4.3374-.02637,6.26739,6.26739,0,0,1-.73584-3.36133A6.3941,6.3941,0,0,1,71.2998,38.832a2.64456,2.64456,0,0,1,4.33741.04785A6.24108,6.24108,0,0,1,76.37646,42.22656Zm-4.7832,0a6.40715,6.40715,0,0,0,.44922,2.78028,1.61268,1.61268,0,0,0,2.87012-.01172,6.45883,6.45883,0,0,0,.44629-2.76856,6.41677,6.41677,0,0,0-.44629-2.76269,1.61764,1.61764,0,0,0-2.87012-.01172A6.36255,6.36255,0,0,0,71.59326,42.22656Z"/>
      <path class="e" d="M83.38623,42.22656a6.39156,6.39156,0,0,1-.71533,3.3877,2.64158,2.64158,0,0,1-4.3374-.02637,6.2673,6.2673,0,0,1-.73584-3.36133,6.394,6.394,0,0,1,.71191-3.39453,2.64455,2.64455,0,0,1,4.3374.04785A6.241,6.241,0,0,1,83.38623,42.22656Zm-4.7832,0a6.40715,6.40715,0,0,0,.44922,2.78028,1.61267,1.61267,0,0,0,2.87011-.01172,6.45868,6.45868,0,0,0,.44629-2.76856,6.41661,6.41661,0,0,0-.44629-2.76269,1.61763,1.61763,0,0,0-2.87011-.01172A6.36255,6.36255,0,0,0,78.603,42.22656Z"/>
      <path class="e" d="M88.27686,46.61426h-.96973V40.377q0-.7793.04785-1.47265c-.084.084-.17773.1709-.28125.26269q-.156.1377-1.4248,1.168l-.52686-.68262,2.31641-1.79h.83838Z"/>
    </g>
    <g>
      <path class="e" d="M12.01611,23.2002V12.93945h1.19336V23.2002Z"/>
      <path class="e" d="M21.11182,23.2002V18.22461a2.0079,2.0079,0,0,0-.42823-1.4043,1.7445,1.7445,0,0,0-1.34033-.46289,2.21216,2.21216,0,0,0-1.76855.65235,3.29559,3.29559,0,0,0-.56153,2.15527V23.2002h-1.165V15.50781h.94727l.18945,1.05274H17.041a2.38513,2.38513,0,0,1,1.0039-.88086,3.26093,3.26093,0,0,1,1.43848-.31153,2.92064,2.92064,0,0,1,2.0918.66993,2.851,2.851,0,0,1,.70166,2.14355V23.2002Z"/>
      <path class="e" d="M28.13721,16.41309h-1.958V23.2002h-1.165V16.41309H23.63867v-.52637l1.37549-.4209v-.42773q0-2.83594,2.47754-2.83594a5.0877,5.0877,0,0,1,1.43164.24609l-.30176.9336a3.84169,3.84169,0,0,0-1.15088-.21778,1.122,1.122,0,0,0-.97558.43848,2.45051,2.45051,0,0,0-.31592,1.40723v.498h1.958Z"/>
      <path class="e" d="M36.18018,19.34668a4.24391,4.24391,0,0,1-.94727,2.9375,3.338,3.338,0,0,1-2.61816,1.05664,3.47209,3.47209,0,0,1-1.83155-.48437,3.19692,3.19692,0,0,1-1.23535-1.38965,4.84581,4.84581,0,0,1-.43506-2.12012,4.23518,4.23518,0,0,1,.94043-2.92969,3.32642,3.32642,0,0,1,2.61084-1.04883,3.25463,3.25463,0,0,1,2.56543,1.07325A4.22575,4.22575,0,0,1,36.18018,19.34668Zm-5.86036,0a3.64975,3.64975,0,0,0,.58985,2.24609,2.3389,2.3389,0,0,0,3.47021.00391,3.63408,3.63408,0,0,0,.59326-2.25,3.57149,3.57149,0,0,0-.59326-2.22754,2.08349,2.08349,0,0,0-1.751-.76172,2.04955,2.04955,0,0,0-1.72657.751A3.61537,3.61537,0,0,0,30.31982,19.34668Z"/>
      <path class="e" d="M41.73193,15.36816a4.52712,4.52712,0,0,1,.91944.084l-.16162,1.08105a3.96508,3.96508,0,0,0-.84229-.10547,2.04888,2.04888,0,0,0-1.59668.75782,2.76428,2.76428,0,0,0-.66308,1.88769v4.127h-1.165V15.50781h.96142l.1333,1.42481h.05616a3.38687,3.38687,0,0,1,1.03173-1.15821A2.32766,2.32766,0,0,1,41.73193,15.36816Z"/>
      <path class="e" d="M54.00977,23.2002V18.19629a2.07614,2.07614,0,0,0-.39307-1.37891,1.52049,1.52049,0,0,0-1.22119-.46,1.9725,1.9725,0,0,0-1.60742.624,2.97124,2.97124,0,0,0-.519,1.92382V23.2002H49.104V18.19629a2.07614,2.07614,0,0,0-.39306-1.37891,1.53016,1.53016,0,0,0-1.22852-.46,1.902,1.902,0,0,0-1.60351.65625,3.55046,3.55046,0,0,0-.50879,2.15137V23.2002h-1.165V15.50781h.94726l.18946,1.05274H45.398a2.29369,2.29369,0,0,1,.93018-.877,2.83586,2.83586,0,0,1,1.34375-.31543,2.28519,2.28519,0,0,1,2.35839,1.30469h.05616a2.45373,2.45373,0,0,1,.99658-.9541,3.08718,3.08718,0,0,1,1.48779-.35059,2.6028,2.6028,0,0,1,1.95459.66993,2.99713,2.99713,0,0,1,.64941,2.14355V23.2002Z"/>
      <path class="e" d="M62.30566,23.2002l-.23193-1.09473h-.05615a3.23154,3.23154,0,0,1-1.14746.97851,3.49513,3.49513,0,0,1-1.42823.25684,2.56581,2.56581,0,0,1-1.793-.58984,2.149,2.149,0,0,1-.64942-1.67774q0-2.32909,3.727-2.44238l1.30518-.042V18.1123a1.953,1.953,0,0,0-.38965-1.33789,1.60415,1.60415,0,0,0-1.24561-.43164,5.08364,5.08364,0,0,0-2.17578.58985l-.35791-.8916a5.47806,5.47806,0,0,1,1.24561-.4834,5.38812,5.38812,0,0,1,1.3584-.17578,2.9282,2.9282,0,0,1,2.03857.61035,2.54774,2.54774,0,0,1,.66358,1.958v5.25Zm-2.63232-.82129a2.3611,2.3611,0,0,0,1.709-.59668,2.20587,2.20587,0,0,0,.62159-1.66993V19.417l-1.16553.04981a4.23079,4.23079,0,0,0-2.00342.43164,1.30067,1.30067,0,0,0-.61426,1.18945,1.19932,1.19932,0,0,0,.38233.96094A1.5844,1.5844,0,0,0,59.67334,22.37891Z"/>
      <path class="e" d="M68.05322,22.37891a4.15927,4.15927,0,0,0,1.05274-.14063v.8916a2.15218,2.15218,0,0,1-.55811.15137,4.26989,4.26989,0,0,1-.66308.05957q-2.2317,0-2.23194-2.35156V16.41309H64.55127v-.56153l1.10156-.4834.49121-1.64257h.67383v1.78222H69.0498v.90528H66.81787v4.52734a1.55541,1.55541,0,0,0,.33008,1.06641A1.14714,1.14714,0,0,0,68.05322,22.37891Z"/>
      <path class="e" d="M70.54541,13.42383a.77436.77436,0,0,1,.19629-.58594.72684.72684,0,0,1,.97559.00293.76216.76216,0,0,1,.20361.583.77218.77218,0,0,1-.20361.58594.67964.67964,0,0,1-.48438.19336.67225.67225,0,0,1-.49121-.19336A.78932.78932,0,0,1,70.54541,13.42383Zm1.26318,9.77637h-1.165V15.50781h1.165Z"/>
      <path class="e" d="M77.52832,23.34082a3.5356,3.5356,0,0,1-2.69189-1.03906,4.02229,4.02229,0,0,1-.98584-2.88477,4.457,4.457,0,0,1,.916-2.9541,3.03974,3.03974,0,0,1,2.46-1.09473,2.89949,2.89949,0,0,1,2.2876.9502,3.64724,3.64724,0,0,1,.84229,2.50977v.73632H75.05762a3.04775,3.04775,0,0,0,.68457,2.05664,2.36652,2.36652,0,0,0,1.82812.70215,6.20633,6.20633,0,0,0,2.45655-.51953V22.8418a6.10943,6.10943,0,0,1-1.16846.38281A6.57386,6.57386,0,0,1,77.52832,23.34082Zm-.31592-6.998a1.90348,1.90348,0,0,0-1.47754.6045,2.78148,2.78148,0,0,0-.64892,1.66992h4.02148a2.56262,2.56262,0,0,0-.49121-1.6875A1.73084,1.73084,0,0,0,77.2124,16.34277Z"/>
      <path class="e" d="M85.92188,15.38184a2.85993,2.85993,0,0,1,2.355,1.03515,4.54437,4.54437,0,0,1,.83837,2.92969,4.57527,4.57527,0,0,1-.8457,2.94434,2.8464,2.8464,0,0,1-2.34765,1.0498,3.33329,3.33329,0,0,1-1.37208-.27734,2.57658,2.57658,0,0,1-1.042-.85254h-.08447l-.24561.98926h-.835V12.2793h1.165v2.65332q0,.89063-.05615,1.60058h.05615A2.765,2.765,0,0,1,85.92188,15.38184Zm-.16846.97558a2.031,2.031,0,0,0-1.71924.68457,3.85716,3.85716,0,0,0-.52637,2.30469,3.85153,3.85153,0,0,0,.54053,2.32031,2.0564,2.0564,0,0,0,1.7334.69824,1.79582,1.79582,0,0,0,1.6001-.7832,4.01751,4.01751,0,0,0,.52636-2.249,3.86812,3.86812,0,0,0-.52636-2.23926A1.86537,1.86537,0,0,0,85.75342,16.35742Z"/>
      <path class="e" d="M94.40039,23.34082a3.5356,3.5356,0,0,1-2.69189-1.03906,4.02229,4.02229,0,0,1-.98584-2.88477,4.457,4.457,0,0,1,.916-2.9541,3.03974,3.03974,0,0,1,2.46-1.09473,2.89949,2.89949,0,0,1,2.2876.9502,3.64724,3.64724,0,0,1,.84229,2.50977v.73632H91.92969a3.0478,3.0478,0,0,0,.68457,2.05664,2.36653,2.36653,0,0,0,1.82812.70215,6.20633,6.20633,0,0,0,2.45655-.51953V22.8418a6.10943,6.10943,0,0,1-1.16846.38281A6.57386,6.57386,0,0,1,94.40039,23.34082Zm-.31592-6.998a1.90348,1.90348,0,0,0-1.47754.6045,2.78148,2.78148,0,0,0-.64892,1.66992h4.02148a2.56262,2.56262,0,0,0-.49121-1.6875A1.73084,1.73084,0,0,0,94.08447,16.34277Z"/>
      <path class="e" d="M100.89893,23.2002l-2.91944-7.69239H99.229l1.65625,4.5625a21.75084,21.75084,0,0,1,.65967,2.07715h.05615a15.58519,15.58519,0,0,1,.4878-1.541q.41015-1.16748,1.84228-5.09864h1.249l-2.91944,7.69239Z"/>
      <path class="e" d="M109.66553,23.34082a3.53564,3.53564,0,0,1-2.6919-1.03906,4.02233,4.02233,0,0,1-.98584-2.88477,4.457,4.457,0,0,1,.916-2.9541,3.03973,3.03973,0,0,1,2.46-1.09473,2.89951,2.89951,0,0,1,2.2876.9502,3.64723,3.64723,0,0,1,.84228,2.50977v.73632h-5.29883a3.04785,3.04785,0,0,0,.68457,2.05664,2.36656,2.36656,0,0,0,1.82813.70215,6.20632,6.20632,0,0,0,2.45654-.51953V22.8418a6.10958,6.10958,0,0,1-1.16845.38281A6.57386,6.57386,0,0,1,109.66553,23.34082Zm-.31592-6.998a1.90346,1.90346,0,0,0-1.47754.6045,2.78142,2.78142,0,0,0-.64893,1.66992h4.02149a2.56262,2.56262,0,0,0-.49121-1.6875A1.73084,1.73084,0,0,0,109.34961,16.34277Z"/>
      <path class="e" d="M114.38184,13.42383a.77436.77436,0,0,1,.19629-.58594.72682.72682,0,0,1,.97558.00293.76216.76216,0,0,1,.20361.583.77218.77218,0,0,1-.20361.58594.6796.6796,0,0,1-.48437.19336.67224.67224,0,0,1-.49121-.19336A.78932.78932,0,0,1,114.38184,13.42383ZM115.645,23.2002H114.48V15.50781h1.165Z"/>
      <path class="e" d="M119.28027,23.2002h-1.165V12.2793h1.165Z"/>
      <path class="e" d="M121.65283,13.42383a.77436.77436,0,0,1,.19629-.58594.72684.72684,0,0,1,.97559.00293.76216.76216,0,0,1,.20361.583.77218.77218,0,0,1-.20361.58594.67964.67964,0,0,1-.48438.19336.67225.67225,0,0,1-.49121-.19336A.78932.78932,0,0,1,121.65283,13.42383ZM122.916,23.2002h-1.165V15.50781h1.165Z"/>
      <path class="e" d="M131.68164,15.50781v.73731l-1.4248.168a2.5023,2.5023,0,0,1,.50537,1.53711,2.27316,2.27316,0,0,1-.772,1.80371,3.11412,3.11412,0,0,1-2.11962.67382,3.55527,3.55527,0,0,1-.64551-.05566,1.14621,1.14621,0,0,0-.74414.98926.50209.50209,0,0,0,.25976.4668,1.89719,1.89719,0,0,0,.89112.15039h1.36181a3.04516,3.04516,0,0,1,1.91944.52734,1.82751,1.82751,0,0,1,.67041,1.5293,2.1859,2.1859,0,0,1-1.02491,1.94824,5.48913,5.48913,0,0,1-2.98974.66992,4.08713,4.08713,0,0,1-2.32666-.56152,1.81292,1.81292,0,0,1-.81739-1.58594,1.784,1.784,0,0,1,.44874-1.21484,2.29523,2.29523,0,0,1,1.26367-.69434,1.21464,1.21464,0,0,1-.49512-.41406,1.0954,1.0954,0,0,1-.19971-.65235,1.23842,1.23842,0,0,1,.22461-.7373,2.34773,2.34773,0,0,1,.7085-.61035,2.07706,2.07706,0,0,1-.97168-.83594A2.44993,2.44993,0,0,1,125.02832,18a2.48915,2.48915,0,0,1,.75781-1.94824,3.095,3.095,0,0,1,2.14746-.6836,3.89987,3.89987,0,0,1,1.08789.13965Zm-6.13428,8.9834a1.04585,1.04585,0,0,0,.52637.94824,2.91049,2.91049,0,0,0,1.50928.32227,4.21474,4.21474,0,0,0,2.17187-.43848,1.3433,1.3433,0,0,0,.70557-1.18945.94241.94241,0,0,0-.38623-.86719,3.00133,3.00133,0,0,0-1.45264-.24219H127.2251a1.84377,1.84377,0,0,0-1.23535.37891A1.35417,1.35417,0,0,0,125.54736,24.49121Zm.63184-6.51953a1.56365,1.56365,0,0,0,.45605,1.2207,1.8203,1.8203,0,0,0,1.27051.41407,1.48612,1.48612,0,0,0,1.70557-1.65625,1.5293,1.5293,0,0,0-1.72656-1.7334,1.7081,1.7081,0,0,0-1.26319.44238A1.7807,1.7807,0,0,0,126.1792,17.97168Z"/>
      <path class="e" d="M133.16309,13.42383a.77436.77436,0,0,1,.19629-.58594.72682.72682,0,0,1,.97558.00293.76216.76216,0,0,1,.20361.583.77218.77218,0,0,1-.20361.58594.6796.6796,0,0,1-.48437.19336.67224.67224,0,0,1-.49121-.19336A.78932.78932,0,0,1,133.16309,13.42383Zm1.26318,9.77637h-1.165V15.50781h1.165Z"/>
      <path class="e" d="M142.16016,23.2002V18.22461a2.0079,2.0079,0,0,0-.42823-1.4043,1.7445,1.7445,0,0,0-1.34033-.46289,2.21216,2.21216,0,0,0-1.76855.65235,3.29559,3.29559,0,0,0-.56153,2.15527V23.2002h-1.165V15.50781h.94727l.18945,1.05274h.05616a2.38513,2.38513,0,0,1,1.0039-.88086,3.26093,3.26093,0,0,1,1.43848-.31153,2.92064,2.92064,0,0,1,2.0918.66993,2.851,2.851,0,0,1,.70166,2.14355V23.2002Z"/>
      <path class="e" d="M152.01416,15.50781v.73731l-1.4248.168a2.5023,2.5023,0,0,1,.50537,1.53711,2.27316,2.27316,0,0,1-.772,1.80371,3.11412,3.11412,0,0,1-2.11962.67382,3.55527,3.55527,0,0,1-.64551-.05566,1.14621,1.14621,0,0,0-.74414.98926.50209.50209,0,0,0,.25976.4668,1.89719,1.89719,0,0,0,.89112.15039h1.36181a3.04516,3.04516,0,0,1,1.91944.52734,1.82751,1.82751,0,0,1,.67041,1.5293,2.1859,2.1859,0,0,1-1.02491,1.94824,5.48913,5.48913,0,0,1-2.98974.66992,4.08713,4.08713,0,0,1-2.32666-.56152,1.81292,1.81292,0,0,1-.81739-1.58594,1.784,1.784,0,0,1,.44873-1.21484,2.29529,2.29529,0,0,1,1.26368-.69434,1.21464,1.21464,0,0,1-.49512-.41406,1.0954,1.0954,0,0,1-.19971-.65235,1.23842,1.23842,0,0,1,.22461-.7373,2.34773,2.34773,0,0,1,.7085-.61035,2.07706,2.07706,0,0,1-.97168-.83594A2.44993,2.44993,0,0,1,145.36084,18a2.48915,2.48915,0,0,1,.75781-1.94824,3.095,3.095,0,0,1,2.14746-.6836,3.89987,3.89987,0,0,1,1.08789.13965Zm-6.13428,8.9834a1.04585,1.04585,0,0,0,.52637.94824,2.91049,2.91049,0,0,0,1.50928.32227,4.21474,4.21474,0,0,0,2.17187-.43848,1.3433,1.3433,0,0,0,.70557-1.18945.94241.94241,0,0,0-.38623-.86719,3.00133,3.00133,0,0,0-1.45264-.24219h-1.39648a1.84377,1.84377,0,0,0-1.23535.37891A1.35417,1.35417,0,0,0,145.87988,24.49121Zm.63184-6.51953a1.56365,1.56365,0,0,0,.45605,1.2207,1.8203,1.8203,0,0,0,1.27051.41407,1.48612,1.48612,0,0,0,1.70557-1.65625,1.5293,1.5293,0,0,0-1.72656-1.7334,1.7081,1.7081,0,0,0-1.26319.44238A1.7807,1.7807,0,0,0,146.51172,17.97168Z"/>
    </g>
  </g>
</svg>
