<svg xmlns="http://www.w3.org/2000/svg" width="97.18965" height="24" viewBox="0 0 97.18965 24">
  <defs>
    <style>
      .a {
        fill: #a0a0a0;
      }

      .b {
        fill: #fdce05;
      }

      .c {
        fill: #009286;
      }
    </style>
  </defs>
  <title>abn-amro</title>
  <g>
    <g>
      <path class="a" d="M26.3199,12.004l.59454-2.31311h2.97892L30.4732,12.004h2.2984L29.93579,1.56131H27.05812L24.16518,12.004m5.266-3.91967H27.34776l.99731-4.51308h.02829Z"/>
      <path class="a" d="M36.82534,7.43374h1.27281c1.10083,0,1.4476.56569,1.4476,1.4923a1.299,1.299,0,0,1-1.50361,1.47419h-1.2168m0-7.23519h1.34635a1.25247,1.25247,0,0,1,1.25866,1.33164,1.16946,1.16946,0,0,1-1.14326,1.33163H36.82534Zm1.6784,8.83892c.92661,0,3.22671-.1154,3.22671-2.76057,0-1.43233-.40561-2.43191-1.9539-2.64913V6.56654a2.12963,2.12963,0,0,0,1.78136-2.30067c0-2.22769-1.37576-2.70456-3.03833-2.70456H34.6429V12.004Z"/>
      <polyline class="a" points="46.321 12.004 46.321 4.367 46.348 4.367 49.198 12.004 52.076 12.004 52.076 1.561 50.036 1.561 50.036 8.794 50.009 8.794 47.231 1.561 44.281 1.561 44.281 12.004"/>
      <polyline class="a" points="55.505 7.392 56.907 5.991 55.505 4.593 54.107 5.991"/>
      <path class="a" d="M59.7641,12.004l.59171-2.31311H63.337l.57814,2.31311h2.3001L63.38,1.56131H60.50233L57.60713,12.004m5.266-3.91967h-2.084l1.00014-4.51308h.02828Z"/>
      <polyline class="a" points="70.139 12.004 70.139 3.948 70.168 3.948 72.077 12.004 74.16 12.004 76.171 3.948 76.2 3.948 76.2 12.004 78.328 12.004 78.328 1.561 74.927 1.561 73.192 8.664 73.164 8.664 71.528 1.561 68.014 1.561 68.014 12.004"/>
      <path class="a" d="M83.37717,3.165h.97129c.6924,0,1.11271.37732,1.11271,1.37406,0,.66526-.24778,1.53472-1.11271,1.53472h-.97129m0,1.60713h.56343c1.68066,0,1.5647,1.05614,1.5647,2.29953a4.804,4.804,0,0,0,.22911,2.02291h2.14227a14.3131,14.3131,0,0,1-.24494-3.06661,1.85632,1.85632,0,0,0-1.89733-2.05289V6.855a2.2531,2.2531,0,0,0,1.93975-2.56145c0-1.77966-.95489-2.73285-2.44435-2.73285H81.19248V12.00339h2.1847V7.681Z"/>
      <path class="a" d="M93.58789,10.61519c-1.23038,0-1.3882-1.1574-1.3882-3.832,0-2.67628.15783-3.83425,1.3882-3.83425s1.3882,1.158,1.3882,3.83425c0,2.67458-.15782,3.832-1.3882,3.832m0,1.563c3.60176,0,3.60176-2.66327,3.60176-5.39556,0-2.76283,0-5.39725-3.60176-5.39725-3.60119,0-3.60119,2.63442-3.60119,5.39725,0,2.73229,0,5.39556,3.60119,5.39556"/>
    </g>
    <polygon class="b" points="9.001 24 9.001 5.992 17.997 15 9.001 24"/>
    <polygon class="c" points="9.001 24 0 15.004 0 0 17.997 0 17.997 15 9.001 5.992 9.001 24"/>
  </g>
</svg>
