<svg xmlns="http://www.w3.org/2000/svg" xmlns:xlink="http://www.w3.org/1999/xlink" width="127.90767" height="24" viewBox="0 0 127.90767 24">
  <defs>
    <style>
      .a {
        fill: #1d1d1b;
      }

      .b {
        fill: url(#a);
      }

      .c {
        fill: url(#b);
      }

      .d {
        fill: #00945e;
      }

      .e {
        fill: #fff;
      }
    </style>
    <linearGradient id="a" x1="11.99947" y1="-0.5904" x2="11.99947" y2="24.744" gradientUnits="userSpaceOnUse">
      <stop offset="0" stop-color="#00945e"/>
      <stop offset="0.6" stop-color="#78cbaa"/>
      <stop offset="1" stop-color="#00945e"/>
    </linearGradient>
    <linearGradient id="b" x1="11.96213" y1="23.22174" x2="11.96213" y2="0.42789" gradientUnits="userSpaceOnUse">
      <stop offset="0" stop-color="#00a06c"/>
      <stop offset="0.25" stop-color="#006e46"/>
      <stop offset="0.3567" stop-color="#006e46"/>
      <stop offset="0.59021" stop-color="#00935d"/>
      <stop offset="1" stop-color="#5bbe97"/>
    </linearGradient>
  </defs>
  <title>bnp-paribas-security-services</title>
  <g>
    <g>
      <g>
        <path class="a" d="M109.14,5.6679c0,1.46416,1.46646,2.05372,2.76552,2.59244,1.01079.40253,2.06907.82679,2.06907,1.52487a.72489.72489,0,0,1-.1597.51418c-.24335.28678-.73529.40668-1.51662.36379a7.10168,7.10168,0,0,1-2.62968-.72759l-.38445-.18548v1.81683l.2625.06614.15243.02634A10.1577,10.1577,0,0,0,112.05127,12c2.44727,0,3.90762-.97666,3.90762-2.59043,0-1.5161-1.50786-2.10541-2.84053-2.63665-.9823-.39761-1.99826-.79215-1.99826-1.44247,0-.187,0-.73375,1.26811-.73375a6.70891,6.70891,0,0,1,2.3594.578l.47026.1963-.00312-.31235V3.54872l-.46714-.08475a10.68012,10.68012,0,0,0-2.08656-.25369C110.54965,3.21028,109.14,4.2073,109.14,5.6679Z"/>
        <path class="a" d="M104.74255,3.51255H103.182l-.01035.03745c-.46612,1.26161-3.40584,7.65524-3.65226,8.18541l-.04344.11267h1.98632l.0124-.04965c.16535-.57151.39582-1.21226.65524-1.914.06252,0,1.64118-.02475,1.64118-.02475l1.36675.02116s.23825.00359.28986.00359c.35965.896.62629,1.57657.74209,1.914l.02172.04965h2.29838l-3.69772-8.33553Zm-.95908,2.45013c.18707.3886.66144,1.498,1.202,2.82368-.08265,0-.18292.00834-.18292.00834l-1.019.01389s-1.06346-.02223-1.221-.02223C102.99443,7.72162,103.41762,6.77292,103.78347,5.96268Z"/>
        <path class="a" d="M91.26238,3.5911c.06667.87172.10746,3.07719.10746,3.88119,0,.741,0,3.22138-.11725,4.291l-.0186.08475h3.88175c1.89846,0,3.91891-.5932,3.91891-2.28449,0-1.05935-.76787-1.842-2.2147-2.27029a2.11339,2.11339,0,0,0,1.78271-1.844c0-1.38078-1.58846-1.9006-3.06625-1.93677H91.25259Zm2.99138.84564h0c1.62882.01368,2.22.34182,2.22,1.22128a.9115.9115,0,0,1-.22222.623,1.98407,1.98407,0,0,1-1.68355.51623h-.03767L94.08221,7.9733h.44808a2.55687,2.55687,0,0,1,2.06124.74281,1.13877,1.13877,0,0,1,.28627.76064c0,.91927-.81332,1.39471-2.41935,1.39471-.25839,0-.69244,0-.96422-.00932C93.427,9.63436,93.427,7.9733,93.427,7.47229c0-.57921.02177-1.87.06726-2.97381A4.17562,4.17562,0,0,1,94.25376,4.43674Z"/>
        <path class="a" d="M89.08847,3.51255h-2.222l.0124.07855c.05738.87172.10232,3.07719.10232,3.88119,0,.73742-.0103,3.21415-.11472,4.291l-.00876.08475h2.30415l-.0124-.08475c-.08791-1.07689-.11579-3.55362-.11579-4.291,0-.804.05477-3.00947.11579-3.88119V3.51255Z"/>
        <path class="a" d="M77.68049,3.5911c.06662.87172.09968,3.07719.09968,3.88119,0,.741,0,3.22138-.12708,4.291v.08475h2.3346l-.01031-.08475c-.123-1.07689-.13225-3.55-.13225-4.291,0-.57921.018-1.87.07641-2.91437.17728-.01184.44653-.0393.62988-.0393a2.70468,2.70468,0,0,1,2.19982.65606,1.12478,1.12478,0,0,1,.248.75157A1.63984,1.63984,0,0,1,81.264,7.42068a2.53174,2.53174,0,0,1-.48933-.02484l-.16334-.02763.08945.15295c.82884,1.20786,2.068,3.30173,2.57957,4.29177l.01548.03515h2.49276l-.06153-.11267c-.10181-.14051-1.72588-2.531-2.41571-3.55178,0,0-.031-.02976-.06051-.062,1.27893-.38342,1.89594-1.09861,1.89594-2.19538,0-1.91945-2.08194-2.37625-3.83942-2.4137H77.67382Z"/>
        <path class="a" d="M71.48321,3.51255h-.03l-.0165.04211c-.432,1.18571-3.21514,7.25891-3.65547,8.189l-.03665.10442h1.976l.01651-.04652c.17411-.57152.40771-1.21539.662-1.90317.07958,0,1.64943-.02428,1.64943-.02428l1.36419.01034s.22012.01394.28627.01394c.35143.89606.62116,1.57088.7384,1.91454l.02275.03515h2.28863L73.05,3.51255H71.48321ZM72.04853,5.967c.184.39792.66247,1.50525,1.202,2.82766-.08372.0041-.18707.0041-.18707.0041l-1.01489.01292s-1.05208-.01292-1.22624-.017C71.26,7.73821,71.69406,6.78271,72.04853,5.967Z"/>
        <path class="a" d="M60.89835,3.5911c.07337.87172.11574,3.07719.11574,3.88119,0,.741-.00773,3.22138-.12814,4.291v.08475h2.32121l-.01347-.08475c-.07333-.76945-.11566-2.23694-.11566-3.35881.10848.00462.41741.02219.41741.02219l.337.00727c3.0503,0,4.54832-.80793,4.54832-2.50773,0-1.93335-2.09485-2.37753-3.83626-2.4137H60.89835Zm2.85549.92752a2.72284,2.72284,0,0,1,2.21269.65606,1.13309,1.13309,0,0,1,.25215.75157c0,1.20581-1.35589,1.4683-2.4757,1.4683l-.45941-.02634s-.1219-.01034-.19216-.01915c-.01338-.27849-.01338-.64823-.01338-1.05829,0-.52987,0-1.14735.02215-1.72408A4.8803,4.8803,0,0,1,63.75384,4.51862Z"/>
      </g>
      <g>
        <path class="a" d="M48.99427,3.5911c.077.87172.106,3.07719.106,3.88119,0,.741,0,3.22138-.11472,4.291v.08475h2.31969l-.00984-.08475c-.0791-.76945-.11994-2.23694-.12823-3.35881.10955.00462.43824.02219.43824.02219l.3286.00727c3.05192,0,4.53652-.80793,4.53652-2.50773,0-1.93335-2.083-2.37753-3.81924-2.4137h-3.657Zm2.85964.92752a2.70162,2.70162,0,0,1,2.20594.65606,1.14775,1.14775,0,0,1,.25733.75157c0,1.20581-1.35748,1.4683-2.4917,1.4683l-.45992-.02634s-.10955-.01034-.19015-.01915c-.00829-.27849-.00829-.64618-.00829-1.05829,0-.52448,0-1.14735.02484-1.72408A5.20993,5.20993,0,0,1,51.85391,4.51862Z"/>
        <path class="a" d="M46.7392,3.51255H44.85259L44.929,5.61467c.03673,1.03836.07239,2.10695.14572,3.14432h0a6.03319,6.03319,0,0,0-.80866-1.32668c-.00261-.029-1.96255-3.0444-2.64258-3.90035l-.02014-.01941h-2.1879V3.5911c.06927.87172.0972,3.07719.0972,3.88119,0,.741,0,3.22138-.10442,4.291l-.0186.08475h1.94968v-.08475c-.11062-2.03388-.11062-4.08717-.11062-6.07841h0a2.84882,2.84882,0,0,0,.46193.904c.02429.05375,3.38411,4.94389,3.54694,5.224l.01706.03515h1.56211l-.00265-.08475c-.11878-1.06966-.12862-3.55-.12862-4.291,0-.804.05371-3.00947.10434-3.88119l.02428-.07855Z"/>
        <path class="a" d="M30.03616,3.5911c.05016.87172.10126,3.07719.10126,3.88119,0,.741-.00154,3.22138-.13016,4.291l-.00877.08475H33.875c1.90418,0,3.91942-.5932,3.91942-2.28449,0-1.05935-.76731-1.842-2.20179-2.27029a2.10338,2.10338,0,0,0,1.77351-1.844c0-1.38078-1.587-1.9006-3.07775-1.93677H30.01393Zm2.993.84564c1.61587.01368,2.208.34182,2.208,1.22128a.92874.92874,0,0,1-.21807.623,1.98845,1.98845,0,0,1-1.6809.51623h-.03921l-.4517,1.17609h.4517a2.573,2.573,0,0,1,2.06586.74281,1.1819,1.1819,0,0,1,.27593.76064c0,.91927-.80973,1.39471-2.40751,1.39471-.26921,0-.70736,0-.97871-.00932-.04592-1.22778-.0661-2.88884-.0661-3.38985,0-.57921.03771-1.87.0661-2.97381A4.389,4.389,0,0,1,33.02912,4.43674Z"/>
      </g>
    </g>
    <rect class="b" width="23.99893" height="24"/>
    <path class="c" d="M23.25792,12.14468c0,5.00733.23149,10.1335.23149,10.1335a.87.87,0,0,1-.84231.94356H1.8758c-.46561,0-.787-.41442-.8418-.94356A90.15984,90.15984,0,0,1,.4346,11.20936,59.20208,59.20208,0,0,1,1.034,1.37145c.07235-.55086.37619-.94356.8418-.94356H22.6471a.89515.89515,0,0,1,.84231.94356S23.25792,7.13426,23.25792,12.14468Z"/>
    <g>
      <path class="d" d="M7.79364,19.4598l.07543-.17261a6.30391,6.30391,0,0,1-2.21376-1.143h0a6.44181,6.44181,0,0,1,.804-1.55023h0l.07855-.17056c-.67692.10236-1.29081.35143-1.87785.46611h0a11.17051,11.17051,0,0,1-.87228-2.9785l-.07646.16534h0a10.21534,10.21534,0,0,0-.01244,3.03333h0a11.18194,11.18194,0,0,0-1.30736.32552l-.0744.1633h0a17.58955,17.58955,0,0,0,1.8427,1.01176h0a6.30414,6.30414,0,0,0,1.40352,1.98642h0l.0765-.17155a3.57844,3.57844,0,0,1-.20464-1.3446h0A9.0147,9.0147,0,0,0,7.79364,19.4598Z"/>
      <path class="d" d="M12.33277,17.93643c-.38863.52187-.71831.94044-1.14508,1.42h0a8.53837,8.53837,0,0,1-1.973.1157l-.07646.16539h0a5.02623,5.02623,0,0,0,1.32908.45889h0a10.469,10.469,0,0,1-1.21953.83509l-.07748.16432h0a9.61755,9.61755,0,0,0,2.47109-.92808h0a4.476,4.476,0,0,0,1.00146-.063h0s.07855-.16954.07855-.16535c-.04653-.16745-.1964-.27289-.24082-.51059h0a17.44171,17.44171,0,0,0,1.76526-1.60192h0l.07851-.16535a14.73811,14.73811,0,0,1-1.92544,1.24429h0C12.371,18.58235,12.3503,18.30227,12.33277,17.93643Z"/>
      <path class="d" d="M9.98158,7.40715A8.51131,8.51131,0,0,0,9.41,8.71343H9.349a13.18774,13.18774,0,0,1,4.03175,1.25673l-.07752.16647h0a12.9349,12.9349,0,0,0-3.64208-.23672h0a2.66673,2.66673,0,0,0-.85886.15812h0A13.9656,13.9656,0,0,0,8.053,12.96834l-.07752.16852h0c-.35135-.84437-.85676-2.52693-.85676-2.52693h0a25.974,25.974,0,0,0-3.19453,2.60958h0A12.798,12.798,0,0,1,6.39427,9.65289h0a4.19268,4.19268,0,0,0-2.36774-.68517h0L4.104,8.80028a12.75388,12.75388,0,0,1,2.27889-.246h0A11.80557,11.80557,0,0,1,7.72848,8.577h0A6.65442,6.65442,0,0,1,9.98158,7.40715Z"/>
      <path class="d" d="M18.63605,6.48526c-1.48408.86916-1.93673.93839-3.548,1.9068l.07953-.18087a16.46,16.46,0,0,0,1.76834-2.12487,36.51373,36.51373,0,0,0-5.18812.59837h0l.0806-.16432A22.03269,22.03269,0,0,1,17.152,4.98767a18.12656,18.12656,0,0,0-3.611-2.15279h0l.07649-.16637a17.23871,17.23871,0,0,1,5.79176,1.86343,9.28337,9.28337,0,0,1,1.88815-.245s-.13435.54359-1.11823,1.21953h0a14.00717,14.00717,0,0,1-.82684,5.23366h0C19.33059,9.224,19.19731,7.3141,18.63605,6.48526Z"/>
    </g>
    <g>
      <path class="e" d="M12.41025,17.77313A17.947,17.947,0,0,1,11.261,19.187h0a7.01459,7.01459,0,0,1-2.04636.2852h0a5.21648,5.21648,0,0,0,1.32912.45889h0a9.142,9.142,0,0,1-1.296,1.00048h0a9.5052,9.5052,0,0,0,2.46908-.93121h0a4.51761,4.51761,0,0,0,1.00454-.06093h0a5.64656,5.64656,0,0,1-.16535-.67388h0a17.17852,17.17852,0,0,0,1.7683-1.604h0a12.04374,12.04374,0,0,1-1.84685,1.07894h0C12.44442,18.41494,12.42783,18.1421,12.41025,17.77313Z"/>
      <path class="e" d="M7.86907,19.28719a5.81561,5.81561,0,0,1-2.13936-1.31151h0a6.71423,6.71423,0,0,1,.80819-1.55232h0c-.69142.10335-1.20192.18292-1.79721.29764h0a9.23543,9.23543,0,0,1-.95292-2.81h0a10.18143,10.18143,0,0,0-.0124,3.03328h0a8.5146,8.5146,0,0,0-1.38386.49091h0a17.70072,17.70072,0,0,0,1.84377,1.00873h0a6.27194,6.27194,0,0,0,1.40455,1.9812h0A3.71436,3.71436,0,0,1,5.51266,18.91h0A8.46685,8.46685,0,0,0,7.86907,19.28719Z"/>
      <path class="e" d="M10.08493,7.26142h0A4.9799,4.9799,0,0,0,9.42858,8.546h0a10.90337,10.90337,0,0,1,3.95217,1.42413h0a12.8646,12.8646,0,0,0-3.64413-.23354h0a2.70843,2.70843,0,0,0-.85574.15093h0A15.14972,15.14972,0,0,0,8.053,12.96834h0c-.35037-.84227-.85368-2.52582-.85368-2.52582h0a25.91143,25.91143,0,0,0-3.19457,2.60856h0a12.70721,12.70721,0,0,1,2.466-3.56456h0A4.20279,4.20279,0,0,0,4.104,8.80028h0a9.23994,9.23994,0,0,1,2.35534-.41344h0A12.009,12.009,0,0,1,7.806,8.40856h0A6.74244,6.74244,0,0,1,10.08493,7.26142Z"/>
      <path class="e" d="M18.71259,6.31675c-1.481.87233-1.93574.9436-3.545,1.90786A16.60951,16.60951,0,0,0,17.01245,5.923a35.58268,35.58268,0,0,0-5.184.59735h0a20.62321,20.62321,0,0,1,5.40312-1.70215,18.53516,18.53516,0,0,0-3.61413-2.14971h0a15.50783,15.50783,0,0,1,5.86928,1.696,9.68574,9.68574,0,0,1,1.89747-.23877h0A2.5128,2.5128,0,0,1,20.25559,5.338h0a13.94064,13.94064,0,0,1-.82679,5.23263h0C19.41123,9.0576,19.27893,7.1467,18.71259,6.31675Z"/>
    </g>
    <g>
      <path class="e" d="M53.04455,15.00586v5.34931H54.6755V15.8796c.40394,0,.777-.02712,1.144.00833a4.32414,4.32414,0,0,1,.91757.20987.45755.45755,0,0,1,.32211.45741.46762.46762,0,0,1-.317.46057,1.48088,1.48088,0,0,1-.61668.17718c-.52183-.0454-.69465.27983-.8586.66926a.27975.27975,0,0,0,.062.34993c.57735.66883,1.14017,1.35019,1.71111,2.0246.04749.05611.11765.13113.17831.13209.61932.00975,1.23885.006,1.85832.006l.05747-.08529L56.86764,17.989a9.47594,9.47594,0,0,0,1.24628-.49956,1.20477,1.20477,0,0,0,.073-2.08292,1.94271,1.94271,0,0,0-.75153-.28439,14.36564,14.36564,0,0,0-1.61875-.11162C54.88728,14.99375,53.95736,15.00586,53.04455,15.00586Zm44.41072.87424c.42865,0,.80914-.02915,1.1828.00891a3.17188,3.17188,0,0,1,.93622.23356.57267.57267,0,0,1,.27458.43954.63135.63135,0,0,1-.28309.43662,1.171,1.171,0,0,1-.636.19575c-.47827-.0239-.67743.22985-.83243.62492a.35059.35059,0,0,0,.08564.43668c.5637.64484,1.10543,1.30889,1.65726,1.96416.04867.05779.11189.146.1696.14694.62706.01063,1.25437.00664,1.8816.00664l.05306-.08678-2.26971-2.30232a12.778,12.778,0,0,0,1.21129-.47016,1.10413,1.10413,0,0,0,.66629-1.06278,1.24267,1.24267,0,0,0-1.05026-1.26735,7.0658,7.0658,0,0,0-1.447-.17078c-1.00285-.02512-2.00677-.0081-3.01025-.007-.07628.00008-.15255.01154-.18852.01446v5.34092h1.59885v-4.482Zm-46.631-.86549c0,.127.00018.22466,0,.32237-.0017.78618.019,1.57336-.01579,2.35808a2.82229,2.82229,0,0,1-.23328.99026,1.44673,1.44673,0,0,1-1.64393.8114,1.2335,1.2335,0,0,1-1.10032-1.224c-.06459-.80834-.04208-1.62372-.05494-2.43608-.00425-.26843-.00067-.537-.00067-.81166H46.26825c0,1.05685-.03809,2.09649.01108,3.132a2.23382,2.23382,0,0,0,1.44939,2.0765,3.76493,3.76493,0,0,0,1.5904.26443,2.89288,2.89288,0,0,0,3.01952-3.02654c.01553-.75878.00414-1.51813.00281-2.27721a1.20745,1.20745,0,0,0-.02712-.17948Zm-15.50134.003v5.34323h5.15433v-.86052H36.948V17.83648h2.75744v-.77257H36.96024V15.85712h3.52238v-.83948ZM70.1583,20.35358h5.15638v-.84865H71.78442V17.82935h2.75814v-.76111H71.793V15.86013H75.32V15.0224H70.1583Zm25.08007-5.33043H90.072v5.32958H95.2275V19.503H91.69763V17.83885h2.75784v-.77244H91.70774V15.85886h3.53063Zm22.07247-.00628v5.34294h5.15285v-.852h-3.5216V17.83351H121.692v-.77274H118.95V15.85494h3.519v-.83807Zm-8.39739-.011c-.47289,0-.89567.0063-1.31809-.00329-.15529-.00353-.21324.04945-.25569.20031a15.25392,15.25392,0,0,1-1.463,3.39658c-.0808.14227-.18016.274-.28692.43467a14.03179,14.03179,0,0,1-1.73815-4.01072h-1.72952c.02347.117.03549.21515.06308.3087a16.661,16.661,0,0,0,2.33926,4.79592.51678.51678,0,0,0,.51474.25269,5.44061,5.44061,0,0,1,.92064.00149.58448.58448,0,0,0,.60614-.33146,21.952,21.952,0,0,0,1.98348-3.99294C108.6778,15.72386,108.78422,15.38144,108.91345,15.0059ZM29.78631,20.34223c.99917,0,1.97378.01954,2.94686-.01031a3.85281,3.85281,0,0,0,1.0533-.22121,1.20482,1.20482,0,0,0,.896-1.10677,1.23774,1.23774,0,0,0-.66625-1.23947,9.37248,9.37248,0,0,0-1.15078-.53191c-.37565-.15174-.76957-.258-1.14633-.4073-.21491-.08514-.4072-.23-.37712-.50247.03037-.275.24932-.365.48147-.39594a6.7972,6.7972,0,0,1,.80856-.05525c.60249-.00778,1.20515-.00243,1.81453-.00243v-.85062c-.84422,0-1.66649-.01952-2.48729.00669a3.1318,3.1318,0,0,0-1.62148.46447,1.24577,1.24577,0,0,0-.66095,1.136,1.08775,1.08775,0,0,0,.80542.98644c.59619.23208,1.20585.42933,1.80481.6546a1.935,1.935,0,0,1,.54611.286.48262.48262,0,0,1-.16269.85723,1.974,1.974,0,0,1-.58375.09459c-.6684.01241-1.33713.00645-2.00572.00883-.09511.00034-.19019.00809-.29473.01284Zm46.06781.00023c.99755,0,1.972.01951,2.94486-.01029a3.858,3.858,0,0,0,1.0534-.22086,1.20547,1.20547,0,0,0,.89734-1.10585,1.23717,1.23717,0,0,0-.6649-1.24012,9.34381,9.34381,0,0,0-1.15058-.53231c-.36726-.14839-.7529-.25094-1.12187-.39556-.22337-.08754-.43311-.22743-.4025-.5131.03093-.28881.26486-.37066.5061-.40221a6.39037,6.39037,0,0,1,.75477-.05073c.6117-.00693,1.22353-.00226,1.84386-.00226v-.8087c-.96938,0-1.91805-.032-2.86319.01205a2.32452,2.32452,0,0,0-1.52112.63368,1.08116,1.08116,0,0,0,.22366,1.81134,3.80528,3.80528,0,0,0,.56794.25165c.50895.18352,1.02409.35,1.53187.53663a1.49564,1.49564,0,0,1,.44668.24445.48479.48479,0,0,1-.16119.85909,1.96427,1.96427,0,0,1-.58363.09513c-.66839.01248-1.33712.00651-2.00572.00886-.09527.00034-.19051.00779-.29578.01239Zm8.68083-.00064c1.00183,0,1.97682.0196,2.9503-.01034a3.84163,3.84163,0,0,0,1.05307-.222,1.20363,1.20363,0,0,0,.89343-1.10864,1.24761,1.24761,0,0,0-.66855-1.23906,7.61993,7.61993,0,0,0-1.02479-.483c-.41829-.16679-.85373-.29039-1.273-.45493-.21526-.08447-.40638-.23164-.374-.50413.03255-.27425.25191-.36562.48417-.39307a8.925,8.925,0,0,1,.91705-.05517c.566-.00824,1.13225-.00236,1.71115-.00236v-.82382c-.91434,0-1.81457-.01686-2.71373.00663a2.72273,2.72273,0,0,0-1.40557.43971,1.241,1.241,0,0,0-.6583,1.13707,1.09018,1.09018,0,0,0,.808.98459c.58774.22893,1.188.42549,1.77931.64559a2.89751,2.89751,0,0,1,.53281.25806.49086.49086,0,0,1,.21545.51985.45082.45082,0,0,1-.36916.38626,2.48079,2.48079,0,0,1-.55982.082c-.66845.01077-1.33715.00584-2.00574.00826-.09478.00035-.18953.00853-.29205.01346Zm38.47205.0008c.99639,0,1.97067.0195,2.94343-.01028a3.86167,3.86167,0,0,0,1.05348-.22061,1.20588,1.20588,0,0,0,.89826-1.10517,1.23677,1.23677,0,0,0-.66391-1.24059A9.48458,9.48458,0,0,0,126.088,17.233c-.39176-.15937-.80006-.27785-1.19352-.43344a.45236.45236,0,0,1-.33338-.47427c.02677-.26272.23113-.35949.45309-.39328a5.70738,5.70738,0,0,1,.78094-.0602c.62082-.00824,1.24182-.00266,1.87243-.00266v-.84661a.82644.82644,0,0,0-.101-.01488c-.69571-.00065-1.39207-.01857-2.08687.00651a4.26657,4.26657,0,0,0-1.173.1673,2.98523,2.98523,0,0,0-1.05162.57321,1.0492,1.0492,0,0,0,.22751,1.74795,3.72217,3.72217,0,0,0,.59084.266c.50864.18439,1.024.35022,1.53183.53675a1.50076,1.50076,0,0,1,.44693.24411.48484.48484,0,0,1-.15943.85944,1.95687,1.95687,0,0,1-.58354.09551c-.66839.01254-1.33712.007-2.00572.00834-.095.00019-.19,0-.29653,0Zm-77.35614-.8347c-.47,0-.92005.00185-1.37013-.00035a1.86587,1.86587,0,0,1-1.94438-2.46833A1.38307,1.38307,0,0,1,43.76,15.87445c.40629-.01243.81321-.00438,1.21984-.00521.21439-.00044.42878-.00008.64976-.00008v-.84933c-.67152,0-1.32417-.03646-1.97029.01277a4.56211,4.56211,0,0,0-1.28353.29678,2.6741,2.6741,0,0,0-1.76152,2.68375,2.56927,2.56927,0,0,0,2.06161,2.20443,13.37681,13.37681,0,0,0,2.975.16131Zm70.96375-4.50206c-.122,0-.21972-.00141-.31737.00023-.59589.01-1.19516-.0142-1.7865.04311a4.45178,4.45178,0,0,0-1.22686.30263,2.67967,2.67967,0,0,0-1.699,2.59458,2.49079,2.49079,0,0,0,1.74243,2.16988,10.34954,10.34954,0,0,0,3.28832.26133v-.86969c-.46508,0-.90739-.00723-1.34938.00137a1.88711,1.88711,0,0,1-1.89257-2.69152,1.18321,1.18321,0,0,1,1.02652-.88814c.61762-.06172,1.24318-.04431,1.86533-.06007.11329-.00287.22672-.00041.34905-.00041Zm-52.98421,5.351h1.64627V15.85376h1.81826v-.82551H61.89466v.85191H63.6304Zm-3.99307-5.3381V20.361h1.62461V15.01881ZM69.34677,20.364V15.022H67.72218v5.342Zm41.618-.00313c0-1.78945,0-3.56105.00033-5.33263h-1.62494v5.33263Z"/>
      <path d="M53.04455,15.00586c.91281,0,1.84273-.01211,2.77213.00463a14.36564,14.36564,0,0,1,1.61875.11162,1.94271,1.94271,0,0,1,.75153.28439,1.20477,1.20477,0,0,1-.073,2.08292,9.47594,9.47594,0,0,1-1.24628.49956l2.26645,2.30053-.05747.08529c-.61947,0-1.239.00379-1.85832-.006-.06066-.001-.13082-.076-.17831-.13209-.57094-.67441-1.13376-1.35577-1.71111-2.0246a.27975.27975,0,0,1-.062-.34993c.16395-.38943.33677-.71466.8586-.66926a1.48088,1.48088,0,0,0,.61668-.17718.46762.46762,0,0,0,.317-.46057.45755.45755,0,0,0-.32211-.45741,4.32414,4.32414,0,0,0-.91757-.20987c-.367-.03545-.74-.00833-1.144-.00833v4.47557H53.04455Z"/>
      <path d="M97.45527,15.8801v4.482H95.85642V15.02114c.036-.00292.11224-.01438.18852-.01446,1.00348-.00113,2.0074-.01815,3.01025.007a7.0658,7.0658,0,0,1,1.447.17078,1.24267,1.24267,0,0,1,1.05026,1.26735,1.10413,1.10413,0,0,1-.66629,1.06278,12.778,12.778,0,0,1-1.21129.47016l2.26971,2.30232-.05306.08678c-.62723,0-1.25454.004-1.8816-.00664-.05771-.001-.12093-.08915-.1696-.14694-.55183-.65527-1.09356-1.31932-1.65726-1.96416a.35059.35059,0,0,1-.08564-.43668c.155-.39507.35416-.64882.83243-.62492a1.171,1.171,0,0,0,.636-.19575.63135.63135,0,0,0,.28309-.43662.57267.57267,0,0,0-.27458-.43954,3.17188,3.17188,0,0,0-.93622-.23356C98.26441,15.851,97.88392,15.8801,97.45527,15.8801Z"/>
      <path d="M50.82428,15.01461h1.49a1.20745,1.20745,0,0,1,.02712.17948c.00133.75908.01272,1.51843-.00281,2.27721a2.89288,2.89288,0,0,1-3.01952,3.02654,3.76493,3.76493,0,0,1-1.5904-.26443,2.23382,2.23382,0,0,1-1.44939-2.0765c-.04917-1.03549-.01108-2.07513-.01108-3.132h1.50707c0,.27467-.00358.54323.00067.81166.01286.81236-.00965,1.62774.05494,2.43608a1.2335,1.2335,0,0,0,1.10032,1.224,1.44673,1.44673,0,0,0,1.64393-.8114,2.82229,2.82229,0,0,0,.23328-.99026c.03474-.78472.01409-1.5719.01579-2.35808C50.82446,15.23927,50.82428,15.14157,50.82428,15.01461Z"/>
      <path d="M35.32294,15.01764h5.15968v.83948H36.96024v1.20679h2.74517v.77257H36.948v1.66387h3.5293v.86052H35.32294Z"/>
      <path d="M70.1583,20.35358V15.0224H75.32v.83773H71.793v1.20811h2.74961v.76111H71.78442v1.67558h3.53026v.84865Z"/>
      <path d="M95.23837,15.02315v.83571H91.70774v1.20755h2.74773v.77244H91.69763V19.503H95.2275v.84973H90.072V15.02315Z"/>
      <path d="M117.31084,15.01687h5.15824v.83807H118.95v1.20583h2.742v.77274h-2.74992v1.67427h3.5216v.852h-5.15285Z"/>
      <path d="M108.91345,15.0059c-.12923.37554-.23565.718-.364,1.05195a21.952,21.952,0,0,1-1.98348,3.99294.58448.58448,0,0,1-.60614.33146,5.44061,5.44061,0,0,0-.92064-.00149.51678.51678,0,0,1-.51474-.25269,16.661,16.661,0,0,1-2.33926-4.79592c-.02759-.09355-.03961-.19169-.06308-.3087h1.72952a14.03179,14.03179,0,0,0,1.73815,4.01072c.10676-.16068.20612-.2924.28692-.43467a15.25392,15.25392,0,0,0,1.463-3.39658c.04245-.15086.1004-.20384.25569-.20031C108.01778,15.0122,108.44056,15.0059,108.91345,15.0059Z"/>
      <path d="M29.78631,20.34223v-.816c.10454-.00475.19962-.0125.29473-.01284.66859-.00238,1.33732.00358,2.00572-.00883a1.974,1.974,0,0,0,.58375-.09459.48262.48262,0,0,0,.16269-.85723,1.935,1.935,0,0,0-.54611-.286c-.599-.22527-1.20862-.42252-1.80481-.6546a1.08775,1.08775,0,0,1-.80542-.98644,1.24577,1.24577,0,0,1,.66095-1.136,3.1318,3.1318,0,0,1,1.62148-.46447c.8208-.02621,1.64307-.00669,2.48729-.00669v.85062c-.60938,0-1.212-.00535-1.81453.00243a6.7972,6.7972,0,0,0-.80856.05525c-.23215.03093-.4511.1209-.48147.39594-.03008.27248.16221.41733.37712.50247.37676.14928.77068.25556,1.14633.4073a9.37248,9.37248,0,0,1,1.15078.53191,1.23774,1.23774,0,0,1,.66625,1.23947,1.20482,1.20482,0,0,1-.896,1.10677,3.85281,3.85281,0,0,1-1.0533.22121C31.76009,20.36177,30.78548,20.34223,29.78631,20.34223Z"/>
      <path d="M75.85412,20.34246v-.81672c.10527-.0046.20051-.012.29578-.01239.6686-.00235,1.33733.00362,2.00572-.00886a1.96427,1.96427,0,0,0,.58363-.09513.48479.48479,0,0,0,.16119-.85909,1.49564,1.49564,0,0,0-.44668-.24445c-.50778-.18661-1.02292-.35311-1.53187-.53663a3.80528,3.80528,0,0,1-.56794-.25165,1.08116,1.08116,0,0,1-.22366-1.81134,2.32452,2.32452,0,0,1,1.52112-.63368c.94514-.044,1.89381-.01205,2.86319-.01205v.8087c-.62033,0-1.23216-.00467-1.84386.00226a6.39037,6.39037,0,0,0-.75477.05073c-.24124.03155-.47517.1134-.5061.40221-.03061.28567.17913.42556.4025.5131.369.14462.75461.24717,1.12187.39556a9.34381,9.34381,0,0,1,1.15058.53231,1.23717,1.23717,0,0,1,.6649,1.24012,1.20547,1.20547,0,0,1-.89734,1.10585,3.858,3.858,0,0,1-1.0534.22086C77.82608,20.362,76.85167,20.34246,75.85412,20.34246Z"/>
      <path d="M84.535,20.34182v-.815c.10252-.00493.19727-.01311.29205-.01346.66859-.00242,1.33729.00251,2.00574-.00826a2.48079,2.48079,0,0,0,.55982-.082.45082.45082,0,0,0,.36916-.38626.49086.49086,0,0,0-.21545-.51985,2.89751,2.89751,0,0,0-.53281-.25806c-.5913-.2201-1.19157-.41666-1.77931-.64559a1.09018,1.09018,0,0,1-.808-.98459,1.241,1.241,0,0,1,.6583-1.13707A2.72273,2.72273,0,0,1,86.49,15.052c.89916-.02349,1.79939-.00663,2.71373-.00663v.82382c-.5789,0-1.14512-.00588-1.71115.00236a8.925,8.925,0,0,0-.91705.05517c-.23226.02745-.45162.11882-.48417.39307-.03235.27249.15877.41966.374.50413.41928.16454.85472.28814,1.273.45493a7.61993,7.61993,0,0,1,1.02479.483,1.24761,1.24761,0,0,1,.66855,1.23906,1.20363,1.20363,0,0,1-.89343,1.10864,3.84163,3.84163,0,0,1-1.05307.222C86.51177,20.36142,85.53678,20.34182,84.535,20.34182Z"/>
      <path d="M123.007,20.34262v-.8298c.10648,0,.2015.00016.29653,0,.6686-.00131,1.33733.0042,2.00572-.00834a1.95687,1.95687,0,0,0,.58354-.09551.48484.48484,0,0,0,.15943-.85944,1.50076,1.50076,0,0,0-.44693-.24411c-.5078-.18653-1.02319-.35236-1.53183-.53675a3.72217,3.72217,0,0,1-.59084-.266,1.0492,1.0492,0,0,1-.22751-1.74795,2.98523,2.98523,0,0,1,1.05162-.57321,4.26657,4.26657,0,0,1,1.173-.1673c.6948-.02508,1.39116-.00716,2.08687-.00651a.82644.82644,0,0,1,.101.01488v.84661c-.63061,0-1.25161-.00558-1.87243.00266a5.70738,5.70738,0,0,0-.78094.0602c-.222.03379-.42632.13056-.45309.39328a.45236.45236,0,0,0,.33338.47427c.39346.15559.80176.27407,1.19352.43344a9.48458,9.48458,0,0,1,1.15031.53294,1.23677,1.23677,0,0,1,.66391,1.24059,1.20588,1.20588,0,0,1-.89826,1.10517,3.86167,3.86167,0,0,1-1.05348.22061C124.97767,20.36212,124.00339,20.34262,123.007,20.34262Z"/>
      <path d="M45.65086,19.50792v.871a13.37681,13.37681,0,0,1-2.975-.16131,2.56927,2.56927,0,0,1-2.06161-2.20443,2.6741,2.6741,0,0,1,1.76152-2.68375,4.56211,4.56211,0,0,1,1.28353-.29678c.64612-.04923,1.29877-.01277,1.97029-.01277v.84933c-.221,0-.43537-.00036-.64976.00008-.40663.00083-.81355-.00722-1.21984.00521a1.38307,1.38307,0,0,0-1.4236,1.16479,1.86587,1.86587,0,0,0,1.94438,2.46833C44.73081,19.50977,45.18091,19.50792,45.65086,19.50792Z"/>
      <path d="M116.61461,15.00586v.8633c-.12233,0-.23576-.00246-.34905.00041-.62215.01576-1.24771-.00165-1.86533.06007a1.18321,1.18321,0,0,0-1.02652.88814,1.88711,1.88711,0,0,0,1.89257,2.69152c.442-.0086.8843-.00137,1.34938-.00137v.86969a10.34954,10.34954,0,0,1-3.28832-.26133,2.49079,2.49079,0,0,1-1.74243-2.16988,2.67967,2.67967,0,0,1,1.699-2.59458,4.45178,4.45178,0,0,1,1.22686-.30263c.59134-.05731,1.19061-.03309,1.7865-.04311C116.39489,15.00445,116.49259,15.00586,116.61461,15.00586Z"/>
      <path d="M63.6304,20.35691V15.88016H61.89466v-.85191h5.20027v.82551H65.27667v4.50315Z"/>
      <path d="M59.63733,15.01881h1.62461V20.361H59.63733Z"/>
      <path d="M69.34677,20.364H67.72218V15.022h1.62459Z"/>
      <path d="M110.96473,20.36089h-1.62461V15.02826h1.62477C110.96473,16.79984,110.96473,18.57144,110.96473,20.36089Z"/>
    </g>
  </g>
</svg>
