<svg xmlns="http://www.w3.org/2000/svg" width="190.875" height="24" viewBox="0 0 190.875 24">
  <defs>
    <style>
      .a, .b {
        fill: #fff;
      }

      .b {
        opacity: 0.5;
      }
    </style>
  </defs>
  <title>boerse-stuttgart-white</title>
  <g>
    <path class="a" d="M20.43513,6.2625v14.025h7.7625a5.66813,5.66813,0,0,0,3.5625-.9375,3.52725,3.52725,0,0,0,1.1625-2.8875,3.53125,3.53125,0,0,0-.525-1.95,3.42627,3.42627,0,0,0-1.6125-1.2375,3.74573,3.74573,0,0,0,1.575-1.35,3.559,3.559,0,0,0,.525-1.9875,3.7653,3.7653,0,0,0-.4125-1.7625,3.31173,3.31173,0,0,0-1.1625-1.2375,3.77618,3.77618,0,0,0-1.425-.4875,12.95707,12.95707,0,0,0-2.2125-.1875Zm78.7125,0a5.62287,5.62287,0,0,0-3.75,1.05,4.13232,4.13232,0,0,0-1.2,3.2625,3.91039,3.91039,0,0,0,1.125,3.075,5.54507,5.54507,0,0,0,3.6.9375h2.775a2.56614,2.56614,0,0,1,1.6125.375,1.48508,1.48508,0,0,1,.4875,1.2375,1.479,1.479,0,0,1-.525,1.2375,3.42219,3.42219,0,0,1-1.8.3375h-6.675v2.5125h7.1625a5.77309,5.77309,0,0,0,3.75-1.0125,3.93175,3.93175,0,0,0,1.2-3.1875,3.86534,3.86534,0,0,0-1.05-3.0375,5.1945,5.1945,0,0,0-3.45-.9375h-3.225a2.09865,2.09865,0,0,1-1.3875-.375,1.34942,1.34942,0,0,1-.4875-1.125,1.61244,1.61244,0,0,1,.5625-1.3875,2.63463,2.63463,0,0,1,1.725-.45h6.6V6.2625Zm11.1375,0v3.75h-1.9125v2.025h1.9125v5.025a3.33018,3.33018,0,0,0,.7875,2.4,3.15153,3.15153,0,0,0,2.325.825h2.5125V18.225h-1.125a1.86033,1.86033,0,0,1-1.3875-.4125,2.46632,2.46632,0,0,1-.375-1.6125V12.0375h2.8875v-2.025h-2.8875v-3.75Zm21.75,0v3.75h-1.9125v2.025h1.9125v5.025a3.34266,3.34266,0,0,0,.825,2.4,3.15161,3.15161,0,0,0,2.325.825h2.475V18.225h-1.125a1.75915,1.75915,0,0,1-1.35-.4125,2.4538,2.4538,0,0,1-.4125-1.6125V12.0375h2.88749v-2.025h-2.88749v-3.75Zm9.1875,0v3.75h-1.95v2.025h1.95v5.025a3.33665,3.33665,0,0,0,.7875,2.4,3.14921,3.14921,0,0,0,2.325.825h2.5125V18.225h-1.125a1.858,1.858,0,0,1-1.3875-.4125,2.46643,2.46643,0,0,1-.375-1.6125V12.0375h2.88751v-2.025h-2.88751v-3.75Zm44.025,0v3.75h-1.9125v2.025h1.9125v5.025a3.33014,3.33014,0,0,0,.7875,2.4,3.14693,3.14693,0,0,0,2.325.825h2.5125V18.225h-1.125a1.85577,1.85577,0,0,1-1.3875-.4125,2.47544,2.47544,0,0,1-.375-1.6125V12.0375h2.8875v-2.025h-2.8875v-3.75Zm-161.85,2.55h4.35a2.41061,2.41061,0,0,1,1.4625.375,1.56546,1.56546,0,0,1,.4875,1.2375,1.54673,1.54673,0,0,1-.4875,1.2,2.172,2.172,0,0,1-1.4625.4125h-4.35Zm34.05,1.2v10.275h2.7375v-8.325h.9375a1.76736,1.76736,0,0,1,1.0125.225c.1575.138.18752.3765.1875.7875v1.35h2.625V12.6a2.68548,2.68548,0,0,0-.6375-2.025,3.47825,3.47825,0,0,0-2.2875-.5625Zm12.825,0a4.38845,4.38845,0,0,0-2.775.7875,3.12441,3.12441,0,0,0-.9,2.4375,2.81451,2.81451,0,0,0,.75,2.25,4.55017,4.55017,0,0,0,2.85.6375h2.325a2.18183,2.18183,0,0,1,1.125.2625.86.86,0,0,1,.375.75.88293.88293,0,0,1-.375.75,2.08058,2.08058,0,0,1-1.125.2625h-5.7375v2.1375h7.05a2.59167,2.59167,0,0,0,2.025-.9,3.36843,3.36843,0,0,0,.7875-2.325,2.79185,2.79185,0,0,0-.8625-2.25,3.70838,3.70838,0,0,0-2.5875-.825h-2.475a1.92075,1.92075,0,0,1-1.0125-.1875.80841.80841,0,0,1-.3-.7125.77289.77289,0,0,1,.3375-.7125,3.27823,3.27823,0,0,1,1.5375-.225h4.8375V10.0125Zm13.5375,0a5.49888,5.49888,0,0,0-3.9,1.3125,5.11821,5.11821,0,0,0-1.3125,3.825,5.20892,5.20892,0,0,0,1.3125,3.8625,5.39493,5.39493,0,0,0,3.9,1.275h3.975V18.15h-3.6375a3.338,3.338,0,0,1-1.9875-.4125,1.93647,1.93647,0,0,1-.525-1.5h6.15V14.1h-6.15a2.15269,2.15269,0,0,1,.5625-1.5375,3.38489,3.38489,0,0,1,1.9875-.4125h3.6V10.0125Zm34.575,0v6.525a3.59958,3.59958,0,0,0,1.0125,2.85,4.92878,4.92878,0,0,0,3.3.9h5.1375V10.0125h-2.7375v8.025h-2.2125a2.06793,2.06793,0,0,1-1.425-.375,1.89794,1.89794,0,0,1-.3375-1.35v-6.3Zm35.4375,0a7.52286,7.52286,0,0,0-2.325.3,3.82079,3.82079,0,0,0-1.5375.9,5.01722,5.01722,0,0,0-1.1625,1.725,6.1,6.1,0,0,0-.375,2.25,6.129,6.129,0,0,0,.375,2.2125,4.82306,4.82306,0,0,0,1.1625,1.7625,3.92182,3.92182,0,0,0,1.3875.8625,8.29851,8.29851,0,0,0,2.475.2625h2.25v.1875a1.30574,1.30574,0,0,1-.4125,1.05,1.7816,1.7816,0,0,1-1.2375.4125h-4.875V24h5.3625a3.9942,3.9942,0,0,0,2.9625-.975,4.40734,4.40734,0,0,0,.93749-3.1125v-9.9Zm7.9875,0v2.1h4.575a3.42741,3.42741,0,0,1,1.9125.375,1.49137,1.49137,0,0,1,.5625,1.3125v.225h-3.6a5.30577,5.30577,0,0,0-3.1875.7875,3.0939,3.0939,0,0,0-.9375,2.5125,2.86828,2.86828,0,0,0,.825,2.175,3.318,3.318,0,0,0,2.3625.7875h7.35v-6.45a3.61412,3.61412,0,0,0-1.05-2.85,4.74355,4.74355,0,0,0-3.225-.975Zm12.6,0v10.275h2.7375v-8.325h.975a1.61992,1.61992,0,0,1,.975.225.99343.99343,0,0,1,.225.7875v1.35h2.5875V12.6a2.68536,2.68536,0,0,0-.6375-2.025,3.3657,3.3657,0,0,0-2.25-.5625Zm-20.625,2.2125c.23849-.012.51976,0,.8625,0h1.425V18.15h-1.425a3.983,3.983,0,0,1-2.625-.6375,3.01368,3.01368,0,0,1-.75-2.325,3.85209,3.85209,0,0,1,.3-1.65,2.158,2.158,0,0,1,.9-1.0125,2.36892,2.36892,0,0,1,.75-.225A3.58022,3.58022,0,0,1,153.78513,12.225ZM23.39763,14.5125h4.3875a2.18541,2.18541,0,0,1,1.4625.4125,1.509,1.509,0,0,1,.4875,1.2375,1.53566,1.53566,0,0,1-.4875,1.2375,2.16926,2.16926,0,0,1-1.4625.4125h-4.3875Zm142.2375,1.575h3.225V18.225h-3.4125a2.275,2.275,0,0,1-1.2-.225.85887.85887,0,0,1-.3-.75,1.11694,1.11694,0,0,1,.375-.9A2.54776,2.54776,0,0,1,165.63513,16.0875Z"/>
    <path class="a" d="M40.16013,9.825a5.51315,5.51315,0,0,0-4.0125,1.4625,5.08739,5.08739,0,0,0-1.5,3.8625,5.14439,5.14439,0,0,0,1.5,3.8625,5.58873,5.58873,0,0,0,4.0125,1.4625,5.518,5.518,0,0,0,3.975-1.4625,5.008,5.008,0,0,0,1.4625-3.3,4.91221,4.91221,0,0,0,1.275,3.3,5.39732,5.39732,0,0,0,3.9,1.275h3.975V18.15h-3.6375a3.4905,3.4905,0,0,1-2.025-.4125,1.94208,1.94208,0,0,1-.525-1.5h6.1875V14.1h-6.1875a2.15252,2.15252,0,0,1,.5625-1.5375,3.52091,3.52091,0,0,1,2.025-.4125h3.6V10.0125h-3.975a5.50138,5.50138,0,0,0-3.9,1.3125,4.79455,4.79455,0,0,0-1.275,3.225,4.89421,4.89421,0,0,0-1.4625-3.2625A5.41765,5.41765,0,0,0,40.16013,9.825Zm0,2.2125a2.39929,2.39929,0,0,1,1.9125.825,3.39314,3.39314,0,0,1,.7125,2.2875,3.39314,3.39314,0,0,1-.7125,2.2875,2.36669,2.36669,0,0,1-1.9125.825,2.41325,2.41325,0,0,1-1.95-.825,3.49794,3.49794,0,0,1-.675-2.2875,3.49828,3.49828,0,0,1,.675-2.2875A2.4764,2.4764,0,0,1,40.16013,12.0375Z"/>
    <path class="a" d="M1.23513,0A1.22639,1.22639,0,0,0-.00237,1.2375a1.25658,1.25658,0,0,0,1.2375,1.275,1.29058,1.29058,0,0,0,1.275-1.275A1.26055,1.26055,0,0,0,1.23513,0Zm4.05,0a1.22733,1.22733,0,0,0-1.2375,1.2375,1.25758,1.25758,0,0,0,1.2375,1.275,1.28759,1.28759,0,0,0,1.275-1.275A1.25764,1.25764,0,0,0,5.28513,0Zm4.05,0a1.25859,1.25859,0,0,0-1.275,1.2375,1.275,1.275,0,1,0,2.55,0A1.25955,1.25955,0,0,0,9.33513,0Zm-8.1,4.0125A1.22454,1.22454,0,0,0-.00237,5.25a1.25848,1.25848,0,0,0,1.2375,1.275,1.29259,1.29259,0,0,0,1.275-1.275A1.2586,1.2586,0,0,0,1.23513,4.0125Zm8.1,0A1.25665,1.25665,0,0,0,8.06013,5.25a1.275,1.275,0,0,0,2.55,0A1.2576,1.2576,0,0,0,9.33513,4.0125Zm4.05,0a1.25763,1.25763,0,0,0-1.275,1.2375,1.29155,1.29155,0,0,0,1.275,1.275,1.25947,1.25947,0,0,0,1.2375-1.275A1.2255,1.2255,0,0,0,13.38513,4.0125ZM1.23513,8.025A1.22639,1.22639,0,0,0-.00237,9.2625a1.25658,1.25658,0,0,0,1.2375,1.275,1.29058,1.29058,0,0,0,1.275-1.275A1.26055,1.26055,0,0,0,1.23513,8.025Zm4.05,0a1.22733,1.22733,0,0,0-1.2375,1.2375,1.25758,1.25758,0,0,0,1.2375,1.275,1.28759,1.28759,0,0,0,1.275-1.275A1.25764,1.25764,0,0,0,5.28513,8.025Zm8.1,0a1.25958,1.25958,0,0,0-1.275,1.2375,1.28955,1.28955,0,0,0,1.275,1.275,1.25756,1.25756,0,0,0,1.2375-1.275A1.22736,1.22736,0,0,0,13.38513,8.025Zm-8.1,4.0125a1.22733,1.22733,0,0,0-1.2375,1.2375,1.25949,1.25949,0,0,0,1.2375,1.275,1.28958,1.28958,0,0,0,1.275-1.275A1.25764,1.25764,0,0,0,5.28513,12.0375Zm4.05,0a1.25859,1.25859,0,0,0-1.275,1.2375,1.275,1.275,0,1,0,2.55,0A1.25955,1.25955,0,0,0,9.33513,12.0375Zm4.05,0a1.25958,1.25958,0,0,0-1.275,1.2375,1.29155,1.29155,0,0,0,1.275,1.275,1.25947,1.25947,0,0,0,1.2375-1.275A1.22736,1.22736,0,0,0,13.38513,12.0375Z"/>
    <path class="b" d="M13.38513,0a1.2586,1.2586,0,0,0-1.275,1.2375,1.29155,1.29155,0,0,0,1.275,1.275,1.25849,1.25849,0,0,0,1.2375-1.275A1.2255,1.2255,0,0,0,13.38513,0Zm-8.1,4.0125A1.2264,1.2264,0,0,0,4.04763,5.25a1.25853,1.25853,0,0,0,1.2375,1.275,1.28958,1.28958,0,0,0,1.275-1.275A1.25763,1.25763,0,0,0,5.28513,4.0125Zm4.05,4.0125a1.25859,1.25859,0,0,0-1.275,1.2375,1.275,1.275,0,0,0,2.55,0A1.25957,1.25957,0,0,0,9.33513,8.025Zm-8.1,4.0125A1.22639,1.22639,0,0,0-.00237,13.275a1.25848,1.25848,0,0,0,1.2375,1.275,1.29259,1.29259,0,0,0,1.275-1.275A1.26055,1.26055,0,0,0,1.23513,12.0375Z"/>
  </g>
</svg>
