<svg xmlns="http://www.w3.org/2000/svg" width="51.0957" height="24" viewBox="0 0 51.0957 24">
  <defs>
    <style>
      .a {
        fill: #f00000;
      }
    </style>
  </defs>
  <title>bx-swiss</title>
  <g>
    <g>
      <path class="a" d="M28.23242,10V2.8418H30.918a3.326,3.326,0,0,1,1.31592.21728,1.69046,1.69046,0,0,1,.77636.669,1.76431,1.76431,0,0,1,.28077.94482,1.62343,1.62343,0,0,1-.249.86426,1.77657,1.77657,0,0,1-.752.6543,1.87,1.87,0,0,1,.99853.64941,1.738,1.738,0,0,1,.34913,1.084,2.09115,2.09115,0,0,1-.21241.93506,1.80862,1.80862,0,0,1-.5249.66651,2.19466,2.19466,0,0,1-.78369.354A4.76212,4.76212,0,0,1,30.96191,10Zm.94727-4.15039h1.54785a3.44936,3.44936,0,0,0,.90332-.083,1.00419,1.00419,0,0,0,.54443-.35644,1.02664,1.02664,0,0,0,.18311-.625,1.15276,1.15276,0,0,0-.1709-.62745.86464.86464,0,0,0-.48828-.37109,4.08146,4.08146,0,0,0-1.08887-.1001H29.17969Zm0,3.30566h1.78222a4.10918,4.10918,0,0,0,.64454-.03418,1.5446,1.5446,0,0,0,.54687-.19531,1.03576,1.03576,0,0,0,.36133-.39795,1.24735,1.24735,0,0,0,.1416-.603,1.18985,1.18985,0,0,0-.20508-.6958,1.08113,1.08113,0,0,0-.56885-.415A3.52585,3.52585,0,0,0,30.835,6.69434H29.17969Z"/>
      <path class="a" d="M33.438,10l2.76855-3.73047L33.76514,2.8418h1.12793l1.29882,1.83593a10.44377,10.44377,0,0,1,.57618.87891,9.33242,9.33242,0,0,1,.5664-.81543L38.7749,2.8418h1.03028l-2.51465,3.374L40.00049,10H38.82861L37.02686,7.44629q-.15162-.21973-.3125-.47852-.2395.39075-.3418.53711L34.57568,10Z"/>
      <path class="a" d="M27.94922,18.2002l.89355-.07813a1.97387,1.97387,0,0,0,.29541.88135,1.61261,1.61261,0,0,0,.72022.55664,2.72859,2.72859,0,0,0,1.09863.2124,2.63319,2.63319,0,0,0,.957-.16113,1.3286,1.3286,0,0,0,.61768-.4419,1.02392,1.02392,0,0,0,.20264-.61279.93029.93029,0,0,0-.19532-.58838,1.4486,1.4486,0,0,0-.64453-.42236,12.56895,12.56895,0,0,0-1.27441-.34912A6.48923,6.48923,0,0,1,29.23828,16.75a1.939,1.939,0,0,1-.76416-.6665,1.63486,1.63486,0,0,1-.25146-.89112,1.81892,1.81892,0,0,1,.30761-1.01318,1.904,1.904,0,0,1,.89844-.71533,3.40231,3.40231,0,0,1,1.31348-.24414,3.58788,3.58788,0,0,1,1.40381.25634,2.02548,2.02548,0,0,1,.935.7544,2.16376,2.16376,0,0,1,.35157,1.12793l-.90821.06836a1.464,1.464,0,0,0-.4956-1.02539,1.93005,1.93005,0,0,0-1.24756-.34668,2.00271,2.00271,0,0,0-1.25244.31494.94383.94383,0,0,0-.39307.75928.81376.81376,0,0,0,.27832.63476,3.77184,3.77184,0,0,0,1.42823.51026,9.44672,9.44672,0,0,1,1.58447.45654,2.17213,2.17213,0,0,1,.92285.73,1.77641,1.77641,0,0,1,.29785,1.01807,1.94579,1.94579,0,0,1-.32715,1.07666,2.153,2.153,0,0,1-.93994.78613,3.27712,3.27712,0,0,1-1.37939.28076,4.11592,4.11592,0,0,1-1.62842-.2832,2.27978,2.27978,0,0,1-1.03027-.852A2.41762,2.41762,0,0,1,27.94922,18.2002Z"/>
      <path class="a" d="M35.291,20.5,33.7041,15.31445h.9082l.8252,2.99317.30762,1.11328q.01977-.08277.26855-1.06934l.8252-3.03711h.90332l.77636,3.00782.25879.99121.29786-1.001.88867-2.998h.85449L39.19727,20.5h-.91309l-.8252-3.10547-.20019-.88379L36.209,20.5Z"/>
      <path class="a" d="M41.01563,14.35254V13.3418h.8789v1.01074Zm0,6.14746V15.31445h.8789V20.5Z"/>
      <path class="a" d="M42.30811,18.95215l.86914-.13672a1.21444,1.21444,0,0,0,.40771.80078,1.42134,1.42134,0,0,0,.93506.27832,1.37251,1.37251,0,0,0,.89844-.24658.73789.73789,0,0,0,.293-.57861.53378.53378,0,0,0-.25879-.46875,3.82284,3.82284,0,0,0-.89844-.29786,8.19792,8.19792,0,0,1-1.34033-.42236,1.27926,1.27926,0,0,1-.75928-1.189,1.33362,1.33362,0,0,1,.15869-.64209,1.42926,1.42926,0,0,1,.43213-.49073,1.806,1.806,0,0,1,.55908-.25634,2.66414,2.66414,0,0,1,.75928-.105,3.00188,3.00188,0,0,1,1.07178.17578,1.45778,1.45778,0,0,1,.68115.47607,1.85742,1.85742,0,0,1,.30273.80322l-.85937.11719a.94061.94061,0,0,0-.33936-.625,1.24,1.24,0,0,0-.79345-.22461,1.43741,1.43741,0,0,0-.86426.2002.58283.58283,0,0,0-.25879.46875.48482.48482,0,0,0,.10742.30761.77971.77971,0,0,0,.33692.23438q.13184.04907.77636.22461a10.77776,10.77776,0,0,1,1.30127.40771,1.3244,1.3244,0,0,1,.57862.46143,1.28685,1.28685,0,0,1,.21.752,1.4756,1.4756,0,0,1-.25635.82764,1.65691,1.65691,0,0,1-.73975.60059,2.69321,2.69321,0,0,1-1.09375.2124,2.43723,2.43723,0,0,1-1.54052-.41992A1.95268,1.95268,0,0,1,42.30811,18.95215Z"/>
      <path class="a" d="M46.78906,18.95215l.86914-.13672a1.21445,1.21445,0,0,0,.40772.80078,1.42133,1.42133,0,0,0,.93506.27832,1.37246,1.37246,0,0,0,.89843-.24658.73786.73786,0,0,0,.293-.57861.53376.53376,0,0,0-.25879-.46875,3.82251,3.82251,0,0,0-.89843-.29786,8.19846,8.19846,0,0,1-1.34034-.42236,1.27928,1.27928,0,0,1-.75927-1.189,1.33362,1.33362,0,0,1,.15869-.64209,1.42926,1.42926,0,0,1,.43213-.49073,1.806,1.806,0,0,1,.55908-.25634,2.66414,2.66414,0,0,1,.75928-.105,3.00182,3.00182,0,0,1,1.07177.17578,1.45776,1.45776,0,0,1,.68116.47607,1.85755,1.85755,0,0,1,.30273.80322l-.85937.11719a.94065.94065,0,0,0-.33936-.625,1.24,1.24,0,0,0-.79346-.22461,1.43737,1.43737,0,0,0-.86425.2002.5828.5828,0,0,0-.25879.46875.48482.48482,0,0,0,.10742.30761.77974.77974,0,0,0,.33691.23438q.13184.04907.77637.22461a10.77837,10.77837,0,0,1,1.30127.40771,1.32437,1.32437,0,0,1,.57861.46143,1.28677,1.28677,0,0,1,.21.752,1.47567,1.47567,0,0,1-.25634.82764,1.65691,1.65691,0,0,1-.73975.60059,2.69324,2.69324,0,0,1-1.09375.2124,2.43728,2.43728,0,0,1-1.54053-.41992A1.95272,1.95272,0,0,1,46.78906,18.95215Z"/>
    </g>
    <path class="a" d="M0,0V24H24V0ZM4.499,19.75a1.25,1.25,0,0,1-.999-2l4.5-6a1.25,1.25,0,0,1,2,1.5l-4.5,6A1.24772,1.24772,0,0,1,4.499,19.75ZM19.5,7.25l-9,12a1.25,1.25,0,1,1-2-1.5l9-12a1.25,1.25,0,0,1,2,1.5Z"/>
  </g>
</svg>
