<svg xmlns="http://www.w3.org/2000/svg" width="78.84647" height="24" viewBox="0 0 78.84647 24">
  <defs>
    <style>
      .a {
        fill: #00704a;
      }
    </style>
  </defs>
  <title>cardano</title>
  <g>
    <path class="a" d="M20.53839,13.70708a1.28748,1.28748,0,0,1-.6029-.796,3.42881,3.42881,0,0,1-.04832-.51782,1.5867,1.5867,0,0,1,.41-1.11724,2.85442,2.85442,0,0,1,1.288-.71436,14.42038,14.42038,0,0,1,2.06876-.41252V13.601a.367.367,0,0,0,.39423.39423h1.77731a.55434.55434,0,0,1-.20038-.45314V8.61478a3.15849,3.15849,0,0,0-.80136-2.46664,3.69813,3.69813,0,0,0-2.57291-.75824,4.53318,4.53318,0,0,0-1.20906.15861,5.96774,5.96774,0,0,0-1.01234.37027c-.29106.1411-.62523.32368-1.10628.548v1.079h.40617a5.03741,5.03741,0,0,1,1.12321-1.05873,2.16564,2.16564,0,0,1,1.181-.32724,2.23227,2.23227,0,0,1,1.25411.355,2.50347,2.50347,0,0,1,.83428.88693,2.16,2.16,0,0,1,.29433,1.05016,1.18748,1.18748,0,0,1-.20732.70492.97417.97417,0,0,1-.63177.37864l-2.46992.46036a4.32214,4.32214,0,0,0-1.42332.59462,2.256,2.256,0,0,0-.77576.87268,2.61953,2.61953,0,0,0-.23793,1.14112,2.29187,2.29187,0,0,0,.44586,1.391H20.6972A.2991.2991,0,0,0,20.53839,13.70708Z"/>
    <path class="a" d="M30.51605,9.23982a3.18574,3.18574,0,0,1,.21174-1.09723,2.49069,2.49069,0,0,1,.63043-.9721,1.42652,1.42652,0,0,1,1.01542-.39462,2.337,2.337,0,0,1,1.06835.308l.154-1.848q-.212-.0192-.29837-.01925a2.50491,2.50491,0,0,0-1.13573.26468,3.1647,3.1647,0,0,0-.93842.71705,4.74161,4.74161,0,0,0-.70742,1.03948V5.3899a2.62453,2.62453,0,0,1-1.54,0v8.60535h1.54Z"/>
    <path class="a" d="M38.32966,13.17743a4.06636,4.06636,0,0,1-.80367-2.85511,7.4522,7.4522,0,0,1,.50049-2.82623A2.19534,2.19534,0,0,1,40.14394,6.1695a.81309.81309,0,0,0,.09143-.00481.93784.93784,0,0,1,.10107-.00481,2.01853,2.01853,0,0,1,2.04527,1.24487,6.93957,6.93957,0,0,1,.53418,2.76367,5.35785,5.35785,0,0,1-.36575,2.08137,17.36555,17.36555,0,0,1-.98654,1.74546h2.98465V0a2.73992,2.73992,0,0,1-.78846.1155A2.77047,2.77047,0,0,1,42.97132,0V6.93862a1.527,1.527,0,0,0-.49336-.77393,3.40278,3.40278,0,0,0-1.13573-.66757,3.84863,3.84863,0,0,0-1.35229-.26122,4.43118,4.43118,0,0,0-1.83352.36093A3.60337,3.60337,0,0,0,36.7945,6.66037a4.75533,4.75533,0,0,0-.83735,1.69878,8.41064,8.41064,0,0,0-.27912,2.26664,4.38265,4.38265,0,0,0,.55824,2.18,4.30649,4.30649,0,0,0,.97128,1.18944h2.01857A9.36916,9.36916,0,0,1,38.32966,13.17743Z"/>
    <path class="a" d="M60.04035,9.39382A3.82484,3.82484,0,0,1,60.382,7.71429,2.5171,2.5171,0,0,1,61.282,6.65075a2.14945,2.14945,0,0,1,1.17423-.35612,2.01617,2.01617,0,0,1,1.55441.72667,2.99493,2.99493,0,0,1,.64967,2.06452v4.90943h1.694V9.08582a5.33136,5.33136,0,0,0-.4283-2.28108A2.88766,2.88766,0,0,0,64.795,5.491a2.97132,2.97132,0,0,0-1.52072-.40906,3.76846,3.76846,0,0,0-1.2416.18768,3.15575,3.15575,0,0,0-.90955.47643,3.69966,3.69966,0,0,0-.563.51974q-.19259.231-.51974.66412V5.2359a3.16331,3.16331,0,0,1-1.694,0v8.75935h1.694Z"/>
    <path class="a" d="M71.62208,12.98387a5.28936,5.28936,0,0,1-.61984-2.35808q-.01933-.2694-.01925-.40424a5.242,5.242,0,0,1,.836-2.94038,2.57792,2.57792,0,0,1,2.25817-1.27529,2.54209,2.54209,0,0,1,1.63371.51974,3.05472,3.05472,0,0,1,.97038,1.46779,6.82894,6.82894,0,0,1,.31723,2.17039,5.50372,5.50372,0,0,1-.94169,3.08957,2.80515,2.80515,0,0,1-.84416.74188h1.82252a3.91651,3.91651,0,0,0,.691-.67451,5.00231,5.00231,0,0,0,.851-1.54478,5.10339,5.10339,0,0,0,.26931-1.61216,6.24487,6.24487,0,0,0-.39424-1.98271,4.74517,4.74517,0,0,0-1.43275-2.04527A4.11057,4.11057,0,0,0,74.231,5.2359,5.31348,5.31348,0,0,0,71.5574,5.9a4.5049,4.5049,0,0,0-1.795,1.85759,5.74453,5.74453,0,0,0-.62735,2.7142,4.64553,4.64553,0,0,0,.55516,2.26664,3.97213,3.97213,0,0,0,1.07756,1.25681h1.85386A2.22366,2.22366,0,0,1,71.62208,12.98387Z"/>
    <path class="a" d="M49.90544,13.70708a1.28744,1.28744,0,0,1-.6029-.796,3.42881,3.42881,0,0,1-.04832-.51782,1.5867,1.5867,0,0,1,.41-1.11724,2.85442,2.85442,0,0,1,1.288-.71436,14.42038,14.42038,0,0,1,2.06876-.41252V13.601a.367.367,0,0,0,.39423.39423h1.77731a.55431.55431,0,0,1-.20038-.45314V8.61478a3.15849,3.15849,0,0,0-.80136-2.46664,3.69813,3.69813,0,0,0-2.57291-.75824,4.53331,4.53331,0,0,0-1.20907.15861,5.96793,5.96793,0,0,0-1.01233.37027c-.29106.1411-.62523.32368-1.10628.548v1.079h.40617a5.0372,5.0372,0,0,1,1.12321-1.05873,2.16562,2.16562,0,0,1,1.181-.32724,2.23227,2.23227,0,0,1,1.25411.355,2.50347,2.50347,0,0,1,.83428.88693,2.16,2.16,0,0,1,.29433,1.05016,1.18748,1.18748,0,0,1-.20732.70492.9742.9742,0,0,1-.63178.37864l-2.46991.46036a4.32214,4.32214,0,0,0-1.42332.59462,2.256,2.256,0,0,0-.77576.87268,2.61953,2.61953,0,0,0-.23793,1.14112,2.29187,2.29187,0,0,0,.44586,1.391h1.98114A.2991.2991,0,0,0,49.90544,13.70708Z"/>
    <path d="M16.952,5.76659V.06884A13.79882,13.79882,0,0,0,4.57258,12.81255H0V13.601H9.8583A7.98224,7.98224,0,0,1,16.952,5.76659Z"/>
    <path class="a" d="M8.08176,13.4039V13.601H7.69251c-.00125.06581-.005.131-.005.19711A10.25026,10.25026,0,0,0,16.952,24V20.62674a6.99682,6.99682,0,0,1,0-13.85434V3.77994a9.65748,9.65748,0,0,0-8.87023,9.624q0,.09877.002.1971"/>
  </g>
</svg>
