<svg xmlns="http://www.w3.org/2000/svg" width="85.60682" height="24" viewBox="0 0 85.60682 24">
  <defs>
    <style>
      .a {
        opacity: 0.5;
      }

      .b {
        fill: #fff;
      }
    </style>
  </defs>
  <title>cats-white</title>
  <g>
    <g class="a">
      <path class="b" d="M3.01848,16.1806A1.50924,1.50924,0,1,1,1.511,14.67135,1.50687,1.50687,0,0,1,3.01848,16.1806"/>
      <path class="b" d="M12.80061,11.29011a1.50924,1.50924,0,1,1-1.50745-1.50924,1.50573,1.50573,0,0,1,1.50745,1.50924"/>
      <path class="b" d="M7.90959,6.39963A1.50924,1.50924,0,1,1,6.40214,4.89039,1.50516,1.50516,0,0,1,7.90959,6.39963"/>
      <path class="b" d="M17.69163,1.50924A1.50924,1.50924,0,1,1,16.18418.00179a1.51052,1.51052,0,0,1,1.50745,1.50745"/>
    </g>
    <g>
      <path class="b" d="M17.69163,16.18a1.50924,1.50924,0,1,1-1.50745-1.50745A1.51052,1.51052,0,0,1,17.69163,16.18"/>
      <path class="b" d="M7.90959,16.1806a1.50924,1.50924,0,1,1-1.50745-1.50925A1.50573,1.50573,0,0,1,7.90959,16.1806"/>
      <path class="b" d="M12.80061,16.1806a1.50924,1.50924,0,1,1-1.50745-1.50925,1.50573,1.50573,0,0,1,1.50745,1.50925"/>
      <path class="b" d="M3.01848,11.29011A1.50924,1.50924,0,1,1,1.511,9.78087a1.50686,1.50686,0,0,1,1.50745,1.50924"/>
      <path class="b" d="M17.69163,11.29011a1.50924,1.50924,0,1,1-1.50745-1.50745,1.51032,1.51032,0,0,1,1.50745,1.50745"/>
      <path class="b" d="M7.90959,11.29011A1.50925,1.50925,0,1,1,6.40214,9.78087a1.50574,1.50574,0,0,1,1.50745,1.50924"/>
      <path class="b" d="M3.01848,6.39963A1.50924,1.50924,0,1,1,1.511,4.89039,1.50629,1.50629,0,0,1,3.01848,6.39963"/>
      <path class="b" d="M17.69163,6.39963a1.50924,1.50924,0,1,1-1.50745-1.50745,1.50974,1.50974,0,0,1,1.50745,1.50745"/>
      <path class="b" d="M12.80061,6.39963a1.50925,1.50925,0,1,1-1.50745-1.50924,1.50516,1.50516,0,0,1,1.50745,1.50924"/>
      <path class="b" d="M3.01848,1.50924A1.50924,1.50924,0,1,1,1.511,0,1.50706,1.50706,0,0,1,3.01848,1.50924"/>
      <path class="b" d="M7.90959,1.50924A1.50924,1.50924,0,1,1,6.40214,0,1.50593,1.50593,0,0,1,7.90959,1.50924"/>
      <path class="b" d="M12.80061,1.50924A1.50924,1.50924,0,1,1,11.29316,0a1.50593,1.50593,0,0,1,1.50745,1.50924"/>
      <path class="b" d="M37.733,8.7514v3.25646H32.72329a4.75833,4.75833,0,0,0-3.39736,1.01734,4.44852,4.44852,0,0,0-1.04879,3.30331,4.30514,4.30514,0,0,0,1.174,3.36623,5.52549,5.52549,0,0,0,3.74171,1.04879H37.733V24H32.00312a11.34535,11.34535,0,0,1-3.63194-.46985,7.43053,7.43053,0,0,1-2.86526-2.14476q-1.519-1.67459-1.5183-5.15058,0-3.97612,1.65919-5.3855a8.1341,8.1341,0,0,1,2.92784-1.75356,13.60805,13.60805,0,0,1,3.42847-.34435Z"/>
      <path class="b" d="M51.5098,14.70045v-.24764a2.28518,2.28518,0,0,0-.68905-1.91854,4.323,4.323,0,0,0-2.50484-.52641H41.23976V8.7514h7.07615a17.06206,17.06206,0,0,1,3.97663.31323,3.93062,3.93062,0,0,1,1.95669,1.28371,5.49138,5.49138,0,0,1,1.14316,2.08219,11.45834,11.45834,0,0,1,.3129,2.99008V24H46.87558a28.423,28.423,0,0,1-3.397-.12583,5.18435,5.18435,0,0,1-2.08218-1.03674q-1.25294-.91058-1.25259-3.39267a5.1343,5.1343,0,0,1,.75162-2.796,3.53319,3.53319,0,0,1,1.941-1.57117,12.47574,12.47574,0,0,1,3.53824-.37715Zm0,3.25646H45.96768q-1.56617,0-1.56549,1.42494a1.13014,1.13014,0,0,0,.51636,1.04511,3.50334,3.50334,0,0,0,1.73784.31657H51.5098Z"/>
      <path class="b" d="M60.71464,8.7514V3.08412h4.19549V8.7514h3.8826v3.25646h-3.8826v5.54179a5.14583,5.14583,0,0,0,.423,2.58315,2.08775,2.08775,0,0,0,1.80007.61073h1.65953V24H65.75579q-2.78745,0-3.91405-1.28405-1.12694-1.283-1.1271-4.44614V12.00786H58.05318V8.7514Z"/>
    </g>
    <path class="b" d="M84.91811,8.7514v3.25646H77.46582a4.29161,4.29161,0,0,0-1.863.263,1.13165,1.13165,0,0,0-.45379,1.06853,1.23078,1.23078,0,0,0,.54782,1.17663,5.04239,5.04239,0,0,0,2.17622.30955h2.47339a5.9643,5.9643,0,0,1,3.8826,1.13111,3.94964,3.94964,0,0,1,1.37775,3.236,5.452,5.452,0,0,1-.68871,2.6869,3.72876,3.72876,0,0,1-1.65952,1.68027A9.65329,9.65329,0,0,1,79.72035,24H71.04726V20.74353H80.472A1.14692,1.14692,0,0,0,81.505,19.44811a1.29723,1.29723,0,0,0-.5167-1.21478,4.43109,4.43109,0,0,0-2.01927-.30787H76.4013a11.19489,11.19489,0,0,1-2.3325-.18674,3.91741,3.91741,0,0,1-1.56549-.76467,4.20793,4.20793,0,0,1-1.20574-1.60732,5.20384,5.20384,0,0,1-.46951-2.18425q0-2.37132,1.14283-3.24509A5.21522,5.21522,0,0,1,73.8496,8.90734a10.87091,10.87091,0,0,1,2.11331-.15594Z"/>
  </g>
</svg>
