<svg xmlns="http://www.w3.org/2000/svg" width="24" height="24" viewBox="0 0 24 24">
  <defs>
    <style>
      .a {
        fill: #fff;
      }
    </style>
  </defs>
  <title>go-fast-forward-white</title>
  <g>
    <path class="a" d="M5.8449,18.48329l-.16327.15452a.79841.79841,0,0,0-.08979-.11507c-.05878-.06082-.12408-.06411-.20408.01479l-.06041.05754.14367.15123-.16326.16439-.14368-.14959-.6302.60657L4.35429,19.177l.62857-.60658-.09959-.10521.16326-.16438.09959.10356.06857-.06575a.32546.32546,0,0,1,.51755,0A.78972.78972,0,0,1,5.8449,18.48329Z"/>
    <path class="a" d="M6.05714,19.24767l-.17959.21041a.41711.41711,0,0,0-.05388-.0526.26148.26148,0,0,0-.27591-.0526l-.46694.52438-.19592-.17753.73469-.82192.17959.16438-.10938.12329a.35558.35558,0,0,1,.34449.0526A.28714.28714,0,0,1,6.05714,19.24767Z"/>
    <path class="a" d="M6.58449,20.17151l-.191.25972a.366.366,0,0,1-.578.08877.3696.3696,0,0,1-.08163-.58192l.191-.25972a.366.366,0,0,1,.57632-.09042.37127.37127,0,0,1,.08327.58357Zm-.44082-.34521-.20571.27945c-.06857.0937-.062.17589.01469.23178s.15511.03946.22368-.0526l.20734-.28274a.14587.14587,0,0,0-.01632-.22685A.14342.14342,0,0,0,6.14367,19.8263Z"/>
    <path class="a" d="M8.0098,20.96055l-.35755.65753L7.422,21.48986,7.7649,20.857c.06041-.11014.04735-.16439,0-.19233a.24514.24514,0,0,0-.22041.03288l-.35918.65753-.23184-.12658.34449-.63287c.06041-.11178.04735-.16439,0-.19233a.23863.23863,0,0,0-.21714.03287l-.35919.65754-.23183-.12822.529-.96986.21224.11671-.07184.13315a.32466.32466,0,0,1,.32654-.02137.24715.24715,0,0,1,.13061.28932.33762.33762,0,0,1,.34285-.02959C8.10286,20.5726,8.13551,20.73041,8.0098,20.96055Z"/>
    <path class="a" d="M9.342,21.07562l.34939.11013-.07184.22028-.16326-.06082a.44686.44686,0,0,1-.018.16438l-.01143.03616a.35117.35117,0,0,1-.4898.20548.65038.65038,0,0,1-.12408-.05589.08516.08516,0,0,0-.05551.05261v.00986c-.00979.03123,0,.051.05714.07562l.27592.11178a.2568.2568,0,0,1,.16547.32213l-.0022.00664-.02612.0789c-.05878.18411-.1747.25644-.55184.13315a1.65782,1.65782,0,0,1-.32653-.16438L8.431,22.103a1.42832,1.42832,0,0,0,.31184.16439c.20408.0674.23347.04931.258-.02466v-.01315a.07252.07252,0,0,0-.03839-.09471L8.9502,22.131l-.29714-.11671a.22519.22519,0,0,1-.16326-.286l.01306-.0411a.23064.23064,0,0,1,.16326-.13972.41361.41361,0,0,1,.0098-.29261l.01469-.04274a.3499.3499,0,0,1,.4898-.22191A.50971.50971,0,0,1,9.342,21.07562Zm-.40326.21534-.02123.06575c-.03592.11014-.01959.14137.07674.17425a.13019.13019,0,0,0,.1757-.05739.13247.13247,0,0,0,.01042-.02809l.01632-.05261A.3307.3307,0,0,0,9.218,21.263a.3259.3259,0,0,0-.10612-.05589.12373.12373,0,0,0-.16491.0604A.12513.12513,0,0,0,8.93878,21.291Z"/>
    <path class="a" d="M10.54367,21.76931l-.06694.31562a.41149.41149,0,1,1-.815-.11429.41631.41631,0,0,1,.0101-.05009l.0653-.31562a.41156.41156,0,1,1,.80653.16438Zm-.5453-.12822-.07184.34192c-.02286.11343.018.18411.111.20384s.16327-.02959.18123-.143l.06693-.34521c.02286-.11342-.02122-.18082-.111-.20055S10.02122,21.53425,9.99837,21.64109Z"/>
    <path class="a" d="M11.61959,21.88932l-.031.32876a.41144.41144,0,1,1-.82272-.0148.41786.41786,0,0,1,.00639-.06575l.031-.32876a.41143.41143,0,1,1,.81632.08055Zm-.55347-.0674-.03428.34685c-.01143.11507.03592.18246.13061.19068s.15347-.046.16326-.16438l.03429-.35014c.01143-.11507-.03918-.17753-.13224-.18575S11.07592,21.70685,11.06612,21.82192Z"/>
    <path class="a" d="M12.70041,22.606h-.24653v-.16439a.34936.34936,0,0,1-.27919.189c-.17795,0-.28408-.11342-.28571-.37479v-.39452c0-.25151.10776-.38959.29878-.39123a.40334.40334,0,0,1,.24489.097V21.051h.26286Zm-.5551-.71014v.32877c0,.12657.04081.16438.09795.16438s.13062-.05425.18613-.15287v-.45206a.267.267,0,0,0-.16327-.07726C12.18939,21.71836,12.14531,21.766,12.14531,21.89589Z"/>
    <path class="a" d="M13.67837,21.388l.26939-.0411.03428.22685-.26939.0411.07837.52767c.01469.09863.05878.12986.14041.11835a.9064.9064,0,0,0,.178-.051l.04081.22685a1.02861,1.02861,0,0,1-.20571.05753c-.2498.03781-.37388-.04767-.41633-.32877l-.07673-.51616-.13878.02137L13.28,21.44384l.142-.02137v-.29753l.21878-.03453Z"/>
    <path class="a" d="M15.03184,21.49151l.07836.31233a.41179.41179,0,1,1-.79836.20219h0l-.07837-.31233a.41179.41179,0,1,1,.79837-.20219Zm-.54531.12493.0849.33863c.02775.11178.09469.16438.18775.13479s.129-.09534.10123-.20876l-.08653-.34685c-.02776-.11178-.09633-.15452-.18449-.13151S14.45878,21.503,14.48653,21.61644Z"/>
    <path class="a" d="M16.0751,20.68274l.33633-.14795.08979.21206-.16326.06246a.40622.40622,0,0,1,.0898.12987l.01469.03616a.35931.35931,0,0,1-.23837.48.59949.59949,0,0,1-.129.0411.08269.08269,0,0,0,0,.07726h0c.01306.03123.03429.03945.09143.01972l.28245-.09863a.25406.25406,0,0,1,.33389.136l.00407.01027.03265.07727c.0751.17753.03429.31068-.32653.46684a1.63357,1.63357,0,0,1-.35755.09535l-.08327-.21863a1.36536,1.36536,0,0,0,.34449-.08055c.19755-.08384.20735-.11836.178-.189v-.01315A.07331.07331,0,0,0,16.48,21.736l-.00821.0037-.29551.10521a.21639.21639,0,0,1-.29435-.08814l-.011-.02364-.03429-.03452a.22316.22316,0,0,1,.031-.21205.4087.4087,0,0,1-.18449-.2285l-.018-.04109a.35286.35286,0,0,1,.16314-.4696.34719.34719,0,0,1,.0638-.02355A.50485.50485,0,0,1,16.0751,20.68274Zm-.16326.429.02612.06575c.04571.10521.07837.12.17143.07891s.11918-.10685.0849-.18576l-.02123-.0526a.35533.35533,0,0,0-.06857-.11178.32474.32474,0,0,0-.11918.02959.122.122,0,0,0-.07184.17589Z"/>
    <path class="a" d="M17.05143,20.15342l.13551.24987a.27182.27182,0,0,0-.06857.03123.26661.26661,0,0,0-.14041.24493l.32653.61808-.23184.12658-.52571-.97151.21388-.11671.07836.14466a.359.359,0,0,1,.16327-.309A.17239.17239,0,0,1,17.05143,20.15342Z"/>
    <path class="a" d="M18.0751,19.9726l.13878.21206-.449.30246.04734.069c.06531.10028.13552.11014.25143.03288a1.67191,1.67191,0,0,0,.23021-.1989l.13388.18739a2.04086,2.04086,0,0,1-.25143.22192.36422.36422,0,0,1-.59592-.11836l-.17306-.25808a.36832.36832,0,0,1,.02616-.51774.45978.45978,0,0,1,.59473-.005A.3718.3718,0,0,1,18.0751,19.9726Zm-.46857.27452.05061.07562.23184-.15616-.04735-.06905a.13666.13666,0,0,0-.20735-.05753.13532.13532,0,0,0-.02775.20712Z"/>
    <path class="a" d="M18.84082,19.31507l.4702.56877-.18939.16438-.09469-.11507a.34012.34012,0,0,1-.09633.309c-.129.11014-.29388.08384-.43592-.08877l-.03755-.04438a.31383.31383,0,0,1,.01652-.44138.30965.30965,0,0,1,.04062-.032,1.21209,1.21209,0,0,1,.16327-.10356L18.622,19.4663c-.06041-.074-.11592-.074-.20082,0a1.82388,1.82388,0,0,0-.20408.22192l-.14694-.17753a2.16344,2.16344,0,0,1,.22531-.23836C18.50612,19.08164,18.65306,19.08822,18.84082,19.31507Zm-.17143.63123.01143.01315c.05714.07069.11755.07891.16326.04274a.238.238,0,0,0,.04082-.22356l-.09306-.11178a1.118,1.118,0,0,0-.10449.074.13032.13032,0,0,0-.018.20548Z"/>
    <path class="a" d="M19.01061,18.63452l.19266-.194.16326.16438-.191.194.37388.37644c.0702.07069.12571.07069.18449.01151a.92119.92119,0,0,0,.11265-.1463l.16327.16438a.97292.97292,0,0,1-.129.16439c-.178.18082-.32653.18575-.52572-.01151l-.36734-.36822-.0996.09863-.16326-.16438.10286-.10192-.18123-.23671.16327-.16439Z"/>
    <path class="a" d="M15.79918,8.36219,8.12571,5.06466a.38872.38872,0,0,0-.53478.13705.39515.39515,0,0,0-.05134.25254V9.35014a1.04571,1.04571,0,0,0,.58776.891l2.91592,1.24274L15.66041,9.5474c.73306-.30411,1.04653-.76932.13877-1.18521"/>
    <path class="a" d="M8.12408,18.93863l8.5551-3.67069a1.35853,1.35853,0,0,0,.911-1.19835V9.11507c-.0555.32877-.25632.73808-1.1151,1.10466l-8.351,3.5737a1.049,1.049,0,0,0-.58612.8926v3.863a.39017.39017,0,0,0,.58612.38959"/>
    <path class="a" d="M6.72163,17.72219A7.8178,7.8178,0,0,1,6.27746,6.72831q.213-.2326.44417-.44721V6.05918a7.97175,7.97175,0,0,0,0,11.88493Z"/>
    <path class="a" d="M11.97388,4.04219a7.816,7.816,0,0,0-2.87511.5474l.21388.092A7.72746,7.72746,0,0,1,19.24289,9.325a7.81006,7.81006,0,0,1-4.6118,9.99826,7.69257,7.69257,0,0,1-5.31844,0l-.21388.09041A7.88672,7.88672,0,0,0,19.33439,14.892,7.97522,7.97522,0,0,0,14.84346,4.5863,7.85629,7.85629,0,0,0,11.97388,4.04219Z"/>
    <path class="a" d="M11.97388.0263a11.97726,11.97726,0,1,0,11.89551,11.977V12A11.9479,11.9479,0,0,0,11.97388.0263Zm0,23.788A11.81288,11.81288,0,1,1,23.70612,12,11.77263,11.77263,0,0,1,11.97388,23.81425Z"/>
    <path class="a" d="M2.111,13.3611l.54531-.10028a.46565.46565,0,1,1,.16653.91562l-.53715.10027c-.30367.05589-.49959-.03781-.55836-.36822A.41294.41294,0,0,1,2.111,13.3611Zm.129.83178.58612-.1085a.3764.3764,0,0,0-.09655-.74657.36945.36945,0,0,0-.03733.00685l-.58448.10849a.3764.3764,0,1,0,.13224.73973Z"/>
    <path class="a" d="M1.65224,12.16438l.03266.61644.60081-.02794-.02449-.4685h.0849l.02449.4685.702-.03781v.09041l-1.46938.0789-.03756-.70685Z"/>
    <path class="a" d="M1.70122,10.99069l-.03755.61643.59429.03617.02775-.46521h.0849l-.02775.4685.702.04274v.08876l-1.46939-.08876.04245-.70521Z"/>
    <path class="a" d="M3.14286,10.66027,3.1298,10.749,1.67837,10.537l.01306-.08877Z"/>
    <path class="a" d="M1.94612,9.217l.08164.023a1.70023,1.70023,0,0,0-.09633.27123c-.05714.24987.01306.37151.26939.43233l.61877.1463c.2351.05589.369-.01643.42939-.26959a1.40147,1.40147,0,0,0,.031-.286l.08653.01643A1.57458,1.57458,0,0,1,3.33061,9.84a.37918.37918,0,0,1-.53714.32877l-.60571-.14137c-.30531-.074-.41143-.22028-.33633-.54411A1.86051,1.86051,0,0,1,1.94612,9.217Z"/>
    <path class="a" d="M3.50857,9.12822l-.02775.08548L2.08653,8.75342,2.11429,8.668Z"/>
    <path class="a" d="M4.00163,7.89041l-.03918.0937L3.56082,7.9463l-.2547.60165.30531.263-.03918.09041L2.41306,7.8789l.04735-.11178Zm-.76408.58849.2351-.54246-.95836-.08877Z"/>
    <path class="a" d="M4.09143,7.57973l.31673-.53754L4.48,7.08493l-.35755.6148L2.85714,6.95507l.04572-.07726Z"/>
    <path class="a" d="M4.31347,4.93151l.178.16438a2.58151,2.58151,0,0,0-.29061.27452c-.111.13151-.10449.22192.018.32877l.45551.3863a.19053.19053,0,0,0,.31836-.03123,1.27886,1.27886,0,0,0,.12082-.17589l-.30041-.25644-.14694.17589L4.48,5.64164l.31184-.3715.61877.52274a1.614,1.614,0,0,1-.23836.42411c-.23347.27945-.43429.27616-.67266.074l-.44734-.37808c-.24653-.21041-.26776-.411-.03919-.68548A2.58538,2.58538,0,0,1,4.31347,4.93151Z"/>
    <path class="a" d="M5.69633,4.21973l.35591.39616a.44661.44661,0,0,1-.04408.71014.4403.4403,0,0,1-.7053-.028l-.35592-.39616a.44917.44917,0,0,1,.04245-.71014A.44119.44119,0,0,1,5.69633,4.21973Zm-.5649.49315.382.42411a.23581.23581,0,0,0,.33469.01643.2397.2397,0,0,0,.01633-.337L5.48408,4.394a.23587.23587,0,0,0-.33469-.01808A.23978.23978,0,0,0,5.13143,4.71288Z"/>
    <path class="a" d="M6.8,3.1726l-.45878.30247.18939.30575.33959-.22356.13225.20548-.338.22356.34122.52439-.2253.14794L5.97714,3.42247l.689-.46357Z"/>
    <path class="a" d="M8.50449,3.66575l-.25469.12987-.209-.24-.418.21205.06857.31069-.2449.12493L7.17224,2.68767l.28409-.143ZM7.569,3.53753l.32653-.16438-.48-.55562Z"/>
    <path class="a" d="M8.7951,2.00548l.08.23178a2.29867,2.29867,0,0,0-.32653.07726c-.13224.04932-.16326.12-.12735.21534l.01633.04439c.02776.07561.062.097.18449.092h.20735a.35771.35771,0,0,1,.4049.27945l.01469.0411c.09143.25315.01143.44219-.338.56877a1.82666,1.82666,0,0,1-.33959.074l-.08163-.24a1.67851,1.67851,0,0,0,.32653-.069c.17632-.06411.21551-.14137.18122-.23836l-.018-.05589a.13978.13978,0,0,0-.16326-.09863H8.58775a.35113.35113,0,0,1-.40816-.27616V2.63014c-.09143-.25315-.01469-.43891.28572-.549A2.38416,2.38416,0,0,1,8.7951,2.00548Z"/>
    <path class="a" d="M10.209,1.88548l-.39347.08712.27918,1.19507-.258.06247L9.55755,2.03836l-.39184.09369-.05714-.24164,1.04327-.24657Z"/>
    <path class="a" d="M11.61633,1.73425l-.54694.046L11.102,2.137l.4049-.03452.01959.24493-.40326.03287.05061.62466-.26776.023-.13061-1.47287.81633-.0674Z"/>
    <path class="a" d="M12.898,1.98575,12.87837,2.52a.44152.44152,0,0,1-.52408.47836.45083.45083,0,0,1-.4898-.51781l.02122-.5326a.43841.43841,0,0,1,.52082-.47836A.44738.44738,0,0,1,12.898,1.98575Zm-.74123-.04767-.02122.57206a.23691.23691,0,1,0,.47347.01808h0l.02122-.57041a.23695.23695,0,1,0-.47347-.01973Z"/>
    <path class="a" d="M14.20408,2.109v.0526a.38981.38981,0,0,1-.32653.32055l.2449.71836-.29225-.051-.21061-.6411a1.04911,1.04911,0,0,1-.16326-.03123l-.10286.58849L13.089,3.01808l.25469-1.4663c.129.01644.302.03781.4049.05589C14.11755,1.67342,14.2449,1.85918,14.20408,2.109Zm-.63673-.28767-.07347.42411a1.32019,1.32019,0,0,0,.142.03452c.17959.03123.26939-.03616.29224-.16438V2.07945c.02123-.12657-.04245-.20383-.2253-.23671Z"/>
    <path class="a" d="M15.52327,3.66247l-.31021-.1085.15184-1.20164-.622,1.03726-.31021-.10192.17959-1.50082.26613.0937-.18449,1.19507.622-1.05041.29224.11178-.16326,1.2115.58939-1.06027.26612.0937Z"/>
    <path class="a" d="M16.79347,4.32658,16.542,4.19014l.07674-.309-.41307-.22357L16,3.8926l-.24326-.1315L16.83429,2.668l.28081.15123ZM16.36082,3.48l.32653.16438.17632-.71342Z"/>
    <path class="a" d="M18.29714,4.07836l-.03265.04274a.38722.38722,0,0,1-.41633.15287l-.09306.75288-.24-.17425.0898-.67068a1.06367,1.06367,0,0,1-.13878-.10356l-.34775.49315-.21714-.16439.86693-1.20657c.10776.074.2547.16438.3396.23178C18.41143,3.64932,18.449,3.87288,18.29714,4.07836Zm-.44571-.53918-.2498.34849a1.2747,1.2747,0,0,0,.11266.0937c.14857.10849.25632.08712.32653-.01973l.02122-.02959c.0751-.10356.05061-.20219-.09959-.31232Z"/>
    <path class="a" d="M19.1902,5.15178l-.24163.2548a.51183.51183,0,0,1-.81633.01315c-.10449-.10028-.20081-.19726-.289-.29589l1.02857-1.08822c.08489.07561.20245.17753.32653.28931A.53851.53851,0,0,1,19.1902,5.15178Zm-.28734-.76438-.71021.75123a1.23533,1.23533,0,0,0,.10449.11178.28645.28645,0,0,0,.449-.01973l.258-.27452a.29544.29544,0,0,0,.01306-.46685C18.97959,4.45315,18.93878,4.41863,18.90286,4.3874Z"/>
    <path class="a" d="M20.65306,6.08219l-.07184.04767A1.49177,1.49177,0,0,0,20.43755,5.88c-.1502-.20712-.28735-.23014-.50122-.07233l-.50776.38137a.31127.31127,0,0,0-.07347.50466,1.32476,1.32476,0,0,0,.18939.21041L19.47755,6.96a1.43731,1.43731,0,0,1-.19592-.22027.38719.38719,0,0,1,.09633-.62795l.50122-.37151a.37869.37869,0,0,1,.62694.0937A1.81044,1.81044,0,0,1,20.65306,6.08219Z"/>
    <path class="a" d="M20.96326,7.51562l-.48979.27123a.41944.41944,0,0,1-.65306-.16438.41409.41409,0,0,1,.19755-.64274l.48979-.27124a.41836.41836,0,0,1,.65306.16439A.417.417,0,0,1,20.96326,7.51562ZM20.57143,6.771l-.51429.29753a.32988.32988,0,0,0-.15347.51452.32541.32541,0,0,0,.51592.14137l.51755-.291a.32989.32989,0,0,0,.15184-.51616.32544.32544,0,0,0-.51755-.1463Z"/>
    <path class="a" d="M21.87755,8.89973H20.61061L20.5698,8.788l.96489-.82192-1.262.45534-.031-.08548,1.37959-.49315.04735.13315-.99429.84822h1.30613l.04734.13151-1.37143.51945-.031-.08384Z"/>
    <path class="a" d="M21.97388,10.44329l-.04245.00986c-.27919.05753-.46857-.06411-.53388-.383a1.99585,1.99585,0,0,1-.031-.286l-.61225.12658-.018-.08877,1.45306-.29918c.02122.08219.05224.20219.08326.35342C22.33959,10.20493,22.23837,10.389,21.97388,10.44329Zm.16326-.82192-.68408.14137a1.85036,1.85036,0,0,0,.031.2811c.05551.26958.20735.36328.43755.31561h.03429c.21714-.04438.30041-.1874.24326-.46849-.02612-.10027-.05387-.20548-.06857-.26466Z"/>
    <path class="a" d="M21.00735,11.81753v-.10191l.37224-.16439-.05061-.64109-.39184-.08713v-.09863l1.49878.35343.0098.12164Zm.4-.88109.04734.59013.88653-.37479Z"/>
    <path class="a" d="M22.35429,12.21041l-1.35511-.07726v-.09041l1.46939.08383-.00816.13973-1.38449.61315,1.3453.07726v.09041l-1.46938-.08383v-.13151Z"/>
    <path class="a" d="M21.32571,13.80822l-.48979-.0937.01632-.08877.4898.0937,1.02531-.25644-.01959.10357-.91592.20876.77224.526-.01959.10192Z"/>
    <circle class="a" cx="3.22939" cy="16.20822" r="0.28571"/>
    <circle class="a" cx="20.92245" cy="16.20822" r="0.28571"/>
    <path class="a" d="M15.79918,8.36219,8.12571,5.06466a.38872.38872,0,0,0-.53478.13705.39515.39515,0,0,0-.05134.25254V9.35014a1.04571,1.04571,0,0,0,.58776.891l2.91592,1.24274L15.66041,9.5474c.73306-.30411,1.04653-.76932.13877-1.18521"/>
    <path class="a" d="M8.12408,18.93863l8.5551-3.67069a1.35853,1.35853,0,0,0,.911-1.19835V9.11507c-.0555.32877-.25632.73808-1.1151,1.10466l-8.351,3.5737a1.049,1.049,0,0,0-.58612.8926v3.863a.39017.39017,0,0,0,.58612.38959"/>
  </g>
</svg>
