<svg xmlns="http://www.w3.org/2000/svg" width="47.609" height="24" viewBox="0 0 47.609 24">
  <defs>
    <style>
      .a {
        fill: #999da6;
      }
    </style>
  </defs>
  <title>hjco-subjacent</title>
  <g>
    <g>
      <path class="a" d="M17.48015,3.10322c-.86557,0-1.76974.07165-2.78012.03968l-.001-.00106-.02643.00068c-.01732-.00059-.03343,0-.05083-.00068l-.0024.00207c-.79237.03277-1.68671-.00207-2.54692-.00207-.88839,0-1.77679.03864-2.70383,0a.28915.28915,0,0,0,0,.46352l.42488.07726c.927.11587,1.12017.15451,1.12017,2.279V8.35638c0,.54077-.07726.57939-1.08153.57939H5.04251c-1.00427,0-1.08153-.03862-1.08153-.57939V5.96157c0-2.08582.19313-2.16308,1.12017-2.27895l.34762-.07726a.29.29,0,0,0-.03861-.46352c-.77253.03864-1.66093,0-2.54935,0s-1.81541.03864-2.70383,0a.29168.29168,0,0,0-.03862.46352l.42488.07726c.927.11587,1.12017.15451,1.12017,2.279v7.41621c0,2.12445-.19313,2.16309-1.12017,2.31758L.25288,15.734c-.15452.11587-.15452.50213.03861.50213.73391,0,1.62231-.03861,2.51071-.03861s1.77679,0,2.8197.03861a.327.327,0,0,0,.03864-.50213l-.57939-.07726c-.927-.11587-1.12017-.15451-1.12017-2.279V10.4422c0-.54077.07726-.57939,1.08153-.57939h4.751c1.00429,0,1.08155.03862,1.08155.57939v2.93558c0,2.08583-.19313,2.16309-1.12017,2.279L9.33,15.734a.33.33,0,0,0,.03862.50213c.8884-.07725,1.7768-.07725,2.70383-.07725.8884,0,1.7768.03864,2.66522.07725a.327.327,0,0,0,.03862-.50213l-.42488-.07726c-.927-.11587-1.12017-.15451-1.12017-2.279V5.96157c0-2.08582.19313-2.16308,1.12017-2.27895l.31865-.07082.53111.07082c.96565.11587,1.12017.19313,1.12017,2.31757L16.36,13.68681a23.56711,23.56711,0,0,1-.19313,3.90124c-.03861.42488-.23174,1.58367-.69526,1.58367a1.62374,1.62374,0,0,1-.84979-.34763,1.95046,1.95046,0,0,0-.88839-.38626c-.5794,0-.927.81114-.927,1.1974,0,.54078.5794.65665,1.04289.65665a4.527,4.527,0,0,0,4.36478-2.897,11.97181,11.97181,0,0,0,.42488-3.86262V6.00019c0-2.12444.19313-2.2017,1.08153-2.35619l.27039-.03864a.33.33,0,0,0-.03862-.50214C19.21833,3.14184,18.36855,3.10322,17.48015,3.10322Z"/>
      <path class="a" d="M40.61726,2.79422a7.21616,7.21616,0,0,0-4.83106,1.724c-.04451-.55186-.07393-.98622-.11309-1.26047a4.67027,4.67027,0,0,1-.54078-.1159A15.79316,15.79316,0,0,0,31.69462,2.717a9.19608,9.19608,0,0,0-5.52357,1.69956,6.59921,6.59921,0,0,0-2.5107,5.29178,6.22386,6.22386,0,0,0,2.8197,5.48492,8.84016,8.84016,0,0,0,5.09867,1.35192,11.35368,11.35368,0,0,0,3.12874-.46352,4.67332,4.67332,0,0,1,.69526-.19313,3.93231,3.93231,0,0,0,.43179-.87315,7.32712,7.32712,0,0,0,4.74411,1.56844,6.76143,6.76143,0,0,0,7.03-6.87548A6.60238,6.60238,0,0,0,40.61726,2.79422ZM31.57872,15.77261c-2.54932,0-5.21454-2.0858-5.21454-6.33468,0-4.09439,2.54934-5.87119,5.09866-5.87119a3.58117,3.58117,0,0,1,3.45951,1.86738,7.15789,7.15789,0,0,0-1.45094,4.42869A6.707,6.707,0,0,0,34.97,14.14861,4.03344,4.03344,0,0,1,31.57872,15.77261Zm9.193,0c-3.43772,0-4.5965-3.74674-4.5965-6.48919,0-4.24889,2.20167-5.71668,4.17162-5.71668,3.16736,0,4.51927,3.47636,4.51927,6.4892C44.86614,14.07308,43.05071,15.77261,40.77175,15.77261Z"/>
    </g>
    <path class="a" d="M26.75044.47664a7.45811,7.45811,0,0,0-5.369,6.21882c-.27038,1.58367-.38626,3.32185-.50214,4.94415-.38626,5.94844-.7339,11.12435-8.15013,11.163V24c3.824-.03863,6.37332-1.31329,7.76387-3.9785,1.19741-2.27895,1.39054-5.33041,1.58367-8.30463.11588-1.6223.23176-3.28323.50214-4.82828,1.15879-6.4892,7.99563-5.678,8.266-5.63942L30.99933.05175A10.91175,10.91175,0,0,0,26.75044.47664Z"/>
  </g>
</svg>
