<svg xmlns="http://www.w3.org/2000/svg" width="96.7347" height="24" viewBox="0 0 96.7347 24">
  <defs>
    <style>
      .a {
        fill: #999da6;
      }
    </style>
  </defs>
  <title>ing-subjacent</title>
  <g>
    <path class="a" d="M53.87754,17.46939v4.57143A16.56414,16.56414,0,0,1,46.449,24c-6.77551,0-10.77551-3.91837-10.77551-8.97959,0-5.38776,4.65306-9.87755,10.53061-9.87755a10.97531,10.97531,0,0,1,3.7551.65306,7.80142,7.80142,0,0,0,1.87756.57143c.48979,0,.57142-.73469.65306-1.22449h.57142l.57143,6.20408h-.81633A5.54467,5.54467,0,0,0,51.102,8.40817a6.39462,6.39462,0,0,0-4.73469-1.87756c-4.08163,0-6.449,3.18368-6.449,8.08164,0,4.73469,2.85714,8,6.77551,8a7.7961,7.7961,0,0,0,3.42857-.81632V17.06123c0-1.551-.2449-2.12245-2.449-2.12245v-.7347h8.16327v.7347C53.71428,15.02041,53.87754,15.67347,53.87754,17.46939Zm-22.449-7.5102V23.7551H30.36734L16.57143,9.551a5.38964,5.38964,0,0,1,.08163,1.14286v8.73469c0,2.69388,0,3.67347,2.449,3.67347v.73469H12.57143v-.898c2.449,0,2.449-1.14285,2.449-3.67347V9.30612c0-1.46938,0-3.102-2.61225-3.102V5.551h6.12245L29.87754,17.22449a3.364,3.364,0,0,1-.08163-.97959V9.87755c0-2.53061.08163-3.67347-2.36735-3.67347V5.551h6.53062v.65306C31.5102,6.28572,31.42857,7.26531,31.42857,9.95919ZM0,23.59184v-.7347c1.551,0,2.69388-.16326,2.69388-2.36734V8.65306c0-2.36734-.81633-2.36734-2.69388-2.36734V5.551H9.14286v.65306c-1.87756,0-2.61225.08164-2.61225,2.449V20.4898c0,2.28571.97959,2.36734,2.61225,2.36734v.7347Z"/>
    <path class="a" d="M71.83672,23.59184a4.20517,4.20517,0,0,1-.40816-1.71429,2.24068,2.24068,0,0,1,.16326-1.06122l-.73469.16326a1.26216,1.26216,0,0,0-.2449.4898l.32653-.16327c.08163,0,.16326.16327.16326.2449-.08163.32653-.48979.32653-.57142.4898-.16327.65306.40816,1.06122.48979,1.551Zm24.898-8.32653a10.8095,10.8095,0,0,0-3.26531-7.7551c-.898-.898-1.87755-1.30613-2.69388-2.20409A7.79535,7.79535,0,0,1,89.7959,4a3.92745,3.92745,0,0,0-.898-.73469,1.51342,1.51342,0,0,1,.16326.57143h-.08163a1.31086,1.31086,0,0,1-.898-.40817l.2449-.24489a.61167.61167,0,0,0-.40816-.08164c-1.06123-.16326-1.95919.40817-3.02041.57143v.16327c.65306.16326.7347.97959,1.14286,1.38775H86.449c.16327,0,.32653.16327.4898.16327a1.0043,1.0043,0,0,0-.16327-.40817c.16327-.16326.2449-.16326.40817,0,.32653.16327.81632-.16326,1.14286.40817a2.59449,2.59449,0,0,0-1.14286.16326c0,.08163.16326.16327.16326.32653-.32653-.16326-.73469,0-.81633-.2449a3.1555,3.1555,0,0,0,1.551.9796c.81632.16326,1.551-.2449,2.36734-.08164a9.26774,9.26774,0,0,1,4.97959,8.08163c0,4.7347-2.69388,6.69388-4.40816,6.69388a1.35189,1.35189,0,0,1-.97959-.40816,10.23167,10.23167,0,0,0,.32653-2.61225,10.91812,10.91812,0,0,0-2.61224-7.2653,3.51042,3.51042,0,0,0-2.28572-1.30613c-.40816,0-.81632,0-1.06122.32654a1.61164,1.61164,0,0,0-.4898,1.14285,3.50649,3.50649,0,0,1-2.04081.57143,3.95872,3.95872,0,0,1-2.449-.898V9.87755c-.16327-.08163-.81633-.4898-.4898-.73469a1.78476,1.78476,0,0,1,.40817.24489c-.16327-.40816-.16327-.97959-.4898-1.30612a.59978.59978,0,0,1-.48979-.16326,1.30441,1.30441,0,0,1-.40817-.81633c.16327.32653.4898.16326.7347.40816a8.2697,8.2697,0,0,0-.81633-2.20408c-.16326-.57143-.73469-.898-1.14286-1.30612-.16326-.16327-.2449-.32653-.48979-.32653C76,3.59184,76,3.26531,76,3.102a1.379,1.379,0,0,1,.40816.16327A4.10566,4.10566,0,0,0,75.02041.898l-.16326.16326H73.79591c.16326-.16326.40816-.16326.57142-.32653A.88031.88031,0,0,0,73.63264.4898a1.55866,1.55866,0,0,1-.65307.24489h-.08163c0-.16326-.08163-.48979.32653-.57142a2.697,2.697,0,0,0-1.14285,0c-.08163.32653-.2449.48979-.2449.81632a2.77092,2.77092,0,0,1-.4898.4898,4.70835,4.70835,0,0,1,.2449-1.14286,3.84346,3.84346,0,0,1-.73469.2449A3.52873,3.52873,0,0,0,69.46937,0c.40817.2449.16327.73469.2449,1.06122L69.46937.898c-.08163-.2449-.40816-.4898-.48979-.81633A2.00009,2.00009,0,0,0,68,.40816V.4898A.70867.70867,0,0,1,68.57142.898c-.4898,0-.81633-.16327-1.22449-.16327A.07995.07995,0,0,0,67.2653.65306a2.16419,2.16419,0,0,0-.4898.40816,2.539,2.539,0,0,0-.97959,1.30613.61178.61178,0,0,1,.40817.08163c-.16327,0-.32654.32653-.57143.40816v.97959a1.615,1.615,0,0,0-.57143.81633,11.84861,11.84861,0,0,0-.40816,3.5102.57469.57469,0,0,1-.32653.40817V9.551s.40816-.32653.57142-.4898v.81633a.60647.60647,0,0,0-.48979.4898c0,.24489.08163.48979.08163.81632,0,.16327,0,.16327.08163.2449,0-.16327.16327-.2449.32653-.32653a.62458.62458,0,0,1,.40817-.16327,5.92294,5.92294,0,0,0-.40817.7347l-.16326.16326L64.65306,12a19.94952,19.94952,0,0,0,1.14286,3.7551,14.78046,14.78046,0,0,0-1.46939,4,1.64723,1.64723,0,0,0-1.14286-.40816,1.38242,1.38242,0,0,0-.97959.57142.96732.96732,0,0,0-1.14286.16327c-.57142.4898-.57142.73469-.57142,1.06122a1.32743,1.32743,0,0,0-.40817.898,2.367,2.367,0,0,0,.40817,1.46939h9.71428c-.08163-.16327-.16326-.4898-.32653-.57143a3.534,3.534,0,0,1-.08163-1.30612,4.62812,4.62812,0,0,1,.65306-1.06122c.08163-.16327,0-.16327.08163-.2449l.4898-.08163c.2449,0,.48979-.16327.81632-.16327.16327.2449.16327-.16327.4898-.32653a1.743,1.743,0,0,1,1.79591.4898c0,.08163.08164.08163.08164.16326h-.32654A1.58288,1.58288,0,0,0,72.653,20.2449c0,.16326-.08163.16326-.08163.32653V20.898c.2449,0,.4898.24489.7347.40816a1.099,1.099,0,0,1,.73469-.40816.74187.74187,0,0,1,.81633.73469v.73469a3.1679,3.1679,0,0,0,.898.4898.48888.48888,0,0,1-.4898.2449h-.48979c-.08163-.08164-.16326-.08164-.16326-.2449a7.17683,7.17683,0,0,0-.4898.81633h7.5102c-.16326-.2449-.2449-.4898-.32653-.57143a3.595,3.595,0,0,1-.16326-1.30613l.73469-.97959c.40817,0,.7347-.16326,1.38775-.16326.16327-.16327,0-.2449.57143-.2449a1.6629,1.6629,0,0,1,.898.16326c.08163.16327.08163.16327,0,.2449-.16326.16327-.40817-.16326-.57143-.08163-.16326.16326.08163.16326.08163.32653.16327.08163-.57142-.16327-.57142-.16327a3.40346,3.40346,0,0,0-.16327.4898l.40817.40816c.16326.16327-.16326.40817-.16326.57143-.16327-.08163-.40817-.2449-.40817-.16326a8.8726,8.8726,0,0,0-.08163,1.46938H84l.08163-1.14285c.08163-.65307.81632-1.79592,1.30612-1.79592a1.55866,1.55866,0,0,1,.65306.24489c.08163.2449.40816.40817.40816.4898,0,.16327-.16326.16327-.48979.16327-.08163,0-.08163-.16327-.32653-.32653l-.40816.40816s.48979.40816.48979.65306a.80349.80349,0,0,1-.2449.65306l-.40816-.81633c-.16327,0-.4898.40817-.4898.57143,0,.2449-.16326.40817-.16326.81633h4a2.71006,2.71006,0,0,0,1.30612-.40816h.7347a5.23773,5.23773,0,0,0,4-1.63266A10.60272,10.60272,0,0,0,96.7347,15.2653ZM82.69386,21.14286l-.65306.08163a.63532.63532,0,0,1,.2449.4898.931.931,0,0,1-.2449.48979c-.16327-.16326-.16327-.32653-.2449-.48979-.16327,0-.16327.32653-.16327.48979a2.86554,2.86554,0,0,0,.4898,1.46939h.57142a9.04186,9.04186,0,0,1-.16326-1.551A1.336,1.336,0,0,1,82.69386,21.14286Zm-8.40816.81632c0-.24489-.16327-.32653-.4898-.32653-.16326,0-.40816.16327-.40816.32653,0,.2449-.08163,1.71429-.08163,1.71429h.40816A3.814,3.814,0,0,1,74.2857,21.95918Zm-1.551,0c-.08163,0,.08164.16327-.57142-.48979-.16326,0-.32653.40816-.32653.48979a6.35831,6.35831,0,0,0,.32653,1.71429H72.653A4.206,4.206,0,0,0,72.73467,21.95918ZM89.87753,5.63266a.84482.84482,0,0,0-.57143-.40817c-.16326-.2449-.48979-.57143-.73469-.57143a7.07093,7.07093,0,0,1,.81632-.16326c.16327.32653.40817.4898.4898.81633ZM87.83672,4.2449H87.102c-.16326-.16326-.32653,0-.48979,0s-.16326,0-.40816-.16326A1.71174,1.71174,0,0,0,87.102,3.7551C87.42856,3.83674,87.75509,4,87.83672,4.2449Zm-1.551,7.34694a2.66,2.66,0,0,0-1.06123-.32653c-.16326,0-.73469.16326-.81633.32653-.16326-.2449.16327-.81633.40817-.898a.35731.35731,0,0,1,.48979,0c0,.40816.40816.16326.65307.32653S86.20407,11.34694,86.2857,11.59184Zm-.08163.97959c-.32654,0-.40817-.08163-.65307-.08163a.95728.95728,0,0,0-.898.40816.48624.48624,0,0,1,0-.57143,1.38823,1.38823,0,0,1,.81633-.48979C85.7959,12,86.20407,12.32653,86.20407,12.57143Zm1.63265,1.46939a3.67138,3.67138,0,0,0-1.71429-.4898,3.54243,3.54243,0,0,0-1.30612.57143L84.653,13.551c.40816-.08163.40816-.40816.65306-.40816.16327,0,.40817-.08164.65307-.08164a.57.57,0,0,0,.32653-.16326c.32653,0,.16326.32653.40816.32653.16327,0,.32653-.16327.4898-.16327a1.49924,1.49924,0,0,1,.65306.9796Zm0,1.38775a1.23688,1.23688,0,0,1-.97959-.32653c-.16326-.16326,0-.40816-.32653-.40816a.57.57,0,0,0-.32653.16327c-.08164.08163-.4898-.16327-.4898,0,0,.32653-.2449.48979-.57142.48979a.736.736,0,0,1-.40817-.08163v-.65306c.81633,0,.81633-.2449,1.14286-.2449.2449,0,.40816.16327.65306.16327.32654,0,.16327-.16327.4898-.16327s.48979.2449.65306.32653C87.83672,15.02041,87.91836,15.26531,87.83672,15.42857ZM87.42856,16.898c-.16327-.08163-.65307-.16327-.65307-.32653,0-.2449-.16326-.32653-.40816-.32653a4.69787,4.69787,0,0,0-.81633.16327,2.41179,2.41179,0,0,1-.2449-.4898,2.93473,2.93473,0,0,1,.898-.16327c.40816,0,.898,0,.898.16327C87.02039,16.08163,87.42855,16.2449,87.42856,16.898ZM76,6.69388c0,.08163-.16327.65306-.16327.65306l-.48979.16327.32653-1.38776A.8339.8339,0,0,1,76,6.69388ZM88.653,19.102a1.34254,1.34254,0,0,1-.16326.81633l-.40816-.57143c.16326-.16327.16326-.4898.32653-.81633Zm-1.63265-.81632c-.48979,0-.16326-.898-1.14286-.898-.16326,0-.32653.32653-.57142.40816,0-.08163.08163-.4898.08163-.4898a.50765.50765,0,0,1,.32653-.48979c.4898,0,.32653.16326.7347.32653a1.17985,1.17985,0,0,0,.57142.16326Zm-4.08163-3.67347a8.31232,8.31232,0,0,1-1.46939-1.46939c.48979,0,.65306.4898,1.06123.57143.16326.16326.2449.16326.40816.40816ZM77.551,9.95919c-.40817,0-.57143-.16327-.81633-.57143a2.676,2.676,0,0,1,0-.81633c.16326.2449.16326.40816.2449.4898.2449-.16327.2449.16326.32653.24489C77.30611,9.46939,77.551,9.551,77.551,9.95919Zm10.61224,10.7755C88,20.898,88,20.898,88,21.14286c0-.32653-.40817-.4898-.65307-1.06123l.2449-.48979c.16327.16326.4898.32653.4898.65306,0,0-.08163.16326,0,.2449C88,20.73469,88.16325,20.73469,88.16325,20.73469Zm-1.22449-1.79591a2.52365,2.52365,0,0,1-.16326.65306c-.40817-.08164-.40817-.57143-.4898-.65306-.32653-.40817-.73469-.08164-1.06122-.08164-.16327-.40816.08163-.40816.08163-.65306.16326,0,.40816-.16326.57142,0,.32654-.16326.4898.16327.81633.16327C86.61223,18.69388,86.77549,18.93878,86.93876,18.93878Zm-3.2653-2.69388c0,.2449-.16327.4898-.08164.73469a11.97747,11.97747,0,0,1-.48979-1.14285c0-.08164-.08163-.08164.08163-.16327.08163,0,.32653,0,.32653.08163C83.34693,15.83674,83.67346,16.08163,83.67346,16.2449Zm-5.71429-5.06122c-.08163.24489-.32653,0-.40816,0h-.57143c-.08163-.16327-.16326-.16327-.16326-.32653a.96719.96719,0,0,1,.65306-.08164C77.63264,11.102,77.71428,11.18368,77.95917,11.18368Zm1.38775,1.551a.99175.99175,0,0,1-1.14286-.08164l.4898-.24489C78.93876,12.57143,79.26529,12.57143,79.34692,12.7347Zm3.26531,3.67347c0,.40816-.08163.81632-.08163,1.30612-.16327,0-.16327-.16327-.16327-.40817a6.01246,6.01246,0,0,0-.32653-1.14285c-.16326-.4898-.48979-.97959-.73469-1.551-.08163-.2449-.40817-.40817-.65307-.57143a1.16852,1.16852,0,0,1,.898.2449c0,.16326.08163.16326.2449.40816.4898,0,.32653.57143.7347.81633-.16327.16326-.2449.32653-.40817.40816Q82.61224,16.16326,82.61223,16.40817ZM80.08162,14.449c0,.16327-.16327.2449-.2449.40817a1.32915,1.32915,0,0,1-.2449-.4898,1.21046,1.21046,0,0,1,.08163-.57143C79.83671,14.04082,80.08161,14.20408,80.08162,14.449Zm6.12245,5.87755-.16327.16327a1.64552,1.64552,0,0,0-.898-.2449c0-.2449-.16327-.57143-.32654-.57143-.40816,0-.32653.2449-.65306.2449l.57143-.57143c.08163-.16327.08163-.16327.16326-.16327.16326.16327.2449.16327.48979.16327a.88762.88762,0,0,1-.08163.40816c.16326.16327.32653-.08163.40816.16327C85.95917,20.16327,86.20406,20.16327,86.20407,20.32653Zm-5.22449-4.48979a.26065.26065,0,0,1-.2449.24489,1.74237,1.74237,0,0,1-.40817-.65306c-.08163-.24489.16326-.73469.16326-.73469.08164,0,.16327.16327.16327.16327.08163.08163,0,.24489.08163.48979C80.97957,15.59184,81.0612,15.83674,80.97958,15.83674ZM76,9.551a7.08072,7.08072,0,0,0-2.53061-.81632c0,.16326,0,.40816-.08164.48979a6.5059,6.5059,0,0,1,2.12245,1.30613V11.102a4.78255,4.78255,0,0,0-2.20408-1.46938c-.08163.16326-.32653.24489-.40816.48979a4.138,4.138,0,0,0-1.46939-.73469c-.16326,0-.32653-.65306-.32653-.65306a1.27475,1.27475,0,0,0,.65306-.65306H72c.16326,0,.16326-.16327.16326-.32653,0-.40817-.81632-.40817-1.22449-.40817a1.92927,1.92927,0,0,0-1.06122.16327c-.16327,0-.08163.16326-.08163.32653,0,.08163.16326.16326.16326.16326.16326,0,.2449-.16326.40816-.16326-.08163.40816.08163.57143.4898.81632l-.08163.65307a4.243,4.243,0,0,0-1.87756.57142l-.48979-.48979a8.90822,8.90822,0,0,0-2.12245,1.30612v-.4898a7.29993,7.29993,0,0,1,1.87755-1.06122V8.7347c-.2449-.16327-.48979,0-.81632,0a2.71825,2.71825,0,0,0-1.46939.65306,1.66081,1.66081,0,0,0-.08163-.40817,3.66237,3.66237,0,0,1,2.449-.57142v-.2449c-.08163-.16327-.08163-.32653-.16326-.32653A2.50047,2.50047,0,0,1,67.2653,6.449l.40816-.24489a2.25058,2.25058,0,0,1,0-1.63266,1.76956,1.76956,0,0,1-.898-.81632,2.92442,2.92442,0,0,1-.32653-.898c.16326-.40817.32653-.4898.48979-.898.08164,0,.32654-.08163.32654-.16327.40816-.08163.57142-.40816.97958-.16326.24491,0,.4898.16326.7347.16326,0,.16327,0,.16327.16326.32653.40817,0,.40817.40817.57143.7347a1.21327,1.21327,0,0,0,.48979.08163c.40817.08163.7347.08163.81633.32653A2.81145,2.81145,0,0,1,72.653,2.93878a7.70674,7.70674,0,0,0,.2449-.73469c.08163.16326.08163,0,.16327,0,.2449-.16327.57142-.4898.97958-.40817.24491.16327.7347.08163.97959.40817a8.50122,8.50122,0,0,0,.40817.97959c-.16327.40816,0,.898-.40817,1.06122l-.40816.40817c-.16326,0-.16326.16326-.32653.16326a2.07276,2.07276,0,0,1-.16326,1.551c.16326-.08163.32653-.08163.32653-.2449.08163.08164,0,.16327,0,.2449v.16327a1.12794,1.12794,0,0,1-.4898.89795c-.16326.40817-.48979.898-.89795.9796v.16326a5.06423,5.06423,0,0,1,2.61224.73469V9.551Zm2.61224,4.08163-.2449.16327a1.681,1.681,0,0,1-1.38776-.4898c.24491,0,.57143-.32653.57143-.32653A1.53147,1.53147,0,0,0,78.61223,13.63265Zm-1.79592-1.46938c-.32653,0-.81632.16326-.97959-.16327.16327-.08163.2449-.2449.40817-.40816Zm5.30612,6.12245c0,.32653-.40816.73469-.48979.97959.16326-.32653.16326-.97959,0-.97959-.16326-.08164-.40816,0-.40816-.16327s.08163-.4898.08163-.57143c0-.2449-.16327-.40816-.16327-.4898,0-.40816.4898-.48979.57143-.73469a2.51671,2.51671,0,0,1,.08163.81633c0,.16326.16326.48979,0,.81632C81.71427,18.12245,82.12243,18.12245,82.12243,18.28572Zm-1.63265-.81633a6.0135,6.0135,0,0,1-.32653,1.14286,1.30122,1.30122,0,0,0-.32653-.9796c0-.16326.16326-.16326.08163-.32653a.60391.60391,0,0,1-.32653-.48979c0-.2449.2449-.4898.32653-.65306,0-.08164.2449.16326.2449.48979a.88763.88763,0,0,1-.08163.40817C80.08162,17.30612,80.57141,17.30612,80.48978,17.46939Zm-5.30612-4.4898c-.32653.08164-.57143-.24489-.898-.40816a5.70331,5.70331,0,0,1-.2449-.97959c.2449.16326.81633.16326.7347.81632C74.7755,12.57143,75.102,12.73469,75.18366,12.97959Zm1.95918,1.87755a2.24041,2.24041,0,0,1-.97959-.16326,2.849,2.849,0,0,1-.73469-.4898,3.84439,3.84439,0,0,1,.73469-.2449C76.40816,14.04082,76.57142,14.449,77.14284,14.85714ZM66.20407,4.81633l-.40816.16326.08163-.32653c.16326-.16326.16326-.40816.40816-.57143Zm8.16326,8.97959c-.2449.08163-.73469.16327-.81632-.16327a1.71987,1.71987,0,0,1,0-1.551,4.98578,4.98578,0,0,1,.2449,1.06123C73.95917,13.551,74.36733,13.63265,74.36733,13.79592Zm-1.63265-3.42857c-.08163.40816-.16326.97959-.57143,1.22449a1.21888,1.21888,0,0,0-.2449-.57143c-.08163,0,0,.16327-.08163.16327,0,.16326-.16326.40816-.16326.65306a.86738.86738,0,0,1-.65306.08163v-.65306l-.08164-.08163c-.16326.08163-.16326.16326-.16326.32653A.8752.8752,0,0,0,70.61224,12a1.17989,1.17989,0,0,1-.57143-.16326v-.57143c0-.16327,0-.16327-.08163-.16327l-.32653.32653c-.2449-.16326-.32653-.73469-.32653-1.06122a3.75345,3.75345,0,0,1,3.102-.08163c0-.16327.08163-.16327.32653.08163ZM76,15.42857h-.16327a2.03547,2.03547,0,0,1-1.87755-.57143,2.77851,2.77851,0,0,1,1.14286-.16326l.16326.40816C75.51019,15.18367,75.75509,15.42857,76,15.42857ZM66.36733,5.63266l-.2449.40816a10.04954,10.04954,0,0,1-.16326,1.63265l-.32653-1.06122a5.62846,5.62846,0,0,1,.32653-.81633Zm6.69388,8.40816c-.32653-.16327-.898-.2449-.81632-.65306a.92585.92585,0,0,1,.48979-.4898A1.87422,1.87422,0,0,0,73.06121,14.04082Zm5.87755,6.69387c-.16326-.16326-.2449-.32653-.40816-.32653a3.522,3.522,0,0,0-.32654-1.87755v-.24489c.16327.32653.7347.65306.65307.97959A10.47079,10.47079,0,0,1,78.93876,20.73469Zm-1.38775-2.449a.83418.83418,0,0,1-.81633-.32654c-.08163,0-.16326-.16326-.2449-.08163-.32653.2449-.65306-.16326-1.06123-.16326a1.57844,1.57844,0,0,1-.73469.40816v-.08163a.60284.60284,0,0,1,.40816-.4898c.40816.16327.7347-.73469,1.14286-.2449a1.21313,1.21313,0,0,0,.48979.08164C77.22447,17.46939,77.22447,17.87755,77.551,18.28572Zm-6.04082-5.30613c0,.4898-.08163,1.06123-.48979,1.22449l-.08164-.65306C71.102,13.63266,71.2653,13.38776,71.51019,12.97959Zm2.20408,2.85715c-.08163.16326-.4898.24489-.7347.24489a5.447,5.447,0,0,1-1.06122-1.22449l1.06122.16327A7.36032,7.36032,0,0,0,73.71427,15.83674Zm3.91837,3.67346c-.2449-.16326-.65307-.16326-.81633-.48979a2.02683,2.02683,0,0,0-.73469-.08163,2.7772,2.7772,0,0,1-.81633.08163c-.08163,0,0-.08163-.16326-.16327-.40817.16327-.81633.16327-1.14286.4898l.32653-.81633a2.53088,2.53088,0,0,0,.57143-.16326,2.02853,2.02853,0,0,1,.65306-.08164v.08164c.7347,0,1.551-.08164,2.04082.48979ZM70.2857,14.04082c-.40816-.40817-.73469-.7347-.73469-1.14286a.77712.77712,0,0,1,.57142.16327C70.0408,13.38776,70.28569,13.79592,70.2857,14.04082Zm-1.22449-1.87755-.16326.81632a5.4804,5.4804,0,0,1-.4898-1.22449Zm9.14285,8.81632a7.70889,7.70889,0,0,0-.2449.7347c-.16326-.40817-.2449-.9796-.73469-.9796a.79419.79419,0,0,0-.40816-.48979l-.4898-.08164c.08163.2449.40816.2449.16326.57143.2449.16327.40817.16327.57143.4898.16326.16326,0,.4898.08163.57143l-.40816.16326c0-.32653.08163-.97959-.32653-1.06122-.40817.16327-.4898-.40816-.7347-.4898-.16326,0-.16326-.32653-.32653-.16326-.32653.16326-.7347,0-1.06123.16326l.32653-.48979a1.34249,1.34249,0,0,1,.81633-.16327l.4898-.08163a3.48086,3.48086,0,0,1,1.46939.4898c.2449.16326.40816.32653.40816.57142.2449,0,.40816,0,.40816.2449Zm-5.06122-3.102h-.16326a1.60748,1.60748,0,0,1-.65306-.32653,1.09242,1.09242,0,0,1-.08163-.40816h.48979Zm-4.97959-4.65306a1.96916,1.96916,0,0,1-.97959-.81633,2.90036,2.90036,0,0,1-.16326-.81632.55119.55119,0,0,1,.4898.32653V12C67.83673,12.40816,68.16326,12.73469,68.16325,13.22449Zm3.02041,2.20408a3.2407,3.2407,0,0,1-.57143.9796c-.16326.16326-.57142.16326-.97959.40816.08163-.16327.2449-.2449.40817-.4898a2.3161,2.3161,0,0,0,.48979-.73469A1.23414,1.23414,0,0,1,71.18366,15.42857ZM76,21.79592l-.16327.16326c-.16326-.16326-.08163-.73469-.40816-.81632-.32653,0-.57143-.32653-.7347-.40817l.24491-.16326s.16326-.08163.2449,0c.16326.16326.2449.16326.2449.32653.16326.16326.32653,0,.48979.16326A2.51838,2.51838,0,0,1,76,21.79592ZM70.0408,15.02041a1.48375,1.48375,0,0,1-.81633.898,1.61063,1.61063,0,0,1-.89795,0c.16326-.16327.40816-.16327.65306-.32653l.48979-.4898Zm1.38775,2.85714a1.34244,1.34244,0,0,1-.81632.16327l-.40817-.4898h.97959Zm-4.73469-4.898c-.32653.32653-.65307.4898-.81633.81633a.87526.87526,0,0,0-.16326-.4898,1.25525,1.25525,0,0,1,.32653-.48979A.87959.87959,0,0,0,66.69386,12.97959Zm.73469,1.06123a1.25152,1.25152,0,0,1-.40816.898,1.17424,1.17424,0,0,1-.2449.16326c0-.40816.16326-.73469.16326-1.06122C67.02038,14.04082,67.34691,13.95919,67.42855,14.04082Zm.898.81632-.2449.9796A1.79538,1.79538,0,0,1,66.93875,16a2.40738,2.40738,0,0,0,1.14286-1.06122A.29994.29994,0,0,1,68.32651,14.85714Zm.32653,3.26531c0,.16327-.08163.97959-.08163.97959-.16326-.48979-.48979-.898-.81633-.898-.16326-.16326-.40816-.40816-.40816-.57143-.16326-.16326-.32653,0-.57143-.16326a1.47187,1.47187,0,0,0-.81632.16326v-.16326l.48979-.4898c.4898.08163.97959,0,1.14286.32653a3.6692,3.6692,0,0,1,.7347.4898v.16326C68.24488,17.87755,68.57142,18.12245,68.653,18.12245Zm-.32653,2.04082-.57143.40816c-.16326-.16327,0-.4898-.16326-.65306,0-.16327.16326-.16327.08163-.2449-.08163-.16327-.81632-.40816-.81632-.40816a5.72012,5.72012,0,0,1-.81633-.65306c-.2449-.08164-.48979.08163-.81633.16326v-.16326c.16327-.2449.16327-.57143.4898-.57143.16326,0,.48979,0,.57142.16326.2449,0,.40817.2449.57143.32653a2.96462,2.96462,0,0,0,.7347.57143.62358.62358,0,0,0,.16326.40817C68.3265,19.51021,68.24487,19.91837,68.32651,20.16327Zm-.898.97959-.16326.65306-.4898-1.22449c-.48979-.4898-1.14285-.4898-1.46939-.81633-.2449-.08163-.2449.16327-.40816,0a.59978.59978,0,0,1,.16326-.48979h.40817l.40816.16326c.16326.16327.65306.16327.65306.57143,0,.08163-.08163.16327.16327.40816l.57142.16327Zm-1.87755.57143c0,.48979-.81633,1.22449-.81633,1.22449,0-.32653.16327-.7347.16327-1.14286a.85508.85508,0,0,0-.4898-.2449.93115.93115,0,0,0-.2449.4898c-.16326.40816-.57143.81632-.65306,1.14286a.08.08,0,0,1-.08163-.08164,3.83877,3.83877,0,0,1,.48979-2.20408,1.2758,1.2758,0,0,1,.97959-.4898l.32653.08164-.2449.40816c.16326.2449.57143.4898.57143.81633Zm-2.20408-.32653a2.38367,2.38367,0,0,1-.16326.73469c-.08163-.2449-.2449-.57143-.57143-.57143a1.51511,1.51511,0,0,0-.08163,1.46939,3.45618,3.45618,0,0,1-.57143.40816,2.07081,2.07081,0,0,1-.16326-.97959,6.34459,6.34459,0,0,1,.16326-1.30612c.16327-.16327.32654-.4898.4898-.65306H63.102c-.32653,0-.32653.24489-.32653.48979C63.0204,20.97959,63.34693,20.97959,63.34692,21.38776Zm-1.63265.57143c-.08163,0-.2449-.16327-.4898-.16327-.16326.40816,0,.65306,0,1.14286a1.6608,1.6608,0,0,1-.08163.40816c-.08163,0-.32653-.2449-.40816-.4898V21.79592l.57142-.73469A.99475.99475,0,0,1,61.71427,21.95919ZM74.93877,4.16327a1.30873,1.30873,0,0,0-.08164-1.22449,3.56122,3.56122,0,0,0-.81632-.65306l-.40817.2449a.79573.79573,0,0,0-.32653.73469,2.65339,2.65339,0,0,1,1.06123,1.06122h.16326C74.7755,4,74.7755,4.2449,74.93877,4.16327Zm-2.12245.40816c0-.16326-.08163-.16326-.16327-.16326-.32653,0-.32653-.4898-.57142-.40817-.16326,0-.2449-.16326-.4898,0,0,.08164,0,.08164.16327.08164.32653,0,.16326.48979.48979.48979Zm1.06122.65306h0l-1.38775-.2449C72.32653,5.14286,72,5.14286,72,5.38776h-.16327A5.28817,5.28817,0,0,1,72,7.02041c.2449.08163.48979.16326.48979.57143.2449.16326.4898.16326.7347.40816a1.32924,1.32924,0,0,0,.2449-.48979c-.2449-.32654-.81633-.16327-.81633-.7347l-.40816-.16326a3.364,3.364,0,0,0-.08163-.97959L72.2449,5.551c0,.08164.08163.08164.16326.2449.2449,0,.4898.08163.7347-.16326.08163-.08164.08163-.40817.2449-.40817Q73.63265,5.59184,73.87754,5.22449ZM70.69387,4c-.16326-.16326-.48979.08164-.73469.16327s-.4898.2449-.4898.48979h.7347C70.28571,4.2449,70.449,4,70.69387,4Zm-1.551-.81632c-.08163-.65306-.81633-.7347-1.06123-.9796h-.32653A1.15856,1.15856,0,0,0,67.102,3.34694c.16326.57143.57142.16327.81632.57143A9.71982,9.71982,0,0,0,69.14285,3.18368Zm3.91837,5.95918V8.81633h-.65307l-.16326.08163ZM70.04081,5.46939c0-.16327-.16326-.2449-.32653-.40816H68.08163a.38562.38562,0,0,0,.40816.40816.5089.5089,0,0,0,.2449.40816c.16326.16327.2449.16327.4898,0,.16326.16327.2449-.08163.32653,0a3.06092,3.06092,0,0,1-.08163.898c-.08163.4898-.4898.40817-.81633.57143,0,.16327-.16326.4898,0,.73469.16326-.16326.32653-.16326.65306-.32653a.59235.59235,0,0,1,.4898-.48979A15.66554,15.66554,0,0,0,70.04081,5.46939ZM69.46939,8.898c-.16327-.2449-.4898,0-.81633-.16326a.44941.44941,0,0,0,.16326.40816A1.03505,1.03505,0,0,1,69.46939,8.898Z"/>
  </g>
</svg>
