<svg xmlns="http://www.w3.org/2000/svg" width="45.2078" height="24" viewBox="0 0 45.2078 24">
  <defs>
    <style>
      .a {
        fill: #fff;
      }
    </style>
  </defs>
  <title>pggm-white</title>
  <g>
    <g>
      <path class="a" d="M10.21421,16.54352h-.196a17.00869,17.00869,0,0,1-3.62047.9772v6.38385H9.1462v-5.874H9.888c.6513,0,1.299.212,1.31571.88023.01981.77117-.346,1.00833-1.12613,1.11071l-.33131.02675.00051,1.35507h.32334c2.38423,0,3.91344-1.36768,3.91344-2.6196C13.9836,17.34092,12.48063,16.54352,10.21421,16.54352Z"/>
      <path class="a" d="M19.99139,17.8119a4.76253,4.76253,0,0,1,2.28082.45478l1.43069-1.19662a12.79018,12.79018,0,0,0-3.84862-.82081c-3.03861.008-5.14478,1.53075-5.14478,3.8C14.7095,22.5014,17.1071,24,20.01659,24a11.18029,11.18029,0,0,0,2.74692-.38533V19.95151H20.129v2.43208a1.57729,1.57729,0,0,1-.38738.05273,2.31743,2.31743,0,1,1,.24977-4.62442Z"/>
      <path class="a" d="M40.48436,17.26941c-.935-1.763-2.92493-.66261-3.56645-.09v-.67882h-2.42v7.40375h2.42V19.37223c.08746-1.39365,1.83171-1.27764,1.77307.00052v4.53156h2.27593V19.46072c.08746-1.39417,1.83223-1.27764,1.77358,0v4.44359H45.2078V18.62165C45.20729,15.14781,41.0716,16.42185,40.48436,17.26941Z"/>
      <path class="a" d="M29.5211,17.8119a4.758,4.758,0,0,1,2.28032.45478l1.43069-1.19662a12.79023,12.79023,0,0,0-3.84888-.82081c-3.03835.008-5.14453,1.53075-5.14453,3.8C24.2387,22.5014,26.6358,24,29.54554,24a11.19079,11.19079,0,0,0,2.7477-.38533V19.95151H29.659v2.43208a1.58166,1.58166,0,0,1-.38738.05273,2.31744,2.31744,0,1,1,.2495-4.62442Z"/>
    </g>
    <g>
      <path class="a" d="M12.288,14.89855c2.14192-1.11379,3.22407-1.56831,4.49065-1.62129-.94685-.62635-1.97936-.47459-4.20385.20758C8.115,14.852,6.085,16.37169,0,17.06851a18.86878,18.86878,0,0,0,12.288-2.17Z"/>
      <path class="a" d="M41.17758,0C35.32876,4.9408,28.27665,6.80106,22.83065,8.49773c-2.61625.81438-3.55,2.24893-3.79152,3.64773a10.48221,10.48221,0,0,1,6.26629-2.90409C33.183,8.4805,37.26439,5.2343,41.17758,0Z"/>
      <path class="a" d="M23.49866,15.25893A23.53074,23.53074,0,0,0,30.176,13.20574c-2.43413.586-4.70955,1.32652-7.17481,1.10736a12.63389,12.63389,0,0,1-4.0544-1.60406c-2.055-1.52638-2.72094-2.16636-5.16177-1.74142a4.67861,4.67861,0,0,1,2.72892,1.50863A9.042,9.042,0,0,0,23.49866,15.25893Z"/>
    </g>
  </g>
</svg>
