<svg xmlns="http://www.w3.org/2000/svg" width="72.58436" height="23.99324" viewBox="0 0 72.58436 23.99324">
  <defs>
    <style>
      .a {
        fill: #fff;
      }
    </style>
  </defs>
  <title>rtl-z-white</title>
  <g>
    <path class="a" d="M0,23.92729V7.98011C0,5.03832,1.85225,3.98837,3.9125,3.98837H15.93726V7.782H4.18985V23.92729Z"/>
    <path class="a" d="M22.14774,7.782V20.13364H33.89516v3.79365H21.8704c-2.05035,0-3.91251-1.04-3.91251-3.99175V-.00338h4.19976V3.98837H33.90506V7.782Z"/>
    <path class="a" d="M40.10563,20.13364H51.85305v3.79365H39.8382c-2.05035,0-3.91251-1.04-3.91251-3.99175V3.98837h4.19975l-.01981,16.14527Z"/>
    <path class="a" d="M58.36068,10.42666c0-1.89186.12876-2.66446,3.27857-2.66446h1.87207L66.8097,4.08742H54.44818v7.29013h3.9125Z"/>
    <polygon class="a" points="72.584 7.772 72.584 4.097 68.355 4.097 54.012 20.124 54.012 23.987 58.044 23.987 72.584 7.772"/>
    <path class="a" d="M68.57281,17.3206c0,2.32769-.33677,2.80314-3.62525,2.80314H63.0854l-3.48658,3.87288H72.57446V16.34H68.57281Z"/>
  </g>
</svg>
