<svg xmlns="http://www.w3.org/2000/svg" width="71.65523" height="24" viewBox="0 0 71.65523 24">
  <defs>
    <style>
      .a {
        fill: #111822;
      }
    </style>
  </defs>
  <title>square</title>
  <g>
    <g>
      <path class="a" d="M33.33726,9.65688a5.07884,5.07884,0,0,0-2.68015-.80345c-1.06005,0-1.80955.41845-1.80955,1.13426,0,.69555.81688.90478,1.95115,1.09374l.5332.08789c1.688.27685,3.01168.99926,3.01168,2.6467,0,2.08641-1.8364,3.07883-3.8691,3.07883a6.57536,6.57536,0,0,1-3.98335-1.23559l.979-1.519a4.9897,4.9897,0,0,0,3.0112,1.01952c1.04638,0,1.85691-.41186,1.85691-1.1411,0-.655-.68895-.89794-2.00535-1.10741l-.60106-.09449c-1.66747-.26342-2.88279-.99925-2.88279-2.70749,0-1.97166,1.75536-2.998,3.76754-2.998a6.65127,6.65127,0,0,1,3.61227,1.00609Z"/>
      <path class="a" d="M40.57107,10.90589v-.7224h1.72166v9.24356H40.53738V16.04427a2.39336,2.39336,0,0,1-1.9243.85058,3.24109,3.24109,0,0,1-3.16647-3.44333,3.24131,3.24131,0,0,1,3.16647-3.44357A2.395,2.395,0,0,1,40.57107,10.90589Zm-3.32174,2.54563a1.69162,1.69162,0,1,0,3.37594,0,1.69162,1.69162,0,1,0-3.37594,0Z"/>
      <path class="a" d="M50.20134,13.9376a2.8159,2.8159,0,0,1-3.09225,2.95725A2.818,2.818,0,0,1,44.01,13.9376V10.18349h1.76219v3.59884c0,1.04662.57372,1.47191,1.3369,1.47191.75634,0,1.3369-.42529,1.3369-1.47191V10.18349h1.75535Z"/>
      <path class="a" d="M58.33749,16.72615H56.61583v-.72241a2.40043,2.40043,0,0,1-1.958.89111,3.24109,3.24109,0,0,1-3.16647-3.44333,3.24131,3.24131,0,0,1,3.16647-3.44357,2.395,2.395,0,0,1,1.958.89794v-.7224h1.72166Zm-5.0434-3.27463a1.69162,1.69162,0,1,0,3.37594,0,1.69162,1.69162,0,1,0-3.37594,0Z"/>
      <path class="a" d="M64.57424,10.1498l-.26366,1.74876a2.85616,2.85616,0,0,0-1.0664-.20947A1.30846,1.30846,0,0,0,61.86675,13.161v3.56515H60.10407V10.18349h1.70848v.71581a2.065,2.065,0,0,1,1.84325-.89135A2.67524,2.67524,0,0,1,64.57424,10.1498Z"/>
      <path class="a" d="M71.65523,13.44469a4.99177,4.99177,0,0,1-.03418.59423H66.98291a1.57909,1.57909,0,0,0,1.68114,1.35716,2.64718,2.64718,0,0,0,1.65428-.62792l1.0327,1.13427a3.97065,3.97065,0,0,1-2.78855.99242,3.23537,3.23537,0,0,1-3.396-3.42306,3.22577,3.22577,0,0,1,3.30856-3.46384A3.16123,3.16123,0,0,1,71.65523,13.44469Zm-4.666-.60766H69.8862a1.45579,1.45579,0,0,0-2.89694,0Z"/>
    </g>
    <g>
      <path class="a" d="M27.35,22.13893v1.02343H26.7924V20.36381h1.1411c.668,0,1.02343.34789,1.02343.88964,0,.53759-.35546.88548-1.019.88548Zm0-1.26121v.75145h.57373c.30371,0,.46191-.12377.46191-.37572,0-.25-.1582-.37573-.46191-.37573Z"/>
      <path class="a" d="M31.35681,22.19289a1.04773,1.04773,0,1,1-1.04931-1.01952A1.00715,1.00715,0,0,1,31.35681,22.19289Zm-1.563,0a.515.515,0,1,0,.51366-.53369A.5062.5062,0,0,0,29.79384,22.19289Z"/>
      <path class="a" d="M33.17124,21.21536l-.07812.51782a.845.845,0,0,0-.31592-.062.38745.38745,0,0,0-.40771.43578v1.05541H31.848v-1.937h.50586v.21191a.61062.61062,0,0,1,.5454-.26391A.79517.79517,0,0,1,33.17124,21.21536Z"/>
      <path class="a" d="M35.0638,21.68923h-.70165v.70751c0,.24195.12793.32984.28955.32984a.75866.75866,0,0,0,.36425-.126l.19141.408a1.0812,1.0812,0,0,1-.6416.20385c-.47949,0-.72558-.272-.72558-.77367v-.74951h-.37353v-.46386h.37353v-.57568h.522v.57568h.70165Z"/>
      <path class="a" d="M36.89874,21.68923h-.602v1.47313h-.52148V21.68923h-.36181v-.46386h.36181v-.23974a.66473.66473,0,0,1,.69335-.7517,1.02629,1.02629,0,0,1,.5957.17407l-.20752.40575a.70569.70569,0,0,0-.332-.094c-.1499,0-.228.0918-.228.27173v.23388h.602Z"/>
      <path class="a" d="M39.303,22.19289a1.04773,1.04773,0,1,1-1.04931-1.01952A1.00715,1.00715,0,0,1,39.303,22.19289Zm-1.563,0a.515.515,0,1,0,.51367-.53369A.50621.50621,0,0,0,37.74,22.19289Z"/>
      <path class="a" d="M40.31961,23.16236h-.52148V20.284h.52148Z"/>
      <path class="a" d="M41.51637,20.59183a.333.333,0,1,1-.334-.33593A.3312.3312,0,0,1,41.51637,20.59183Zm-.07031,2.57053h-.52148v-1.937h.52148Z"/>
      <path class="a" d="M44.01586,22.19289a1.04773,1.04773,0,1,1-1.04931-1.01952A1.00715,1.00715,0,0,1,44.01586,22.19289Zm-1.563,0a.515.515,0,1,0,.51366-.53369A.5062.5062,0,0,0,42.45289,22.19289Z"/>
      <path class="a" d="M48.56562,23.16236H48.008V21.04959l-.69189,1.843h-.58935l-.69189-1.82713v2.0969h-.55761V20.36381h.81738l.72753,1.88914.72558-1.88914h.81786Z"/>
      <path class="a" d="M51.15885,23.16236h-.50976V22.9485a.71.71,0,0,1-.57958.26391,1.02311,1.02311,0,0,1,0-2.039.70909.70909,0,0,1,.57958.26587v-.21387h.50976Zm-1.49315-.96947a.50083.50083,0,1,0,.5-.53369A.49857.49857,0,0,0,49.6657,22.19289Z"/>
      <path class="a" d="M53.59975,21.929v1.23338h-.522V22.09694c0-.27978-.13965-.43383-.37744-.43383a.39727.39727,0,0,0-.41015.43774v1.06151h-.52148v-1.937h.50781v.228a.6481.6481,0,0,1,.56933-.28A.72165.72165,0,0,1,53.59975,21.929Z"/>
      <path class="a" d="M56.10314,23.16236h-.50976V22.9485a.71.71,0,0,1-.57959.26391,1.02311,1.02311,0,0,1,0-2.039.7091.7091,0,0,1,.57959.26587v-.21387h.50976ZM54.61,22.19289a.50083.50083,0,1,0,.5-.53369A.49857.49857,0,0,0,54.61,22.19289Z"/>
      <path class="a" d="M58.09238,21.44143v-.21606h.51171v1.77708A.94785.94785,0,0,1,57.55869,24a1.533,1.533,0,0,1-.84765-.23388l.186-.42578a1.14446,1.14446,0,0,0,.63964.19775.49463.49463,0,0,0,.55175-.51367v-.136a.73047.73047,0,0,1-.5957.262.99378.99378,0,0,1,0-1.977A.73327.73327,0,0,1,58.09238,21.44143Zm-.95556.72143a.48733.48733,0,1,0,.48779-.50976A.48093.48093,0,0,0,57.13682,22.16286Z"/>
      <path class="a" d="M61.023,22.19094a1.52866,1.52866,0,0,1-.00976.17578H59.63972a.46775.46775,0,0,0,.49805.40185.78351.78351,0,0,0,.48974-.18579l.30566.33569a1.175,1.175,0,0,1-.82568.29394,1.02,1.02,0,0,1-.02588-2.039A.93587.93587,0,0,1,61.023,22.19094ZM59.64217,22.011h.85741a.43087.43087,0,0,0-.85741,0Z"/>
      <path class="a" d="M64.65676,21.929v1.23338h-.51952V22.09694c0-.27978-.14209-.43383-.37793-.43383a.39691.39691,0,0,0-.40966.43774v1.06151h-.522V22.09694c0-.27978-.13965-.43383-.37744-.43383a.39727.39727,0,0,0-.41015.43774v1.06151h-.52148v-1.937h.50781v.228a.6481.6481,0,0,1,.56933-.28.73286.73286,0,0,1,.63964.332.7286.7286,0,0,1,.65771-.332A.72077.72077,0,0,1,64.65676,21.929Z"/>
      <path class="a" d="M67.06055,22.19094a1.52621,1.52621,0,0,1-.00977.17578H65.67726a.46774.46774,0,0,0,.498.40185.78347.78347,0,0,0,.48974-.18579l.30566.33569a1.17494,1.17494,0,0,1-.82567.29394,1.02,1.02,0,0,1-.02588-2.039A.93588.93588,0,0,1,67.06055,22.19094ZM65.6797,22.011h.85741a.43087.43087,0,0,0-.85741,0Z"/>
      <path class="a" d="M69.38718,21.929v1.23338h-.522V22.09694c0-.27978-.13965-.43383-.37744-.43383a.39727.39727,0,0,0-.41015.43774v1.06151h-.52148v-1.937h.5078v.228a.64812.64812,0,0,1,.56934-.28A.72164.72164,0,0,1,69.38718,21.929Z"/>
      <path class="a" d="M71.3647,21.68923h-.70165v.70751c0,.24195.12793.32984.28955.32984a.75512.75512,0,0,0,.36376-.126l.19238.408a1.08387,1.08387,0,0,1-.64208.20385c-.47949,0-.72558-.272-.72558-.77367v-.74951h-.37353v-.46386h.37353v-.57568h.522v.57568h.70165Z"/>
    </g>
    <path class="a" d="M10.3922,0,0,5.99994V17.99982l10.3922,5.99994,10.3922-5.99994V5.99994Zm0,20.30751L3.1976,16.15369V7.84606l7.1946,4.15382Zm2.3982-1.38461-1.1991-.6923V11.30728L5.5958,7.846V6.46146l7.1946,4.15381Zm2.3982-1.3846-1.1991-.6923V9.92278L7.994,6.46126V5.07685l7.1946,4.15382Zm2.3982-1.38461-1.1991-.6923V8.53827L10.3922,5.07676V3.6923l7.1946,4.15381Z"/>
  </g>
</svg>
