<svg xmlns="http://www.w3.org/2000/svg" width="82.67142" height="24" viewBox="0 0 82.67142 24">
  <defs>
    <style>
      .a, .b, .c, .d {
        fill: #999da6;
      }

      .b {
        opacity: 0.25;
      }

      .c {
        opacity: 0.5;
      }

      .d {
        opacity: 0.75;
      }
    </style>
  </defs>
  <title>think-etfs-subjacent</title>
  <g>
    <g>
      <polygon class="a" points="56.326 18.195 53.596 13.288 52.964 14.28 52.964 18.195 51.437 18.195 51.437 13.855 51.42 13.855 51.437 13.823 51.437 6.224 52.964 6.224 52.964 11.454 56.359 6.224 58.194 6.224 54.555 11.827 58.08 18.195 56.326 18.195"/>
      <polygon class="a" points="46.3 18.195 44.772 18.195 44.772 6.224 46.056 6.224 48.978 13.468 48.978 6.224 50.522 6.224 50.522 18.195 49.222 18.195 46.3 10.951 46.3 18.195"/>
      <rect class="a" x="42.28357" y="6.22362" width="1.52659" height="11.97168"/>
      <polygon class="a" points="41.1 6.224 41.1 18.195 39.557 18.195 39.557 12.979 37.25 12.979 37.25 18.195 35.723 18.195 35.723 6.224 37.25 6.224 37.25 11.436 39.557 11.436 39.557 6.224 41.1 6.224"/>
      <polygon class="a" points="34.974 7.766 32.359 7.766 32.359 18.195 30.816 18.195 30.816 7.766 28.201 7.766 28.201 6.224 34.974 6.224 34.974 7.766"/>
      <g>
        <path class="a" d="M59.82341,6.76267v5.149H63.569v.54958H59.82341v5.16665H63.569v.54958H59.272V6.21654h4.297v.54613Z"/>
        <path class="a" d="M70.50855,6.76267H67.63374V18.1599h-.55067V6.76267H64.225V6.1953h6.28359Z"/>
        <path class="a" d="M71.60971,6.76267v5.149h3.74558v.54958H71.60971v5.71623h-.54958V6.21654h4.29516v.54613Z"/>
        <path class="a" d="M76.26036,6.21654h.55049V7.77687h-.55049Z"/>
      </g>
      <path class="a" d="M80.09544,18.1599a2.27531,2.27531,0,0,1-1.91654-.81575,3.58816,3.58816,0,0,1-.64018-2.34394v-.266h.54976v.266a4.07364,4.07364,0,0,0,.19591,1.40437,1.98109,1.98109,0,0,0,.48839.78,1.417,1.417,0,0,0,.64708.34768,3.08281,3.08281,0,0,0,.67558.07789,1.7704,1.7704,0,0,0,1.48226-.66668,2.93,2.93,0,0,0,.52307-1.85445A2.37305,2.37305,0,0,0,81.88,14.01453a2.541,2.541,0,0,0-1.18086-1.15962c-.226-.1064-.40778-.19155-.55049-.25183l-.30139-.12055c-.17811-.07444-.39707-.17739-.65688-.3121a3.17117,3.17117,0,0,1-.75438-.56738,3.368,3.368,0,0,1-.63038-.9078,2.967,2.967,0,0,1-.26689-1.32266,3.73871,3.73871,0,0,1,.62148-2.21974,2.28111,2.28111,0,0,1,1.93524-.95755,2.3435,2.3435,0,0,1,1.93434.837,3.6758,3.6758,0,0,1,.63927,2.3403v.28723h-.56828V9.37259a3.2164,3.2164,0,0,0-.51509-2.00351,1.78189,1.78189,0,0,0-1.49024-.60641,1.69624,1.69624,0,0,0-1.47335.7306,3.09822,3.09822,0,0,0-.53361,1.87932,2.48544,2.48544,0,0,0,.21443,1.08518,2.60532,2.60532,0,0,0,.52307.74458,2.73773,2.73773,0,0,0,.64889.47877,5.79858,5.79858,0,0,0,.60205.2836l.28451.12419q.23013.0904.62148.27669a3.0795,3.0795,0,0,1,.76237.53179,3.16578,3.16578,0,0,1,.64889.87948,2.82775,2.82775,0,0,1,.27488,1.31213,3.46649,3.46649,0,0,1-.63927,2.16655A2.2975,2.2975,0,0,1,80.09544,18.1599Z"/>
    </g>
    <circle class="b" cx="11.99763" cy="12" r="12"/>
    <circle class="c" cx="11.99763" cy="12" r="9.99763"/>
    <circle class="d" cx="11.99763" cy="12" r="7.99763"/>
    <circle class="a" cx="11.99763" cy="12" r="5.99763"/>
  </g>
</svg>
