<svg xmlns="http://www.w3.org/2000/svg" width="78.563" height="24.00019" viewBox="0 0 78.563 24.00019">
  <defs>
    <style>
      .a {
        fill: #1766a6;
      }
    </style>
  </defs>
  <title>unilever</title>
  <g>
    <path class="a" d="M33.20291,10.6107a9.38028,9.38028,0,0,1-.40175-1.33255,1.56408,1.56408,0,0,1,.85142-1.80593c.53777-.15005.74784.12.956.74783a13.05937,13.05937,0,0,1,.20862,4.002c-.11762,2.44971-1.3432,5.40813-4.38972,5.34666-2.62976-.0576-3.79338-1.76092-3.91439-4.35971a11.936,11.936,0,0,1,.53776-4.18158C27.32,8.1,27.56,7.76989,28.395,7.59225c.65635-.12.5973.56632.4487,1.37563a15.91288,15.91288,0,0,0-.35819,4.68885c.11714,2.15106,1.10506,2.988,2.18058,2.988,1.61329.031,2.32967-1.31318,2.62977-3.25707A5.67076,5.67076,0,0,0,33.20291,10.6107Zm34.3975,2.12153c.62828,0,.80834.743.65829,1.19315a1.9157,1.9157,0,0,1-1.52277,1.106C66.55586,14.58221,66.46583,12.73223,67.60041,12.73223Zm-11.67784,1.0126c0-.50582-.27057-.92451-.59633-.92451-.272,0-.89692.29768-.89692,1.25414a1.85433,1.85433,0,0,0,.3882,1.257A1.55021,1.55021,0,0,0,55.92257,13.74483Zm-9.29251-6.093a.877.877,0,0,0-.926-.80543A1.186,1.186,0,0,0,44.66,8.18859a.87565.87565,0,0,0,.89741.89789A1.26852,1.26852,0,0,0,46.63006,7.65179Zm4.85826,1.75463c-.05179-.83544-.25412-1.21251-.70282-1.18153-.59488.03582-.86981,1.90759-.74832,3.87519.07745,1.28366.26864,1.48163.44677,1.469C50.81309,13.54928,51.60256,11.25592,51.48832,9.40642Zm19.8169,3.14478c-.37029,1.53584-1.49277,3.79533-3.16753,3.79533-.38771,0-1.075-.15054-1.075-.53874,0-.41869,2.63073-.47629,2.63073-2.47923a1.86162,1.86162,0,0,0-1.70332-1.79286c-1.34417,0-2.65542,1.46517-2.65542,3.49618a2.13746,2.13746,0,0,0,2.26626,2.41873c1.97244,0,3.16752-1.61426,3.79435-2.95746.3001.89643.47629,2.95746,1.22606,2.95746.29768,0,.50824-.14957.86691-.955.894-2.00294,1.7614-4.30308,2.957-4.30308.44676,0,.17909.80834,1.25414.80834a.87268.87268,0,0,0,.864-.89837c0-.68781-.62634-1.22364-1.58134-1.22364-2.80886,0-3.40422,4.21256-3.85292,4.21256-.74735,0-.50824-3.37615-1.047-3.37615C71.60387,11.71479,71.36911,12.2845,71.30522,12.5512Zm-23.8978,3.58428a2.09461,2.09461,0,0,0,1.82385-1.1157,11.1394,11.1394,0,0,1-.62828-2.89114c-.17813-2.896.93757-5.62014,2.1588-5.69565.89546-.05421,1.61183.79334,1.69412,2.16655A10.46968,10.46968,0,0,1,50.87263,15.014a2.13713,2.13713,0,0,0,1.76286,1.3616,1.15754,1.15754,0,0,0,.74832-.27058,2.96216,2.96216,0,0,1-.121-.86594c0-2.091,1.34465-3.85437,2.51021-3.85437.926,0,1.46372,1.22461,1.46372,2.033,0,.95451-.80737,1.73284-2.00149,2.47971a1.43162,1.43162,0,0,0,.92645.35867c1.70429,0,2.59588-2.062,3.2561-3.94489.11908-.35915.32963-.86594.74687-.86594.71686,0,1.017,4.72031,2.20865,4.72031.50969,0,.92693-1.04648.92693-1.85095,0-.59827-.2091-.65829-.2091-1.52471,0-.955.50824-1.76092,1.197-1.76092.41772,0,.56874.41627.56874.92305,0,1.91242-1.37611,5.46815-3.4047,5.46815-1.52617,0-1.40709-2.62928-1.94437-2.62928-.6002,0-1.43662,2.6588-4.39117,2.6588a1.89623,1.89623,0,0,1-1.40419-.71782,3.43673,3.43673,0,0,1-2.00245.6883c-1.10409,0-1.58328-1.13555-2.03005-1.13555-.53873,0-1.13458,1.16507-2.9289,1.16507-1.43371,0-1.67282-1.91-2.17961-1.91-.44918,0-1.136,1.91-1.88241,1.91-1.25656,0-1.52278-3.31516-2.63025-3.31516-.86594,0-3.60316,3.36695-4.34615,3.29-.29866-.031-.4245-.25412-.393-.55325a21.083,21.083,0,0,1,.54212-2.04312c.24153-.90853.46322-1.90419.58713-2.22172a.79347.79347,0,0,1,.72073-.52421c.13408.01258.17426.26283.21588.46951.151.73864.36158,1.4918.59924,1.4918.41966,0,1.80545-2.65929,2.61185-2.65929.98744,0,1.10554,4.18352,2.44922,4.18352.44919,0,.77882-.5368,1.0765-1.196.03049-1.107.32914-2.68689,1.22509-2.68689.62779,0,.92693,1.40274.47726,2.62928-.001,1.46277.954,1.82144,1.58279,1.82144"/>
    <path class="a" d="M20.87078,5.24186a.38675.38675,0,0,1-.40156-.19575c-.08059-.16062-.05336-.41953-.205-.53524a1.55354,1.55354,0,0,0,.43668.04438c.40184,0,.78571-.27633,1.08028-.27633a.23083.23083,0,0,1,.25673.24938C22.03818,4.92115,21.24594,5.24186,20.87078,5.24186Zm.196,1.00759a1.75274,1.75274,0,0,0,1.77478-1.39064.54337.54337,0,0,0-.50883-.59759.39228.39228,0,0,1,.089.28532c0,.49059-.74732,1.03454-1.55971,1.03454a.34095.34095,0,0,0-.38387.31172C20.4782,6.14273,20.71941,6.24945,21.0668,6.24945Zm-.071.37461a3.13537,3.13537,0,0,0,1.747,1.96127c.2325-.0196.32152-1.1056.32152-1.96127,0-.49032.027-.87392-.232-.96321a2.03708,2.03708,0,0,1-1.83658.96321"/>
    <path class="a" d="M.92728,12.23209c.30274,0,.24039-1.85482.73071-1.85482.11625,0,.15191.116.15191.25863,0,.419-.20527,1.03454-.20527,1.373,0,.16961.04465.22324.125.22324.21426,0,.5886-2.04213.954-2.04213.116,0,.16933.116.16933.232,0,.428-.5434,1.65826-.5434,2.00592,0,.05363.01742.098.06234.098.223,0,.66864-.96267.811-1.444.08031-.24992.1873-.38387.28559-.38387.089,0,.16961.09829.16961.30356a7.54936,7.54936,0,0,1-.83853,2.37182,5.97167,5.97167,0,0,0-.77536,1.90737.94561.94561,0,0,0,.39177.7936c-.57064-.03566-.80232-.089-1.016-.53469-.95423,1.89893,1.75627,1.71189.829,3.39629-.16961-.30247-1.50662-.61474-1.50662-2.38,0-1.52459,1.337-2.4162,1.337-3.0489a.40677.40677,0,0,0-.16008-.3297c-.29457-.25019-.30356-.45465-.53524-.45465-.16907,0-.37488.392-.16063.7397.07161.116.134.1873.134.2943,0,.24938-.39258.91774-.66864.91774-.2766,0-.49-.68552-.49-1.79166,0-.98118.22243-1.97025.499-1.97025.08,0,.10672.05336.10672.125,0,.116-.03539.34739-.03539.73969,0,.419.098.45493.17833.45493"/>
    <path class="a" d="M3.20027,14.844c.37489,0,.68661-.27687.68661-.89106v-.90985a1.55954,1.55954,0,0,1,.25891-1.01658,1.59535,1.59535,0,0,0-.027.35692c0,.76692.4277,1.29318.4277,2.03287,0,.27606-.08032.428-.29376.428-.20527,0-.18731-.18731-.23223-.18731-.03539,0-.089.11571-.089.24067a.482.482,0,0,0,.508.48133.61153.61153,0,0,0,.57935-.624c0-.80177-.624-1.69393-.624-2.5496a2.00389,2.00389,0,0,1,.17833-.82055c0,1.77451,1.50662,3.06714,1.50662,3.80684a.29761.29761,0,0,1-.312.30355.29118.29118,0,0,1-.30328-.28586c0-.06234-.009-.08-.03567-.08a.45674.45674,0,0,0-.21371.41055.6673.6673,0,0,0,.68633.651.7898.7898,0,0,0,.78435-.81185c0-.93571-1.8276-2.35358-1.8276-3.86891a2.09334,2.09334,0,0,1,.232-.9986,3.06526,3.06526,0,0,0-1.54228,2.64788c0,.76692-.02668,1.1497-.419,1.1497-.20527,0-.25863-.18676-.33023-.18676-.05337,0-.08032.16035-.08032.20473a.48908.48908,0,0,0,.48188.517"/>
    <path class="a" d="M16.70784,4.80517a4.00793,4.00793,0,0,0,1.26568-.27687.48356.48356,0,0,1,.23169-.0618c.31254,0,.23222.35637.51781.35637.22243,0,.50856-.18731.67817-.18731.26571,0,.64931.83825.64931,1.23056,0,.45466-.68525.73126-1.49709.73126a1.90377,1.90377,0,0,1-1.8992-1.70318A.09482.09482,0,0,1,16.70784,4.80517Zm1.94385,1.13228c.39258,0,.68688-.17832.68688-.28559,0-.03512-.05336-.06207-.16961-.06207a4.87678,4.87678,0,0,1-.78516-.08031c-.37516-.06235-.66047-.205-.76747-.205-.03566,0-.05363.0177-.05363.04438,0,.23223.42852.5886,1.089.5886"/>
    <path class="a" d="M3.38785,18.20521a1.29773,1.29773,0,0,0-.76692,1.26649,2.48567,2.48567,0,0,0,2.47854,2.21991,1.45156,1.45156,0,0,0,1.6226-1.50744A2.06066,2.06066,0,0,0,4.8147,17.89294a1.07545,1.07545,0,0,0-1.11485,1.06068,1.47594,1.47594,0,0,0,1.50662,1.47149.75156.75156,0,0,0,.79333-.7661.98635.98635,0,0,0-.9006-.954.26119.26119,0,0,0-.27606.27606c0,.21344.29376.428.65966.428a.47735.47735,0,0,0,.19629-.03593.21913.21913,0,0,1,.02668.10726c0,.20528-.19629.33024-.4993.33024a.87277.87277,0,0,1-.89162-.87473c0-.32017.27661-.55185.67763-.55185A1.32565,1.32565,0,0,1,6.25816,19.793c0,.63243-.34712.99861-1.06068.99861a1.93694,1.93694,0,0,1-1.80963-2.58635"/>
    <path class="a" d="M13.565,23.42909a4.19848,4.19848,0,0,0,.53932-.03566c.1334,0,.14266.08031.14266.134,0,.19629-.43723.43695-1.21287.43695a.78708.78708,0,0,1-.8113-.50828A3.51419,3.51419,0,0,1,10.4309,24,4.40361,4.40361,0,0,1,7.569,22.948c-.437-.1963-1.1056.1873-2.04186-.85595a2.23683,2.23683,0,0,0,.42825.03566c.81974,0,1.25669-.40047,1.25669-1.043a2.30543,2.30543,0,0,0-.018-.24883,1.76959,1.76959,0,0,1,.95478,1.2831c.01742.0893.38278.16934.61473.16934a.72548.72548,0,0,0,.79361-.65939,2.00417,2.00417,0,0,0,1.94412-1.52513,2.11463,2.11463,0,0,1,.92673.65149,1.61082,1.61082,0,0,1,.53469-.08031,3.42869,3.42869,0,0,1,.98962.16961c.018-.116.03567-.25863.21426-.25863.26735,0,.196.2943.28532.46282.04465.08929.26789.14265.26789.32125a.22884.22884,0,0,1-.2325.2325.39446.39446,0,0,1-.10727-.0177c-.178.06234-.1873,1.34545-.936,1.34545a1.50168,1.50168,0,0,1-1.28393-1.02474.38182.38182,0,0,0-.321-.27661c-.14238,0-.22269.027-.39176.21426a3.09965,3.09965,0,0,1-2.27354.9801c-.30328,0-.544-.02723-.60657-.02723-.03594,0-.03594.009-.03594.0177,0,.06262.303.30355.96294.30355,1.56924,0,1.95284-.88289,2.20222-.88289a.20655.20655,0,0,1,.20473.14293A1.75163,1.75163,0,0,0,13.565,23.42909Zm-.69124-1.78186a.35678.35678,0,1,0,.35691-.35718.358.358,0,0,0-.35691.35718"/>
    <path class="a" d="M19.9348,17.19762c-.125,0-.25864.09828-.25864.33949a.56433.56433,0,0,0,.321.4895.54782.54782,0,0,0,.25809.07187c.25891,0,.46446-.07187.46446-.28613C20.71941,17.53711,20.31757,17.19762,19.9348,17.19762Zm-.96186.55239c-.1873,0-1.22293,1.38193-1.89021,1.38193-.16035,0-.2943-.303-.2943-.53388,0-.125.08-.21426.36617-.27715,1.533-.34766,1.19381-1.49818,2.50332-1.49818a1.4964,1.4964,0,0,1,1.52568,1.59619,4.01482,4.01482,0,0,1-1.92507,2.63863c-.20527,0-.42824-.294-.42824-.49005,0-.06234.02695-.14266.20527-.214a2.08236,2.08236,0,0,0,1.34463-1.52513.158.158,0,0,0-.16035-.1775c-.15137,0-.80041,1.47939-1.5235,1.47939-.50012,0-1.00867-.45357-1.00867-.6681,0-.35719,1.4459-1.0163,1.4459-1.51614-.00027-.18758-.0893-.196-.16063-.196"/>
    <path class="a" d="M1.3283,6.06241A1.06984,1.06984,0,0,1,.749,6.25816a.67018.67018,0,0,1-.68633-.68634A.75161.75161,0,0,1,.535,4.86724a.88511.88511,0,0,0-.00872.15165A1.03762,1.03762,0,0,0,1.3283,6.06241Zm1.90791,1.7119a1.69323,1.69323,0,0,0-.40129,1.025.801.801,0,0,0,.74922.88235.67462.67462,0,0,0,.642-.75739A1.31689,1.31689,0,0,0,3.23621,7.77431ZM.2766,8.13068a.17444.17444,0,0,0,.14212.26762c.07133,0,.116-.0177.15164-.0177.21371,0,.45465.15137.80231.15137a1.70156,1.70156,0,0,0,.74868-.21371,1.86067,1.86067,0,0,0,.89189-1.24853c0-.16961-.13613-.14729-.24993-.30329-.11379-.15545-.07023-.29293-.14265-.36562-.04111-.04166-.16907-.04438-.33-.06235-.05363-.00572-.125-.009-.19629-.009a1.80806,1.80806,0,0,0-1.034.28558C.28722,7.10866.401,7.92568.2766,8.13068Zm2.095-1.1056c.0618.08413.23223.18758.23223.24992,0,.12442-.07188.28532-.21426.28532-.31227,0-.56165-.47262-.56165-.74051,0-.16907.09828-.18677.23168-.18677a.21488.21488,0,0,1,.13368.03567C2.27327,6.71336,2.27327,6.89141,2.37155,7.02508ZM1.551,8.113a.736.736,0,0,1-.615-.69559c0-.178.13367-.40129.23168-.40129.03566,0,.05363.027.06235.08957a1.01392,1.01392,0,0,0,.60656.811c.02668.0177.04465.02668.04465.04438C1.88123,8.02369,1.71162,8.113,1.551,8.113Zm.75821-2.24686a1.75674,1.75674,0,0,0,.08-.51727c0-.4277-.19657-1.07864-.80259-1.07864a.59407.59407,0,0,0-.59758.60629C.98908,5.58108,1.69365,5.86612,2.30921,5.86612ZM0,9.43229c0,.67736.20527.99861.57063.99861a1.99686,1.99686,0,0,0,1.123-.59758A3.95207,3.95207,0,0,1,.838,9.96726.93726.93726,0,0,1,0,9.43229Zm.31227-.7936a.69265.69265,0,0,0-.00871.13368c0,.419.22242.65094.51672.65094a.95843.95843,0,0,0,.71247-.42824,1.87694,1.87694,0,0,1-.3207.02668A1.06768,1.06768,0,0,1,.31227,8.63869ZM2.49651,8.514a.84772.84772,0,0,0-.63325.74869.52512.52512,0,0,0,.56165.52625.58207.58207,0,0,0,.34766-.0893,1.03874,1.03874,0,0,1-.33868-.77536A1.19165,1.19165,0,0,1,2.49651,8.514Zm.32071-2.44288a.35665.35665,0,1,0,.35637-.35691A.35787.35787,0,0,0,2.81722,6.07112Zm.46336.80232a.35692.35692,0,1,0,.35747-.35637.35828.35828,0,0,0-.35747.35637"/>
    <path class="a" d="M17.19,11.25091a.34274.34274,0,0,1,.685,0,.34253.34253,0,1,1-.685,0ZM14.05969,8.505a.35692.35692,0,1,0,.35637-.35637A.358.358,0,0,0,14.05969,8.505ZM13.757,9.762a.50829.50829,0,1,0,.508-.50829A.513.513,0,0,0,13.757,9.762Zm1.12357-.57063a.54354.54354,0,1,0,.54231-.54368A.54.54,0,0,0,14.88052,9.19136Zm.04492-1.159a.338.338,0,1,0,.337-.33841A.33869.33869,0,0,0,14.92544,8.0324ZM16.53851,7.177a.33922.33922,0,1,0,.33922-.33922A.33875.33875,0,0,0,16.53851,7.177Zm-.66919,1.09662a.57118.57118,0,1,0,.5709-.57063A.57449.57449,0,0,0,15.86932,8.27361Zm-.91748,2.086a.35624.35624,0,1,0,.35529-.35664A.35718.35718,0,0,0,14.95184,10.35957Zm1.1674-.71356a.35692.35692,0,1,0,.35719-.35637A.35787.35787,0,0,0,16.11924,9.646Zm-.33,1.25724a.61583.61583,0,1,0,.61555-.61528A.61662.61662,0,0,0,15.78928,10.90325Zm1.28446-.75821a.41859.41859,0,1,0,.4179-.41872A.41869.41869,0,0,0,17.07374,10.145Zm-.02668-1.12329a.37394.37394,0,1,0,.37271-.37407.37673.37673,0,0,0-.37271.37407"/>
    <path class="a" d="M17.95528,20.71969a2.626,2.626,0,0,1-1.67568.57907,2.20085,2.20085,0,0,1-.7672-.15164c-.0893,0-.18731.089-.28559.20527a2.01159,2.01159,0,0,0-.48868,1.2213.73055.73055,0,0,0,.792.71247c1.66887,0,2.916-1.04271,2.916-1.88912C18.44614,20.916,18.16083,20.71969,17.95528,20.71969Zm-.46364-.098a.32607.32607,0,0,0,.089-.25891v-.205c0-.25891-.39067-.40973-.92619-.40973-.65148,0-.99942.29348-.99942.41871v.41c0,.16988.39286.33922.87473.33922A1.48784,1.48784,0,0,0,17.49164,20.62168Zm-.07187.88262c.04492,0,.098.02641.098.18731a.78137.78137,0,0,1-.40837.65884,1.71239,1.71239,0,0,1-.97247.285,2.09645,2.09645,0,0,0,.125-.64958,1.71871,1.71871,0,0,0-.0177-.20528h.116a2.01022,2.01022,0,0,0,1.05959-.27633"/>
    <path class="a" d="M14.015,10.60949c.098.7574,1.1154.37407,1.1154,1.29209,0,.134-.03566.33051-.03566.49958,0,.19629.01742.36562.1677.36562.15137,0,.18731-.10672.18731-.24965s-.03594-.321-.03594-.419a.34521.34521,0,0,1,.35746-.38332c.339,0,.59758.34766,1.10642.34766-.11625.57063-1.294.419-1.294,1.04325,0,.31227.31227.38306.51755.38306.1873,0,.24992-.02668.24992-.18677,0-.08957-.018-.18758-.018-.24992a.07057.07057,0,0,1,.0716-.0716c.19684,0,1.15787.73126,1.15787.9545,0,.20473-1.01521.40973-1.30951.40973a.095.095,0,0,1-.10726-.098c0-.06234.15164-.24965.15164-.35637,0-.08031-.13368-.134-.49087-.134-.16961,0-.29457.018-.29457.15192,0,.24012.39258.53469.39258.75712,0,.17859-.107.28559-.39258.28559-.24094,0-.6052-.18758-.6052-.49931,0-.24965.25727-.49875.25727-.65067a.124.124,0,0,0-.141-.116c-.33051,0-.41954.87338-1.588.97166a.89526.89526,0,0,0,.34739-.73943c0-.1873-.0441-.33922-.0441-.54395,0-.26762.12442-.40156.30274-.40156.32969,0,.49032.46336.70512.46336a.25758.25758,0,0,0,.24094-.26707c0-.67763-1.30216-.57962-1.30216-1.53357A2.21414,2.21414,0,0,1,14.015,10.60949Zm4.25251,2.61222c0,.22243.07187.48106.29484.48106.18731,0,.34766-.28477.34766-.597,0-.35664-.06234-.63325-.06234-.77618,0-.06207.02695-.08875.06234-.08875.134.009.25864.37434.40184.37434.16063,0,.39993-.29457.49767-.29457.02695,0,.03566.03594.03566.04465,0,.13394-.20527.42852-.20527.54422,0,.098.51754.11571.51754.205,0,.134-.54259.134-.801.24993-.24965.10672-.40211.24039-.40211.419,0,.17832.1786.21371.42852.21371a3.54378,3.54378,0,0,0,1.14861-.32071.04174.04174,0,0,1,.04438.04438c0,.0893-.303.38332-.303.51727,0,.15137.5532.32915.54422.41872-.00871.02668-.04465.03539-.107.03539-.09855,0-.24992-.02668-.36617-.02668a.206.206,0,0,0-.1609.04437c-.0618.07161.018.54423-.10618.54423-.11625,0-.41953-1.052-1.10451-1.052-.09828,0-.16961.08032-.16961.214a1.34252,1.34252,0,0,0,.67817.96267c.14946.09828.39966.19629.39966.25019,0,.10645-.56927.00871-.56927.18676,0,.16063.07133.40184.07133.544,0,.04464-.009.09773-.06235.09773-.107,0-.36617-.49-.49086-.49-.107,0-.339.294-.43723.294a.04964.04964,0,0,1-.04438-.05309c0-.20528.33024-.66864.33024-1.12357,0-.214-.02695-.67762-.28586-.67762-.214,0-.4552.33867-.56219.67762-.06208.196-.0177.954-.16063.954-.13367,0-.098-.508-.27688-.508-.13149,0-.41708.2404-.51536.2404-.018,0-.03594-.009-.03594-.02668,0-.10672.25891-.45466.25891-.526,0-.13368-.58887-.15137-.58887-.25837,0-.06262.232-.107.44594-.14293.45356-.08031,1.12248-.41,1.12248-.87337,0-.517-.49958-.74024-.82791-.95423-.16961-.107-.35692-.19574-.35692-.26707,0-.0716.214-.0716.30329-.0716.13367,0,.266-.009.266-.11571,0-.08058-.018-.24067-.018-.36563,0-.08929.00872-.16062.04493-.16062.13367,0,.321.43668.41055.43668.14238,0,.33867-.35664.47289-.35664.04411,0,.06234.027.06234.107.00055.33-.16933.70431-.16933,1.02583"/>
    <path class="a" d="M14.274,15.69073c.41055.05363.50883.196.50883.31226,0,.19629-.17859.25837-.34848.25837-.12441,0-.26734-.02668-.419-.02668a.67494.67494,0,0,0-.55266.23195.30491.30491,0,0,1,.28532.27688c0,.517-1.43529.08848-1.43529,1.41759A1.70087,1.70087,0,0,0,14.149,19.63233c.57144,0,.93707-.18731.93707-.40184,0-.16907-.303-.05363-.303-.19629,0-.06234.107-.17859.107-.27715,0-.043-.03567-.12387-.107-.12387a3.57144,3.57144,0,0,1-1.07973.25782c-.48161,0-.95423-.27552-.95423-.6504,0-.08.03594-.125.0893-.125.05363,0,.12468.03593.1873.03593.05363,0,.06235-.03593.06235-.13367,0-.09828,0-.37488.16906-.37488a2.67,2.67,0,0,0,1.722.62426,2.799,2.799,0,0,0,1.49736-.34766,2.31765,2.31765,0,0,1-2.3808,2.27354,2.51586,2.51586,0,0,1-2.55886-2.56811,2.6247,2.6247,0,0,1,2.63917-2.60269c.39176,0,.72254.1334.72254.303C14.89821,15.5576,14.31832,15.41467,14.274,15.69073Zm2.73745.47316a.5297.5297,0,0,1,.0893.28477c0,.24993-.16961.48161-.16961.74052a.53178.53178,0,0,0,.56055.53442.61667.61667,0,0,0,.61556-.64169C18.1072,16.60929,17.679,16.20827,17.0114,16.16389Zm-2.95171.57036a.35953.35953,0,0,1,.116.26735c0,.13367-.06235.2766-.06235.42824a.39206.39206,0,0,0,.392.40075.4156.4156,0,0,0,.42008-.42743A.78317.78317,0,0,0,14.05969,16.73425Zm1.18509-1.51587a1.6488,1.6488,0,0,1,1.44537,1.54282.80674.80674,0,0,1-.78517.8731.75473.75473,0,0,1-.78352-.811c0-.37434.29239-.76664.29239-1.15024A.69065.69065,0,0,0,15.24478,15.21838Zm.46391,1.18591a.21368.21368,0,0,0,.21426.223.24552.24552,0,0,0,.232-.26762c0-.187-.16961-.44567-.33024-.44567-.0716,0-.04465.107-.06234.223-.00926.08875-.05364.19575-.05364.26735"/>
    <path class="a" d="M5.86667,7.23036c.303,0,.6504-1.64057.6504-1.91717,0-.07133-.02641-.125-.08876-.125-.2766,0-.65965,1.56052-.65965,1.90845C5.76838,7.159,5.78608,7.23036,5.86667,7.23036Zm2.18424.49031c.22243,0,.47208-.85622.47208-1.39118,0-.116-.0177-.2404-.0716-.2404-.18731,0-.49931.88263-.49931,1.364C7.95236,7.64036,7.99728,7.72067,8.05091,7.72067Zm-1.45408-.7936c.098,0,.223-.10754.45547-.36535a2.33005,2.33005,0,0,0,.01743-.35692c0-.178-.07133-.37434-.178-.37434-.26789,0-.40129.71329-.40129.90087C6.49066,6.83777,6.54375,6.92707,6.59683,6.92707Zm1.22185-.36536c0-.15191-.03593-.18757-.07133-.18757-.08929,0-.187.10726-.32969.34793.0177.321.07133.46364.16036.46364C7.676,7.18571,7.81868,6.87344,7.81868,6.56171Zm.68661-1.05223c.5886,0,.85568.50828.85568,1.07891,0,.24938-.07079.61528-.18677.61528s-.098-.20527-.116-.39258c-.0177-.24066-.06262-.294-.14293-.294-.15165,0-.24938.35637-.24938.6866,0,.20474.03566.43669.19574.43669a.32507.32507,0,0,0,.22325-.098.7979.7979,0,0,1-.76692.76692c-.78462,0-1.07892-.91856-1.16768-1.45353a2.16508,2.16508,0,0,1-1.69419.86493,1.00347,1.00347,0,0,1-1.06068-1.043c0-.15191.05336-.54395.24094-.54395.2227,0,.02668.73071.46336.73071.10727,0,.30274-.08929.41028-.383a1.65343,1.65343,0,0,0,.098-.52625c0-.24094-.05336-.392-.23168-.392a.699.699,0,0,0-.40157.178,1.34317,1.34317,0,0,1,1.30108-.97165c.70512,0,1.07919.624,1.07919,1.31958a1.7313,1.7313,0,0,1-.027.303,1.55344,1.55344,0,0,1,1.1772-.88262"/>
    <path class="a" d="M6.83805,7.90744c-.38333,0-.401.46445-.401,1.39989-.28559-.615-.75767-1.27493-1.3106-1.27493-.37435,0-.51673.24992-.51673.68633a1.64909,1.64909,0,0,0,.02668.303A.33792.33792,0,0,1,5.00174,8.808,1.62633,1.62633,0,0,1,6.152,9.50362a5.92773,5.92773,0,0,0-.97138-.125A1.12039,1.12039,0,0,0,4.708,9.459a1.18523,1.18523,0,0,0-.6063,1.07892,1.78385,1.78385,0,0,0,.027.294,1.91968,1.91968,0,0,1,1.676-1.00759,1.68979,1.68979,0,0,1,.24966.018,1.45317,1.45317,0,0,0-.35692.98064c-.00844.14265-.06235.15191-.16063.15191,0,.29376.23223.731.23223.95368a.18913.18913,0,0,1-.089.16962c0,.3923.39177.67762.39177.927a.20822.20822,0,0,1-.04465.14293c.02723.16063.45846.43042.51428.56573.0686.16444.14565.19221.1903.19221.15164,0,.39176-.1786.39176-.33922a.21254.21254,0,0,0-.07977-.14266,1.31368,1.31368,0,0,1-.33023-.57009.167.167,0,0,1-.17152-.13149c-.04873-.18459-.05118-.52844-.12251-.73371-.116-.02668-.16961-.07133-.16961-.312,0-.116.0716-.5709.0716-.73153a.12659.12659,0,0,1-.12469-.14265c0-.28505.28559-.508.36536-.87338a1.31138,1.31138,0,0,1,.6327,1.09662,2.34045,2.34045,0,0,1-.06234.50829c.37461-.18758.93626-.46391.93626-1.02556,0-.33024-.15165-.69559-1.15924-.83825a3.1519,3.1519,0,0,1,1.03427-.17805c.57091,0,.9006.17805.97166.57907a1.11154,1.11154,0,0,0,.20527-.57036.7537.7537,0,0,0-.82927-.722,2.84513,2.84513,0,0,0-1.54255.633c.2325-.48133.392-.76664.6779-.76664a.68576.68576,0,0,1,.13367.018c-.107-.392-.508-.7759-.72227-.7759"/>
    <path class="a" d="M21.85959,14.33575c.44648,0,.80313.57934.80313,1.25724a2.80227,2.80227,0,0,1-.94389,2.04131c-.009-1.20333-1.48184-.82-1.48184-1.69338a.59212.59212,0,0,1,.58941-.62426.90337.90337,0,0,1,.66919.24121.79088.79088,0,0,1-.24094-.5709.606.606,0,0,1,.60494-.65122"/>
    <path class="a" d="M13.89906,5.86612a.948.948,0,0,0,.68661.32071c.09856,0,.21481-.02641.27742-.02641.08032,0,.1334.03539.1334.09774a.561.561,0,0,1-.196.3482.89646.89646,0,0,0,.34794.06235,1.04912,1.04912,0,0,0,1.08627-1.1233,1.18929,1.18929,0,0,1,.16988.57064,1.2785,1.2785,0,0,1-1.3724,1.346,1.92484,1.92484,0,0,1-.69668-.14293c-.16907,0-.16009.33922-.27606.33023-.20528-.03566-.392-.49031-.392-.97165A1.42143,1.42143,0,0,1,13.89906,5.86612Zm1.34572-.65094a.66562.66562,0,0,0-.462-.178.7208.7208,0,0,0-.71411.526.83691.83691,0,0,1-.06234-.30328.86152.86152,0,0,1,.91938-.87365,1.56547,1.56547,0,0,1,.87256.303c.089,0,.17832-.0893.24992-.0893.098,0,.098.15164.098.25891A1.46154,1.46154,0,0,1,15.584,6.05343a.90933.90933,0,0,0-.44459-.428.14086.14086,0,0,1-.089-.13368.359.359,0,0,1,.19438-.2766"/>
    <path class="a" d="M7.7027,3.2716A4.86323,4.86323,0,0,0,9.03127,5.10818c.1786,0,.312-.312.312-.57988a.36484.36484,0,0,0-.05309-.19575A5.2227,5.2227,0,0,0,7.74735,3.218.05.05,0,0,0,7.7027,3.2716Zm-6.553-.91829A1.7025,1.7025,0,0,1,.232,3.12894c-.089,0-.11624-.10672-.11624-.20473A.79308.79308,0,0,1,.2943,2.41565a.99565.99565,0,0,1,.58805-.15981C1.007,2.25584,1.1497,2.282,1.1497,2.35331Zm8.14048.51727c0-.53524-1.44645-1.50689-1.46251-1.92561A.15749.15749,0,0,1,7.87939.83444C8.12714.57308,9.156.38251,9.156.15981c0-.11543-.21426-.11543-.32125-.11543-.829,0-2.04159.303-2.04159.597,0,.30355,1.08763,1.04352,1.08763,1.40915,0,.098-.06234.13367-.16062.13367-.30274,0-.96267-.3659-1.27467-.3659-.14265,0-.19656.098-.19656.24121,0,.42771.50829,1.239.50829,1.47913,0,.027-.009.06261-.04465.06261-.16063,0-.91775-.89106-1.18564-.89106-.09774,0-.107.1334-.107.32969v.303c0,.205-.009.33-.10645.33-.2325,0-.33922-.65067-.56192-.65067-.232,0-.27661,1.15869-.499,1.15869-.25891,0-.03594-1.27494-.28559-1.27494-.27633,0-.5886.84724-.78489.84724-.07106,0-.08875-.0716-.08875-.134,0-.25836.1511-.67735.1511-.92673,0-.12523-.03567-.19629-.14212-.19629-.27687,0-.8829.44567-1.11458.44567-.03566,0-.08031-.0177-.08031-.05363,0-.21345.97165-.89134.97165-1.19435,0-.29458-1.33783-.098-1.33783-.43723,0-.285.95478-.57935.95478-.87365C2.496.12442,1.36342.009.92673.009c-.52625,0-.8113.0618-.8113.21345,0,.232,1.1949.30355,1.1949.50828C1.31033.927.07078,1.453.07078,1.756c0,.26762,1.74729.01769,1.74729.29457,0,.30274-1.524,1.61307-1.524,2.05,0,.09828.07133.14293.16906.14293.46364,0,1.6667-.88263,1.99694-.88263.116,0,.125.14238.125.26735,0,.23195-.08.58832-.08.84723,0,.20473.05336.34739.23141.34739.33051,0,.633-.56165.85649-.56165.28505,0,.11571,1.64928.54368,1.64928.36536,0,.51673-1.78295.74868-1.78295s.41954.517.63325.517c.26708,0,.14239-.90033.428-.90033.31173,0,1.20334,1.06994,1.60463,1.06994.12469,0,.16907-.09828.16907-.22325,0-.47262-.65939-1.542-.65939-1.88068,0-.089.02641-.116.12442-.116.34766,0,1.36451.48133,1.84557.48133C9.19244,3.07558,9.29018,2.98656,9.29018,2.87058ZM8.36263,1.10533c0,.16035.56165.50828.82056.50828.15137,0,.196-.20527.196-.41926C9.37921.927,9.26377.918,9.03155.918,8.73725.918,8.36263.99833,8.36263,1.10533ZM6.26741.19575c0-.05364-.26734-.10727-.6327-.10727-.57961,0-.4993.48215-.945.48215-.46364,0-.34821-.49985-.93653-.49985-.35665,0-.68607.06262-.68607.14266,0,.10727.41872.06262.41872.35719,0,.31172-.9006.401-.9006.58833,0,.06234.07106.089.16036.089.19656,0,.508-.089.73126-.089.125,0,.24093.02641.24093.14238,0,.223-.48187.62427-.48187.80259,0,.05363.04437.0716.089.0716.1786,0,.48188-.45492.76692-.45492.47263,0,.1609,1.00731.419,1.00731.26735,0,.15164-.98989.535-.98989.31254,0,.54395.68661.75794.68661a.10094.10094,0,0,0,.098-.107c0-.18677-.26735-.57064-.26735-.82,0-.15164.107-.22324.24965-.22324.20473,0,.48133.125.63243.125.05336,0,.107-.01769.107-.08,0-.214-.79278-.44567-.79278-.722.00027-.2766.43668-.2766.43668-.40156"/>
    <path class="a" d="M22.07357,1.64056c0,.79306-.578,1.39936-1.62232,1.5687.11625.00871.22324.00871.33051.00871,1.22048,0,1.667-.55239,1.667-1.01576A.56686.56686,0,0,0,22.07357,1.64056Zm-1.50607.90006c0-.633-1.51452-.79361-1.51452-.936,0-.11571.84561-.31227,1.28256-.32125C19.6669.4277,18.714.517,18.714.36536a2.75023,2.75023,0,0,1,1.3724-.2679c.55267,0,1.06994.125,1.06994.544,0,.23222-.18731.47316-.18731.82926a.32953.32953,0,0,0,.35692.36563c.27714,0,.33895-.294.33895-.60657,0-.25809-.04438-.45438-.04438-.57934a.59276.59276,0,0,1,.62263-.62372c.30328,0,.37489.13313.8211.13313A.68066.68066,0,0,0,22.734.68606a9.693,9.693,0,0,1,.24149,1.40017c0,1.40807-1.31932,1.90737-2.93374,1.90737a9.2477,9.2477,0,0,1-1.38139-.10672c-.07106-.009-.089-.02668-.089-.07133,0-.116.63379-.17859.63379-.74868a4.43439,4.43439,0,0,0-.0716-.517.07057.07057,0,0,1,.0716-.0716c.13367,0,.40184.517.89951.517A.42455.42455,0,0,0,20.5675,2.54062Zm1.45271-1.97a.22311.22311,0,1,0,.223-.22324.22056.22056,0,0,0-.223.22324"/>
    <path class="a" d="M21.228,8.808c0-.187-.47316-.20473-.51754-.731-.00926-.08-.03594-.22243-.13422-.22243-.16035,0-.03566.49032-.214.49032-.41,0-.54368-.80259-.69532-.80259-.03593,0-.0784.02668-.0784.13368,0,.09828.018.16062.018.276,0,.11625-.02722.19657-.13394.19657-.24094,0-.4552-.56192-.66047-.56192a.081.081,0,0,0-.089.0716c0,.107.178.30274.178.401,0,.21426-.57989.098-.57989.2766,0,.08032.08.10673.18731.10673.18758,0,.48215-.07977.63379-.07977.0893,0,.223.01769.223.13313,0,.125-.32125.28531-.32125.40129a.08957.08957,0,0,0,.098.08c.24094,0,.66728-.41872.97056-.41872.05337,0,.187.02668.187.107,0,.1157-.303.32043-.303.49a.09018.09018,0,0,0,.08058.098c.15954,0,.3738-.41872.67735-.41872.116,0,.28559.04465.37516.04465C21.20129,8.87963,21.228,8.835,21.228,8.808Zm.232,4.32411a5.42019,5.42019,0,0,1,.61364-1.23927c-.29212-.1511-1.06884-.47262-1.06884-.99861a1.37972,1.37972,0,0,1,.92591-1.09661c.0716,0,.0893.06262.0893.17859,0,.32071-.15164.83771-.15164,1.11431,0,.24938.16062.49059.30328.49059.15164,0,.5709-.535.5709-1.06122a1.2017,1.2017,0,0,0-1.08654-1.23028,5.2084,5.2084,0,0,1-1.704.392c-1.91636,0-2.35359-1.89838-2.35359-2.72792,0-.03567.00844-.04465.01743-.04465a1.36167,1.36167,0,0,0,.8388.23223c.31226,0,.59785-.08059,1.053-.08059,1.068,0,1.54119.74052,2.20167,1.68494a2.08176,2.08176,0,0,1,1.35443,1.78323c0,.9986-1.06177,1.55126-1.31877,2.6212.40837-.04438.64958-.77591,1.06884-.77591.21426,0,.31227.16961.31227.4375a1.94053,1.94053,0,0,1-.65149,1.346.606.606,0,0,0,.00872-.134c0-.24938-.09774-.60575-.38387-.60575-.444,0-.5867.48133-.83635.88208a4.2601,4.2601,0,0,0-1.23083-2.22889c-.63134-.508-1.72033-.23195-1.72033-1.159,0-.24992.1609-.60629.1609-.89161A.41719.41719,0,0,0,18.401,9.762c.85677.32125.55321.89133,1.08028,1.47993a4.69327,4.69327,0,0,1,1.76417,2.27355,1.69194,1.69194,0,0,0,.0177-.2404c0-1.31958-1.74675-2.61276-1.89839-3.14773,1.01467.116,1.193.3659,1.67487,1.70318a5.53745,5.53745,0,0,1,.42035,1.30162"/>
    <path class="a" d="M16.58315,3.69957c-.6248,0-1.03508-.31172-1.03508-.47262a.124.124,0,0,1,.12523-.1334c.196,0,.62427.30274.76665.30274.03621,0,.06262-.01742.06262-.07106,0-.16062-.15164-.428-.15164-.56137,0-.03594.02695-.06235.08031-.06235.24067,0,.59758.098.78544.098.06234,0,.08-.03566.08-.0716,0-.196-.58016-.57934-.58016-.69532,0-.107.72091-.26789.72091-.43668,0-.1786-.98009-.05364-.98009-.22325,0-.12469.18758-.33867.18758-.43668,0-.04465-.03594-.06235-.098-.06235a7.03078,7.03078,0,0,1-.68716.16934c-.089,0-.19629-.0177-.19629-.14293,0-.205.34794-.4277.89243-.4277.88127,0,1.40807.6063,1.40807,1.6226A1.42126,1.42126,0,0,1,16.58315,3.69957Zm-1.738-1.69365c0-.09828-.34847-.28531-.34847-.39231,0-.01769.01742-.02668.04437-.02668.09856,0,.26817.03567.40239.03567.116,0,.13367-.49931.22133-.49931.06235,0,.16907.47263.2679.47263.1157,0,.32969-.134.419-.134.01769,0,.03566.00871.03566.027,0,.06235-.223.30274-.223.37407,0,.08031.49984.1786.49984.24992,0,.0893-.50883.08032-.50883.16063,0,.0618.18758.31172.18758.392a.02393.02393,0,0,1-.02695.027c-.0716,0-.34793-.12523-.42825-.12523-.09828,0-.257.36562-.33731.36562-.02668,0-.04438-.03566-.04438-.08031l-.018-.35637a.06316.06316,0,0,0-.06234-.0716c-.10727,0-.31254-.009-.37543-.009-.04465,0-.06234-.00871-.06234-.02668C14.48766,2.31764,14.84512,2.06827,14.84512,2.00592Zm-.25945,1.46143c.1432,0,.16988.3482.19711.55293.01769.10727.03566.116.08031.116.10727,0,.27633-.41.391-.41a3.47174,3.47174,0,0,0,1.38275.47263A2.03135,2.03135,0,0,0,18.732,2.10393,1.984,1.984,0,0,0,16.56519.05309a6.55263,6.55263,0,0,0-1.26705.2943C15.15739.35637,14.94341,0,14.83587,0c-.04438,0-.089.08848-.089.24039,0,.09829,0,.41-.10726.41-.21453,0-1.04326-.61474-1.04326-.39231,0,.20528.55212.82954.55212.98989s-.5434.31227-.5434.419c0,.196.57934.23169.57934.48161,0,.24938-.60657.44567-.60657.633,0,.15136.60657.04464.60657.23168s-.44567.8113-.44567.98907c0,.04492.00871.04492.0441.04492.16961,0,.6779-.57988.80286-.57988"/>
    <path class="a" d="M10.54715,19.1235a.40891.40891,0,0,1-.09828.25836.65628.65628,0,0,0-.4993-.26708c-.9183,0-.57064,1.32857-1.55127,1.32857a4.638,4.638,0,0,1-.597-.05363c-.06262,0-.09828.02695-.09828.08031,0,.23223.33.80231,1.24825.80231s1.80119-.56137,1.80119-1.25751a.93.93,0,0,0-.08031-.36481.26136.26136,0,0,1,.20528-.0893c.14238,0,.2227.16117.35637.16117a.24422.24422,0,0,0,.24992-.24992.26985.26985,0,0,0-.16906-.25047.30664.30664,0,0,0,.12469-.24039.28319.28319,0,0,0-.28586-.294.25555.25555,0,0,0-.19575.08821c-.01742-.15954-.107-.31118-.2766-.31118a.23.23,0,0,0-.23223.24992c0,.14158.09828.2581.09828.40947"/>
    <path class="a" d="M5.66139,17.46578c.71329.17723,1.06993.56083,1.141,1.01576a1.98,1.98,0,0,0,.32969.97165A1.54033,1.54033,0,0,0,8.1756,19.925c.321,0,.57907-.10591.57907-.40048A1.22294,1.22294,0,0,0,7.676,18.48127c-.06234,0-.14265.00925-.232.00925a.42628.42628,0,0,1-.26735-.08031c-.14238-.12524-.1873-.79388-.45465-1.1949a1.12134,1.12134,0,0,0-1.05169-.5709c-.31173,0-.65993.16906-.65993.419C5.01045,17.21586,5.09076,17.32258,5.66139,17.46578Zm2.48753,1.99667c-.26789,0-.66891-.28587-.66891-.44649a.21615.21615,0,0,1,.22242-.20528c.22325,0,.624.27715.624.50884.00028.06234-.04437.14293-.1775.14293"/>
    <path class="a" d="M7.32836,12.51713c0-.57063,1.35553-.87364,1.35553-1.57822a1.16607,1.16607,0,0,0-.125-.47235,1.43458,1.43458,0,0,1,.82,1.052c0,.61528-.64168.90059-.64168,1.28419,0,.44567.68633.517.68633,1.06966,0,.45438-.65094.98064-.65094,1.569a.89021.89021,0,0,0,.811.89133,2.0584,2.0584,0,0,1-.45439.06235,1.8176,1.8176,0,0,1-1.82787-1.6226,1.52165,1.52165,0,0,1,.47208-1.09607,1.27449,1.27449,0,0,0,.6602.35638c.14239,0,.20528-.07106.20528-.17805C8.63924,13.52445,7.32836,13.22171,7.32836,12.51713Zm2.84418,4.50244c-.30574.13993-.42771.116-.42771.42824,0,.11571-.027.26653-.027.34712,0,.107.0177.16961.14239.16961a1.141,1.141,0,0,0,.82954-1.00759c0-.12523-.0716-.17778-.15192-.17778C10.46656,16.77917,10.3868,16.92128,10.17254,17.01957Zm-.03567-.64224c0-.401-.82926-.41-.82926-1.0163a1.38965,1.38965,0,0,1,.2943-.68688.96717.96717,0,0,0,.66891.85649,1.14124,1.14124,0,0,1,.90032,1.21259,1.82,1.82,0,0,1-2.00592,1.80092A2.0303,2.0303,0,0,1,7.17672,16.636c0-.24094.06235-.508.214-.508.13394,0,.17832.10673.28531.21345a1.856,1.856,0,0,0,1.47123.50828c.57063.00028.98962-.23141.98962-.47235"/>
    <path class="a" d="M3.82317,16.57063a.339.339,0,1,1-.376-.29838A.33872.33872,0,0,1,3.82317,16.57063ZM2.157,16.92128a.58218.58218,0,0,0,.64223.49958.73335.73335,0,0,0,.29457-.089.54874.54874,0,0,0,.63407.42607.56525.56525,0,0,0,.51618-.63134.646.646,0,0,0-.05336-.20528s.04329-.00462.076-.01061a.59352.59352,0,0,0,.51209-.63135.5791.5791,0,0,0-.62317-.52217.56116.56116,0,0,0-.29512.12088.60089.60089,0,0,0-.6749-.44267.576.576,0,0,0-.48406.648.58721.58721,0,0,0,.04465.178l-.08875.01306a.60059.60059,0,0,0-.50039.64686"/>
  </g>
</svg>
