<svg xmlns="http://www.w3.org/2000/svg" width="213.33335" height="24" viewBox="0 0 213.33335 24">
  <defs>
    <style>
      .a {
        fill: #fff;
      }
    </style>
  </defs>
  <title>vi-company-white</title>
  <g>
    <g>
      <path class="a" d="M0,2.944H5.58878L9.727,14.4,13.86528,2.944h5.46079L11.98813,21.20533H7.33793Z"/>
      <path class="a" d="M23.7203,2.944h5.07682V21.07733H23.7203Z"/>
      <path class="a" d="M53.0507,12.01067h0a9.32,9.32,0,0,1,9.535-9.472A8.7814,8.7814,0,0,1,70.24365,6.336L66.4467,9.25866a4.94563,4.94563,0,0,0-3.92494-2.13333c-2.53841,0-4.33023,2.13333-4.33023,4.8v.064c0,2.73067,1.79182,4.864,4.33023,4.864A4.901,4.901,0,0,0,66.596,14.656l3.797,2.66667a9.52866,9.52866,0,0,1-17.34227-5.312Z"/>
    </g>
    <g>
      <path class="a" d="M45.52078,0h4.01027L38.05486,24H34.04459Z"/>
      <path class="a" d="M85.26082,21.46133a9.04917,9.04917,0,0,1-7.9992-4.07466l3.797-2.64534a4.84946,4.84946,0,0,0,4.07426,2.19734c2.53841,0,4.33023-2.13334,4.33023-4.864v-.064c0-2.66667-1.79182-4.8-4.33023-4.8A4.665,4.665,0,0,0,81.20789,9.344l-3.861-3.008a8.95875,8.95875,0,0,1,7.6579-3.79733,9.32,9.32,0,0,1,9.535,9.472v.064A9.1774,9.1774,0,0,1,85.26082,21.46133Z"/>
      <path class="a" d="M101.04591,2.944h5.3328l4.33023,6.99733L115.03917,2.944h5.3328V21.07733h-5.07682V10.60267L110.645,17.728h-.128l-4.60754-7.06133V21.07733h-4.92751V2.944Z"/>
      <path class="a" d="M127.64592,2.944h7.74322c4.60754,0,7.52991,2.32533,7.52991,6.4h0c0,4.26667-3.26367,6.528-7.80721,6.528h-2.47441v5.20533h-4.99151Zm7.40192,8.98133c1.79182,0,2.85838-.93866,2.85838-2.32533V9.536c0-1.536-1.06656-2.41067-2.85838-2.41067h-2.41043v4.8Z"/>
      <path class="a" d="M153.30735,2.79467h4.86351L165.91409,21.056H160.5173l-1.34387-3.264H152.1768l-1.25854,3.264h-5.26881Zm4.41556,11.072-2.00513-5.14134-2.06913,5.14134Z"/>
      <path class="a" d="M171.52419,2.944h4.67154l7.46592,9.6v-9.6h4.99151V21.07733h-4.39423L176.51571,11.136v9.94134H171.5242V2.944Z"/>
      <path class="a" d="M201.38787,14.272,194.51922,2.944h5.7381l3.733,6.592,3.733-6.592h5.61011L206.4647,14.208v6.86933h-5.07683V14.272Z"/>
    </g>
  </g>
</svg>
