<svg xmlns="http://www.w3.org/2000/svg" width="1280" height="800" viewBox="0 0 1280 800"><title>background-1-cover</title><polygon points="888.238 99.187 823.864 62.021 887.836 25.087 952.21 62.253 888.238 99.187" style="fill:none;stroke:#20293d;stroke-linecap:round;stroke-linejoin:round;stroke-width:4px"/><polygon points="187.238 289.975 171.145 280.683 187.138 271.449 203.231 280.741 187.238 289.975" style="fill:none;stroke:#20293d;stroke-linecap:round;stroke-linejoin:round;stroke-width:4px"/><path d="M1091.14238,595.45329c-13.249,7.64933-34.79739,7.61038-48.12962-.087s-13.3997-20.13833-.15067-27.78765,34.79739-7.61038,48.12962.087S1104.3914,587.804,1091.14238,595.45329Z" style="fill:none;stroke:#20293d;stroke-linecap:round;stroke-linejoin:round;stroke-width:4px"/><polygon points="155.353 651.458 219.324 614.524 122.965 595.825 155.353 651.458" style="fill:none;stroke:#20293d;stroke-linecap:round;stroke-linejoin:round;stroke-width:4px"/><polygon points="190.545 226.009 184.997 250.506 223.999 262.443 253.652 245.323 232.976 222.805 190.545 226.009" style="fill:none;stroke:#20293d;stroke-linecap:round;stroke-linejoin:round;stroke-width:4px"/><polygon points="312.783 649.334 305.385 681.997 357.388 697.913 396.925 675.087 369.357 645.063 312.783 649.334" style="fill:none;stroke:#20293d;stroke-linecap:round;stroke-linejoin:round;stroke-width:4px"/></svg>