<svg xmlns="http://www.w3.org/2000/svg" width="600" height="600" viewBox="0 0 600 600"><title>background-1</title><circle cx="60" cy="60" r="37.5" style="fill:#f91a1f;stroke:#f91a1f;stroke-linecap:round;stroke-linejoin:round;stroke-width:4px"/><circle cx="180" cy="60" r="30" style="fill:#f91a1f;stroke:#f91a1f;stroke-linecap:round;stroke-linejoin:round;stroke-width:4px"/><circle cx="300" cy="60" r="22.5" style="fill:#f91a1f;stroke:#f91a1f;stroke-linecap:round;stroke-linejoin:round;stroke-width:4px"/><circle cx="420" cy="60" r="15" style="fill:#f91a1f;stroke:#f91a1f;stroke-linecap:round;stroke-linejoin:round;stroke-width:4px"/><polygon points="97.5 457.5 97.5 382.5 22.5 420 97.5 457.5" style="fill:#f91a1f;stroke:#f91a1f;stroke-linecap:round;stroke-linejoin:round;stroke-width:4px"/><polygon points="210 450 210 390 150 420 210 450" style="fill:#f91a1f;stroke:#f91a1f;stroke-linecap:round;stroke-linejoin:round;stroke-width:4px"/><polygon points="322.5 442.5 322.5 397.5 277.5 420 322.5 442.5" style="fill:#f91a1f;stroke:#f91a1f;stroke-linecap:round;stroke-linejoin:round;stroke-width:4px"/><polygon points="435 435 435 405 405 420 435 435" style="fill:#f91a1f;stroke:#f91a1f;stroke-linecap:round;stroke-linejoin:round;stroke-width:4px"/><rect x="22.5" y="142.5" width="75" height="75" style="fill:#f91a1f;stroke:#f91a1f;stroke-linecap:round;stroke-linejoin:round;stroke-width:4px"/><rect x="150" y="150" width="60" height="60" style="fill:#f91a1f;stroke:#f91a1f;stroke-linecap:round;stroke-linejoin:round;stroke-width:4px"/><rect x="277.5" y="157.5" width="45" height="45" style="fill:#f91a1f;stroke:#f91a1f;stroke-linecap:round;stroke-linejoin:round;stroke-width:4px"/><rect x="405" y="165" width="30" height="30" style="fill:#f91a1f;stroke:#f91a1f;stroke-linecap:round;stroke-linejoin:round;stroke-width:4px"/><rect x="22.5" y="262.5" width="75" height="75" transform="translate(229.70563 45.44156) rotate(45)" style="fill:#f91a1f;stroke:#f91a1f;stroke-linecap:round;stroke-linejoin:round;stroke-width:4px"/><rect x="150" y="270" width="60" height="60" transform="translate(264.85281 -39.41125) rotate(45)" style="fill:#f91a1f;stroke:#f91a1f;stroke-linecap:round;stroke-linejoin:round;stroke-width:4px"/><rect x="277.5" y="277.5" width="45" height="45" transform="translate(300 -124.26407) rotate(45)" style="fill:#f91a1f;stroke:#f91a1f;stroke-linecap:round;stroke-linejoin:round;stroke-width:4px"/><rect x="405" y="285" width="30" height="30" transform="translate(335.14719 -209.11688) rotate(45)" style="fill:#f91a1f;stroke:#f91a1f;stroke-linecap:round;stroke-linejoin:round;stroke-width:4px"/><polygon points="552.396 435 552.254 405 526.362 419.949 552.396 435" style="fill:none;stroke:#5e6472;stroke-linecap:round;stroke-linejoin:round;stroke-width:4px"/><line x1="420" y1="532.5" x2="420" y2="502.5" style="fill:none;stroke:#5e6472;stroke-linecap:round;stroke-linejoin:round;stroke-width:4px"/><line x1="300" y1="547.5" x2="300" y2="502.5" style="fill:none;stroke:#5e6472;stroke-linecap:round;stroke-linejoin:round;stroke-width:4px"/><line x1="180" y1="562.5" x2="180" y2="502.5" style="fill:none;stroke:#5e6472;stroke-linecap:round;stroke-linejoin:round;stroke-width:4px"/><line x1="60" y1="577.5" x2="60" y2="502.5" style="fill:none;stroke:#5e6472;stroke-linecap:round;stroke-linejoin:round;stroke-width:4px"/><circle cx="540" cy="60" r="15" style="fill:none;stroke:#5e6472;stroke-linecap:round;stroke-linejoin:round;stroke-width:4px"/><rect x="525.00007" y="165" width="29.99986" height="29.99986" style="fill:none;stroke:#5e6472;stroke-linecap:round;stroke-linejoin:round;stroke-width:4px"/><rect x="525.00007" y="285" width="29.99986" height="29.99986" transform="translate(370.29432 -293.96972) rotate(45)" style="fill:none;stroke:#5e6472;stroke-linecap:round;stroke-linejoin:round;stroke-width:4px"/></svg>