<svg xmlns="http://www.w3.org/2000/svg" width="1080" height="720" viewBox="0 0 1080 720"><title>blocks</title><g style="opacity:0.5"><polygon points="200 415.488 540 611.787 880 415.488 540 219.189 200 415.488" style="fill:none;stroke:#fed1d2;stroke-linecap:round;stroke-linejoin:round;stroke-width:4px"/><line x1="285" y1="464.56267" x2="625.00001" y2="268.26353" style="fill:none;stroke:#fed1d2;stroke-linecap:round;stroke-linejoin:round;stroke-width:4px"/><line x1="369.99999" y1="513.63747" x2="710" y2="317.33833" style="fill:none;stroke:#fed1d2;stroke-linecap:round;stroke-linejoin:round;stroke-width:4px"/><line x1="454.99998" y1="562.71227" x2="794.99999" y2="366.41312" style="fill:none;stroke:#fed1d2;stroke-linecap:round;stroke-linejoin:round;stroke-width:4px"/><line x1="285" y1="366.4131" x2="625.00001" y2="562.71221" style="fill:none;stroke:#fed1d2;stroke-linecap:round;stroke-linejoin:round;stroke-width:4px"/><line x1="369.99999" y1="317.33834" x2="710" y2="513.63745" style="fill:none;stroke:#fed1d2;stroke-linecap:round;stroke-linejoin:round;stroke-width:4px"/><line x1="454.99998" y1="268.26359" x2="794.99999" y2="464.5627" style="fill:none;stroke:#fed1d2;stroke-linecap:round;stroke-linejoin:round;stroke-width:4px"/><line x1="523.00001" y1="621.60194" x2="505.99999" y2="631.41691" style="fill:none;stroke:#fed1d2;stroke-linecap:round;stroke-linejoin:round;stroke-width:4px"/><line x1="437.99999" y1="572.52719" x2="404.00001" y2="592.15709" style="fill:none;stroke:#fed1d2;stroke-linecap:round;stroke-linejoin:round;stroke-width:4px"/><line x1="353.00006" y1="523.45238" x2="302" y2="552.89728" style="fill:none;stroke:#fed1d2;stroke-linecap:round;stroke-linejoin:round;stroke-width:4px"/><line x1="268" y1="474.37766" x2="200" y2="513.63745" style="fill:none;stroke:#fed1d2;stroke-linecap:round;stroke-linejoin:round;stroke-width:4px"/><path d="M622.88061,596.91532c-9.79815-.2009-17.459,4.22211-17.11106,9.87908s8.573,10.4057,18.37117,10.6066,17.459-4.22211,17.11106-9.87908" style="fill:none;stroke:#fed1d2;stroke-linecap:round;stroke-linejoin:round;stroke-width:4px"/><line x1="630.15007" y1="607.0749" x2="609.49519" y2="619" style="fill:none;stroke:#fed1d2;stroke-linecap:round;stroke-linejoin:round;stroke-width:4px"/><line x1="623.65488" y1="603.3249" x2="603" y2="615.25" style="fill:none;stroke:#fed1d2;stroke-linecap:round;stroke-linejoin:round;stroke-width:4px"/><path d="M703.62834,568.63873c2.86976,1.65685,9.8199.33048,15.52359-2.96255s8.001-7.3057,5.13129-8.96255-9.8199-.33048-15.52359,2.96255-12.65384,4.6194-15.52359,2.96255-.5724-5.66952,5.13129-8.96255,12.65384-4.6194,15.52359-2.96255" style="fill:none;stroke:#fed1d2;stroke-linecap:round;stroke-linejoin:round;stroke-width:4px"/><line x1="721.75001" y1="567.17618" x2="695.76925" y2="552.17618" style="fill:none;stroke:#fed1d2;stroke-linecap:round;stroke-linejoin:round;stroke-width:4px"/><path d="M891.63267,468.05617c5.70369-3.293,8.001-7.3057,5.13129-8.96255s-9.8199-.33048-15.52359,2.96255c5.70369-3.293,8.001-7.3057,5.13129-8.96255s-9.8199-.33048-15.52359,2.96255l-10.32744,5.96255,20.78461,12Z" style="fill:none;stroke:#fed1d2;stroke-linecap:round;stroke-linejoin:round;stroke-width:4px"/><line x1="881.24037" y1="462.05617" x2="870.91293" y2="468.01872" style="fill:none;stroke:#fed1d2;stroke-linecap:round;stroke-linejoin:round;stroke-width:4px"/><line x1="876.14151" y1="477" x2="881.30523" y2="474.01872" style="fill:none;stroke:#fed1d2;stroke-linecap:round;stroke-linejoin:round;stroke-width:4px"/><line x1="855.3569" y1="465" x2="860.52062" y2="462.01872" style="fill:none;stroke:#fed1d2;stroke-linecap:round;stroke-linejoin:round;stroke-width:4px"/><line x1="889.06703" y1="472.53745" x2="886.46895" y2="471.03745" style="fill:none;stroke:#fed1d2;stroke-linecap:round;stroke-linejoin:round;stroke-width:4px"/><line x1="865.68434" y1="459.03745" x2="863.08627" y2="457.53745" style="fill:none;stroke:#fed1d2;stroke-linecap:round;stroke-linejoin:round;stroke-width:4px"/><line x1="868.24999" y1="454.55617" x2="870.84806" y2="456.05617" style="fill:none;stroke:#fed1d2;stroke-linecap:round;stroke-linejoin:round;stroke-width:4px"/><line x1="891.63267" y1="468.05617" x2="894.23075" y2="469.55617" style="fill:none;stroke:#fed1d2;stroke-linecap:round;stroke-linejoin:round;stroke-width:4px"/><path d="M776.696,511.9049c6.15334,3.55263,16.48078-2.40992,18.46,10.65789,0,0,2.08705-4.75759,10.32744-5.96255s10.32744-5.96255,10.32744-5.96255" style="fill:none;stroke:#fed1d2;stroke-linecap:round;stroke-linejoin:round;stroke-width:4px"/><line x1="777.68566" y1="518.43881" x2="798.34054" y2="506.51371" style="fill:none;stroke:#fed1d2;stroke-linecap:round;stroke-linejoin:round;stroke-width:4px"/><path d="M776.696,511.9049c-3.39839-1.96206-1.52959-6.22216,4.1741-9.51518a26.35259,26.35259,0,0,1,9.10488-3.17563c3.21806-.47056,5.80114-.14348,7.3759.76571" style="fill:none;stroke:#fed1d2;stroke-linecap:round;stroke-linejoin:round;stroke-width:4px"/><polygon points="591 523.452 608 533.267 608 503.821 591 503.823 591 523.452" style="fill:#fdc6c7"/><polygon points="625 523.452 642 494.007 642 533.267 625 523.452" style="fill:#fdc6c7"/><polygon points="489 464.563 540 376.228 540 494.008 489 464.563" style="fill:#fdc6c7"/><polygon points="812 130.854 846 71.964 846 150.484 812 130.854" style="fill:#fdc6c7"/><polygon points="659 425.303 710 454.748 710 415.488 659 386.043 659 425.303" style="fill:#fdc6c7"/><polygon points="404 317.338 455 346.783 455 287.893 404 258.449 404 317.338" style="fill:#fdc6c7"/><polygon points="676 435.118 676 474.378 710 494.007 710 415.488 676 435.118" style="fill:#fdc6c7"/><path d="M812,435.11785c0,5.42065-7.61116,9.815-17,9.815s-17-4.39431-17-9.815V336.9683h34Z" style="fill:#fdc6c7"/><path d="M625.00005,307.52338c0,5.42065-7.61116,9.815-17,9.815s-17-4.39431-17-9.815V248.63366h34Z" style="fill:#fdc6c7"/><path d="M914,552.89731c0,5.42065-7.61116,9.815-17,9.815s-17-4.39431-17-9.815V533.26738h34Z" style="fill:#fdc6c7"/><polygon points="421 503.822 421 523.452 455 543.082 455 523.452 421 503.822" style="fill:#fdc6c7"/><polygon points="251 209.374 251 229.004 285 248.634 285 229.004 251 209.374" style="fill:#fdc6c7"/><polygon points="608 533.267 625 523.452 625 503.823 608 503.821 608 533.267" style="fill:#fb5357"/><polygon points="642 533.267 642 494.007 659 523.452 642 533.267" style="fill:#fb5357"/><polygon points="540 494.008 540 376.228 591 464.563 540 494.008" style="fill:#fb5357"/><polygon points="846 150.484 846 71.964 880 130.854 846 150.484" style="fill:#fb5357"/><polygon points="710 454.748 761 425.303 761 386.043 710 415.488 710 454.748" style="fill:#fb5357"/><polygon points="455 346.783 506 317.338 506 258.449 455 287.893 455 346.783" style="fill:#fb5357"/><polygon points="710 494.007 710 415.488 744 435.118 744 474.378 710 494.007" style="fill:#fb5357"/><path d="M795,444.9328c9.38884,0,17-4.39431,17-9.815V336.9683H795Z" style="fill:#fb5357"/><path d="M608.00005,317.33833c9.38884,0,17-4.39431,17-9.815V248.63366h-17Z" style="fill:#fb5357"/><path d="M897,562.71226c9.38884,0,17-4.39431,17-9.815V533.26738H897Z" style="fill:#fb5357"/><polygon points="455 543.082 489 523.452 489 503.822 455 523.452 455 543.082" style="fill:#fb5357"/><polygon points="285 248.634 319 229.004 319 209.374 285 229.004 285 248.634" style="fill:#fb5357"/><polygon points="591 503.823 608 494.008 625 503.823 608 513.637 591 503.823" style="fill:#fc8c8f"/><polygon points="659 386.043 710 356.598 761 386.043 710 415.488 659 386.043" style="fill:#fc8c8f"/><polygon points="404 258.449 455 229.004 506 258.449 455 287.893 404 258.449" style="fill:#fc8c8f"/><polygon points="421 503.822 455 484.193 489 503.822 455 523.452 421 503.822" style="fill:#fc8c8f"/><polygon points="251 209.374 285 189.744 319 209.374 285 229.004 251 209.374" style="fill:#fc8c8f"/><ellipse cx="795" cy="336.9683" rx="17" ry="9.81496" style="fill:#fc8c8f"/><ellipse cx="608.00005" cy="248.63366" rx="17" ry="9.81496" style="fill:#fc8c8f"/><ellipse cx="897" cy="533.26738" rx="17" ry="9.81496" style="fill:#fc8c8f"/><circle cx="378.5" cy="438.358" r="42.5" transform="translate(-190.37916 546.96961) rotate(-60)" style="fill:#fb5357"/><path d="M341.69392,417.108a42.5,42.5,0,0,0,73.61216,42.5Z" style="fill:#fdc6c7"/><circle cx="132" cy="609.86179" r="51" transform="translate(-462.1558 419.24625) rotate(-60)" style="fill:#fb5357"/><path d="M87.83271,584.36179a51,51,0,1,0,88.33459,51Z" style="fill:#fdc6c7"/><circle cx="344.49998" cy="480.24776" r="25.50001" transform="matrix(0.5, -0.86603, 0.86603, 0.5, -243.65677, 538.46961)" style="fill:#fb5357"/><path d="M322.41632,467.49775a25.5,25.5,0,1,0,44.16731,25.5Z" style="fill:#fdc6c7"/><circle cx="540.00002" cy="562.71227" r="17.00003" transform="translate(-217.32311 749.00987) rotate(-60)" style="fill:#fb5357"/><path d="M525.27757,554.21225a17,17,0,1,0,29.44492,17Z" style="fill:#fdc6c7"/><polygon points="591 327.153 624.999 268.264 624.999 346.782 591 327.153" style="fill:#fdc6c7"/><polygon points="624.999 346.782 624.999 268.264 658.999 327.153 624.999 346.782" style="fill:#fb5357"/></g></svg>