<svg xmlns="http://www.w3.org/2000/svg" width="576" height="576" viewBox="0 0 576 576"><title>distribution</title><path d="M325.74957,144a59.4332,59.4332,0,0,1,53.39386,34.26445A108.70645,108.70645,0,0,0,409.38257,216.658a60.62689,60.62689,0,0,1,21.1123,33.90912,61.4633,61.4633,0,0,1-4.52722,39.978,109.7925,109.7925,0,0,0-10.76355,47.74924A61.1708,61.1708,0,0,1,402.19135,376.259a59.29947,59.29947,0,0,1-33.34155,21.14279,107.36634,107.36634,0,0,0-43.84424,21.37888,58.40524,58.40524,0,0,1-74.01111-.00012,107.36689,107.36689,0,0,0-43.84454-21.37875A59.29933,59.29933,0,0,1,173.80865,376.259a61.17108,61.17108,0,0,1-13.01276-37.96478A109.793,109.793,0,0,0,150.03235,290.545a61.46219,61.46219,0,0,1-4.52722-39.97789A60.6265,60.6265,0,0,1,166.61755,216.658a108.70864,108.70864,0,0,0,30.239-38.39366A59.43385,59.43385,0,0,1,250.25043,144a58.40773,58.40773,0,0,1,13.3811,1.56245,106.19976,106.19976,0,0,0,48.73724-.00012A58.409,58.409,0,0,1,325.74957,144m0-24a82.29572,82.29572,0,0,0-18.88647,2.20234v.00011a82.20082,82.20082,0,0,1-37.7262,0v-.00011A82.2645,82.2645,0,0,0,250.25043,120a83.16477,83.16477,0,0,0-75.11163,48.04979v.00011a84.1169,84.1169,0,0,1-23.52191,29.87367h-.00012a84.99861,84.99861,0,0,0-23.21552,103.01833v.00012a85.187,85.187,0,0,1,8.39484,37.25177v.00012c-.16577,39.59375,26.89935,73.96753,65.04871,82.6142h.00012A82.78849,82.78849,0,0,1,235.835,437.38675v.00012a82.405,82.405,0,0,0,104.33,0v-.00012a82.78849,82.78849,0,0,1,33.99011-16.57867h.00012c38.14935-8.64667,65.21442-43.02045,65.04865-82.6142v-.00012a85.18877,85.18877,0,0,1,8.3949-37.25177v-.00012a84.99871,84.99871,0,0,0-23.21558-103.01833h-.00012a84.11741,84.11741,0,0,1-23.52185-29.87367v-.00011A83.15909,83.15909,0,0,0,325.74957,120Z" style="fill:#f2f2f3"/><path d="M333.83887,85A99.02754,99.02754,0,0,1,386.875,100.4343a100.70547,100.70547,0,0,1,37.26587,42.33762,103.70526,103.70526,0,0,0,28.84229,36.63022,101.86422,101.86422,0,0,1,35.50073,56.95667,102.88989,102.88989,0,0,1-7.58667,66.92316,105.01152,105.01152,0,0,0-10.29248,45.67191,102.53224,102.53224,0,0,1-21.83252,63.62784,100.23621,100.23621,0,0,1-56.37634,35.71005A102.083,102.083,0,0,0,350.71155,468.623a99.063,99.063,0,0,1-125.42316-.00006A102.08318,102.08318,0,0,0,183.604,448.29175a100.23626,100.23626,0,0,1-56.37628-35.71005,102.53252,102.53252,0,0,1-21.83246-63.628,105.01323,105.01323,0,0,0-10.29248-45.67181,102.88978,102.88978,0,0,1-7.58667-66.92313A101.86446,101.86446,0,0,1,123.01691,179.402a103.70379,103.70379,0,0,0,28.84222-36.63023,100.7055,100.7055,0,0,1,37.2666-42.33655,98.7867,98.7867,0,0,1,75.73969-12.78761A100.97872,100.97872,0,0,0,288,90.338a100.98,100.98,0,0,0,23.13464-2.69039A99.1043,99.1043,0,0,1,333.83887,85m0-1a99.93042,99.93042,0,0,0-22.93359,2.67428h-.00012A99.83439,99.83439,0,0,1,288,89.338a99.83439,99.83439,0,0,1-22.90515-2.66371h-.00012A99.89414,99.89414,0,0,0,242.16113,84a100.98546,100.98546,0,0,0-91.20691,58.34618v.00011a102.14046,102.14046,0,0,1-28.56232,36.2751l-.00006.00012c-37.23865,29.81677-48.968,81.86517-28.19037,125.0936l.00006.00006a103.44205,103.44205,0,0,1,10.19373,45.23441v.00009c-.20129,48.07819,32.66351,89.81772,78.98767,100.31735h.00012a100.52791,100.52791,0,0,1,41.27368,20.13123l.00006,0a100.06317,100.06317,0,0,0,126.6864,0l.00006,0A100.52791,100.52791,0,0,1,392.61694,449.267h.00012c46.3241-10.49963,79.189-52.23917,78.98767-100.31735v-.00009a103.4412,103.4412,0,0,1,10.19373-45.23441v-.00006c20.77771-43.22842,9.04834-95.27682-28.19031-125.0936l-.00012-.00012a102.14165,102.14165,0,0,1-28.56226-36.2751v-.00011A100.97886,100.97886,0,0,0,333.83887,84Z" style="fill:#f2f2f3"/><path d="M332.49066,91a96.08631,96.08631,0,0,1,51.46057,14.97574,97.7152,97.7152,0,0,1,36.15887,41.08011,100.68663,100.68663,0,0,0,28.0022,35.5632,98.83881,98.83881,0,0,1,34.44629,55.26506,99.83344,99.83344,0,0,1-7.36133,64.93567,101.95514,101.95514,0,0,0-9.99268,44.34143,99.486,99.486,0,0,1-21.18408,61.73807A97.25927,97.25927,0,0,1,389.319,443.54858a99.10956,99.10956,0,0,0-40.47046,19.73923,96.12,96.12,0,0,1-121.69708-.00012A99.11047,99.11047,0,0,0,186.681,443.54858a97.25887,97.25887,0,0,1-54.70154-34.64929,99.48707,99.48707,0,0,1-21.184-61.73816,101.956,101.956,0,0,0-9.99268-44.34143,99.83475,99.83475,0,0,1-7.36139-64.93558,98.83869,98.83869,0,0,1,34.44641-55.26506,100.684,100.684,0,0,0,28.00214-35.56331,97.71367,97.71367,0,0,1,36.15961-41.079A95.85171,95.85171,0,0,1,265.53906,93.569,98.03848,98.03848,0,0,0,288,96.181,98.03861,98.03861,0,0,0,310.461,93.569,96.159,96.159,0,0,1,332.49066,91m0-1a96.99169,96.99169,0,0,0-22.25909,2.59563h-.00006A96.89854,96.89854,0,0,1,288,95.181a96.89854,96.89854,0,0,1-22.23151-2.58537h-.00006A96.95625,96.95625,0,0,0,243.50934,90,98.01524,98.01524,0,0,0,154.985,146.63013v.00011a99.13741,99.13741,0,0,1-27.72223,35.20821l-.00006,0C91.11926,210.77834,79.73492,261.2959,99.90143,303.2529l.00006.00012a100.39934,100.39934,0,0,1,9.89392,43.90393v.00006c-.19537,46.66412,31.70282,87.176,76.66449,97.36685H186.46A97.57146,97.57146,0,0,1,226.51978,464.063l.00006.00012a97.12016,97.12016,0,0,0,122.96033,0l.00006-.00012A97.57146,97.57146,0,0,1,389.54,444.52386h.00012C434.50171,434.333,466.4,393.82114,466.20459,347.157V347.157a100.39934,100.39934,0,0,1,9.89392-43.90393v-.00012c20.16663-41.957,8.78223-92.47456-27.36121-121.41441l-.00012,0A99.13928,99.13928,0,0,1,421.015,146.63023v-.00011A98.00883,98.00883,0,0,0,332.49066,90Z" style="fill:#f2f2f3"/><path d="M331.14246,97a93.14455,93.14455,0,0,1,49.88489,14.51721,94.723,94.723,0,0,1,35.052,39.82253,97.66452,97.66452,0,0,0,27.16211,34.49631,95.81369,95.81369,0,0,1,33.392,53.57338,96.77994,96.77994,0,0,1-7.13611,62.9481,98.89423,98.89423,0,0,0-9.69287,43.011,96.442,96.442,0,0,1-20.53564,59.84833,94.28094,94.28094,0,0,1-53.02686,33.5885,96.13721,96.13721,0,0,0-39.25647,19.14706,93.17706,93.17706,0,0,1-117.97107-.00006,96.13657,96.13657,0,0,0-39.25641-19.147,94.28093,94.28093,0,0,1-53.02686-33.58847,96.44248,96.44248,0,0,1-20.53558-59.84842,98.89642,98.89642,0,0,0-9.69287-43.011,96.77818,96.77818,0,0,1-7.136-62.948,95.814,95.814,0,0,1,33.392-53.57343,97.66388,97.66388,0,0,0,27.162-34.49637,94.72234,94.72234,0,0,1,35.05267-39.82147,92.91723,92.91723,0,0,1,71.23944-12.02789,94.94193,94.94193,0,0,0,43.57458,0A93.214,93.214,0,0,1,331.14246,97m0-1a94.05243,94.05243,0,0,0-21.58453,2.517h-.00012a93.94131,93.94131,0,0,1-43.1156,0h-.00012A94.01865,94.01865,0,0,0,244.85754,96a95.04508,95.04508,0,0,0-85.8418,54.914v.00011a96.13329,96.13329,0,0,1-26.88214,34.14131l-.00012,0c-35.04816,28.0629-46.08752,77.04965-26.5321,117.73523l.00006,0a97.3574,97.3574,0,0,1,9.59412,42.57355v.00009c-.18945,45.25,30.74213,84.53433,74.34137,94.41626l.00006.00006a94.6143,94.6143,0,0,1,38.84583,18.947l.00006.00006a94.177,94.177,0,0,0,119.23425,0l.00006-.00006a94.6143,94.6143,0,0,1,38.84583-18.947l.00006-.00006c43.59918-9.88193,74.53082-49.16626,74.34137-94.41626v-.00009a97.35654,97.35654,0,0,1,9.59412-42.57355v0c19.55542-40.68558,8.51611-89.67233-26.5321-117.73523v0a96.13278,96.13278,0,0,1-26.8822-34.14131V150.914A95.03888,95.03888,0,0,0,331.14246,96Z" style="fill:#f2f2f3"/><path d="M329.79425,103a90.2026,90.2026,0,0,1,48.30933,14.05875,91.732,91.732,0,0,1,33.94507,38.5649,94.64439,94.64439,0,0,0,26.322,33.42946,92.78773,92.78773,0,0,1,32.3374,51.88165,93.72189,93.72189,0,0,1-6.91077,60.96059,95.83923,95.83923,0,0,0-9.39294,41.6806,93.3958,93.3958,0,0,1-19.88721,57.95862A91.30359,91.30359,0,0,1,383.165,434.06232a93.16346,93.16346,0,0,0-38.04254,18.555,90.234,90.234,0,0,1-114.24493-.00009,93.16366,93.16366,0,0,0-38.04254-18.5549,91.30359,91.30359,0,0,1-51.35211-32.52774,93.397,93.397,0,0,1-19.88715-57.95871,95.83581,95.83581,0,0,0-9.39307-41.68054,93.72292,93.72292,0,0,1-6.91071-60.96056,92.788,92.788,0,0,1,32.33752-51.8817,94.64429,94.64429,0,0,0,26.322-33.42946,91.73044,91.73044,0,0,1,33.9458-38.5639,89.98094,89.98094,0,0,1,68.98926-11.648,92.00643,92.00643,0,0,0,42.22711,0A90.27165,90.27165,0,0,1,329.79425,103m0-1a91.11249,91.11249,0,0,0-20.91,2.43832l-.00012,0a91.00606,91.00606,0,0,1-41.76819,0l-.00012,0A91.07789,91.07789,0,0,0,246.20575,102a92.07524,92.07524,0,0,0-83.15924,53.198l-.00006,0a93.12816,93.12816,0,0,1-26.04205,33.0744l-.00006,0a94.10572,94.10572,0,0,0-25.703,114.056l.00006,0a94.3152,94.3152,0,0,1,9.29431,41.2431v.00012c-.18353,43.83594,29.78143,81.89258,72.01819,91.46579h.00006a91.65751,91.65751,0,0,1,37.6319,18.35489l.00006.00012a91.23414,91.23414,0,0,0,115.50818,0l.00006-.00012a91.65751,91.65751,0,0,1,37.6319-18.35489h.00006c42.23669-9.57321,72.20178-47.62985,72.01819-91.46579v-.00012a94.3152,94.3152,0,0,1,9.29431-41.2431v0a94.10548,94.10548,0,0,0-25.703-114.056v0a93.12884,93.12884,0,0,1-26.04205-33.0744l-.00006,0A92.069,92.069,0,0,0,329.79425,102Z" style="fill:#f2f2f3"/><path d="M328.446,109a87.26021,87.26021,0,0,1,46.7337,13.60025,88.74081,88.74081,0,0,1,32.8382,37.30735,91.622,91.622,0,0,0,25.482,32.36255,89.76184,89.76184,0,0,1,31.283,50.19,90.66679,90.66679,0,0,1-6.68555,58.973,92.78073,92.78073,0,0,0-9.09314,40.35022,90.35161,90.35161,0,0,1-19.23877,56.06885,88.32577,88.32577,0,0,1-49.67731,31.467A90.19093,90.19093,0,0,0,343.2594,447.282a87.29095,87.29095,0,0,1-110.51886-.00006,90.19141,90.19141,0,0,0-36.82861-17.96283,88.32516,88.32516,0,0,1-49.67731-31.46695,90.35152,90.35152,0,0,1-19.23877-56.069,92.77806,92.77806,0,0,0-9.09326-40.35013,90.667,90.667,0,0,1-6.68536-58.973,89.76232,89.76232,0,0,1,31.283-50.19,91.62215,91.62215,0,0,0,25.48193-32.36255,88.73962,88.73962,0,0,1,32.83881-37.3064,87.04595,87.04595,0,0,1,66.73914-11.2681,89.071,89.071,0,0,0,40.87976-.00005A87.32632,87.32632,0,0,1,328.446,109m.00006-1a88.17415,88.17415,0,0,0-20.23553,2.35966l-.00006.00005a88.07051,88.07051,0,0,1-40.4209,0l-.00006-.00005A88.14039,88.14039,0,0,0,247.554,108a89.10507,89.10507,0,0,0-80.47668,51.482l-.00006,0a90.124,90.124,0,0,1-25.202,32.00751l-.00006,0a91.06992,91.06992,0,0,0-24.8739,110.37675l.00006,0a91.273,91.273,0,0,1,8.99451,39.91272v.00009c-.17761,42.42184,28.82074,79.25092,69.695,88.51526l.00006,0a88.7008,88.7008,0,0,1,36.418,17.76282l.00006,0a88.291,88.291,0,0,0,111.7821,0l.00006,0a88.7008,88.7008,0,0,1,36.418-17.76282l.00006,0c40.87427-9.26434,69.87262-46.09341,69.695-88.51526v-.00009a91.27211,91.27211,0,0,1,8.99451-39.91272v0a91.0698,91.0698,0,0,0-24.87378-110.37675l-.00012,0a90.124,90.124,0,0,1-25.202-32.00751l-.00006,0A89.09893,89.09893,0,0,0,328.446,108Z" style="fill:#f2f2f3"/><path d="M327.0979,115a84.31864,84.31864,0,0,1,45.158,13.14169,85.74967,85.74967,0,0,1,31.7312,36.0498A88.60124,88.60124,0,0,0,428.629,195.48718a86.73711,86.73711,0,0,1,30.22852,48.49825,87.61166,87.61166,0,0,1-6.46008,56.98549,89.71983,89.71983,0,0,0-8.79346,39.01981,87.30546,87.30546,0,0,1-18.59033,54.17917A85.34786,85.34786,0,0,1,377.011,424.576a87.21875,87.21875,0,0,0-35.61469,17.37076,84.348,84.348,0,0,1-106.79279,0A87.21787,87.21787,0,0,0,198.98883,424.576a85.34792,85.34792,0,0,1-48.00256-30.40613A87.30615,87.30615,0,0,1,132.396,339.99063a89.718,89.718,0,0,0-8.79346-39.01974,87.61121,87.61121,0,0,1-6.46-56.98546,86.73685,86.73685,0,0,1,30.22864-48.49831,88.60291,88.60291,0,0,0,24.64178-31.29564,85.749,85.749,0,0,1,31.73175-36.0489,84.1121,84.1121,0,0,1,64.48914-10.8882,86.13646,86.13646,0,0,0,39.53241,0A84.38145,84.38145,0,0,1,327.0979,115m0-1a85.2346,85.2346,0,0,0-19.561,2.281h-.00012a85.13443,85.13443,0,0,1-39.07349,0h-.00012A85.20419,85.20419,0,0,0,248.9021,114,86.13459,86.13459,0,0,0,171.108,163.76587l-.00006.00006a87.12013,87.12013,0,0,1-24.36188,30.9406l-.00012,0a88.0343,88.0343,0,0,0-24.04474,106.69751l.00006,0a88.22985,88.22985,0,0,1,8.6947,38.58231v.00012c-.17175,41.00778,27.86,76.60919,67.37183,85.56473h.00006a85.74407,85.74407,0,0,1,35.204,17.17075h.00006a85.3478,85.3478,0,0,0,108.056,0h.00006a85.74407,85.74407,0,0,1,35.204-17.17075h.00006c39.51178-8.95554,67.54358-44.55695,67.37183-85.56473v-.00012a88.2307,88.2307,0,0,1,8.6947-38.58231v0A88.0342,88.0342,0,0,0,429.254,194.70657l-.00012,0a87.12013,87.12013,0,0,1-24.36188-30.9406l-.00006-.00006A86.12892,86.12892,0,0,0,327.0979,114Z" style="fill:#f2f2f3"/><path d="M335.187,79A101.97027,101.97027,0,0,1,389.79883,94.8928a103.697,103.697,0,0,1,38.3728,43.59512A106.72512,106.72512,0,0,0,457.854,176.18509a104.89053,104.89053,0,0,1,36.55518,58.64841,105.94594,105.94594,0,0,1-7.812,68.91077,108.07377,108.07377,0,0,0-10.59229,47.00223,105.57761,105.57761,0,0,1-22.481,65.51755,103.21426,103.21426,0,0,1-58.05109,36.77087,105.05536,105.05536,0,0,0-42.89825,20.92337,102.00632,102.00632,0,0,1-129.14923-.00006A105.055,105.055,0,0,0,180.527,453.03491,103.214,103.214,0,0,1,122.476,416.264a105.57757,105.57757,0,0,1-22.4809-65.51764,108.07379,108.07379,0,0,0-10.59229-47.00232,105.94511,105.94511,0,0,1-7.812-68.91063,104.89008,104.89008,0,0,1,36.5553-58.64848,106.72486,106.72486,0,0,0,29.68225-37.69711A103.6956,103.6956,0,0,1,186.202,94.89391a101.72,101.72,0,0,1,77.98975-13.16759A103.922,103.922,0,0,0,288,84.495a103.918,103.918,0,0,0,23.80835-2.76877A102.04773,102.04773,0,0,1,335.187,79m0-1a102.87,102.87,0,0,0-23.60809,2.75292l-.00006.00006A102.77158,102.77158,0,0,1,288,83.495a102.77158,102.77158,0,0,1-23.57886-2.742l-.00006-.00006A102.83031,102.83031,0,0,0,240.813,78a103.956,103.956,0,0,0-93.88953,60.06228v.00006a105.14559,105.14559,0,0,1-29.40234,37.34206l-.00012.00012c-38.33392,30.69376-50.4082,84.273-29.01947,128.77283l.00006.00012a106.48377,106.48377,0,0,1,10.49353,46.56476v.00012c-.20721,49.49216,33.62421,92.45941,81.31085,103.26782h.00012a103.485,103.485,0,0,1,42.48761,20.7233l.00006,0a103.00608,103.00608,0,0,0,130.41248,0l.00006,0a103.485,103.485,0,0,1,42.48761-20.7233h.00012c47.68658-10.80841,81.518-53.77567,81.31085-103.26782v-.00012a106.48548,106.48548,0,0,1,10.49353-46.56476l.00012-.00012c21.38867-44.49985,9.31433-98.07907-29.01953-128.77283l-.00012-.00012a105.14559,105.14559,0,0,1-29.40234-37.34206v-.00006A103.94882,103.94882,0,0,0,335.187,78Z" style="fill:#f2f2f3"/><path d="M336.53528,73a104.91179,104.91179,0,0,1,56.18738,16.3513A106.68818,106.68818,0,0,1,432.20239,134.204a109.74589,109.74589,0,0,0,30.52246,38.76405,107.91551,107.91551,0,0,1,37.60962,60.34006,109.00264,109.00264,0,0,1-8.03735,70.89835A111.1316,111.1316,0,0,0,481.405,352.53912a108.62237,108.62237,0,0,1-23.12939,67.40726,106.19178,106.19178,0,0,1-59.72583,37.8317,108.027,108.027,0,0,0-44.11218,21.51547,104.94912,104.94912,0,0,1-132.87531-.00012,108.02733,108.02733,0,0,0-44.11224-21.51535,106.1918,106.1918,0,0,1-59.72571-37.8317A108.62239,108.62239,0,0,1,94.595,352.539a111.1318,111.1318,0,0,0-10.89215-48.33267,109.00154,109.00154,0,0,1-8.03735-70.89822A107.91605,107.91605,0,0,1,113.27527,172.968a109.74613,109.74613,0,0,0,30.5224-38.76405,106.68829,106.68829,0,0,1,39.48047-44.85159A104.65632,104.65632,0,0,1,263.51807,75.805,106.86075,106.86075,0,0,0,288,78.652,106.863,106.863,0,0,0,312.48206,75.805,104.99157,104.99157,0,0,1,336.53528,73m0-1a105.80883,105.80883,0,0,0-24.28265,2.83159h-.00012A105.707,105.707,0,0,1,288,77.652a105.707,105.707,0,0,1-24.2525-2.8204h-.00012A105.77083,105.77083,0,0,0,239.46472,72a106.92558,106.92558,0,0,0-96.572,61.77831l-.00006.00011a108.15,108.15,0,0,1-30.24243,38.409l-.00006.00011C73.221,203.75819,60.80176,258.86826,82.80157,304.63956l.00006.00012A109.52694,109.52694,0,0,1,93.595,352.53485v.00012c-.2132,50.90622,34.5849,95.101,83.634,106.21835h.00012a106.44168,106.44168,0,0,1,43.70154,21.31534l.00006.00012a105.9493,105.9493,0,0,0,134.13855,0l.00006-.00012a106.44168,106.44168,0,0,1,43.70154-21.31534h.00012c49.04907-11.11731,83.84717-55.31213,83.634-106.21835v-.00012a109.52688,109.52688,0,0,1,10.79333-47.89517l.00012-.00012c21.99976-45.7713,9.58044-100.88136-29.84863-132.45207l-.00012-.00011a108.1493,108.1493,0,0,1-30.24243-38.409v-.00011A106.91873,106.91873,0,0,0,336.53528,72Z" style="fill:#f2f2f3"/><path d="M337.88348,67a107.85359,107.85359,0,0,1,57.763,16.80982,109.6792,109.6792,0,0,1,40.58667,46.11023A112.76615,112.76615,0,0,0,467.59558,169.751a110.94124,110.94124,0,0,1,38.66418,62.03181,112.05773,112.05773,0,0,1-8.26282,72.88588,114.19106,114.19106,0,0,0-11.19177,49.66306,111.66792,111.66792,0,0,1-23.77783,69.297,109.16969,109.16969,0,0,1-61.40057,38.89246,111,111,0,0,0-45.32611,22.10754,107.89235,107.89235,0,0,1-136.60138-.00006,111.00063,111.00063,0,0,0-45.32617-22.10754,109.1693,109.1693,0,0,1-61.40045-38.8924,111.66787,111.66787,0,0,1-23.77777-69.29712,114.19161,114.19161,0,0,0-11.192-49.66312,112.05676,112.05676,0,0,1-8.26263-72.88573,110.94107,110.94107,0,0,1,38.66418-62.03188,112.7666,112.7666,0,0,0,31.36243-39.831,109.678,109.678,0,0,1,40.58752-46.109,107.59011,107.59011,0,0,1,82.48993-13.92729A109.80253,109.80253,0,0,0,288,72.809a109.79947,109.79947,0,0,0,25.15576-2.92542A107.93411,107.93411,0,0,1,337.88348,67m-.00006-1a108.74825,108.74825,0,0,0-24.95709,2.91023l-.00012.00006A108.645,108.645,0,0,1,288,71.809a108.645,108.645,0,0,1-24.92621-2.8987l-.00012-.00006A108.70649,108.70649,0,0,0,238.11658,66,109.89626,109.89626,0,0,0,138.862,129.49435l-.00006.00012a111.15378,111.15378,0,0,1-31.08246,39.47588l-.00012.00006c-40.52441,32.44777-53.2887,89.08864-30.67773,136.13136l.00006.00012a112.56987,112.56987,0,0,1,11.0932,49.22559v.00012c-.21912,52.32034,35.54559,97.7428,85.95715,109.16882l.00012,0a109.39815,109.39815,0,0,1,44.91547,21.90747l.00006.00006a108.89221,108.89221,0,0,0,137.86462,0l.00006-.00006a109.39815,109.39815,0,0,1,44.91547-21.90747l.00012,0c50.41156-11.426,86.17621-56.84848,85.95721-109.16882v-.00012a112.5681,112.5681,0,0,1,11.09314-49.22559l.00012-.00012c22.61084-47.04272,9.84668-103.68359-30.67786-136.13136v-.00006a111.15327,111.15327,0,0,1-31.08252-39.47588v-.00012A109.88887,109.88887,0,0,0,337.88342,66Z" style="fill:#f2f2f3"/><path d="M339.23163,61a110.79631,110.79631,0,0,1,59.33868,17.26831,112.6709,112.6709,0,0,1,41.6936,47.36781,115.78829,115.78829,0,0,0,32.20251,40.89794,113.96649,113.96649,0,0,1,39.71863,63.72343,115.1126,115.1126,0,0,1-8.48816,74.87337,117.25079,117.25079,0,0,0-11.49158,50.9935,114.71259,114.71259,0,0,1-24.42627,71.18671,112.14678,112.14678,0,0,1-63.07532,39.95331,113.97161,113.97161,0,0,0-46.54,22.69962,110.83563,110.83563,0,0,1-140.32758-.00012,113.97252,113.97252,0,0,0-46.54-22.69955,112.14679,112.14679,0,0,1-63.0752-39.95325,114.713,114.713,0,0,1-24.42621-71.18677A117.25132,117.25132,0,0,0,72.303,305.13077a115.11236,115.11236,0,0,1-8.488-74.87331,113.96619,113.96619,0,0,1,39.71863-63.7235,115.78976,115.78976,0,0,0,32.20258-40.89788,112.66945,112.66945,0,0,1,41.69427-47.36662,110.52675,110.52675,0,0,1,84.74023-14.30725A112.73792,112.73792,0,0,0,288,66.966a112.73989,112.73989,0,0,0,25.82947-3.00381A110.88028,110.88028,0,0,1,339.23163,61m0-1A111.68712,111.68712,0,0,0,313.6,62.9889h-.00012A111.57819,111.57819,0,0,1,288,65.966a111.57819,111.57819,0,0,1-25.59985-2.97712H262.4A111.6468,111.6468,0,0,0,236.76837,60a112.866,112.866,0,0,0-101.93713,65.21046l-.00006.00007a114.15739,114.15739,0,0,1-31.92255,40.54282l-.00006.00012c-41.61975,33.32462-54.72894,91.49638-31.5069,139.8105l.00006.00012a115.61173,115.61173,0,0,1,11.393,50.55606v.00006c-.225,53.73438,36.50629,100.38449,88.28033,112.11938l.00012.00006a112.35361,112.35361,0,0,1,46.12939,22.49948l.00006.00012a111.83532,111.83532,0,0,0,141.5907,0l.00006-.00012a112.35361,112.35361,0,0,1,46.12939-22.49948l.00012-.00006c51.774-11.73489,88.50537-58.385,88.2804-112.11938v-.00006a115.61167,115.61167,0,0,1,11.39294-50.55606l.00012-.00012c23.222-48.31412,10.11279-106.48589-31.507-139.8105l-.00012-.00012a114.15723,114.15723,0,0,1-31.92249-40.54282v-.00007A112.85877,112.85877,0,0,0,339.23163,60Z" style="fill:#f2f2f3"/><g style="opacity:0.9"><path d="M340.5799,55A113.73769,113.73769,0,0,1,401.49414,72.7268a115.66183,115.66183,0,0,1,42.80054,48.62543,118.80839,118.80839,0,0,0,33.0426,41.96481,116.99233,116.99233,0,0,1,40.77307,65.41513,118.16853,118.16853,0,0,1-8.7135,76.86093,120.30789,120.30789,0,0,0-11.79138,52.32394,117.758,117.758,0,0,1-25.07471,73.07642,115.12476,115.12476,0,0,1-64.75006,41.014,116.94655,116.94655,0,0,0-47.754,23.29175,113.77826,113.77826,0,0,1-144.05353-.00006,116.9463,116.9463,0,0,0-47.754-23.29169,115.12466,115.12466,0,0,1-64.74994-41.014,117.75825,117.75825,0,0,1-25.07465-73.07654A120.309,120.309,0,0,0,66.60309,305.593,117.39083,117.39083,0,0,1,98.66272,163.317a118.80868,118.80868,0,0,0,33.04272-41.96487A115.66039,115.66039,0,0,1,174.50684,72.728a113.46011,113.46011,0,0,1,86.99023-14.68712A115.67934,115.67934,0,0,0,288,61.123a115.68006,115.68006,0,0,0,26.50305-3.08212A113.8299,113.8299,0,0,1,340.5799,55m-.00006-1a114.626,114.626,0,0,0-26.30615,3.06755l-.00012.00006A114.51741,114.51741,0,0,1,288,60.123a114.51741,114.51741,0,0,1-26.27356-3.05541l-.00012-.00006A114.58236,114.58236,0,0,0,235.42017,54a115.83654,115.83654,0,0,0-104.61969,66.92649l-.00006.00012a117.16129,117.16129,0,0,1-32.7627,41.60976v.00006c-42.715,34.20163-56.16919,93.90419-32.336,143.48976v.00012a118.65284,118.65284,0,0,1,11.69287,51.88641v.00015c-.2309,55.1485,37.467,103.02618,90.60352,115.06985h.00012a115.31176,115.31176,0,0,1,47.34332,23.09171l.00006.00006a114.77834,114.77834,0,0,0,145.31677,0l.00006-.00006a115.31176,115.31176,0,0,1,47.34332-23.09171h.00012c53.13654-12.04367,90.83441-59.92136,90.60358-115.06985v-.00015a118.65272,118.65272,0,0,1,11.69275-51.88641l.00012-.00012c23.83313-49.58557,10.37891-109.28813-32.33606-143.48976l-.00012-.00006a117.16231,117.16231,0,0,1-32.76257-41.60976v-.00012A115.82875,115.82875,0,0,0,340.57983,54Z" style="fill:#f2f2f3"/></g><g style="opacity:0.8"><path d="M341.928,49a116.67965,116.67965,0,0,1,62.48987,18.18533,118.654,118.654,0,0,1,43.90753,49.88293A121.82926,121.82926,0,0,0,482.20813,160.1a120.01785,120.01785,0,0,1,41.82751,67.10686,121.22485,121.22485,0,0,1-8.93872,78.8484,123.36833,123.36833,0,0,0-12.09143,53.65448,120.80263,120.80263,0,0,1-25.723,74.96606,118.10232,118.10232,0,0,1-66.4248,42.0748,119.92123,119.92123,0,0,0-48.968,23.88379,116.72131,116.72131,0,0,1-147.77948,0,119.91958,119.91958,0,0,0-48.968-23.88379,118.10222,118.10222,0,0,1-66.42468-42.0748,120.80336,120.80336,0,0,1-25.72308-74.96622,123.36844,123.36844,0,0,0-12.09137-53.65445,121.22382,121.22382,0,0,1-8.9386-78.84834A120.01731,120.01731,0,0,1,93.792,160.0999a121.82873,121.82873,0,0,0,33.88269-43.03174,118.6518,118.6518,0,0,1,43.90826-49.88167A116.39614,116.39614,0,0,1,260.8233,52.11956,118.62069,118.62069,0,0,0,288,55.28a118.62292,118.62292,0,0,0,27.17682-3.16047A116.7654,116.7654,0,0,1,341.928,49m.00006-1a117.56532,117.56532,0,0,0-26.98071,3.14621h-.00012A117.45214,117.45214,0,0,1,288,54.28a117.45214,117.45214,0,0,1-26.94727-3.1338h-.00012A117.52251,117.52251,0,0,0,234.0719,48a118.8063,118.8063,0,0,0-107.30218,68.64255l-.00006.00013A120.16565,120.16565,0,0,1,93.167,159.31929l-.00012.00014c-43.81018,35.0786-57.60937,96.312-33.1651,147.16895v.00012a121.69572,121.69572,0,0,1,11.99268,53.21695v.00012c-.23682,56.56247,38.42767,105.66779,92.9267,118.02032h.00012a118.2674,118.2674,0,0,1,48.55725,23.68381h.00006a117.72124,117.72124,0,0,0,149.04285,0h.00006a118.2674,118.2674,0,0,1,48.55725-23.68381h.00012c54.499-12.35254,93.16357-61.45786,92.92664-118.02032v-.00012a121.69829,121.69829,0,0,1,11.99268-53.21695l.00012-.00012c24.44421-50.85695,10.645-112.09035-33.16516-147.16895l-.00012-.00014a120.165,120.165,0,0,1-33.60266-42.6766v-.00013A118.79871,118.79871,0,0,0,341.9281,48Z" style="fill:#f2f2f3"/></g><g style="opacity:0.7000000000000001"><path d="M343.27618,43a119.62172,119.62172,0,0,1,64.06555,18.64386,121.64451,121.64451,0,0,1,45.01447,51.14046A124.84844,124.84844,0,0,0,487.079,156.883a123.04271,123.04271,0,0,1,42.88184,68.79854,124.28079,124.28079,0,0,1-9.16394,80.836,126.426,126.426,0,0,0-12.39124,54.98486,123.84789,123.84789,0,0,1-26.37146,76.8558,121.07965,121.07965,0,0,1-68.09949,43.13562,122.89175,122.89175,0,0,0-50.18188,24.47592,119.66439,119.66439,0,0,1-151.50568-.00006,122.893,122.893,0,0,0-50.18188-24.476,121.0794,121.0794,0,0,1-68.09943-43.13553,123.84835,123.84835,0,0,1-26.37158-76.85593A126.42653,126.42653,0,0,0,55.203,306.5174,123.46233,123.46233,0,0,1,88.92114,156.88293a124.84885,124.84885,0,0,0,34.72272-44.09867,121.64306,121.64306,0,0,1,45.01526-51.13914,119.32991,119.32991,0,0,1,91.49054-15.44687A121.56233,121.56233,0,0,0,288,49.437a121.55736,121.55736,0,0,0,27.8504-3.2388A119.71232,119.71232,0,0,1,343.27618,43m0-1A120.50486,120.50486,0,0,0,315.621,45.22486l-.00006.00007A120.38923,120.38923,0,0,1,288,48.437a120.38923,120.38923,0,0,1-27.62091-3.2121l-.00006-.00007A120.45864,120.45864,0,0,0,232.72382,42,121.77685,121.77685,0,0,0,122.739,112.35866l-.00006.00007a123.17014,123.17014,0,0,1-34.44275,43.7436l-.00006.00008C43.39063,192.05792,29.2464,254.82219,54.30176,306.95059l.00006.00012A124.73789,124.73789,0,0,1,66.59424,361.498v.00015c-.24268,57.97653,39.38843,108.30954,95.24994,120.97079l.00006.00006a121.22475,121.22475,0,0,1,49.77124,24.27588l.00006.00006a120.66446,120.66446,0,0,0,152.76892,0l.00006-.00006a121.22475,121.22475,0,0,1,49.77124-24.27588l.00006-.00006c55.86151-12.66125,95.49261-62.99426,95.24982-120.97079V361.498a124.73966,124.73966,0,0,1,12.29248-54.54733l.00012-.00012c25.0553-52.1284,10.91113-114.89267-33.99426-150.84819l-.00012-.00008a123.16947,123.16947,0,0,1-34.44275-43.7436v-.00007A121.76868,121.76868,0,0,0,343.27618,42Z" style="fill:#f2f2f3"/></g><g style="opacity:0.6000000000000001"><path d="M344.62445,37a122.56365,122.56365,0,0,1,65.64117,19.1024,124.6361,124.6361,0,0,1,46.12134,52.398,127.87135,127.87135,0,0,0,35.56287,45.1656,126.0688,126.0688,0,0,1,43.93628,70.49019,127.33584,127.33584,0,0,1-9.38928,82.82355,129.48462,129.48462,0,0,0-12.691,56.31525,126.89342,126.89342,0,0,1-27.0199,78.74554,124.05762,124.05762,0,0,1-69.77423,44.19641,125.865,125.865,0,0,0-51.39587,25.068,122.60713,122.60713,0,0,1-155.23163-.00006,125.86512,125.86512,0,0,0-51.39594-25.06793,124.05747,124.05747,0,0,1-69.77417-44.19641,126.89382,126.89382,0,0,1-27.0199-78.74567,129.48529,129.48529,0,0,0-12.6911-56.31528,127.33578,127.33578,0,0,1-9.38916-82.82339,126.06844,126.06844,0,0,1,43.93646-70.49033,127.87187,127.87187,0,0,0,35.56281-45.16553A124.6354,124.6354,0,0,1,165.73535,56.1036,122.26565,122.26565,0,0,1,259.476,40.27686,124.5013,124.5013,0,0,0,288,43.594a124.50274,124.50274,0,0,0,28.52411-3.31713A122.6553,122.6553,0,0,1,344.62445,37m0-1a123.44321,123.44321,0,0,0-28.32971,3.30352h-.00012A123.32394,123.32394,0,0,1,288,42.594a123.32394,123.32394,0,0,1-28.29462-3.2905h-.00012A123.39867,123.39867,0,0,0,231.37555,36a124.74675,124.74675,0,0,0-112.66736,72.07472l-.00006.00007a126.1743,126.1743,0,0,1-35.28278,44.81047l-.00018.00012C37.42444,189.71793,22.93536,254.013,48.60181,307.41281l.00006.00012a127.77979,127.77979,0,0,1,12.59229,55.87772v.00015c-.24866,59.39059,40.34906,110.95126,97.573,123.92139h.00012a124.18,124.18,0,0,1,50.98517,24.868l.00012.00006a123.6072,123.6072,0,0,0,156.49487,0l.00012-.00006a124.18,124.18,0,0,1,50.98517-24.868h.00012c57.22394-12.97012,97.82159-64.53079,97.57294-123.92139v-.00015a127.78065,127.78065,0,0,1,12.59229-55.87772l.00012-.00012c25.6665-53.39981,11.17725-117.69489-34.82336-154.52742l-.00012-.00012a126.17514,126.17514,0,0,1-35.28284-44.81047v-.00007A124.7387,124.7387,0,0,0,344.62445,36Z" style="fill:#f2f2f3"/></g><g style="opacity:0.5"><path d="M345.97266,31a125.50643,125.50643,0,0,1,67.2168,19.56086,127.62755,127.62755,0,0,1,47.22827,53.65564,130.88982,130.88982,0,0,0,36.40283,46.23235,129.53341,129.53341,0,0,1,35.3761,156.993,132.55049,132.55049,0,0,0-12.99072,57.64572A129.93906,129.93906,0,0,1,491.5376,445.7229a127.03524,127.03524,0,0,1-71.449,45.25714,128.8395,128.8395,0,0,0-52.60974,25.66016,125.55042,125.55042,0,0,1-158.95782-.00006A128.839,128.839,0,0,0,155.91132,490.98,127.03488,127.03488,0,0,1,84.4624,445.7229,129.9388,129.9388,0,0,1,56.794,365.08755a132.54618,132.54618,0,0,0-12.99084-57.64578A129.53363,129.53363,0,0,1,79.1795,150.44884a130.89024,130.89024,0,0,0,36.40283-46.23244,127.62606,127.62606,0,0,1,47.22925-53.65421,125.20064,125.20064,0,0,1,95.99072-16.20664A127.44505,127.44505,0,0,0,288,37.751a127.4482,127.4482,0,0,0,29.19788-3.3955A125.5985,125.5985,0,0,1,345.97266,31m0-1a126.38186,126.38186,0,0,0-29.00421,3.38218h-.00018A126.26,126.26,0,0,1,288,36.751a126.26,126.26,0,0,1-28.96826-3.36884h-.00018A126.33656,126.33656,0,0,0,230.02734,30a127.717,127.717,0,0,0-115.34991,73.79075l-.00006.00014A129.17833,129.17833,0,0,1,78.5545,149.66826l-.00012.00008C31.45844,187.37784,16.62427,253.20377,42.90186,307.875l.00006.00015A130.82331,130.82331,0,0,1,55.794,365.08334v.00006c-.25458,60.80472,41.30975,113.593,99.89618,126.87192h.00012a127.13869,127.13869,0,0,1,52.1991,25.46008l.00012.00006a126.55032,126.55032,0,0,0,160.22095,0l.00012-.00006a127.13869,127.13869,0,0,1,52.1991-25.46008h.00012c58.58643-13.27893,100.15076-66.0672,99.89612-126.87192v-.00006A130.82587,130.82587,0,0,1,533.098,307.87512l.00012-.00015c26.27759-54.6712,11.44348-120.49713-35.65259-158.20663l-.00012-.00008a129.17952,129.17952,0,0,1-36.1228-45.87736l-.00012-.00014A127.70841,127.70841,0,0,0,345.97266,30Z" style="fill:#f2f2f3"/></g><g style="opacity:0.4"><path d="M347.32086,25a128.44715,128.44715,0,0,1,68.79236,20.01943,130.61761,130.61761,0,0,1,48.33527,54.91321,133.91234,133.91234,0,0,0,37.24292,47.29929,132.56922,132.56922,0,0,1,36.20532,160.6722,135.60464,135.60464,0,0,0-13.29065,58.97617,132.98363,132.98363,0,0,1-28.31677,82.525,130.012,130.012,0,0,1-73.12372,46.31793,131.8113,131.8113,0,0,0-53.82367,26.2522,128.49332,128.49332,0,0,1-162.6839-.00006,131.81142,131.81142,0,0,0-53.82373-26.25214,130.01249,130.01249,0,0,1-73.1236-46.31793,132.984,132.984,0,0,1-28.31677-82.52515A135.60515,135.60515,0,0,0,38.10321,307.904,132.56928,132.56928,0,0,1,74.30865,147.23184a133.911,133.911,0,0,0,37.24292-47.29943A130.61758,130.61758,0,0,1,159.8877,45.02063,128.13524,128.13524,0,0,1,258.1286,28.4342,130.38784,130.38784,0,0,0,288,31.908a130.38968,130.38968,0,0,0,29.87152-3.47379A128.545,128.545,0,0,1,347.32086,25m0-1a129.32152,129.32152,0,0,0-29.67877,3.46083H317.642A129.1983,129.1983,0,0,1,288,30.908a129.1983,129.1983,0,0,1-29.642-3.44716h-.00006A129.27467,129.27467,0,0,0,228.67914,24,130.687,130.687,0,0,0,110.64667,99.50684l-.00012.00014a132.18229,132.18229,0,0,1-36.96289,46.94427l-.00006.00008C25.49237,185.03784,10.31323,252.39456,37.2019,308.33719l.00012.00015a133.867,133.867,0,0,1,13.19189,58.53857v.00015c-.26056,62.21878,42.27039,116.23471,102.2193,129.82242h.00012a130.095,130.095,0,0,1,53.413,26.05212l.00006.00006a129.49339,129.49339,0,0,0,163.94714,0l.00006-.00006a130.095,130.095,0,0,1,53.413-26.05212h.00012c59.94891-13.58771,102.4798-67.60364,102.2193-129.82242v-.00015A133.867,133.867,0,0,1,538.798,308.33734l.00012-.00015c26.88867-55.94263,11.70959-123.29935-36.48169-161.88585l-.00012-.00008A132.18432,132.18432,0,0,1,465.35339,99.507l-.00012-.00014A130.67834,130.67834,0,0,0,347.32086,24Z" style="fill:#f2f2f3"/></g><g style="opacity:0.30000000000000004"><path d="M348.669,19a131.38957,131.38957,0,0,1,70.368,20.47793,133.61067,133.61067,0,0,1,49.44226,56.17064,136.93153,136.93153,0,0,0,38.083,48.36636,135.60489,135.60489,0,0,1,37.03442,164.35144,138.66457,138.66457,0,0,0-13.59045,60.30655A136.029,136.029,0,0,1,501.041,453.08765a132.99039,132.99039,0,0,1-74.79846,47.37869A134.78463,134.78463,0,0,0,371.205,527.31067a131.43642,131.43642,0,0,1-166.41-.00012,134.78578,134.78578,0,0,0-55.0376-26.84421A132.99,132.99,0,0,1,74.959,453.08765a136.02962,136.02962,0,0,1-28.96521-84.41486A138.66347,138.66347,0,0,0,32.4032,308.36621,135.605,135.605,0,0,1,69.43787,144.01479a136.93221,136.93221,0,0,0,38.083-48.36629,133.609,133.609,0,0,1,49.44305-56.16929A131.07014,131.07014,0,0,1,257.455,22.51285,133.3243,133.3243,0,0,0,288,26.065a133.32784,133.32784,0,0,0,30.54523-3.55214A131.48569,131.48569,0,0,1,348.669,19m0-1A132.26014,132.26014,0,0,0,318.3158,21.5395h-.00018A132.1326,132.1326,0,0,1,288,25.065a132.1326,132.1326,0,0,1-30.31561-3.52554h-.00018A132.21262,132.21262,0,0,0,227.331,18,133.65732,133.65732,0,0,0,106.61591,95.22292l-.00006.00008a135.18656,135.18656,0,0,1-37.803,48.01121l-.00012.00015C19.52618,182.69778,4.00214,251.58536,31.502,308.79944l.00006.00012a136.90852,136.90852,0,0,1,13.49176,59.869v.00012c-.26648,63.63287,43.23108,118.87637,104.54254,132.77295h.00006a133.05176,133.05176,0,0,1,54.627,26.64423v.00006a132.43668,132.43668,0,0,0,167.67334,0v-.00006a133.05176,133.05176,0,0,1,54.627-26.64423h.00012c61.3114-13.89658,104.809-69.14008,104.54248-132.77295v-.00012a136.91017,136.91017,0,0,1,13.4917-59.869l.00012-.00012c27.49976-57.21408,11.97571-126.10165-37.31079-165.56508l-.00012-.00015a135.18656,135.18656,0,0,1-37.803-48.01121l-.00012-.00008A133.64843,133.64843,0,0,0,348.669,18Z" style="fill:#f2f2f3"/></g><g style="opacity:0.2"><path d="M350.01721,13a134.33143,134.33143,0,0,1,71.94366,20.93646A136.60246,136.60246,0,0,1,472.51,91.36471a139.95353,139.95353,0,0,0,38.9231,49.43324,138.64017,138.64017,0,0,1,37.8634,168.03061,141.72416,141.72416,0,0,0-13.89014,61.637A139.07468,139.07468,0,0,1,505.79272,456.77a135.96863,135.96863,0,0,1-76.47327,48.43954A137.75643,137.75643,0,0,0,373.068,532.64594a134.37956,134.37956,0,0,1-170.136-.00006,137.75681,137.75681,0,0,0-56.25159-27.43631A135.96823,135.96823,0,0,1,70.20734,456.77a139.0743,139.0743,0,0,1-29.61371-86.30463,141.722,141.722,0,0,0-13.89032-61.637A138.64054,138.64054,0,0,1,64.567,140.79785a139.95205,139.95205,0,0,0,38.923-49.4333,136.60026,136.60026,0,0,1,50.55-57.42677A134.00567,134.00567,0,0,1,256.78131,16.59147,136.26207,136.26207,0,0,0,288,20.222a136.26443,136.26443,0,0,0,31.21887-3.63054A134.43626,134.43626,0,0,1,350.01721,13m0-1a135.19965,135.19965,0,0,0-31.02777,3.61814h-.00012A135.06958,135.06958,0,0,1,288,19.222a135.06958,135.06958,0,0,1-30.98932-3.60387h-.00012A135.15121,135.15121,0,0,0,225.98273,12,136.62741,136.62741,0,0,0,102.58514,90.93893l-.00006.00015A138.1908,138.1908,0,0,1,63.942,140.01724l-.00012.00008C13.56018,180.35771-2.3089,250.77609,25.802,309.26163l.00006.00015a139.95072,139.95072,0,0,1,13.79156,61.19946v.00015c-.2724,65.04684,44.19183,121.518,106.86566,135.72339h.00012a136.00885,136.00885,0,0,1,55.84088,27.2363l.00012.00006a135.37925,135.37925,0,0,0,171.39917,0l.00012-.00006a136.009,136.009,0,0,1,55.84082-27.2363h.00024c62.67383-14.20538,107.13794-70.67654,106.8656-135.72339v-.00015a139.95152,139.95152,0,0,1,13.7915-61.19946l.00012-.00015c28.111-58.48553,12.24182-128.90392-38.13989-169.24431l-.00012-.00008a138.19148,138.19148,0,0,1-38.64307-49.07816l-.00012-.00015A136.6184,136.6184,0,0,0,350.01721,12Z" style="fill:#f2f2f3"/></g><g style="opacity:0.1"><path d="M351.36536,7a137.27339,137.27339,0,0,1,73.51929,21.39492,139.59371,139.59371,0,0,1,51.65613,58.68584A142.97373,142.97373,0,0,0,516.304,137.58093a141.67606,141.67606,0,0,1,38.69263,171.70984,144.78256,144.78256,0,0,0-14.19006,62.96738,142.119,142.119,0,0,1-30.26209,88.19415,138.946,138.946,0,0,1-78.14795,49.5004A140.728,140.728,0,0,0,374.931,537.98126a137.323,137.323,0,0,1-173.86218-.00018,140.72919,140.72919,0,0,0-57.46545-28.02838,138.94588,138.94588,0,0,1-78.14777-49.5004A142.11952,142.11952,0,0,1,35.19348,372.258a144.78273,144.78273,0,0,0-14.19012-62.96738A141.67628,141.67628,0,0,1,59.69623,137.58086,142.97231,142.97231,0,0,0,99.45929,87.08062a139.59112,139.59112,0,0,1,51.657-58.68423A136.93976,136.93976,0,0,1,256.1076,10.67016,139.2052,139.2052,0,0,0,288,14.379a139.20091,139.20091,0,0,0,31.89252-3.70892A137.37939,137.37939,0,0,1,351.36536,7m.00006-1a138.13908,138.13908,0,0,0-31.70227,3.69678l-.00012.00008A138.00839,138.00839,0,0,1,288,13.379a138.00839,138.00839,0,0,1-31.663-3.68215l-.00012-.00008A138.08625,138.08625,0,0,0,224.63458,6,139.59808,139.59808,0,0,0,98.55438,86.655l-.00006.00015a141.19524,141.19524,0,0,1-39.48309,50.14507l-.00012.00008C7.59418,178.01762-8.61993,249.96693,20.10205,309.72385v.00015a142.99139,142.99139,0,0,1,14.09143,62.52985v.00015C33.91522,438.71494,79.346,496.4137,143.38232,510.92792h.00012a138.96558,138.96558,0,0,1,57.05481,27.82837l.00012.00018a138.32278,138.32278,0,0,0,175.12524,0l.00012-.00018a138.96558,138.96558,0,0,1,57.05481-27.82837h.00012c64.03638-14.51422,109.46716-72.213,109.18884-138.67392v-.00015A142.99139,142.99139,0,0,1,555.89795,309.724v-.00015c28.722-59.75691,12.50793-131.70622-38.969-172.92354l-.00012-.00008a141.19473,141.19473,0,0,1-39.48315-50.14507l-.00012-.00015A139.58841,139.58841,0,0,0,351.36542,6Z" style="fill:#f2f2f3"/></g><circle cx="288" cy="192" r="24" style="fill:none;stroke:#ccced1;stroke-linecap:round;stroke-miterlimit:10;stroke-width:2px"/><circle cx="288" cy="384" r="24" style="fill:none;stroke:#ccced1;stroke-linecap:round;stroke-miterlimit:10;stroke-width:2px"/><circle cx="288" cy="336" r="24" style="fill:none;stroke:#ccced1;stroke-linecap:round;stroke-miterlimit:10;stroke-width:2px"/><circle cx="288" cy="240" r="24" style="fill:none;stroke:#ccced1;stroke-linecap:round;stroke-miterlimit:10;stroke-width:2px"/><circle cx="231.57262" cy="210.33437" r="24" transform="translate(-79.40501 176.28526) rotate(-36)" style="fill:none;stroke:#ccced1;stroke-linecap:round;stroke-miterlimit:10;stroke-width:2px"/><circle cx="344.42738" cy="365.66563" r="24" transform="translate(-149.15309 272.28526) rotate(-36)" style="fill:none;stroke:#ccced1;stroke-linecap:round;stroke-miterlimit:10;stroke-width:2px"/><circle cx="316.21369" cy="326.83282" r="24" transform="translate(-131.71607 248.28526) rotate(-36)" style="fill:none;stroke:#ccced1;stroke-linecap:round;stroke-miterlimit:10;stroke-width:2px"/><circle cx="259.78631" cy="249.16718" r="24" transform="translate(-96.84203 200.28526) rotate(-36)" style="fill:none;stroke:#ccced1;stroke-linecap:round;stroke-miterlimit:10;stroke-width:2px"/><circle cx="196.69859" cy="258.33433" r="24" transform="translate(-109.77521 365.57596) rotate(-71.99997)" style="fill:none;stroke:#ccced1;stroke-linecap:round;stroke-miterlimit:10;stroke-width:2px"/><circle cx="379.30141" cy="317.66567" r="24" transform="translate(-40.0273 580.23846) rotate(-71.99997)" style="fill:none;stroke:#ccced1;stroke-linecap:round;stroke-miterlimit:10;stroke-width:2px"/><circle cx="333.65071" cy="302.83284" r="24" transform="translate(-57.46428 526.57284) rotate(-71.99997)" style="fill:none;stroke:#ccced1;stroke-linecap:round;stroke-miterlimit:10;stroke-width:2px"/><circle cx="242.34929" cy="273.16716" r="24" transform="translate(-92.33824 419.24159) rotate(-71.99997)" style="fill:none;stroke:#ccced1;stroke-linecap:round;stroke-miterlimit:10;stroke-width:2px"/><circle cx="196.69856" cy="317.66559" r="24" transform="translate(-88.53686 76.33074) rotate(-17.99998)" style="fill:none;stroke:#ccced1;stroke-linecap:round;stroke-miterlimit:10;stroke-width:2px"/><circle cx="379.30144" cy="258.33441" r="24" transform="translate(-61.26534 129.8542) rotate(-17.99998)" style="fill:none;stroke:#ccced1;stroke-linecap:round;stroke-miterlimit:10;stroke-width:2px"/><circle cx="333.65072" cy="273.1672" r="24" transform="translate(-68.08322 116.47333) rotate(-17.99998)" style="fill:none;stroke:#ccced1;stroke-linecap:round;stroke-miterlimit:10;stroke-width:2px"/><circle cx="242.34928" cy="302.8328" r="24" transform="translate(-81.71898 89.71161) rotate(-17.99998)" style="fill:none;stroke:#ccced1;stroke-linecap:round;stroke-miterlimit:10;stroke-width:2px"/><circle cx="231.57255" cy="365.66559" r="24" transform="translate(-200.37203 338.07853) rotate(-53.99995)" style="fill:none;stroke:#ccced1;stroke-linecap:round;stroke-miterlimit:10;stroke-width:2px"/><circle cx="344.42745" cy="210.33441" r="24" transform="translate(-28.18617 365.3503) rotate(-53.99995)" style="fill:none;stroke:#ccced1;stroke-linecap:round;stroke-miterlimit:10;stroke-width:2px"/><circle cx="316.21372" cy="249.16721" r="24" transform="translate(-71.23263 358.53236) rotate(-53.99995)" style="fill:none;stroke:#ccced1;stroke-linecap:round;stroke-miterlimit:10;stroke-width:2px"/><circle cx="259.78628" cy="326.83279" r="24" transform="translate(-157.32556 344.89647) rotate(-53.99995)" style="fill:none;stroke:#ccced1;stroke-linecap:round;stroke-miterlimit:10;stroke-width:2px"/><circle cx="258.33441" cy="196.69856" r="24" transform="matrix(0.95106, -0.30902, 0.30902, 0.95106, -48.13936, 89.45669)" style="fill:none;stroke:#ccced1;stroke-linecap:round;stroke-miterlimit:10;stroke-width:2px"/><circle cx="317.66559" cy="379.30144" r="24" transform="matrix(0.95106, -0.30902, 0.30902, 0.95106, -101.66281, 116.7282)" style="fill:none;stroke:#ccced1;stroke-linecap:round;stroke-miterlimit:10;stroke-width:2px"/><circle cx="210.33438" cy="231.5726" r="24" transform="translate(-100.64324 265.62167) rotate(-53.99999)" style="fill:none;stroke:#ccced1;stroke-linecap:round;stroke-miterlimit:10;stroke-width:2px"/><circle cx="365.66562" cy="344.4274" r="24" transform="translate(-127.91488 437.80765) rotate(-53.99999)" style="fill:none;stroke:#ccced1;stroke-linecap:round;stroke-miterlimit:10;stroke-width:2px"/><circle cx="192" cy="287.99996" r="24" style="fill:none;stroke:#ccced1;stroke-linecap:round;stroke-miterlimit:10;stroke-width:2px"/><circle cx="384" cy="288.00004" r="24" style="fill:none;stroke:#ccced1;stroke-linecap:round;stroke-miterlimit:10;stroke-width:2px"/><circle cx="210.33436" cy="344.42738" r="24" transform="translate(-162.27903 189.41118) rotate(-36)" style="fill:none;stroke:#ccced1;stroke-linecap:round;stroke-miterlimit:10;stroke-width:2px"/><circle cx="365.66564" cy="231.57262" r="24" transform="translate(-66.27905 259.15927) rotate(-36)" style="fill:none;stroke:#ccced1;stroke-linecap:round;stroke-miterlimit:10;stroke-width:2px"/><circle cx="258.33435" cy="379.30142" r="24" transform="translate(-182.23247 507.7813) rotate(-71.99999)" style="fill:none;stroke:#ccced1;stroke-linecap:round;stroke-miterlimit:10;stroke-width:2px"/><circle cx="317.66565" cy="196.69858" r="24" transform="translate(32.43005 438.0333) rotate(-71.99999)" style="fill:none;stroke:#ccced1;stroke-linecap:round;stroke-miterlimit:10;stroke-width:2px"/><circle cx="279.51472" cy="296.48528" r="24" transform="translate(-127.77879 284.48528) rotate(-45)" style="fill:none;stroke:#f91a1f;stroke-linecap:round;stroke-miterlimit:10;stroke-width:2px"/><circle cx="296.48528" cy="279.51472" r="24" transform="translate(-110.80822 291.51472) rotate(-45)" style="fill:none;stroke:#f91a1f;stroke-linecap:round;stroke-miterlimit:10;stroke-width:2px"/></svg>