<svg xmlns="http://www.w3.org/2000/svg" width="576" height="576" viewBox="0 0 576 576"><title>hire</title><path d="M325.74954,144a59.43318,59.43318,0,0,1,53.39389,34.26445A108.70714,108.70714,0,0,0,409.38257,216.658a60.62677,60.62677,0,0,1,21.11234,33.90912,61.46229,61.46229,0,0,1-4.52713,39.97777,109.79247,109.79247,0,0,0-10.76367,47.74945A61.1708,61.1708,0,0,1,402.19135,376.259a59.29958,59.29958,0,0,1-33.34155,21.14279,107.36615,107.36615,0,0,0-43.84424,21.37888,58.40523,58.40523,0,0,1-74.01122-.00021,107.36947,107.36947,0,0,0-43.84445-21.37866A59.29941,59.29941,0,0,1,173.80867,376.259a61.17092,61.17092,0,0,1-13.01279-37.96478A109.79238,109.79238,0,0,0,150.03233,290.545a61.46267,61.46267,0,0,1-4.52722-39.97789A60.62661,60.62661,0,0,1,166.61755,216.658a108.7086,108.7086,0,0,0,30.239-38.39366A59.43384,59.43384,0,0,1,250.25044,144a58.40815,58.40815,0,0,1,13.38112,1.56245,106.19963,106.19963,0,0,0,48.73721-.00012A58.40892,58.40892,0,0,1,325.74954,144m0-24a82.29553,82.29553,0,0,0-18.88647,2.20234v.00011a82.20082,82.20082,0,0,1-37.7262,0v-.00011A82.2645,82.2645,0,0,0,250.25043,120a83.16484,83.16484,0,0,0-75.11165,48.04979v.00011a84.11686,84.11686,0,0,1-23.5219,29.87367h-.00011a84.99868,84.99868,0,0,0-23.21556,103.01833v.00012a85.18663,85.18663,0,0,1,8.3949,37.25177v.00012c-.16577,39.59375,26.89934,73.96753,65.04866,82.6142h.00012A82.78913,82.78913,0,0,1,235.835,437.38675v.00012a82.40506,82.40506,0,0,0,104.33,0v-.00012a82.7883,82.7883,0,0,1,33.99011-16.57867h.00009c38.14935-8.64667,65.21445-43.02045,65.04868-82.6142v-.00012a85.18663,85.18663,0,0,1,8.3949-37.25177v-.00012a84.99867,84.99867,0,0,0-23.21558-103.01833h-.00009a84.11682,84.11682,0,0,1-23.52188-29.87367v-.00011A83.15914,83.15914,0,0,0,325.74957,120Z" style="fill:#f2f2f3"/><path d="M333.8389,85A99.02752,99.02752,0,0,1,386.875,100.4343a100.706,100.706,0,0,1,37.26593,42.33762,103.70507,103.70507,0,0,0,28.84222,36.63022,101.86389,101.86389,0,0,1,35.50073,56.95667,102.88952,102.88952,0,0,1-7.58673,66.92316,105.01328,105.01328,0,0,0-10.29242,45.67191,102.53187,102.53187,0,0,1-21.83252,63.62784,100.23631,100.23631,0,0,1-56.37634,35.71005A102.08323,102.08323,0,0,0,350.71155,468.623a99.063,99.063,0,0,1-125.42316-.00006A102.08244,102.08244,0,0,0,183.604,448.29175a100.2361,100.2361,0,0,1-56.37623-35.71005,102.53228,102.53228,0,0,1-21.8325-63.628,105.01336,105.01336,0,0,0-10.2925-45.67181,102.88982,102.88982,0,0,1-7.58666-66.92313A101.86456,101.86456,0,0,1,123.01694,179.402a103.70539,103.70539,0,0,0,28.84222-36.63023,100.7054,100.7054,0,0,1,37.26656-42.33655,98.78681,98.78681,0,0,1,75.73973-12.78761A100.97826,100.97826,0,0,0,288,90.338a100.98049,100.98049,0,0,0,23.13467-2.69039A99.1037,99.1037,0,0,1,333.8389,85m0-1a99.93042,99.93042,0,0,0-22.93359,2.67428h-.00009A99.83465,99.83465,0,0,1,288,89.338a99.83465,99.83465,0,0,1-22.90518-2.66371h-.00009A99.89427,99.89427,0,0,0,242.16112,84a100.98522,100.98522,0,0,0-91.20683,58.34618l-.00006.00011a102.14163,102.14163,0,0,1-28.56228,36.2751l-.00011.00012c-37.23866,29.81677-48.968,81.86517-28.19033,125.0936v.00006a103.44157,103.44157,0,0,1,10.19378,45.23441v.00009c-.20133,48.07819,32.66356,89.81772,78.98767,100.31735h.00011a100.52739,100.52739,0,0,1,41.27367,20.13123l.00006,0a100.06324,100.06324,0,0,0,126.68645,0l.00006,0A100.52761,100.52761,0,0,1,392.61694,449.267h.00012c46.3241-10.49963,79.189-52.23917,78.98767-100.31735v-.00009a103.44245,103.44245,0,0,1,10.1937-45.23441l.00006-.00006c20.77768-43.22842,9.04834-95.27682-28.19034-125.0936l-.00009-.00012a102.14055,102.14055,0,0,1-28.56223-36.2751l-.00012-.00011A100.97867,100.97867,0,0,0,333.83887,84Z" style="fill:#f2f2f3"/><path d="M332.49069,91a96.08569,96.08569,0,0,1,51.46051,14.97579,97.71474,97.71474,0,0,1,36.159,41.08,100.6834,100.6834,0,0,0,28.00214,35.56326,98.83885,98.83885,0,0,1,34.44632,55.26506,99.83406,99.83406,0,0,1-7.36142,64.93567,101.95483,101.95483,0,0,0-9.99261,44.34143,99.48685,99.48685,0,0,1-21.18405,61.73807,97.259,97.259,0,0,1-54.7016,34.64929,99.10916,99.10916,0,0,0-40.4704,19.73923,96.12011,96.12011,0,0,1-121.69717-.00012A99.109,99.109,0,0,0,186.681,443.54858a97.259,97.259,0,0,1-54.70152-34.64929,99.48677,99.48677,0,0,1-21.18406-61.73813,101.95489,101.95489,0,0,0-9.99268-44.34146,99.83372,99.83372,0,0,1-7.36137-64.93558A98.8386,98.8386,0,0,1,127.88784,182.619a100.68587,100.68587,0,0,0,28.00205-35.56326,97.7135,97.7135,0,0,1,36.15958-41.079A95.85186,95.85186,0,0,1,265.53909,93.569,98.038,98.038,0,0,0,288,96.181,98.03979,98.03979,0,0,0,310.461,93.569,96.159,96.159,0,0,1,332.49069,91m0-1a96.99156,96.99156,0,0,0-22.25912,2.59563h-.00009A96.89828,96.89828,0,0,1,288,95.181a96.89828,96.89828,0,0,1-22.23148-2.58537h-.00009A96.95631,96.95631,0,0,0,243.50931,90,98.01517,98.01517,0,0,0,154.985,146.63013l0,.00011a99.13809,99.13809,0,0,1-27.72217,35.20821l-.0001,0C91.11926,210.77834,79.73489,261.2959,99.90142,303.2529l.00005.00012a100.399,100.399,0,0,1,9.89394,43.90393v.00006c-.19537,46.66412,31.70284,87.176,76.66453,97.36685H186.46A97.57069,97.57069,0,0,1,226.51973,464.063l.00011.00012a97.12016,97.12016,0,0,0,122.96033,0l.00006-.00012A97.5712,97.5712,0,0,1,389.54,444.52386h0c44.9617-10.19086,76.85989-50.70273,76.66455-97.36685V347.157a100.39894,100.39894,0,0,1,9.894-43.90393l0-.00012c20.16647-41.957,8.78217-92.47456-27.36127-121.41441l0,0A99.13707,99.13707,0,0,1,421.015,146.63023l0-.00011A98.00879,98.00879,0,0,0,332.49069,90Z" style="fill:#f2f2f3"/><path d="M331.14249,97a93.14447,93.14447,0,0,1,49.88489,14.51721,94.72382,94.72382,0,0,1,35.052,39.82253,97.664,97.664,0,0,0,27.16211,34.49631,95.81344,95.81344,0,0,1,33.39182,53.57338,96.77817,96.77817,0,0,1-7.136,62.9481,98.89661,98.89661,0,0,0-9.69284,43.011,96.44173,96.44173,0,0,1-20.53558,59.84833,94.281,94.281,0,0,1-53.02689,33.5885,96.13743,96.13743,0,0,0-39.25647,19.14706,93.177,93.177,0,0,1-117.97105-.00006,96.13712,96.13712,0,0,0-39.25647-19.147,94.28083,94.28083,0,0,1-53.02679-33.58847,96.44215,96.44215,0,0,1-20.53558-59.84842,98.89575,98.89575,0,0,0-9.69289-43.011,96.77812,96.77812,0,0,1-7.136-62.948A95.81372,95.81372,0,0,1,132.75858,185.836a97.663,97.663,0,0,0,27.16206-34.49637,94.72214,94.72214,0,0,1,35.05267-39.82147A92.91734,92.91734,0,0,1,266.2128,99.49031a94.94167,94.94167,0,0,0,43.57452,0A93.21493,93.21493,0,0,1,331.14249,97m0-1a94.0525,94.0525,0,0,0-21.58456,2.517h-.00009a93.94131,93.94131,0,0,1-43.1156,0h-.00009A94.01855,94.01855,0,0,0,244.85753,96a95.04513,95.04513,0,0,0-85.8418,54.914v.00011a96.13265,96.13265,0,0,1-26.88216,34.14131l0,0c-35.04816,28.0629-46.08753,77.04965-26.53216,117.73523l0,0a97.35712,97.35712,0,0,1,9.59416,42.57355v.00009c-.18948,45.25,30.7421,84.53433,74.34132,94.41626l.00011.00006a94.61412,94.61412,0,0,1,38.84578,18.947l.00011.00006a94.177,94.177,0,0,0,119.23421,0l.00012-.00006a94.614,94.614,0,0,1,38.84579-18.947l.00009-.00006c43.59921-9.88193,74.53079-49.16626,74.34131-94.41626v-.00009a97.357,97.357,0,0,1,9.59418-42.57355l0,0c19.55539-40.68558,8.516-89.67233-26.53214-117.73523l-.00006,0a96.13337,96.13337,0,0,1-26.88217-34.14131V150.914A95.03888,95.03888,0,0,0,331.14246,96Z" style="fill:#f2f2f3"/><path d="M329.79425,103a90.20234,90.20234,0,0,1,48.3093,14.05875,91.73221,91.73221,0,0,1,33.94507,38.5649,94.64387,94.64387,0,0,0,26.322,33.42946,92.78771,92.78771,0,0,1,32.33749,51.88165,93.72283,93.72283,0,0,1-6.9108,60.96059,95.83687,95.83687,0,0,0-9.393,41.6806,93.39611,93.39611,0,0,1-19.88721,57.95862A91.30362,91.30362,0,0,1,383.165,434.06232a93.163,93.163,0,0,0-38.04257,18.555,90.234,90.234,0,0,1-114.24493-.00009,93.16278,93.16278,0,0,0-38.0426-18.5549,91.30354,91.30354,0,0,1-51.35205-32.52774,93.39682,93.39682,0,0,1-19.88715-57.95871,95.83666,95.83666,0,0,0-9.39305-41.68054,93.72273,93.72273,0,0,1-6.91071-60.96056,92.78785,92.78785,0,0,1,32.33751-51.8817,94.64313,94.64313,0,0,0,26.32195-33.42946,91.731,91.731,0,0,1,33.9458-38.5639,89.98105,89.98105,0,0,1,68.9893-11.648,92.00629,92.00629,0,0,0,42.22708,0A90.27165,90.27165,0,0,1,329.79425,103m0-1a91.11288,91.11288,0,0,0-20.91,2.43832l-.00009,0a91.00606,91.00606,0,0,1-41.76819,0l-.00009,0A91.07841,91.07841,0,0,0,246.20576,102a92.0753,92.0753,0,0,0-83.15927,53.198v0a93.12879,93.12879,0,0,1-26.0421,33.0744l0,0a94.10565,94.10565,0,0,0-25.703,114.056l0,0a94.31562,94.31562,0,0,1,9.2943,41.2431v.00012c-.18356,43.83594,29.78145,81.89258,72.01814,91.46579h.00011a91.657,91.657,0,0,1,37.6319,18.35489l0,.00012a91.23416,91.23416,0,0,0,115.50819,0l.00006-.00012a91.65733,91.65733,0,0,1,37.6319-18.35489h.00009c42.23672-9.57321,72.20172-47.62985,72.01816-91.46579v-.00012a94.3152,94.3152,0,0,1,9.29431-41.2431l0,0a94.10556,94.10556,0,0,0-25.703-114.056l-.00009,0a93.12952,93.12952,0,0,1-26.04205-33.0744v0A92.06893,92.06893,0,0,0,329.79422,102Z" style="fill:#f2f2f3"/><path d="M328.446,109a87.26011,87.26011,0,0,1,46.73367,13.60025,88.74074,88.74074,0,0,1,32.83817,37.30735,91.6224,91.6224,0,0,0,25.48193,32.36255,89.7621,89.7621,0,0,1,31.283,50.19,90.667,90.667,0,0,1-6.68546,58.973,92.77859,92.77859,0,0,0-9.0932,40.35022,90.35084,90.35084,0,0,1-19.23874,56.06885,88.32582,88.32582,0,0,1-49.67737,31.467A90.19062,90.19062,0,0,0,343.2594,447.282a87.291,87.291,0,0,1-110.51891-.00006,90.19023,90.19023,0,0,0-36.8286-17.96283,88.32573,88.32573,0,0,1-49.67735-31.46695,90.3514,90.3514,0,0,1-19.23869-56.069,92.77777,92.77777,0,0,0-9.09325-40.35013,90.66707,90.66707,0,0,1-6.6854-58.973,89.76225,89.76225,0,0,1,31.2831-50.19,91.62254,91.62254,0,0,0,25.48184-32.36255,88.74,88.74,0,0,1,32.83885-37.3064,87.04613,87.04613,0,0,1,66.73921-11.2681,89.07076,89.07076,0,0,0,40.8797-.00005A87.32613,87.32613,0,0,1,328.446,109m0-1a88.17389,88.17389,0,0,0-20.2355,2.35966l-.00012.00005a88.07,88.07,0,0,1-40.42078,0l-.00012-.00005A88.1401,88.1401,0,0,0,247.554,108a89.10519,89.10519,0,0,0-80.47675,51.482v0a90.12451,90.12451,0,0,1-25.202,32.00751l-.00009,0A91.06992,91.06992,0,0,0,117.0013,301.8663l.00005,0a91.27253,91.27253,0,0,1,8.9945,39.91272v.00009c-.17765,42.42184,28.82076,79.25092,69.695,88.51526l.00009,0a88.70056,88.70056,0,0,1,36.41791,17.76282l.00009,0a88.291,88.291,0,0,0,111.7821,0l.00006,0a88.70073,88.70073,0,0,1,36.418-17.76282l0,0c40.87427-9.26434,69.87265-46.09341,69.695-88.51526v-.00009a91.27254,91.27254,0,0,1,8.99451-39.91272l0,0a91.06986,91.06986,0,0,0-24.87384-110.37675l-.00009,0a90.12379,90.12379,0,0,1-25.202-32.00751v0A89.09908,89.09908,0,0,0,328.446,108Z" style="fill:#f2f2f3"/><path d="M327.09784,115a84.31859,84.31859,0,0,1,45.15805,13.14169,85.74974,85.74974,0,0,1,31.7312,36.0498,88.60244,88.60244,0,0,0,24.64185,31.29565,86.73607,86.73607,0,0,1,30.22858,48.49825,87.61148,87.61148,0,0,1-6.46011,56.98549,89.71833,89.71833,0,0,0-8.79333,39.01981,87.30586,87.30586,0,0,1-18.59036,54.17917A85.34814,85.34814,0,0,1,377.011,424.576a87.21872,87.21872,0,0,0-35.61469,17.37076,84.34808,84.34808,0,0,1-106.79282,0,87.21692,87.21692,0,0,0-35.6147-17.37076,85.34814,85.34814,0,0,1-48.00259-30.40613A87.30614,87.30614,0,0,1,132.396,339.99063a89.71848,89.71848,0,0,0-8.79345-39.01974,87.61093,87.61093,0,0,1-6.46-56.98546A86.73679,86.73679,0,0,1,147.371,195.48712,88.60212,88.60212,0,0,0,172.013,164.19148a85.74849,85.74849,0,0,1,31.73175-36.0489,84.11213,84.11213,0,0,1,64.48915-10.8882,86.13633,86.13633,0,0,0,39.53238,0A84.38053,84.38053,0,0,1,327.09784,115m0-1a85.23435,85.23435,0,0,0-19.561,2.281h-.00012a85.13443,85.13443,0,0,1-39.07349,0h-.00012a85.20364,85.20364,0,0,0-19.561-2.281A86.13451,86.13451,0,0,0,171.108,163.76587l0,.00006a87.12016,87.12016,0,0,1-24.362,30.9406l0,0a88.03421,88.03421,0,0,0-24.04475,106.69751l.00005,0a88.23016,88.23016,0,0,1,8.69469,38.58231v.00012c-.17175,41.00778,27.86,76.60919,67.37181,85.56473h.00009a85.74362,85.74362,0,0,1,35.204,17.17075h.00011a85.34778,85.34778,0,0,0,108.056,0h.00009a85.744,85.744,0,0,1,35.204-17.17075h.00012c39.51175-8.95554,67.54355-44.55695,67.37186-85.56473v-.00012a88.22936,88.22936,0,0,1,8.69464-38.58231l0,0A88.03426,88.03426,0,0,0,429.254,194.70657l-.00006,0a87.12,87.12,0,0,1-24.36194-30.9406l-.00006-.00006A86.12882,86.12882,0,0,0,327.09787,114Z" style="fill:#f2f2f3"/><path d="M335.187,79A101.97012,101.97012,0,0,1,389.79883,94.8928a103.69718,103.69718,0,0,1,38.37286,43.59512A106.72456,106.72456,0,0,0,457.854,176.18509a104.89021,104.89021,0,0,1,36.55518,58.64841,105.94532,105.94532,0,0,1-7.812,68.91071,108.07327,108.07327,0,0,0-10.59235,47.00229A105.577,105.577,0,0,1,453.524,416.264a103.21411,103.21411,0,0,1-58.05115,36.77087,105.05562,105.05562,0,0,0-42.89822,20.92337,102.00632,102.00632,0,0,1-129.14923-.00006,105.05524,105.05524,0,0,0-42.8983-20.92331,103.21363,103.21363,0,0,1-58.051-36.77087A105.57743,105.57743,0,0,1,99.99512,350.7464a108.073,108.073,0,0,0-10.59229-47.00232,105.94526,105.94526,0,0,1-7.812-68.91063,104.89045,104.89045,0,0,1,36.5553-58.64848,106.7244,106.7244,0,0,0,29.68224-37.69711,103.69659,103.69659,0,0,1,38.37358-43.59394,101.72019,101.72019,0,0,1,77.98984-13.16759A103.92071,103.92071,0,0,0,288,84.495a103.918,103.918,0,0,0,23.80835-2.76877A102.04753,102.04753,0,0,1,335.187,79m0-1a102.86951,102.86951,0,0,0-23.60806,2.75292l-.00012.00006A102.77132,102.77132,0,0,1,288,83.495a102.77132,102.77132,0,0,1-23.57883-2.742l-.00012-.00006A102.82992,102.82992,0,0,0,240.813,78a103.956,103.956,0,0,0-93.88953,60.06228v.00006a105.14512,105.14512,0,0,1-29.40236,37.34206l-.00011.00012c-38.33389,30.69376-50.40824,84.273-29.01948,128.77283l.00006.00012a106.48355,106.48355,0,0,1,10.49353,46.56476v.00012c-.20724,49.49216,33.62424,92.45941,81.31088,103.26782h.00012a103.48508,103.48508,0,0,1,42.48758,20.7233l.00006,0a103.00608,103.00608,0,0,0,130.41248,0l.00006,0a103.48508,103.48508,0,0,1,42.48758-20.7233h.00018c47.68658-10.80841,81.51807-53.77567,81.31076-103.26782v-.00012a106.48346,106.48346,0,0,1,10.49365-46.56476v-.00012c21.38876-44.49985,9.31442-98.07907-29.01947-128.77283l-.00012-.00012a105.14373,105.14373,0,0,1-29.40228-37.34206l-.00006-.00006A103.94892,103.94892,0,0,0,335.187,78Z" style="fill:#f2f2f3"/><path d="M336.53531,73a104.912,104.912,0,0,1,56.18741,16.3513A106.68908,106.68908,0,0,1,432.20248,134.204a109.7461,109.7461,0,0,0,30.52228,38.76405,107.91565,107.91565,0,0,1,37.60971,60.34006,109.00187,109.00187,0,0,1-8.03735,70.89828,111.13108,111.13108,0,0,0-10.89212,48.3327,108.62253,108.62253,0,0,1-23.12936,67.40726,106.19181,106.19181,0,0,1-59.7258,37.8317,108.02676,108.02676,0,0,0-44.11218,21.51547,104.94919,104.94919,0,0,1-132.87535-.00012,108.02723,108.02723,0,0,0-44.11224-21.51535,106.19221,106.19221,0,0,1-59.72576-37.8317A108.62278,108.62278,0,0,1,94.595,352.539a111.13133,111.13133,0,0,0-10.89212-48.33267,109.0012,109.0012,0,0,1-8.03735-70.89822A107.91572,107.91572,0,0,1,113.27529,172.968a109.74546,109.74546,0,0,0,30.5223-38.76405,106.68766,106.68766,0,0,1,39.48053-44.85159A104.65636,104.65636,0,0,1,263.51807,75.805,106.86115,106.86115,0,0,0,288,78.652,106.86338,106.86338,0,0,0,312.48206,75.805,104.99124,104.99124,0,0,1,336.53531,73m0-1a105.80877,105.80877,0,0,0-24.28262,2.83159h-.00012A105.70747,105.70747,0,0,1,288,77.652a105.70747,105.70747,0,0,1-24.25253-2.8204h-.00012A105.77051,105.77051,0,0,0,239.46471,72a106.92569,106.92569,0,0,0-96.572,61.77831v.00011a108.15008,108.15008,0,0,1-30.24241,38.409l-.00011.00011C73.221,203.75819,60.8017,258.86826,82.80159,304.63956v.00012A109.52589,109.52589,0,0,1,93.595,352.53485v.00012c-.21318,50.90622,34.58488,95.101,83.634,106.21835h.00011a106.44113,106.44113,0,0,1,43.70154,21.31534l.00012.00012a105.94928,105.94928,0,0,0,134.13853,0l.00006-.00012a106.441,106.441,0,0,1,43.70151-21.31534h.00012C447.82013,447.636,482.6181,403.44119,482.405,352.535v-.00012a109.52569,109.52569,0,0,1,10.79343-47.89517v-.00012c21.99982-45.7713,9.58057-100.88136-29.84866-132.45207l-.00006-.00011a108.14905,108.14905,0,0,1-30.24234-38.409l-.00006-.00011A106.91869,106.91869,0,0,0,336.53528,72Z" style="fill:#f2f2f3"/><path d="M337.88342,67a107.85379,107.85379,0,0,1,57.76306,16.80982,109.67968,109.67968,0,0,1,40.5867,46.11023A112.7653,112.7653,0,0,0,467.59564,169.751a110.94131,110.94131,0,0,1,38.66412,62.03181,112.05742,112.05742,0,0,1-8.2627,72.88582,114.18929,114.18929,0,0,0-11.192,49.66312,111.66767,111.66767,0,0,1-23.77777,69.297,109.16969,109.16969,0,0,1-61.40057,38.89246,111.00037,111.00037,0,0,0-45.32611,22.10754,107.89241,107.89241,0,0,1-136.60143-.00006,111.00058,111.00058,0,0,0-45.32611-22.10754,109.16933,109.16933,0,0,1-61.40047-38.8924,111.66773,111.66773,0,0,1-23.77776-69.29712,114.18917,114.18917,0,0,0-11.192-49.66309,112.05717,112.05717,0,0,1-8.26265-72.88576,110.94164,110.94164,0,0,1,38.66424-62.03188,112.766,112.766,0,0,0,31.36236-39.831,109.6784,109.6784,0,0,1,40.58759-46.109,107.59014,107.59014,0,0,1,82.48994-13.92729A109.80233,109.80233,0,0,0,288,72.809a109.79835,109.79835,0,0,0,25.1557-2.92542A107.93451,107.93451,0,0,1,337.88342,67m0-1a108.74792,108.74792,0,0,0-24.95712,2.91023l-.00006.00006A108.64568,108.64568,0,0,1,288,71.809a108.64568,108.64568,0,0,1-24.92624-2.8987l-.00006-.00006A108.70642,108.70642,0,0,0,238.11659,66a109.89637,109.89637,0,0,0-99.25465,63.49435v.00012a111.15363,111.15363,0,0,1-31.08247,39.47588l-.00012.00006c-40.52441,32.44777-53.2887,89.08864-30.67776,136.13136l.00006.00012a112.56777,112.56777,0,0,1,11.09324,49.22559v.00012c-.21912,52.32034,35.54559,97.7428,85.95717,109.16882l.00006,0a109.39805,109.39805,0,0,1,44.91547,21.90747l.00012.00006a108.89214,108.89214,0,0,0,137.86458,0l.00012-.00006a109.39791,109.39791,0,0,1,44.91541-21.90747l.00012,0c50.41159-11.426,86.17624-56.84848,85.95718-109.16882v-.00012a112.56776,112.56776,0,0,1,11.09323-49.22559v-.00012c22.611-47.04272,9.84671-103.68359-30.6777-136.13136l-.00012-.00006a111.15276,111.15276,0,0,1-31.08246-39.47588v-.00012A109.8888,109.8888,0,0,0,337.88342,66Z" style="fill:#f2f2f3"/><path d="M339.23163,61a110.79618,110.79618,0,0,1,59.33862,17.26831,112.671,112.671,0,0,1,41.69363,47.36781,115.7894,115.7894,0,0,0,32.20255,40.89794A113.9659,113.9659,0,0,1,512.185,230.25752a115.1124,115.1124,0,0,1-8.488,74.87337,117.25,117.25,0,0,0-11.49173,50.9935,114.7129,114.7129,0,0,1-24.42621,71.18671,112.147,112.147,0,0,1-63.07532,39.95331,113.9718,113.9718,0,0,0-46.54,22.69962,110.83563,110.83563,0,0,1-140.32758-.00012,113.97276,113.97276,0,0,0-46.54005-22.69955,112.1468,112.1468,0,0,1-63.07519-39.95325,114.71279,114.71279,0,0,1-24.42619-71.18677A117.251,117.251,0,0,0,72.303,305.13077a115.11273,115.11273,0,0,1-8.488-74.87331,113.96641,113.96641,0,0,1,39.71862-63.7235,115.78914,115.78914,0,0,0,32.20257-40.89788A112.66942,112.66942,0,0,1,177.4305,78.26946a110.52664,110.52664,0,0,1,84.74019-14.30725A112.73838,112.73838,0,0,0,288,66.966a112.73943,112.73943,0,0,0,25.82944-3.00381A110.88074,110.88074,0,0,1,339.23163,61m0-1A111.68666,111.68666,0,0,0,313.6,62.9889h-.00012A111.57845,111.57845,0,0,1,288,65.966a111.57845,111.57845,0,0,1-25.59988-2.97712H262.4A111.64628,111.64628,0,0,0,236.76836,60a112.866,112.866,0,0,0-101.9371,65.21046l-.00006.00007a114.158,114.158,0,0,1-31.92257,40.54282l-.00006.00012C61.28888,199.07808,48.17963,257.24985,71.40169,305.564v.00012a115.61125,115.61125,0,0,1,11.39306,50.55606v.00006c-.225,53.73438,36.50626,100.38449,88.28031,112.11938l.00012.00006a112.35356,112.35356,0,0,1,46.12938,22.49948l.00012.00012a111.83532,111.83532,0,0,0,141.5907,0l.00006-.00012a112.3535,112.3535,0,0,1,46.12936-22.49948l.00012-.00006c51.77408-11.73489,88.50531-58.385,88.28033-112.11938v-.00006a115.61093,115.61093,0,0,1,11.39307-50.55606l.00006-.00012c23.222-48.31412,10.11279-106.48589-31.507-139.8105l-.00006-.00012a114.15705,114.15705,0,0,1-31.92255-40.54282v-.00007A112.8588,112.8588,0,0,0,339.23163,60Z" style="fill:#f2f2f3"/><g style="opacity:0.9"><path d="M340.57986,55A113.73746,113.73746,0,0,1,401.49411,72.7268a115.66115,115.66115,0,0,1,42.80051,48.62543A118.80916,118.80916,0,0,0,477.33725,163.317a116.99146,116.99146,0,0,1,40.773,65.41513,118.16829,118.16829,0,0,1-8.71335,76.86093,120.30864,120.30864,0,0,0-11.7915,52.32394,117.75793,117.75793,0,0,1-25.07468,73.07642,115.12461,115.12461,0,0,1-64.75,41.014,116.94683,116.94683,0,0,0-47.754,23.29175,113.77833,113.77833,0,0,1-144.05357-.00006,116.94772,116.94772,0,0,0-47.75406-23.29169,115.12446,115.12446,0,0,1-64.74988-41.014,117.7582,117.7582,0,0,1-25.07469-73.07654A120.30864,120.30864,0,0,0,66.603,305.593a118.16882,118.16882,0,0,1-8.71331-76.86081A116.99244,116.99244,0,0,1,98.66281,163.317a118.80843,118.80843,0,0,0,33.04256-41.96487A115.66018,115.66018,0,0,1,174.50681,72.728a113.46019,113.46019,0,0,1,86.99026-14.68712A115.67934,115.67934,0,0,0,288,61.123a115.68006,115.68006,0,0,0,26.50305-3.08212A113.82944,113.82944,0,0,1,340.57986,55m0-1a114.62592,114.62592,0,0,0-26.30618,3.06755l-.00012.00006A114.51721,114.51721,0,0,1,288,60.123a114.51721,114.51721,0,0,1-26.27356-3.05541l-.00012-.00006A114.5822,114.5822,0,0,0,235.42015,54a115.83661,115.83661,0,0,0-104.61972,66.92649v.00012a117.16218,117.16218,0,0,1-32.76262,41.60976l-.00012.00006c-42.71494,34.20163-56.16913,93.90419-32.336,143.48976l.00006.00012a118.6531,118.6531,0,0,1,11.69281,51.88641v.00015c-.23087,55.1485,37.467,103.02618,90.6035,115.06985h.00012a115.3119,115.3119,0,0,1,47.34338,23.09171l.00006.00006a114.77831,114.77831,0,0,0,145.31676,0l.00012-.00006a115.31109,115.31109,0,0,1,47.34329-23.09171h.00012c53.13651-12.04367,90.83438-59.92136,90.60352-115.06985v-.00015a118.65278,118.65278,0,0,1,11.69281-51.88641l.00006-.00012c23.83316-49.58557,10.37894-109.28813-32.33606-143.48976l-.00006-.00006a117.16248,117.16248,0,0,1-32.76263-41.60976v-.00012A115.82863,115.82863,0,0,0,340.57986,54Z" style="fill:#f2f2f3"/></g><g style="opacity:0.8"><path d="M341.92807,49a116.67988,116.67988,0,0,1,62.48987,18.18533,118.6534,118.6534,0,0,1,43.90747,49.88293A121.82971,121.82971,0,0,0,482.20807,160.1a120.01752,120.01752,0,0,1,41.82751,67.10686,121.2245,121.2245,0,0,1-8.93866,78.8484,123.369,123.369,0,0,0-12.0914,53.65448,120.803,120.803,0,0,1-25.72305,74.96606,118.10262,118.10262,0,0,1-66.4248,42.0748,119.91943,119.91943,0,0,0-48.96793,23.88379,116.7214,116.7214,0,0,1-147.77954,0,119.91926,119.91926,0,0,0-48.968-23.88379,118.10224,118.10224,0,0,1-66.42466-42.0748,120.80334,120.80334,0,0,1-25.72307-74.96622A123.36736,123.36736,0,0,0,60.903,306.05518,120.4266,120.4266,0,0,1,93.792,160.0999a121.82919,121.82919,0,0,0,33.8826-43.03174,118.65321,118.65321,0,0,1,43.90827-49.88167,116.3964,116.3964,0,0,1,89.24046-15.06693A118.62,118.62,0,0,0,288,55.28a118.621,118.621,0,0,0,27.17673-3.16047A116.767,116.767,0,0,1,341.92807,49m0-1a117.56558,117.56558,0,0,0-26.98074,3.14621h-.00006A117.45214,117.45214,0,0,1,288,54.28a117.45214,117.45214,0,0,1-26.94727-3.1338h-.00006A117.52306,117.52306,0,0,0,234.07193,48a118.80639,118.80639,0,0,0-107.30226,68.64255v.00013A120.16643,120.16643,0,0,1,93.167,159.31929l-.00013.00014c-43.8102,35.0786-57.6094,96.312-33.16514,147.16895l.00007.00012a121.69668,121.69668,0,0,1,11.99267,53.21695v.00012c-.23687,56.56247,38.42767,105.66779,92.92666,118.02032h.00014a118.26728,118.26728,0,0,1,48.55727,23.68381h.00008a117.72116,117.72116,0,0,0,149.04279,0h.00015a118.2668,118.2668,0,0,1,48.55719-23.68381h.00012c54.499-12.35254,93.16354-61.45786,92.92667-118.02032v-.00012a121.69746,121.69746,0,0,1,11.99271-53.21695v-.00012c24.44427-50.85695,10.64508-112.09035-33.16516-147.16895l-.00006-.00014a120.16633,120.16633,0,0,1-33.60266-42.6766l-.00009-.00013A118.79842,118.79842,0,0,0,341.92807,48Z" style="fill:#f2f2f3"/></g><g style="opacity:0.7000000000000001"><path d="M343.27621,43a119.62177,119.62177,0,0,1,64.06552,18.64386,121.64492,121.64492,0,0,1,45.01447,51.14046A124.84944,124.84944,0,0,0,487.07892,156.883a123.04306,123.04306,0,0,1,42.882,68.79854,124.28,124.28,0,0,1-9.16394,80.836,126.42591,126.42591,0,0,0-12.3912,54.98486,123.84832,123.84832,0,0,1-26.37152,76.8558,121.08,121.08,0,0,1-68.09955,43.13562,122.89283,122.89283,0,0,0-50.18192,24.47592,119.66431,119.66431,0,0,1-151.50562-.00006,122.89308,122.89308,0,0,0-50.18193-24.476,121.07937,121.07937,0,0,1-68.0994-43.13553,123.84843,123.84843,0,0,1-26.37147-76.85593A126.42855,126.42855,0,0,0,55.20307,306.5174,123.46225,123.46225,0,0,1,88.92113,156.88293a124.84915,124.84915,0,0,0,34.72273-44.09867,121.64343,121.64343,0,0,1,45.01527-51.13914,119.32988,119.32988,0,0,1,91.49052-15.44687A121.56214,121.56214,0,0,0,288,49.437a121.55926,121.55926,0,0,0,27.85046-3.2388A119.71206,119.71206,0,0,1,343.27621,43m0-1a120.50415,120.50415,0,0,0-27.65515,3.22485l-.00012.00007A120.38988,120.38988,0,0,1,288,48.437a120.38988,120.38988,0,0,1-27.62094-3.2121l-.00012-.00007A120.458,120.458,0,0,0,232.72377,42a121.777,121.777,0,0,0-109.98484,70.35865l-.00006.00007a123.17,123.17,0,0,1-34.44273,43.7436l-.00007.00008C43.3906,192.05792,29.2464,254.82219,54.3018,306.95059l.00007.00012A124.74034,124.74034,0,0,1,66.59433,361.498v.00015c-.2428,57.97653,39.38834,108.30954,95.2498,120.97079l.00014.00006a121.22439,121.22439,0,0,1,49.77119,24.27588l.00008.00006a120.66438,120.66438,0,0,0,152.76886,0l.00012-.00006a121.22463,121.22463,0,0,1,49.77121-24.27588l.00012-.00006c55.86148-12.66125,95.49261-62.99426,95.24988-120.97079V361.498a124.73835,124.73835,0,0,1,12.29245-54.54733l.00006-.00012c25.05536-52.1284,10.91113-114.89267-33.99432-150.84819l-.00012-.00008a123.17058,123.17058,0,0,1-34.44266-43.7436l-.00006-.00007A121.76863,121.76863,0,0,0,343.27621,42Z" style="fill:#f2f2f3"/></g><g style="opacity:0.6000000000000001"><path d="M344.62439,37a122.56355,122.56355,0,0,1,65.64114,19.1024,124.63624,124.63624,0,0,1,46.1214,52.398A127.871,127.871,0,0,0,491.9498,153.666a126.06835,126.06835,0,0,1,43.93631,70.49019,127.33589,127.33589,0,0,1-9.38922,82.82355,129.48374,129.48374,0,0,0-12.691,56.31525,126.893,126.893,0,0,1-27.02,78.74554,124.05739,124.05739,0,0,1-69.77426,44.19641,125.86483,125.86483,0,0,0-51.39578,25.068,122.6073,122.6073,0,0,1-155.23175-.00006,125.86346,125.86346,0,0,0-51.3958-25.06793,124.05707,124.05707,0,0,1-69.77413-44.19641A126.8934,126.8934,0,0,1,62.1942,363.29486a129.4854,129.4854,0,0,0-12.69113-56.31528A126.49806,126.49806,0,0,1,84.05033,153.66586a127.87092,127.87092,0,0,0,35.56281-45.16553,124.63537,124.63537,0,0,1,46.1222-52.39673A122.26569,122.26569,0,0,1,259.476,40.27686,124.5013,124.5013,0,0,0,288,43.594a124.5032,124.5032,0,0,0,28.52414-3.31713A122.65452,122.65452,0,0,1,344.62439,37m0-1a123.44314,123.44314,0,0,0-28.32968,3.30352h-.00015A123.32348,123.32348,0,0,1,288,42.594a123.32348,123.32348,0,0,1-28.29459-3.2905h-.00015A123.39854,123.39854,0,0,0,231.37556,36,124.74676,124.74676,0,0,0,118.7082,108.07473l-.00007.00007a126.17411,126.17411,0,0,1-35.2828,44.81047l-.00013.00012C37.42453,189.71793,22.93533,254.013,48.6018,307.41281l.00007.00012A127.781,127.781,0,0,1,61.1942,363.29065v.00015c-.24873,59.39059,40.349,110.95126,97.573,123.92139h.00014a124.18011,124.18011,0,0,1,50.98506,24.868l.00014.00006a123.60729,123.60729,0,0,0,156.49493,0l.00012-.00006a124.18036,124.18036,0,0,1,50.98508-24.868h.00012c57.224-12.97012,97.82172-64.53079,97.57306-123.92139v-.00015a127.77979,127.77979,0,0,1,12.59229-55.87772l.00006-.00012c25.66644-53.39981,11.17737-117.69489-34.82339-154.52742l-.00012-.00012a126.174,126.174,0,0,1-35.28281-44.81047l-.00006-.00007A124.73863,124.73863,0,0,0,344.62442,36Z" style="fill:#f2f2f3"/></g><g style="opacity:0.5"><path d="M345.97266,31A125.50633,125.50633,0,0,1,413.18942,50.5609a127.62825,127.62825,0,0,1,47.2283,53.65557,130.8897,130.8897,0,0,0,36.40283,46.23242,129.53366,129.53366,0,0,1,35.37622,156.993A132.54633,132.54633,0,0,0,519.206,365.08762a129.9386,129.9386,0,0,1-27.66843,80.63528,127.03531,127.03531,0,0,1-71.449,45.25714,128.83957,128.83957,0,0,0-52.60971,25.66016,125.55046,125.55046,0,0,1-158.95786-.00006A128.8376,128.8376,0,0,0,155.91129,490.98,127.03483,127.03483,0,0,1,84.46243,445.7229,129.93866,129.93866,0,0,1,56.794,365.08755a132.54469,132.54469,0,0,0-12.99086-57.64578A129.53358,129.53358,0,0,1,79.1795,150.44884a130.88969,130.88969,0,0,0,36.40286-46.23251,127.62546,127.62546,0,0,1,47.22913-53.65414,125.20079,125.20079,0,0,1,95.99078-16.20664A127.44531,127.44531,0,0,0,288,37.751a127.44754,127.44754,0,0,0,29.19785-3.3955A125.599,125.599,0,0,1,345.97266,31m0-1a126.38251,126.38251,0,0,0-29.00424,3.38218h-.00012A126.26025,126.26025,0,0,1,288,36.751a126.26025,126.26025,0,0,1-28.96829-3.36884h-.00012A126.337,126.337,0,0,0,230.02733,30a127.71683,127.71683,0,0,0-115.3499,73.79075l-.00007.00014A129.17816,129.17816,0,0,1,78.5545,149.66826l-.00007.00008c-47.096,37.7095-61.93014,103.53543-35.65257,158.20663l.00007.00015A130.82286,130.82286,0,0,1,55.794,365.08334v.00006c-.25457,60.80472,41.30978,113.593,99.89622,126.87192h.00014a127.13806,127.13806,0,0,1,52.199,25.46008l.00014.00006a126.5504,126.5504,0,0,0,160.221,0l.00015-.00006a127.13841,127.13841,0,0,1,52.199-25.46008h.00015c58.58643-13.27893,100.15079-66.0672,99.89621-126.87192v-.00006a130.8233,130.8233,0,0,1,12.89209-57.20822l.00006-.00015c26.27759-54.6712,11.44342-120.49713-35.65259-158.20663l-.00006-.00008a129.178,129.178,0,0,1-36.12286-45.87736l-.00006-.00014A127.7085,127.7085,0,0,0,345.97266,30Z" style="fill:#f2f2f3"/></g><g style="opacity:0.4"><path d="M347.32086,25a128.44722,128.44722,0,0,1,68.79236,20.01943,130.61846,130.61846,0,0,1,48.33527,54.91314,133.90966,133.90966,0,0,0,37.243,47.29936,132.56948,132.56948,0,0,1,36.20529,160.6722,135.60463,135.60463,0,0,0-13.29065,58.97617,132.9836,132.9836,0,0,1-28.3168,82.525,130.01269,130.01269,0,0,1-73.12372,46.31793,131.81156,131.81156,0,0,0-53.82364,26.2522,128.49334,128.49334,0,0,1-162.68391-.00006,131.81127,131.81127,0,0,0-53.82372-26.25214,130.01266,130.01266,0,0,1-73.12357-46.31793,132.984,132.984,0,0,1-28.31679-82.52515A135.60531,135.60531,0,0,0,38.10321,307.904a132.56936,132.56936,0,0,1,36.2055-160.67215,133.91155,133.91155,0,0,0,37.24286-47.29943,130.61767,130.61767,0,0,1,48.33614-54.91179A128.13513,128.13513,0,0,1,258.12857,28.4342,130.3883,130.3883,0,0,0,288,31.908a130.38922,130.38922,0,0,0,29.87149-3.47379A128.54548,128.54548,0,0,1,347.32086,25m0-1a129.32191,129.32191,0,0,0-29.67877,3.46083H317.642A129.198,129.198,0,0,1,288,30.908a129.198,129.198,0,0,1-29.642-3.44716h-.00006A129.27506,129.27506,0,0,0,228.67917,24,130.68711,130.68711,0,0,0,110.64664,99.50684V99.507a132.18332,132.18332,0,0,1-36.96293,46.94427l-.00014.00008c-48.19121,38.5865-63.37036,105.94322-36.48164,161.88585l.00007.00015a133.86646,133.86646,0,0,1,13.19193,58.53857v.00015c-.26057,62.21878,42.27043,116.23471,102.21929,129.82242h.00014a130.09476,130.09476,0,0,1,53.413,26.05212l.00008.00006a129.49339,129.49339,0,0,0,163.94714,0l.00006-.00006a130.095,130.095,0,0,1,53.413-26.05212h.00012c59.94885-13.58771,102.47986-67.60364,102.2193-129.82242v-.00015A133.867,133.867,0,0,1,538.798,308.33734l.00012-.00015c26.88867-55.94263,11.70953-123.29935-36.48166-161.88585l-.00015-.00008A132.18221,132.18221,0,0,1,465.35342,99.507l-.00006-.00014A130.67858,130.67858,0,0,0,347.32083,24Z" style="fill:#f2f2f3"/></g><g style="opacity:0.30000000000000004"><path d="M348.669,19a131.38949,131.38949,0,0,1,70.368,20.47793,133.61019,133.61019,0,0,1,49.44223,56.17064,136.93136,136.93136,0,0,0,38.08307,48.36636,135.14483,135.14483,0,0,1,47.0997,75.56535,136.50315,136.50315,0,0,1-10.06525,88.78609,138.66259,138.66259,0,0,0-13.59052,60.30655A136.02887,136.02887,0,0,1,501.041,453.08765a132.98985,132.98985,0,0,1-74.79849,47.37869,134.78589,134.78589,0,0,0-55.03757,26.84433,131.43638,131.43638,0,0,1-166.41-.00012,134.78512,134.78512,0,0,0-55.03757-26.84421A132.98987,132.98987,0,0,1,74.959,453.08765a136.02944,136.02944,0,0,1-28.96521-84.41486,138.66379,138.66379,0,0,0-13.59057-60.30658A135.6052,135.6052,0,0,1,69.43786,144.01479a136.93177,136.93177,0,0,0,38.083-48.36629,133.60927,133.60927,0,0,1,49.44307-56.16929,131.07007,131.07007,0,0,1,100.491-16.96636A133.32476,133.32476,0,0,0,288,26.065a133.32744,133.32744,0,0,0,30.54523-3.55214A131.48529,131.48529,0,0,1,348.669,19m0-1A132.2604,132.2604,0,0,0,318.3158,21.5395h-.00015A132.13306,132.13306,0,0,1,288,25.065a132.13306,132.13306,0,0,1-30.31564-3.52554h-.00015A132.21259,132.21259,0,0,0,227.331,18a133.65717,133.65717,0,0,0-120.715,77.22291l-.00007.00008a135.18654,135.18654,0,0,1-37.803,48.01121l-.00008.00015c-49.2865,39.46342-64.81064,108.351-37.31085,165.56508l.00007.00012a136.90841,136.90841,0,0,1,13.49179,59.869v.00012c-.2665,63.63287,43.23107,118.87637,104.5425,132.77295h.00008a133.05146,133.05146,0,0,1,54.62692,26.64423l.00014.00006a132.43643,132.43643,0,0,0,167.67316,0l.00012-.00006a133.05178,133.05178,0,0,1,54.62686-26.64423h.00015c61.31143-13.89658,104.809-69.14008,104.54251-132.77295v-.00012a136.90852,136.90852,0,0,1,13.49176-59.869l.00006-.00012c27.49982-57.21408,11.97577-126.10165-37.31076-165.56508l-.00015-.00015a135.18656,135.18656,0,0,1-37.803-48.01121l-.00009-.00008A133.64846,133.64846,0,0,0,348.669,18Z" style="fill:#f2f2f3"/></g><g style="opacity:0.2"><path d="M350.01724,13a134.33138,134.33138,0,0,1,71.9436,20.93646A136.60068,136.60068,0,0,1,472.51,91.36471a139.95276,139.95276,0,0,0,38.92307,49.43324,138.64059,138.64059,0,0,1,37.86356,168.03061,141.72206,141.72206,0,0,0-13.89026,61.637A139.07415,139.07415,0,0,1,505.79269,456.77a135.96853,135.96853,0,0,1-76.47314,48.43954A137.756,137.756,0,0,0,373.068,532.64594a134.37958,134.37958,0,0,1-170.13606-.00006,137.75663,137.75663,0,0,0-56.25154-27.43631A135.96833,135.96833,0,0,1,70.20731,456.77a139.07456,139.07456,0,0,1-29.61369-86.30463,141.72251,141.72251,0,0,0-13.89031-61.637A138.64052,138.64052,0,0,1,64.567,140.79785a139.9525,139.9525,0,0,0,38.92307-49.4333,136.59978,136.59978,0,0,1,50.55-57.42677A134.00574,134.00574,0,0,1,256.78131,16.59147,136.26227,136.26227,0,0,0,288,20.222a136.264,136.264,0,0,0,31.21884-3.63054A134.43679,134.43679,0,0,1,350.01724,13m0-1a135.19965,135.19965,0,0,0-31.02777,3.61814h-.00015A135.06958,135.06958,0,0,1,288,19.222a135.06958,135.06958,0,0,1-30.98932-3.60387h-.00015A135.15059,135.15059,0,0,0,225.98276,12,136.62747,136.62747,0,0,0,102.58515,90.93893l-.00008.00015A138.19057,138.19057,0,0,1,63.942,140.01724l-.00008.00008C13.56015,180.35771-2.30892,250.77609,25.802,309.26163l.00008.00015a139.9504,139.9504,0,0,1,13.79154,61.19946v.00015c-.27238,65.04684,44.19184,121.518,106.86569,135.72339h.00015a136.00892,136.00892,0,0,1,55.84085,27.2363l.00008.00006a135.37933,135.37933,0,0,0,171.39923,0l.00015-.00006a136.008,136.008,0,0,1,55.84085-27.2363h.00006c62.67386-14.20538,107.13809-70.67654,106.86569-135.72339v-.00015a139.95072,139.95072,0,0,1,13.79156-61.19946l.00006-.00015c28.1109-58.48553,12.24182-128.90392-38.13989-169.24431l-.00012-.00008a138.1908,138.1908,0,0,1-38.64307-49.07816l-.00006-.00015A136.61854,136.61854,0,0,0,350.01724,12Z" style="fill:#f2f2f3"/></g><g style="opacity:0.1"><path d="M351.36539,7a137.27319,137.27319,0,0,1,73.51923,21.39492,139.59212,139.59212,0,0,1,51.65607,58.68584,142.97382,142.97382,0,0,0,39.76321,50.50016,141.67653,141.67653,0,0,1,38.69275,171.70984,144.78175,144.78175,0,0,0-14.19012,62.96738,142.11909,142.11909,0,0,1-30.26215,88.19415,138.94574,138.94574,0,0,1-78.14792,49.5004A140.72818,140.72818,0,0,0,374.931,537.98126a137.32292,137.32292,0,0,1-173.86215-.00018,140.72867,140.72867,0,0,0-57.46547-28.02838,138.946,138.946,0,0,1-78.14777-49.5004A142.11971,142.11971,0,0,1,35.19346,372.258a144.78292,144.78292,0,0,0-14.19008-62.96738A141.6759,141.6759,0,0,1,59.69623,137.58086,142.9729,142.9729,0,0,0,99.4593,87.08062a139.59117,139.59117,0,0,1,51.657-58.68423A136.93983,136.93983,0,0,1,256.1076,10.67016,139.2052,139.2052,0,0,0,288,14.379a139.20137,139.20137,0,0,0,31.89255-3.70892A137.3788,137.3788,0,0,1,351.36539,7m0-1a138.13908,138.13908,0,0,0-31.70227,3.69678l-.00015.00008A138.00793,138.00793,0,0,1,288,13.379a138.00793,138.00793,0,0,1-31.663-3.68215l-.00015-.00008A138.08625,138.08625,0,0,0,224.63458,6,139.59808,139.59808,0,0,0,98.55438,86.655l-.00008.00015a141.19524,141.19524,0,0,1-39.48307,50.14507l-.00016.00008C7.59408,178.01762-8.62,249.96693,20.10208,309.72385v.00015a142.9922,142.9922,0,0,1,14.09138,62.52985v.00015C33.91523,438.71494,79.346,496.4137,143.38231,510.92792h.00015a138.96513,138.96513,0,0,1,57.05476,27.82837l.00015.00018a138.32278,138.32278,0,0,0,175.12524,0l.00015-.00018a138.96509,138.96509,0,0,1,57.05478-27.82837h.00015C496.654,496.4137,542.08478,438.71494,541.80652,372.254v-.00015A142.99139,142.99139,0,0,1,555.89795,309.724v-.00015c28.722-59.75691,12.50787-131.70622-38.96906-172.92354l-.00012-.00008a141.19642,141.19642,0,0,1-39.48315-50.14507V86.655A139.5885,139.5885,0,0,0,351.36542,6Z" style="fill:#f2f2f3"/></g><circle cx="273.85786" cy="302.14214" r="12" transform="translate(-133.43564 282.14214) rotate(-45)" style="fill:none;stroke:#ccced1;stroke-linecap:round;stroke-linejoin:round;stroke-width:2px"/><polyline points="299.314 265.373 310.627 265.373 310.627 254.059" style="fill:none;stroke:#ccced1;stroke-linecap:round;stroke-linejoin:round;stroke-width:2px"/><path d="M310.62744,265.37256a32.34413,32.34413,0,1,0,5.97,8.32861" style="fill:none;stroke:#ccced1;stroke-linecap:round;stroke-linejoin:round;stroke-width:2px"/><rect x="240" y="240" width="96" height="96" transform="translate(0 576) rotate(-90)" style="fill:none"/><path d="M272,236V224c0-8-12-8-12-32,0,0,0-20,28-20,23.99552,0,20,24,24,32l2.55279,5.10557A2,2,0,0,1,312.76393,212H309a1,1,0,0,0-1,1v11a4,4,0,0,1-4,4h-6a6,6,0,0,0-6,6v2Z" style="fill:none;stroke:#f91a1f;stroke-linecap:round;stroke-linejoin:round;stroke-width:2px"/><circle cx="284" cy="196" r="8" style="fill:none;stroke:#f91a1f;stroke-linecap:round;stroke-linejoin:round;stroke-width:2px"/><line x1="284" y1="184" x2="284" y2="180" style="fill:none;stroke:#f91a1f;stroke-linecap:round;stroke-linejoin:round;stroke-width:2px"/><line x1="284" y1="212" x2="284" y2="208" style="fill:none;stroke:#f91a1f;stroke-linecap:round;stroke-linejoin:round;stroke-width:2px"/><line x1="292.48528" y1="187.51472" x2="295.31371" y2="184.68629" style="fill:none;stroke:#f91a1f;stroke-linecap:round;stroke-linejoin:round;stroke-width:2px"/><line x1="272.68629" y1="207.31371" x2="275.51472" y2="204.48528" style="fill:none;stroke:#f91a1f;stroke-linecap:round;stroke-linejoin:round;stroke-width:2px"/><line x1="296" y1="196" x2="300" y2="196" style="fill:none;stroke:#f91a1f;stroke-linecap:round;stroke-linejoin:round;stroke-width:2px"/><line x1="268" y1="196" x2="272" y2="196" style="fill:none;stroke:#f91a1f;stroke-linecap:round;stroke-linejoin:round;stroke-width:2px"/><line x1="292.48528" y1="204.48528" x2="295.31371" y2="207.31371" style="fill:none;stroke:#f91a1f;stroke-linecap:round;stroke-linejoin:round;stroke-width:2px"/><line x1="272.68629" y1="184.68629" x2="275.51472" y2="187.51472" style="fill:none;stroke:#f91a1f;stroke-linecap:round;stroke-linejoin:round;stroke-width:2px"/><rect x="240" y="156" width="96" height="96" style="fill:none"/><rect x="324" y="240" width="96" height="96" style="fill:none"/><line x1="391.55469" y1="283.84351" x2="364.17822" y2="289.6626" style="fill:none;stroke:#f91a1f;stroke-linecap:round;stroke-linejoin:round;stroke-width:2px"/><line x1="374" y1="306" x2="371.16797" y2="280.08398" style="fill:none;stroke:#f91a1f;stroke-linecap:round;stroke-linejoin:round;stroke-width:2px"/><circle cx="372" cy="288" r="32" style="fill:none;stroke:#f91a1f;stroke-linecap:round;stroke-linejoin:round;stroke-width:2px"/><circle cx="372" cy="288" r="28" style="fill:none;stroke:#f91a1f;stroke-linecap:round;stroke-linejoin:round;stroke-width:2px"/><rect x="240" y="324" width="96" height="96" style="fill:none"/><rect x="256" y="340" width="64" height="64" style="fill:none;stroke:#f91a1f;stroke-linecap:round;stroke-linejoin:round;stroke-width:2px"/><line x1="320" y1="348" x2="256" y2="348" style="fill:none;stroke:#f91a1f;stroke-linecap:round;stroke-linejoin:round;stroke-width:2px"/><polyline points="276 356 268 364 276 372" style="fill:none;stroke:#f91a1f;stroke-linecap:round;stroke-linejoin:round;stroke-width:2px"/><polyline points="300 396 308 388 300 380" style="fill:none;stroke:#f91a1f;stroke-linecap:round;stroke-linejoin:round;stroke-width:2px"/><polyline points="282.222 390 270.222 394 274.222 382" style="fill:none;stroke:#f91a1f;stroke-linecap:round;stroke-linejoin:round;stroke-width:2px"/><path d="M304.22222,367.99994,282.22216,390s-4-4,0-8c-4,4-8,0-8,0l22.00006-22.00006s4-4,8,0S304.22222,367.99994,304.22222,367.99994Z" style="fill:none;stroke:#f91a1f;stroke-linecap:round;stroke-linejoin:round;stroke-width:2px"/><path d="M292.22226,363.9999s4-4,8,0,0,8,0,8" style="fill:none;stroke:#f91a1f;stroke-linecap:round;stroke-linejoin:round;stroke-width:2px"/><line x1="282.22216" y1="382" x2="300.22226" y2="363.9999" style="fill:none;stroke:#f91a1f;stroke-linecap:round;stroke-linejoin:round;stroke-width:2px"/><line x1="272" y1="390" x2="274" y2="392" style="fill:none;stroke:#f91a1f;stroke-linecap:round;stroke-linejoin:round;stroke-width:2px"/><line x1="260" y1="344" x2="262" y2="344" style="fill:none;stroke:#f91a1f;stroke-linecap:round;stroke-linejoin:round;stroke-width:2px"/><line x1="266" y1="344" x2="268" y2="344" style="fill:none;stroke:#f91a1f;stroke-linecap:round;stroke-linejoin:round;stroke-width:2px"/><line x1="272" y1="344" x2="274" y2="344" style="fill:none;stroke:#f91a1f;stroke-linecap:round;stroke-linejoin:round;stroke-width:2px"/><rect x="156" y="240" width="96" height="96" style="fill:none"/><rect x="172" y="256" width="64" height="64" style="fill:none;stroke:#f91a1f;stroke-linecap:round;stroke-linejoin:round;stroke-width:2px"/><line x1="236" y1="268" x2="172" y2="268" style="fill:none;stroke:#f91a1f;stroke-linecap:round;stroke-linejoin:round;stroke-width:2px"/><circle cx="178" cy="262" r="2" style="fill:none;stroke:#f91a1f;stroke-miterlimit:10;stroke-width:2px"/><circle cx="186" cy="262" r="2" style="fill:none;stroke:#f91a1f;stroke-miterlimit:10;stroke-width:2px"/><circle cx="194" cy="262" r="2" style="fill:none;stroke:#f91a1f;stroke-miterlimit:10;stroke-width:2px"/><line x1="176" y1="284" x2="216" y2="284" style="fill:none;stroke:#f91a1f;stroke-linecap:round;stroke-linejoin:round;stroke-width:2px"/><line x1="176" y1="288" x2="196" y2="288" style="fill:none;stroke:#f91a1f;stroke-linecap:round;stroke-linejoin:round;stroke-width:2px"/><line x1="212" y1="274" x2="216" y2="274" style="fill:none;stroke:#f91a1f;stroke-linecap:round;stroke-linejoin:round;stroke-width:2px"/><line x1="206" y1="274" x2="208" y2="274" style="fill:none;stroke:#f91a1f;stroke-linecap:round;stroke-linejoin:round;stroke-width:2px"/><line x1="220" y1="274" x2="224" y2="274" style="fill:none;stroke:#f91a1f;stroke-linecap:round;stroke-linejoin:round;stroke-width:2px"/><line x1="228" y1="274" x2="230" y2="274" style="fill:none;stroke:#f91a1f;stroke-linecap:round;stroke-linejoin:round;stroke-width:2px"/><rect x="176" y="296" width="28" height="24" style="fill:none;stroke:#f91a1f;stroke-linecap:round;stroke-linejoin:round;stroke-width:2px"/><rect x="176" y="272" width="10" height="4" style="fill:none;stroke:#f91a1f;stroke-linecap:round;stroke-linejoin:round;stroke-width:2px"/><line x1="212" y1="296" x2="230" y2="296" style="fill:none;stroke:#f91a1f;stroke-linecap:round;stroke-linejoin:round;stroke-width:2px"/><line x1="212" y1="300" x2="230" y2="300" style="fill:none;stroke:#f91a1f;stroke-linecap:round;stroke-linejoin:round;stroke-width:2px"/><line x1="212" y1="304" x2="230" y2="304" style="fill:none;stroke:#f91a1f;stroke-linecap:round;stroke-linejoin:round;stroke-width:2px"/><line x1="212" y1="308" x2="230" y2="308" style="fill:none;stroke:#f91a1f;stroke-linecap:round;stroke-linejoin:round;stroke-width:2px"/><line x1="212" y1="312" x2="226" y2="312" style="fill:none;stroke:#f91a1f;stroke-linecap:round;stroke-linejoin:round;stroke-width:2px"/></svg>