<svg xmlns="http://www.w3.org/2000/svg" width="400" height="360" viewBox="0 0 400 360"><title>marketing-co-ownership-small</title><path d="M193.75566,92.93284l-9.86544.43756a3.04968,3.04968,0,0,0-2.91517,2.84533c-.55149,8.405-1.8551,34.04866,1.84489,45.47063a3.03206,3.03206,0,0,0,3.201,2.061c6.2036-.62656,23.3524-2.33952,30.8315-2.89306a3.04711,3.04711,0,0,0,2.80549-3.43518c-1.095-8.41319-3.92553-30.84514-4.22577-40.16676a3.06391,3.06391,0,0,0-2.83758-2.96754Z" fill="#ffeded"/><path d="M208.44306,135.54167s2.80694,2.04166,1.34861,4.95833-5.66412,10.25162.81159,10.33333,9.06341.875,10.77174,2.5,3.79167-1.04166,1.95833-2.5c0,0,3.70834,1.20834,2.54167-1s-6.44354-2.76418-8.45094-2.81959-5.77734.41084-4.32986-2.32228,3.26873-7.64979.89976-10.10813S208.44306,135.54167,208.44306,135.54167Z" fill="#f91a1f"/><path d="M216.52694,334.46925s-4.35151,5.95237-4.79115,7.8413c-1.00966,4.338-5.91408,4.53918-8.5156,2.2553-3.45025-3.029-2.78567-18.4263,3.99846-24.82081s19.40488,6.15815,19.40488,6.15815Z" fill="#fdbabc"/><path d="M173.91846,334.46925s4.3515,5.95237,4.79114,7.8413c1.00966,4.338,5.91408,4.53918,8.51561,2.2553,3.45025-3.029,2.78567-18.4263-3.99846-24.82081s-19.40489,6.15815-19.40489,6.15815Z" fill="#fdbabc"/><path d="M138.07554,350.20311l6.066,2.26656s12.10789-1.76173,19.84862-4.62243,10.43643-3.76245,11.75631-3.93073,3.72514-11.55072-4.52041-17.27213S138.07554,350.20311,138.07554,350.20311Z" fill="#fb7679"/><path d="M242.84459,352.05255s-12.2169-3.36393-15.75071-3.86876-9.59177-3.81858-10.43315-3.42378-10.26488-9.87007-1.51449-17.77907,37.694,14.75009,37.694,14.75009Z" fill="#fb7679"/><path d="M171.52212,261.74808s-2.76235,25.61546-.96257,28.10746,18.82841,4.984,27.96572,4.984,23.39707-4.15333,24.78151-6.92221,1.79978-25.40251,1.79978-25.40251Z" fill="#fdafb1"/><path d="M180.86739,206.72365s-21.83187-9.00336-22.27-33.14648,22.91694-37.21359,22.91694-37.21359l.423-12.70567s-40.20785,16.51816-40.20785,49.02,31.98322,53.32734,31.98322,53.32734Z" fill="#fdafb1"/><path d="M220.84077,206.72365s21.83188-9.00336,22.27-33.14648-22.91694-37.21359-22.91694-37.21359l-.42306-12.70567s40.20786,16.51816,40.20786,49.02c0,31.99985-31.98322,53.32734-31.98322,53.32734Z" fill="#fdafb1"/><path d="M169.12767,278.56522a1.42228,1.42228,0,0,1-1.49531-1.81279c1.10148-3.75251,3.36867-12.71779,3.78023-19.7142.54766-9.31019.98578-28.36869-1.75251-31.8737s-10.18644-10.52722-10.18644-10.52722,12.0985-11.87417,12.34779-13.70805c0-.00017,10.62264,6.31832,13.57908,6.03812a59.87734,59.87734,0,0,0,7.186-1.53481,1.36678,1.36678,0,0,1,.38069-.02142l20.90177,1.65036a1.37014,1.37014,0,0,0,.44958-.03641c1.85418-.46664,13.43883-4.27188,19.11341-9.46223L244.41539,211.027s-11.44605,12.71362-12.87,18.73786c-2.14158,9.06053-4.1622,23.33023-4.92892,28.91634-.63719,4.64239.16295,13.916.703,17.48681a1.40951,1.40951,0,0,1-1.29145,1.62338,40.90812,40.90812,0,0,1-11.04265-.70881c-6.8797-1.42391-16.27755-4.983-22.91514-3.2327C185.863,275.48671,178.9948,277.70449,169.12767,278.56522Z" fill="#fee8e9"/><path d="M170.8302,286.20507a3.11118,3.11118,0,0,0-2.4936,1.48,8.78945,8.78945,0,0,0-1.57412,4.36944c.124,2.34667-6.69861,5.5625-8.06314,7.29736-1.36454,1.73437-9.17958,16.01849-11.78459,18.16106s-8.80744,14.18207-12.0327,16.63079-5.58217,7.44822-5.58217,9.38669.74429,7.04,4.71383,8.46872c3.96955,1.42821,14.4497.54525,16.68258-1.29117s12.4688-12.075,16.43834-14.62577,19.84773-17.85491,27.29063-17.85491,17.36678,11.93746,21.46037,13.77388c-1.615-.72449,21.21461,17.43448,17.11868,11.73335,1.61262,2.24462,7.31884,8.46872,11.78459,8.77438,4.46574.30615,11.53649,1.12255,14.51365-3.06054,2.97716-4.18358,2.481-8.57077,0-12.6518s-15.75414-23.46671-19.10345-27.956c-3.3493-4.48973-10.91625-10.25633-11.78459-13.52145-.86834-3.26464-3.39065-6.52976-3.308-7.958.0827-1.42871-1.15779-2.65282-5.12734-3.061-1.86646-.19178-8.08633.75083-24.297,1.98284C185.42923,287.0624,174.66061,286.01231,170.8302,286.20507Z" fill="#fb7679"/><path d="M189.12931,205.39568s-3.63587,4.77586-4.19409,6.76063c0,0,2.01682,10.18248,3.422,13.50649a.56834.56834,0,0,0,.99651.08651c1.49262-2.25275,5.9847-8.50689,9.85147-8.50689V207.7526Z" fill="#fee8e9"/><path d="M209.28115,205.39568s3.63587,4.77586,4.19409,6.76063c0,0-2.01682,10.18248-3.422,13.50649a.56833.56833,0,0,1-.9965.08651c-1.49263-2.25275-5.9847-8.50689-9.85148-8.50689V207.7526Z" fill="#fee8e9"/><path d="M189.21973,202.93538s-3.29212-.08269-3.37482-1.94342-.21049-3.18391-1.42843-3.5974-2.49977-3.14256-1.63143-5.70623a3.15986,3.15986,0,0,0-1.24049-3.80415s-3.878-1.81937-2.67885-5.086a20.30228,20.30228,0,0,0,1.40813-8.19277c-.1654-1.97362-.04135-2.8833,1.24049-3.4622a1.88814,1.88814,0,0,0,1.093-2.53823c-.24809-1.07508,0-6.037,3.01851-6.40916a6.09039,6.09039,0,0,0,4.82813-2.71317c.74429-1.03374,4.23975-2.56922,6.01778-1.16334s2.50484.25726,3.57993-.363,5.98933-1.37538,7.43657,1.10559,1.59508,3.06154,2.83556,3.06154,4.73961.74429,4.78875,2.95648.626,4.03157,2.19723,4.56912,2.726,3.61129,1.899,4.68638-1.90908,2.40226-.87535,3.80814.827,4.19976,0,4.696-.4469,1.76531-.1988,2.2615-.24391,3.69282-1.56709,4.51981a4.418,4.418,0,0,0-1.778,3.88685c.20675.99239,1.19914,2.97716-.37214,3.72145s-1.44723,1.32318-1.28183,1.98477-1.32319,4.46574-4.63114,3.72145S189.21973,202.93538,189.21973,202.93538Z" fill="#fa3c41"/><path d="M212.17271,172.39894c-3.05062-4.14884-6.65069-7.21068-13.26131-7.30953l0-.00945c-.05588,0-.10617.00436-.1615.00473-.05546-.00037-.107-.00473-.16286-.00473l.0001.00945c-6.58.09958-9.29913,3.16105-12.34934,7.30953-3.10123,4.21752-1.30251,18.2351-1.30251,20.2819s1.92273,4.21752,2.8531,6.0161c.93036,1.79895.55821,8.93149.55821,8.93149a9.62252,9.62252,0,0,0,1.98479,6.42265,12.68969,12.68969,0,0,0,8.87388,4.77611,12.68969,12.68969,0,0,0,8.87388-4.77611,9.62257,9.62257,0,0,0,1.98474-6.42265s-.37214-7.13254.55822-8.93149c.93036-1.79858,2.85314-3.9693,2.85314-6.0161S215.27389,176.61646,212.17271,172.39894Z" fill="#fdafb1"/><path d="M198.74577,197.93945c-7.59766,0-9.561-1.376-9.87744-1.65136a1.00009,1.00009,0,0,1,1.28027-1.53614c.09961.06641,1.8999,1.1875,8.59717,1.1875,7.16553,0,9.81543-1.2832,9.84131-1.2959a1.00563,1.00563,0,0,1,1.34131.4375.99528.99528,0,0,1-.42286,1.33887C209.38688,196.48242,206.51042,197.93945,198.74577,197.93945Z" fill="#fc8c8f"/><path d="M185.20052,192.11743s-.10958,2.43856-1.53094,1.84884-1.60591-1.86039-2.91942-2.42793c-2.65615-1.14767-1.488-4.12457-.05564-4.62253a8.1612,8.1612,0,0,1,3.7777.12628Z" fill="#fdafb1"/><path d="M214.33874,190.83418s.23014,2.43015,1.62057,1.77079,1.97181-1.982,2.82569-2.2143c2.65614-.72257,1.252-4.54831-.20324-4.97476a8.1611,8.1611,0,0,0-3.76681.3131Z" fill="#fdafb1"/><path d="M182.1276,190.49219a1.00022,1.00022,0,0,1-.85253-1.52149,2.48046,2.48046,0,0,1,2.31054-1.00683,1,1,0,0,1-.01367,2h-.04736a1.02147,1.02147,0,0,0-.59668.12988A.99978.99978,0,0,1,182.1276,190.49219Zm.79053-.3916Zm.061-.083Zm.00146-.002-.00049.001Zm.00147-.002-.001.001Z" fill="#fc8c8f"/><path d="M217.675,189.18652a.99958.99958,0,0,1-.84278-.46,1.056,1.056,0,0,0-.61718-.1748.9998.9998,0,0,1,.11816-1.9961,2.51312,2.51312,0,0,1,2.23047,1.17481.99986.99986,0,0,1-.88867,1.45605Zm-.88867-.53906.00048.001Zm-.001-.00195.001.001Zm-.001-.00293.001.00195Z" fill="#fc8c8f"/><path d="M199.75731,164.01861l.37026,1.06135s3.35739.543,3.77089,1.68016a5.55423,5.55423,0,0,1,.39973,2.52036c-.059.42991-.6226,1.59166.29638,2.15021a2.87479,2.87479,0,0,0,2.36215-5.24185c-1.50956-.76978-3.21919-1.88769-3.21919-1.88769Z" fill="#fa3c41"/><rect x="186.23651" y="227.15512" width="26.14584" height="26.14584" rx="4.11336" transform="translate(13.78003 -10.79507) rotate(3.21355)" fill="#fb7679"/><path d="M184.43231,179.22147a1.98185,1.98185,0,0,0,2.60356,2.21225c2.88756-.51995,9.43141-3.8059,12.06529-3.8059s7.23907,3.40269,10.59272,4.1622c2.26505.513,4.299.90481,4.34254-.75951.02393-.91488,4.77746,24.41834-1.2886,25.18506s-27.6239,2.29246-27.8126-3.18412S184.43231,179.22147,184.43231,179.22147Z" fill="#fa3c41"/><path d="M198.128,178.439l-2.04782.57684c-.34239.09644-.613-.33673-.42616-.68216l2.94374-5.44235a.36675.36675,0,0,1,.6663,0l2.94374,5.44235c.18685.34543-.08377.7786-.42616.68216l-2.04782-.57684A2.94789,2.94789,0,0,0,198.128,178.439Z" fill="#fc8184"/><path d="M185.54475,182.69483l-1.16847-2.42188s-1.13366,3.48864-.71091,4.31013.68733,4.81939.264,5.47658-.2629,5.562.26458,6.17711.054,3.626-.52859,4.88558-1.0591,5.41978,1.85136,5.88631,4.8154-.62879,5.87371.46652,2.69868,2.35493,4.81529,1.47868,3.17921-.82149,3.62684-.10953a2.24434,2.24434,0,0,0,2.98757.40328c.89956-.78664,1.17085-1.38907,2.75495-1.38907s2.80115,1.15008,3.85946.38336,1.53941-1.59024,3.0186-1.23324,3.40029-.62879,3.28639-2.43607-.27265-3.34071.2565-4.1622c0,0,1.3758-3.45024.6879-5.148a21.14677,21.14677,0,0,1-1.61592-5.34613,17.22372,17.22372,0,0,1-.08878-3.95819c.17016-1.15595.40391-3.45611-.48024-3.83947s-1.54465,1.57794-1.54465,1.57794Z" fill="#fa3c41"/><path d="M191.48611,184.52927a1.2,1.2,0,0,0-.39395,1.14805c.28935,1.397,1.67492,4.24223,8.19448,3.75452,6.57729-.49171,7.48092-3.66512,7.54389-5.12245a1.15007,1.15007,0,0,0-.56467-1.05356A12.63861,12.63861,0,0,0,191.48611,184.52927Z" fill="#fc8c8f"/><path d="M192.39122,183.84069c.21191.58627.54,1.23271,1.00041,1.25919.9924.05631,3.4423-1.92873,5.48914-1.92873s4.21762,1.3954,5.117,1.4575c.53886.03706,1.05823-1.03007,1.39715-1.82669A12.47893,12.47893,0,0,0,192.39122,183.84069Z" fill="#fffdfd"/><path d="M181.93327,186.02832a.74636.74636,0,0,1-.41846-.12891,2.5994,2.5994,0,0,1-.73193-3.59863.74987.74987,0,0,1,1.27539.78906,1.09818,1.09818,0,0,0,.30713,1.57422.75082.75082,0,0,1-.43213,1.36426Z" fill="#fb7679"/><path d="M183.07,175.64648a.7422.7422,0,0,1-.67969-.43847,2.13352,2.13352,0,0,1,.49365-2.5166.7499.7499,0,1,1,.96,1.15234c-.293.24414-.09082.73633-.082.75684a.75092.75092,0,0,1-.69189,1.04589Z" fill="#fb7679"/><path d="M185.67887,167.93848a.74944.74944,0,0,1-.72851-.57422,2.4003,2.4003,0,0,1,1.58984-3.00879l.25293-.06738c1.062-.28125,3.54981-.94043,3.91065-1.73145a5.02178,5.02178,0,0,1,2.64746-2.55957.74958.74958,0,1,1,.53515,1.40039,3.52611,3.52611,0,0,0-1.81787,1.78223c-.60547,1.32617-2.65918,1.96679-4.89111,2.55859l-.24951.06641c-.74024.19824-.54444,1.10547-.51953,1.208a.75057.75057,0,0,1-.55323.90527A.782.782,0,0,1,185.67887,167.93848Z" fill="#fb7679"/><path d="M199.84733,161.46289c-.25684,0-.439-.01269-.5-.01758a.75041.75041,0,0,1,.11914-1.49609,3.94927,3.94927,0,0,0,2.36621-.46289,2.62492,2.62492,0,0,1,1.97412-.74805,2.26364,2.26364,0,0,1,1.60108.82617.74969.74969,0,1,1-1.167.94141.76668.76668,0,0,0-.541-.27149,1.17228,1.17228,0,0,0-.8457.34961A4.67062,4.67062,0,0,1,199.84733,161.46289Z" fill="#fb7679"/><path d="M216.85807,173.624a.76338.76338,0,0,1-.148-.01465.74989.74989,0,0,1-.58838-.88281.78458.78458,0,0,0-.626-.74316c-1.0127-.28516-2.8667-1.50586-2.77832-3.16016a6.81258,6.81258,0,0,0-.3335-2.15918.75.75,0,0,1,1.4209-.48047,8.37594,8.37594,0,0,1,.41064,2.71973c-.03564.66016,1.08887,1.46777,1.6875,1.63672a2.25423,2.25423,0,0,1,1.68946,2.48144A.74964.74964,0,0,1,216.85807,173.624Z" fill="#fb7679"/><path d="M206.35758,170.05078a.74817.74817,0,0,1-.731-.9209c.00781-.0332.75049-3.33886-1.42578-4.44238a.7501.7501,0,0,1,.67871-1.33789c3.2334,1.63867,2.25,5.94336,2.20654,6.126A.7495.7495,0,0,1,206.35758,170.05078Z" fill="#fb7679"/><path d="M186.96989,194.28711a.83028.83028,0,0,1-.65576-.32813c-.60108-.80175-.26367-4.17187.06592-5.00683a5.723,5.723,0,0,0-.42041-2.39258.75025.75025,0,0,1,1.41406-.502c.19531.55175.80224,2.43066.40185,3.44531a10.60621,10.60621,0,0,0-.21191,3.64062.70639.70639,0,0,1-.17529,1.00879A.69042.69042,0,0,1,186.96989,194.28711Z" fill="#fb7679"/><path d="M192.77067,205.67871a.74714.74714,0,0,1-.48389-.17773l-.21533-.18555a1.755,1.755,0,0,0-1.72363-.63281l-.36621.06347c-1.46.25684-3.4585.6084-4.3501-.78125-.36572-.57129-.67285-1.76269.877-5.50586l.04395-.10742a.75022.75022,0,0,1,1.39258.5586l-.05078.123c-1.41309,3.41211-1.0044,4.11524-1,4.12207.35253.55078,1.90185.27637,2.82666.11328l.38037-.06543a3.17981,3.17981,0,0,1,2.95459.98047l.1997.17286a.75.75,0,0,1-.48486,1.32226Z" fill="#fb7679"/><path d="M199.36686,193.21973a18.22353,18.22353,0,0,1-4.46045-.5752.75027.75027,0,0,1,.40332-1.44531c.04834.01367,4.8628,1.32129,8.06153-.27735a.75009.75009,0,1,1,.67089,1.3418A10.55357,10.55357,0,0,1,199.36686,193.21973Z" fill="#fb7679"/><path d="M202.26969,206.14551a.75027.75027,0,0,1-.37451-1.40039,8.77235,8.77235,0,0,1,4.53174-1.13672.75017.75017,0,0,1-.17383,1.49023,7.22742,7.22742,0,0,0-3.61181.94824A.75244.75244,0,0,1,202.26969,206.14551Z" fill="#fb7679"/><path d="M212.80339,201.81738a.75.75,0,0,1-.74317-.65722,5.211,5.211,0,0,1,.3711-2.9502c.2456-.3623.51074-1.792-.23584-3.90137a.74993.74993,0,0,1,1.41406-.5c.74219,2.09766.76758,4.20411.063,5.24317a4.16479,4.16479,0,0,0-.124,1.92285.75111.75111,0,0,1-.74511.84277Z" fill="#fb7679"/><path d="M212.28239,188.93652a.74974.74974,0,0,1-.74707-.69824,14.9741,14.9741,0,0,1,.00586-2.38867.75777.75777,0,0,1,.8501-.63379.75014.75014,0,0,1,.63427.85059,13.72069,13.72069,0,0,0,.00586,2.06836.74958.74958,0,0,1-.69629.7998C212.31755,188.93555,212.3,188.93652,212.28239,188.93652Z" fill="#fb7679"/><path d="M215.67887,183.58984a.74679.74679,0,0,1-.60058-.30078,1.69973,1.69973,0,0,1,.24219-2.07031c.52-.71094.67675-.92578.335-1.69141a.74971.74971,0,1,1,1.36914-.61132,2.73357,2.73357,0,0,1-.49268,3.1875.88235.88235,0,0,0-.189.38867.74962.74962,0,0,1-.66407,1.09765Zm.603-1.19531.00049.001Zm-.00146-.00195.001.001Zm-.002-.002.00147.002Z" fill="#fb7679"/><path d="M185.71305,129.458a.72448.72448,0,0,1-.22558-.03516.74622.74622,0,0,1-.49073-.92969,3.2092,3.2092,0,0,1,4.18409-1.957c2.53125.66895,4.104.70117,5.60449.1084a.75041.75041,0,0,1,.5498,1.39649c-1.80713.71191-3.70117.69628-6.53808-.05567-1.79688-.47168-2.28711.71192-2.36817.95508A.75692.75692,0,0,1,185.71305,129.458Z" fill="#fa484c"/><path d="M192.49333,133.65723a11.10679,11.10679,0,0,1-2.32959-.24121,8.571,8.571,0,0,0-3.54785.166.7504.7504,0,0,1-.4043-1.44531,10.06754,10.06754,0,0,1,4.27246-.18555,8.36113,8.36113,0,0,0,3.6626.01953.7343.7343,0,0,1,1.023.22754.76323.76323,0,0,1-.2334,1.0459A5.39571,5.39571,0,0,1,192.49333,133.65723Z" fill="#fa484c"/><path d="M198.10856,132.64355a.7499.7499,0,0,1-.30664-1.43457,5.22459,5.22459,0,0,1,2.68848-.54394.75041.75041,0,0,1-.38282,1.45117,4.30385,4.30385,0,0,0-1.69482.46191A.73436.73436,0,0,1,198.10856,132.64355Z" fill="#fa484c"/><path d="M186.34245,138.88379a.75.75,0,0,1-.44873-1.35156,4.35471,4.35471,0,0,1,2.86084-.9043.75022.75022,0,0,1-.2666,1.47656,3.018,3.018,0,0,0-1.69776.63086A.752.752,0,0,1,186.34245,138.88379Z" fill="#fa484c"/><path d="M193.46159,137.84277a11.71252,11.71252,0,0,1-1.6294-.11035.74985.74985,0,0,1,.227-1.48242,8.99768,8.99768,0,0,0,3.28174-.13965,11.94245,11.94245,0,0,1,3.02051-.43945,9.17792,9.17792,0,0,0,.99024-.0791.74959.74959,0,1,1,.248,1.47851,10.213,10.213,0,0,1-1.16357.09864,10.54787,10.54787,0,0,0-2.65479.375A8.11194,8.11194,0,0,1,193.46159,137.84277Z" fill="#fa484c"/><circle cx="210.60326" cy="130.64938" r="6.13378" fill="#fb5f62"/><path d="M210.6071,137.5332c-.03272,0-.065-.001-.09766-.001a6.88354,6.88354,0,0,1-4.707-11.81641,6.99787,6.99787,0,0,1,4.89453-1.94922,6.89233,6.89233,0,0,1,6.78955,6.97656v.001a6.88383,6.88383,0,0,1-6.87939,6.78906Zm-.00733-12.26758a5.41778,5.41778,0,1,0,.07666.001C210.651,125.2666,210.62516,125.26562,210.59977,125.26562Z" fill="#fb5f62"/><path d="M209.29411,133.9209a.74975.74975,0,0,1-.63867-.35645l-2.41114-3.917a.75019.75019,0,0,1,1.27735-.78711l1.33447,2.168.40527-2.71191a.75.75,0,1,1,1.4834.22265l-.709,4.74317a.74794.74794,0,0,1-.59131.623A.718.718,0,0,1,209.29411,133.9209Z" fill="#fff"/><path d="M213.37712,133.11328a.75051.75051,0,0,1-.73-.5791l-1.11768-4.78613a.7502.7502,0,0,1,1.46094-.3418l1.11767,4.78613a.75092.75092,0,0,1-.56006.90137A.73448.73448,0,0,1,213.37712,133.11328Z" fill="#fff"/><path d="M173.65478,139.78287a5.73506,5.73506,0,0,0,5.33934,1.79175c3.56465-.5222,7.68868-.79062,7.55193-7.03758s-.08046-11.06735-3.21137-11.8397-10.04049.128-10.872,3.60709S171.3102,135.98565,173.65478,139.78287Z" fill="#fdafb1"/><path d="M227.23436,137.437a5.5265,5.5265,0,0,1-5.14987,1.73784c-3.43716-.50353-7.41389-.761-7.27841-6.80932s.084-10.7153,3.10365-11.46489,9.68217.11808,10.482,3.486S229.49749,133.75926,227.23436,137.437Z" fill="#fdafb1"/><path d="M173.67936,138.377a.74787.74787,0,0,1-.64306-.36328,14.93164,14.93164,0,0,1-1.94-5.75488.75.75,0,0,1,1.4961-.10742,13.62865,13.62865,0,0,0,1.729,5.08886.75034.75034,0,0,1-.64209,1.13672Z" fill="#fc8c8f"/><path d="M226.86784,136.85645a.751.751,0,0,1-.66211-1.10157,12.264,12.264,0,0,0,1.3291-4.80176.74988.74988,0,0,1,.749-.751h.001a.74967.74967,0,0,1,.75.749,13.59521,13.59521,0,0,1-1.50439,5.50684A.74846.74846,0,0,1,226.86784,136.85645Z" fill="#fc8c8f"/><path d="M190.38786,293.126c-12.20117,0-22.39649-.55664-23.22852-.60254a1.5004,1.5004,0,0,1,.168-2.9961c.40479.02344,40.69629,2.21778,57.8291-2.10547a1.49975,1.49975,0,1,1,.73438,2.90821C217.0612,292.55859,202.7028,293.126,190.38786,293.126Z" fill="#fa484c"/><path d="M151.65055,348.28613a.99994.99994,0,0,1-.65039-1.75976,93.47455,93.47455,0,0,1,9.4541-7.17383,39.92244,39.92244,0,0,0,7.437-5.94531,1,1,0,1,1,1.39648,1.43164,41.19908,41.19908,0,0,1-7.81982,6.23828,93.8478,93.8478,0,0,0-9.168,6.96875A.99629.99629,0,0,1,151.65055,348.28613Z" fill="#fb5f62"/><path d="M240.38688,346.043a.9958.9958,0,0,1-.59326-.19531c-.56494-.418-1.273-.9834-2.07373-1.624-2.69678-2.15527-6.772-5.41308-9.46094-6.06933-3.8042-.92969-11.71875-5.627-12.05371-5.82618a1.00019,1.00019,0,1,1,1.02344-1.71875c.07959.04786,7.99072,4.74317,11.50488,5.60157,3.11817.76172,7.23145,4.0498,10.23486,6.45117.77784.62109,1.46534,1.1709,2.01368,1.57617a1.00011,1.00011,0,0,1-.59522,1.80469Z" fill="#fb5f62"/><ellipse cx="191.45816" cy="174.0838" rx="1.24728" ry="0.90469" fill="#fb7679"/><ellipse cx="206.44153" cy="174.0838" rx="1.24728" ry="0.90469" fill="#fb7679"/><path d="M82.33122,101.79883a.749.749,0,0,1-.4043-.11817,3.07494,3.07494,0,0,0-3.75537-.07226.75448.75448,0,0,1-1.05615-.0625.74657.74657,0,0,1,.05224-1.05176,4.58746,4.58746,0,0,1,5.56885-.07715.75037.75037,0,0,1-.40527,1.38184Z" fill="#fb7679"/><path d="M100.12321,329.02637a.75059.75059,0,0,1-.69287-.46192c-.72217-1.73437-3.26367-2.66406-4.18164-2.876a.74964.74964,0,1,1,.33691-1.46094c.16553.03808,4.06592.96582,5.22949,3.76074a.75009.75009,0,0,1-.69189,1.03809Z" fill="#fedddd"/><path d="M52.81994,340.181s1.3813,1.94259,5.83475,1.76711,12.97508-.428,12.97508-.428" fill="#fee8e9"/><path d="M58.08757,342.96c-4.3877,0-5.91651-1.9668-6.08252-2.20019a.99967.99967,0,0,1,1.61767-1.17481c.04981.06055,1.28858,1.50391,4.99219,1.36426,4.457-.17578,12.98486-.42871,12.98486-.42871l.05957,2c-.001,0-8.51562.251-12.96533.42676Q58.382,342.96044,58.08757,342.96Z" fill="#fdafb1"/><path d="M78.92946,340.22615s-9.66228.2149-14.87883.28508S52.23441,341.971,52.61857,333.868s5.13535-13.01276,5.667-19.18084,14.01193-45.44491,22.48544-52.58465S78.92946,340.22615,78.92946,340.22615Z" fill="#fc8c8f"/><path d="M71.65282,340.54217s-9.791.25845-12.97507.428-8.6174-1.10008-7.07252-7.83155,4.191-12.85662,5.14442-14.14838c0,0,11.18147,5.86529,17.53635,6.0397s-2.63318,15.51222-2.63318,15.51222" fill="#fed1d2"/><path d="M126.863,109.63734s14.09552-53.724,14.51775-62.41179.36669-24.77976-8.20618-20.85044S112.67977,58.72576,111.862,64.57742s-9.952,42.819-9.952,42.819l17.936,7.02688Z" fill="#fc8c8f"/><path d="M120.99674,140.3588a97.03107,97.03107,0,0,1,1.761-12.4413c1.27271-5.56327,6.67308-26.42657,6.70058-27.59345,0,0-20.40431-3.24727-24.59459-7.60476L93.33082,125.40743Z" fill="#fee1e2"/><path d="M86.0509,125.66233c-16.42477-.38718-17.69115-12.93765-17.69115-12.93765-1.63762-13.0356-4.25993-42.64743,19.049-42.098s19.83417,34.51888,17.362,42.95627S94.83358,125.86936,86.0509,125.66233Z" fill="#fc8c8f"/><path d="M83.42661,103.87454l6.78251.15988a1.17324,1.17324,0,0,0,1.01523-1.69284l-3.21883-6.99924a1.06889,1.06889,0,0,0-1.94837-.04827l-3.56368,6.83935A1.17338,1.17338,0,0,0,83.42661,103.87454Z" fill="#fb7679"/><path d="M68.48271,104.04494s-1.85923,1.08143-2.7819-.44066-4.40522-4.06305-2.347-6.51508,5.03269-1.34,5.53981.13059S68.48271,104.04494,68.48271,104.04494Z" fill="#fc8c8f"/><path d="M105.01607,104.90614s1.80621,1.16782,2.79957-.30909,4.59177-3.851,2.65135-6.39727-4.964-1.57567-5.53981-.13059S105.01607,104.90614,105.01607,104.90614Z" fill="#fc8c8f"/><path d="M91.03,116.98926a.99772.99772,0,0,1-.84619-.46582,4.79969,4.79969,0,0,0-3.93946-1.67481c-2.5957-.083-3.25,1.25293-3.27441,1.3086a1.01522,1.01522,0,0,1-1.30078.53125A.98816.98816,0,0,1,81.11,115.4209c.0415-.1084,1.043-2.68457,5.18164-2.57227a6.70065,6.70065,0,0,1,5.58252,2.60645,1.00026,1.00026,0,0,1-.84424,1.53418Z" fill="#fb7679"/><path d="M80.52067,111.84375a.99648.99648,0,0,1-.8081-.41016c-.17237-.23437-1.66846-2.35644-1.2251-4.3457a3.20116,3.20116,0,0,1,1.67041-2.13281.99971.99971,0,1,1,.96,1.7539,1.191,1.191,0,0,0-.67822.81446,4.30741,4.30741,0,0,0,.8872,2.73047.99938.99938,0,0,1-.80615,1.58984Z" fill="#fb7679"/><path d="M91.95133,112.53027a.99975.99975,0,0,1-.60839-1.79394,3.68873,3.68873,0,0,0,1.41943-2.28028,2.06657,2.06657,0,0,0-.84912-1.5957,1.0002,1.0002,0,1,1,1.33008-1.49414,3.97857,3.97857,0,0,1,1.51709,3.17285,5.62228,5.62228,0,0,1-2.20508,3.78711A.99384.99384,0,0,1,91.95133,112.53027Z" fill="#fb7679"/><path d="M69.422,102.27441a.99908.99908,0,0,1-.44287-.10351,6.75379,6.75379,0,0,1-2.50489-2.43262,1.18316,1.18316,0,0,0-.09082.13672,1.00023,1.00023,0,0,1-1.75341-.96289,2.43924,2.43924,0,0,1,1.85839-1.33691,1.91285,1.91285,0,0,1,1.67823,1.0957,4.743,4.743,0,0,0,1.70019,1.707,1.00017,1.00017,0,0,1-.44482,1.89648Z" fill="#fb7679"/><path d="M105.08366,102.90723a1,1,0,0,1-.50586-1.86328,2.30273,2.30273,0,0,0,.86963-.8418,3.03538,3.03538,0,0,1,2.457-1.92188,1.52236,1.52236,0,0,1,1.55664.86133,1.0001,1.0001,0,0,1-1.55859,1.18164,1.30534,1.30534,0,0,0-.5376.44629,4.036,4.036,0,0,1-1.77832,2.00195A1.00217,1.00217,0,0,1,105.08366,102.90723Z" fill="#fb7679"/><path d="M74.83512,84.89648c-.03906,0-.07812-.00293-.11767-.00683a.99818.99818,0,0,1-.877-1.10352c.01026-.09179,1.18018-9.21484,13.22217-10.125a.9999.9999,0,1,1,.15039,1.99414c-10.34082.78223-11.34814,8.05078-11.38574,8.36035A1.00271,1.00271,0,0,1,74.83512,84.89648Z" fill="#fdafb1"/><path d="M84.60758,94.60352h-.02343a53.815,53.815,0,0,1-11.66553-1.35938,1,1,0,0,1,.51807-1.93164,51.51442,51.51442,0,0,0,10.19482,1.26074L83.672,90.8584a.99978.99978,0,1,1,1.999.04687l-.064,2.72168a.99922.99922,0,0,1-.99952.97657Z" fill="#fb7679"/><path d="M91.113,94.7373q-.82838,0-1.71485-.0205a1.00052,1.00052,0,0,1-.97607-1.02344l.064-2.72168a.99979.99979,0,1,1,1.999.04687l-.04,1.71485a52.85438,52.85438,0,0,0,10.24316-.77832.9996.9996,0,0,1,.42676,1.95312A50.96375,50.96375,0,0,1,91.113,94.7373Z" fill="#fb7679"/><path d="M84.38524,108.4068c.03832-1.62563.398-2.74122,2.38805-2.8888,1.27741-.09473,2.463,1.00271,2.24143,3.33134-.154,1.61877-1.09964,2.58577-2.3802,2.55558S84.34691,110.03243,84.38524,108.4068Z" fill="#fb5f62"/><path d="M98.99528,85.38477a1.00043,1.00043,0,0,1-.99951-.98243,7.265,7.265,0,0,0-1.50733-3.86523.99966.99966,0,1,1,1.53809-1.27734,9.16754,9.16754,0,0,1,1.96924,5.10742,1.00052,1.00052,0,0,1-.98242,1.01758Z" fill="#fdafb1"/><path d="M30.45706,143.29156l4.06384,3.76554s-.63372,2.30279,7.49432,1.62524,12.60393,6.09144,13.37021,10.45525,7.51145,25.479,8.95109,29.95523-.46379,11.48116-1.23174,19.47854,5.07478,22.33123,9.85257,32.6805,8.31353,16.03381,4.79073,26.18741-3.98937,30.79787-2.97221,36.80932,1.57944,14.93285-.47835,20.29239-4.21269,13.9879-2.17574,17.70566,20.84082,8.98963,30.49722,9.02411,15.23628.9386,16.89434-3.85093-.96711-8.13486-6.86025-12.13666S99.30431,328.0153,99.8269,322.23329s12.83742-36.588,14.13479-50.65691-1.29594-18.76555.56425-23.93659,7.327-15.85826,7.34785-24.93556-2.56458-38.68931-1.13788-50.0512,6.18377-32.29872-4.03091-41.42415-17.36041-16.05767-25.87638-16.25842S30.45706,143.29156,30.45706,143.29156Z" fill="#fc8c8f"/><path d="M72.79733,117.31041s-12.27535.14107-21.49,3.6226-9.91564,5.54658-15.35435,7.96538S4.11112,151.39,5.82861,161.54965,51.88675,186.29026,54.763,188.80429s-1.81142.74317-1.56839,4.26992,1.86688,10.74062,8.94081,8.135,13.0341-13.3091,11.018-17.71954-24.75216-22.29238-32.5015-25.62548c0,0,20.31955-4.13315,29.40545-15.99S79.125,119.71584,79.125,119.71584Z" fill="#fc8c8f"/><path d="M86.0509,125.66233c-16.42477-.38718-17.69115-12.93765-17.69115-12.93765-1.63762-13.0356-4.25993-42.64743,19.049-42.098s19.83417,34.51888,17.362,42.95627S94.83358,125.86936,86.0509,125.66233Z" fill="#fc8c8f"/><path d="M83.42661,103.87454l6.78251.15988a1.17324,1.17324,0,0,0,1.01523-1.69284l-3.21883-6.99924a1.06889,1.06889,0,0,0-1.94837-.04827l-3.56368,6.83935A1.17338,1.17338,0,0,0,83.42661,103.87454Z" fill="#fb5a5e"/><path d="M68.48271,104.04494s-1.85923,1.08143-2.7819-.44066-4.40522-4.06305-2.347-6.51508,5.03269-1.34,5.53981.13059S68.48271,104.04494,68.48271,104.04494Z" fill="#fc8c8f"/><path d="M105.01607,104.90614s1.80621,1.16782,2.79957-.30909,4.59177-3.851,2.65135-6.39727-4.964-1.57567-5.53981-.13059S105.01607,104.90614,105.01607,104.90614Z" fill="#fc8c8f"/><path d="M74.83512,84.89648c-.03906,0-.07812-.00293-.11767-.00683a.99818.99818,0,0,1-.877-1.10352c.01026-.09179,1.18018-9.21484,13.22217-10.125a.9999.9999,0,1,1,.15039,1.99414c-10.34082.78223-11.34814,8.05078-11.38574,8.36035A1.00271,1.00271,0,0,1,74.83512,84.89648Z" fill="#fdafb1"/><path d="M84.38524,108.4068c.03832-1.62563.398-2.74122,2.38805-2.8888,1.27741-.09473,2.463,1.00271,2.24143,3.33134-.154,1.61877-1.09964,2.58577-2.3802,2.55558S84.34691,110.03243,84.38524,108.4068Z" fill="#fb5f62"/><path d="M98.99528,85.38477a1.00043,1.00043,0,0,1-.99951-.98243,7.265,7.265,0,0,0-1.50733-3.86523.99966.99966,0,1,1,1.53809-1.27734,9.16754,9.16754,0,0,1,1.96924,5.10742,1.00052,1.00052,0,0,1-.98242,1.01758Z" fill="#fdafb1"/><path d="M91.03,116.98926a.99772.99772,0,0,1-.84619-.46582,4.79969,4.79969,0,0,0-3.93946-1.67481c-2.5957-.083-3.25,1.25293-3.27441,1.3086a1.01522,1.01522,0,0,1-1.30078.53125A.98816.98816,0,0,1,81.11,115.4209c.0415-.1084,1.043-2.68457,5.18164-2.57227a6.70065,6.70065,0,0,1,5.58252,2.60645,1.00026,1.00026,0,0,1-.84424,1.53418Z" fill="#fb5f62"/><path d="M80.52067,111.84375a.99648.99648,0,0,1-.8081-.41016c-.17237-.23437-1.66846-2.35644-1.2251-4.3457a3.20116,3.20116,0,0,1,1.67041-2.13281.99971.99971,0,1,1,.96,1.7539,1.191,1.191,0,0,0-.67822.81446,4.30741,4.30741,0,0,0,.8872,2.73047.99938.99938,0,0,1-.80615,1.58984Z" fill="#fb5f62"/><path d="M91.95133,112.53027a.99975.99975,0,0,1-.60839-1.79394,3.68873,3.68873,0,0,0,1.41943-2.28028,2.06657,2.06657,0,0,0-.84912-1.5957,1.0002,1.0002,0,1,1,1.33008-1.49414,3.97857,3.97857,0,0,1,1.51709,3.17285,5.62228,5.62228,0,0,1-2.20508,3.78711A.99384.99384,0,0,1,91.95133,112.53027Z" fill="#fb5f62"/><path d="M69.422,102.27441a.99908.99908,0,0,1-.44287-.10351,6.75379,6.75379,0,0,1-2.50489-2.43262,1.18316,1.18316,0,0,0-.09082.13672,1.00023,1.00023,0,0,1-1.75341-.96289,2.43924,2.43924,0,0,1,1.85839-1.33691,1.91285,1.91285,0,0,1,1.67823,1.0957,4.743,4.743,0,0,0,1.70019,1.707,1.00017,1.00017,0,0,1-.44482,1.89648Z" fill="#fb5f62"/><path d="M105.08366,102.90723a1,1,0,0,1-.50586-1.86328,2.30273,2.30273,0,0,0,.86963-.8418,3.03538,3.03538,0,0,1,2.457-1.92188,1.52236,1.52236,0,0,1,1.55664.86133,1.0001,1.0001,0,0,1-1.55859,1.18164,1.30534,1.30534,0,0,0-.5376.44629,4.036,4.036,0,0,1-1.77832,2.00195A1.00217,1.00217,0,0,1,105.08366,102.90723Z" fill="#fb5f62"/><path d="M84.60758,94.60352h-.02343a53.815,53.815,0,0,1-11.66553-1.35938,1,1,0,0,1,.51807-1.93164,51.51442,51.51442,0,0,0,10.19482,1.26074L83.672,90.8584a.99978.99978,0,1,1,1.999.04687l-.064,2.72168a.99922.99922,0,0,1-.99952.97657Z" fill="#fb5f62"/><path d="M91.113,94.7373q-.82838,0-1.71485-.0205a1.00052,1.00052,0,0,1-.97607-1.02344l.064-2.72168a.99979.99979,0,1,1,1.999.04687l-.04,1.71485a52.85438,52.85438,0,0,0,10.24316-.77832.9996.9996,0,0,1,.42676,1.95312A50.96375,50.96375,0,0,1,91.113,94.7373Z" fill="#fb5f62"/><path d="M65.221,195.56063s-5.12974,9.34442-3.53479,17.78414,13.46084,36.44331,14.33065,38.25771c0,0,33.9907-5.71283,39.03766-5.34924,0,0,2.74937-30.196,2.46292-35.33983s-2.05058-16.78411-2.05058-16.78411Z" fill="#fa4347"/><path d="M104.17374,244.27521s8.37247,1.19422,10.8808,1.978c0,0,6.25678-13.57414,6.85-17.67117s-.00357-16.83146-.08588-20.25812-.91314-13.1496-.91314-13.1496L94.18729,197.48Z" fill="#fa4347"/><path d="M22.51037,138.50712a16.77052,16.77052,0,0,1,14.352,7.16023c5.57489,7.94692,5.16357,11.87886,5.16357,11.87886,3.90477-.50642,11.27423-3.32175,11.27423-3.32175l6.63465,22.72741s3.65637,15.5396,3.49136,17.92757,56.5943,2.09513,57.81774.928c0,0-.72269-24.68789.70429-29.87728s2.68683-21.73725,1.178-26.91109-15.77013-17.65961-19.604-19.32193c0,0,1.48371,10.01686-12.85538,11.65178-16.00111,1.82441-28.40727-13.39-28.40727-13.39s-12.45816-.0137-21.55875,7.85382C40.70073,125.81277,25.06306,133.71478,22.51037,138.50712Z" fill="#fee8e9"/><path d="M113.13639,240.91992a.99979.99979,0,0,1-.99658-.93262c-.01318-.19043-1.29834-19.07617-2.23242-24.65136a1,1,0,0,1,1.97266-.33008c.95019,5.67187,2.20214,24.06641,2.25488,24.84668a1.0004,1.0004,0,0,1-.93018,1.06543C113.1818,240.919,113.15885,240.91992,113.13639,240.91992Z" fill="#f9252a"/><path d="M69.42155,213.63379a1.00022,1.00022,0,0,1-.89893-1.4375c.15821-.3252,3.9712-7.99219,12.33838-9.62012a.99984.99984,0,1,1,.38184,1.96289C73.84538,205.97852,70.35563,213,70.32145,213.07129A1.0001,1.0001,0,0,1,69.42155,213.63379Z" fill="#f9252a"/><path d="M118.47233,133.34863a.99817.99817,0,0,1-.89111-.54492c-1.26074-2.46289-7.77344-7.87012-10.17627-9.74609a.9998.9998,0,1,1,1.23047-1.57617c.91992.71777,9.03613,7.10937,10.72607,10.4121a.99917.99917,0,0,1-.88916,1.45508Z" fill="#fecdce"/><path d="M57.68766,153.32812a1.00019,1.00019,0,0,1-.08008-1.99707c.0376-.00293,3.79737-.32714,5.97413-1.832a.99985.99985,0,0,1,1.13769,1.64453c-2.62256,1.81348-6.7749,2.167-6.95019,2.18165C57.74186,153.32715,57.71452,153.32812,57.68766,153.32812Z" fill="#fecdce"/><path d="M57.16423,129.41211a.99738.99738,0,0,1-.58741-.19141c-3.74658-2.72558-9.21631-1.59765-9.271-1.58691a1.00009,1.00009,0,0,1-.42237-1.95508c.25928-.05469,6.39063-1.335,10.87012,1.92481a.99986.99986,0,0,1-.58935,1.80859Z" fill="#fecdce"/><path d="M63.88981,162.39258a.99957.99957,0,0,1-.9248-.61817c-1.251-3.02832-5.832-6.00781-5.87842-6.03711a1,1,0,0,1,1.08252-1.68164c.21.13477,5.15332,3.34571,6.64453,6.95508a1.00082,1.00082,0,0,1-.92383,1.38184Z" fill="#fecdce"/><path d="M81.87419,163.39941a1,1,0,0,1-.30518-1.95214c.18457-.05957,18.64014-5.88379,35.6709-5.53711a1.00111,1.00111,0,0,1,.978,1.02148,1.02331,1.02331,0,0,1-1.022.97852c-16.67773-.3877-34.83545,5.38281-35.0166,5.4414A1.00707,1.00707,0,0,1,81.87419,163.39941Z" fill="#fecdce"/><path d="M94.996,142.91943,83.84187,166.04385a2.81714,2.81714,0,0,0,2.68575,4.03714l25.17848-1.32794a2.81713,2.81713,0,0,0,2.22073-4.33756L99.90248,142.619A2.81714,2.81714,0,0,0,94.996,142.91943Z" fill="#fb7679"/><path d="M85.63048,162.336a132.93538,132.93538,0,0,1,24.22387-4.25024l-1.20288-1.86923a135.16672,135.16672,0,0,0-21.90406,3.80373Z" fill="#fb5f62"/><path d="M109.8903,354.31836a74.51719,74.51719,0,0,1-10.9585-1.125c-.94531-.14453-1.86425-.28516-2.74316-.40918-8.6377-1.21484-12.60645-3.21-13.57764-3.76465-6.65722-.50976-10.87353-2.02441-12.53369-4.50293a3.70554,3.70554,0,0,1-.60791-3.11816.9999.9999,0,0,1,1.90674.60254,1.88053,1.88053,0,0,0,.41211,1.47363c.77392,1.085,3.2583,2.99219,11.20508,3.56836a.99183.99183,0,0,1,.47656.16113c.03125.02051,3.63232,2.28223,12.99707,3.59961.88721.125,1.814.2666,2.76758.41309,7.10937,1.08789,15.95849,2.44336,19.77978-1.78321a1.00011,1.00011,0,1,1,1.4834,1.3418C118.03923,353.49414,114.14616,354.31836,109.8903,354.31836Z" fill="#fdafb1"/><path d="M72.6853,327.85036s-1.448,6.61748-1.67949,9.26377-.86221,8.38036,5.61831,9.30745,6.29208.5832,9.95882,2.42277c2.28018,1.14394,21.81418,4.52691,26.4023,3.60041s7.56551-2.70457,7.83918-5.09,1.55257-7.13833-7.32222-12.22823-10.91792-6.793-10.91792-6.793S98.26031,337.0422,72.6853,327.85036Z" fill="#fed1d2"/><path d="M94.57194,339.52637a2.96991,2.96991,0,0,1-2.15771-.97461,3.01387,3.01387,0,0,1-.91846-2.90723c.80615-3.44629,7.94189-6.29492,10.23779-7.12793,1.2168-1.916,2.13477-3.14453,3.05908-3.63672,3.33838-1.77929,5.76563-.93847,6.915-.27929a5.4548,5.4548,0,0,1,2.7959,4.33105,1.72277,1.72277,0,0,1-.58691,1.44824c-.91114.77832-2.42383.47461-4.51563.05371-2.03906-.40918-4.55859-.916-6.33838-.27539-.26318.42285-.52636.85352-.78271,1.27246-2.34131,3.82325-4.76221,7.77735-7.38965,8.07715A2.71269,2.71269,0,0,1,94.57194,339.52637Zm5.38086-8.12891c-3.05957,1.36914-6.167,3.23731-6.50977,4.70313a1.0544,1.0544,0,0,0,.397,1.04882.95224.95224,0,0,0,.82324.37207C96.13688,337.35254,98.24284,334.16309,99.9528,331.39746Zm5.15771-3.54394a24.30433,24.30433,0,0,1,4.68409.61914,13.64169,13.64169,0,0,0,2.69629.38867,3.50778,3.50778,0,0,0-1.77784-2.52539,5.08658,5.08658,0,0,0-4.98095.30957,4.5323,4.5323,0,0,0-1.15088,1.2207C104.757,327.85742,104.93327,327.85352,105.11051,327.85352Z" fill="#fdafb1"/><path d="M103.68473,342.0918a1.00059,1.00059,0,0,1-.93945-.65723c-.61914-1.69629-3.57422-10.29-.95508-12.84082.58252-.56836,1.89453-1.36035,4.1416-.28027,2.60157,1.251,5.43506,4.64648,5.18946,7.15039a.9999.9999,0,1,1-1.99024-.19532c.13965-1.42675-2.02588-4.17187-4.06592-5.15234-.603-.28906-1.41845-.53906-1.87939-.09082-1.12744,1.09863-.13135,6.42188,1.43848,10.72363a1,1,0,0,1-.93946,1.34278Z" fill="#fdafb1"/><path d="M87.47038,126.67773c-.271,0-.5459-.00293-.82715-.00976-10.66846-.25195-13.45166-5.64063-13.56494-5.86914a1.00013,1.00013,0,0,1,1.78955-.89356c.106.20313,2.48389,4.543,11.82226,4.7627,9.36719.25683,12.04395-3.59961,12.07032-3.63867a1.00643,1.00643,0,0,1,1.38037-.28711.99522.99522,0,0,1,.30224,1.36816C100.32194,122.30176,97.43034,126.67773,87.47038,126.67773Z" fill="#fb5f62"/><path d="M27.381,161.416a.99984.99984,0,0,1-.084-1.9961c.05957-.00586,5.99853-.52051,8.68945-1.52051a1.00006,1.00006,0,1,1,.69629,1.875c-2.9458,1.09473-8.96143,1.61621-9.21582,1.6377A.84983.84983,0,0,1,27.381,161.416Z" fill="#fb5f62"/><path d="M74.5944,320.751a1.09245,1.09245,0,0,1-.11279-.00586,1.00027,1.00027,0,0,1-.88233-1.10547c.0127-.11231,1.26221-11.36231,1.28418-21.34961.02295-10.5459.64649-18.24219,3.76612-26.37891a1,1,0,0,1,1.86718.7168c-3.00927,7.84766-3.61084,15.35352-3.6333,25.666-.02246,10.0996-1.28418,21.45507-1.29687,21.56835A1.00022,1.00022,0,0,1,74.5944,320.751Z" fill="#fb5f62"/><path d="M103.85075,263.0625a18.04559,18.04559,0,0,1-2.708-.19434,1,1,0,0,1,.32324-1.97363c.05323.00977,5.25977.82617,7.72071-1.22461A1.00022,1.00022,0,0,1,110.467,261.207C108.63786,262.73145,105.89128,263.0625,103.85075,263.0625Z" fill="#fb5f62"/><path d="M123.76387,12.39327l-10.3315.09226a3.19077,3.19077,0,0,0-3.15345,2.86715c-.8878,8.76784-3.20026,35.5326.24557,47.6124a3.17231,3.17231,0,0,0,3.27067,2.27353c6.50968-.42545,24.50389-1.58163,32.34453-1.88351a3.18806,3.18806,0,0,0,3.0606-3.48795c-.83351-8.83738-2.96256-32.397-2.93138-42.15482a3.20563,3.20563,0,0,0-2.8571-3.20792Z" fill="#ffeded"/><path d="M114.03,50.25293a.74776.74776,0,0,1-.708-.99023,3.32444,3.32444,0,0,1,4.4043-1.8711c2.63086.79688,4.27881.88672,5.87793.32227a.74993.74993,0,0,1,.5,1.41406c-1.90918.67285-3.88282.58594-6.8125-.30078-1.89209-.56934-2.45948.67676-2.55469.93262A.75547.75547,0,0,1,114.03,50.25293Z" fill="#fa484c"/><path d="M121.35221,54.90137a11.75767,11.75767,0,0,1-2.83447-.34571,9.07575,9.07575,0,0,0-3.73291.042.75.75,0,0,1-.35205-1.458,10.439,10.439,0,0,1,4.457-.03711,8.68944,8.68944,0,0,0,3.85059.15527.73728.73728,0,0,1,1.01562.2627.76285.76285,0,0,1-.26806,1.03711A4.89518,4.89518,0,0,1,121.35221,54.90137Z" fill="#fa484c"/><path d="M126.87223,54.041a.75.75,0,0,1-.28174-1.44532,5.35941,5.35941,0,0,1,2.80958-.46582.75023.75023,0,0,1-.43653,1.43555,4.70293,4.70293,0,0,0-1.811.4209A.74549.74549,0,0,1,126.87223,54.041Z" fill="#fa484c"/><path d="M114.34,60.12988a.7498.7498,0,0,1-.42823-1.36621,4.4833,4.4833,0,0,1,2.99854-.833.74963.74963,0,1,1-.31934,1.46485,3.11637,3.11637,0,0,0-1.82715.60351A.74685.74685,0,0,1,114.34,60.12988Z" fill="#fa484c"/><path d="M122.20719,59.31348a12.315,12.315,0,0,1-2.10693-.1836.75.75,0,0,1,.27979-1.47363,9.33861,9.33861,0,0,0,3.45214-.02441,12.44529,12.44529,0,0,1,3.16065-.34668,9.8616,9.8616,0,0,0,1.0459-.04688.74975.74975,0,1,1,.19824,1.48633,10.79815,10.79815,0,0,1-1.22217.06055,11.0407,11.0407,0,0,0-2.793.29589A7.92515,7.92515,0,0,1,122.20719,59.31348Z" fill="#fa484c"/><path d="M138.30817,56.7724s4.17522.17645,4.79127,3.97771.2365,8.84363,4.87563,9.95467,13.85355-6.02456,15.96026-4.65589,5.57059-.8012,2.98393-2.23844a7.58491,7.58491,0,0,0-6.42267-.75264s3.39886-2.543,5.61693-2.7548,2.723-1.46377,2.349-2.25627-4.387-1.17211-7.59666.72626-6.19948,5.52786-8.08826,4.993-3.93232-.83769-4.00166-4.01742a7.17953,7.17953,0,0,0-4.71106-6.17707C142.33126,53.16718,138.30817,56.7724,138.30817,56.7724Z" fill="#f91a1f"/><circle cx="139.98335" cy="52.45343" r="6.4175" fill="#fb5f62"/><path d="M139.99186,59.62109q-.17945,0-.35937-.00879a7.16729,7.16729,0,1,1,7.50976-6.80761h0a7.16834,7.16834,0,0,1-7.15039,6.8164Zm-.01172-12.835a5.66716,5.66716,0,1,0,5.66407,5.94434h0a5.6745,5.6745,0,0,0-5.38282-5.9375C140.16715,46.78809,140.0734,46.78613,139.98014,46.78613Z" fill="#fb5f62"/><path d="M138.52116,55.791a.75073.75073,0,0,1-.65234-.37989l-2.376-4.18457a.75.75,0,0,1,1.30469-.74023l1.36181,2.39844.54151-2.91309a.74987.74987,0,1,1,1.47461.27344l-.917,4.93261a.74813.74813,0,0,1-.61328.60254A.66807.66807,0,0,1,138.52116,55.791Z" fill="#fff"/><path d="M142.82,55.09766a.75026.75026,0,0,1-.73487-.60547l-.9917-5.04492a.7499.7499,0,1,1,1.47168-.28907l.9917,5.04492a.75013.75013,0,0,1-.59131.88086A.81928.81928,0,0,1,142.82,55.09766Z" fill="#fff"/><path d="M124.10661,40.22461a.74978.74978,0,0,1-.75-.748c-.00147-.43359-.0044-2.11133.01709-4.14746-1.38721-.00586-2.85156-.0039-3.86768,0h-.00293a.74939.74939,0,0,1-.731-.918c.43457-1.88867,4.688-7.79785,5.17138-8.46582a.7503.7503,0,0,1,1.3291.64551,55.81568,55.81568,0,0,0-.37939,7.25c1.1001.01172,2.03662.03125,2.41113.06543a.75035.75035,0,0,1,.6792.81445.75852.75852,0,0,1-.81494.67969c-.33105-.03027-1.21045-.04883-2.29541-.06055-.01563,1.457-.02,2.89258-.0166,4.13282a.74989.74989,0,0,1-.74805.752Zm-2.68555-6.39941c.59912,0,1.28369.001,1.97217.00488.02539-1.60254.06787-3.28516.13721-4.6836a51.19686,51.19686,0,0,0-2.91455,4.67969C120.85758,33.82617,121.12956,33.8252,121.42106,33.8252Z" fill="#fa484c"/><path d="M133.13883,40.07324a3.40633,3.40633,0,0,1-1.03125-.15429c-.8623-.27149-2.34375-1.14942-2.57324-3.98633a.75.75,0,0,1,1.49512-.1211c.083,1.02832.416,2.32715,1.52832,2.67676a3.356,3.356,0,0,0,3.458-4.88476c-.92041-1.707-4.58155-1.06446-5.91406-.67383a.75943.75943,0,0,1-.57471-.06348.74782.74782,0,0,1-.35889-.45312,48.092,48.092,0,0,1-.249-5.36426.74888.74888,0,0,1,.32031-.623c1.29346-.9043,6.19287-.89844,7.665-.87891a.75009.75009,0,1,1-.02344,1.5,28.72643,28.72643,0,0,0-6.45556.46485c.0205,1.42187.06347,2.89648.11621,3.76855,1.71631-.3584,5.48242-.81933,6.79443,1.61035a4.65554,4.65554,0,0,1-.51123,5.32813A4.94823,4.94823,0,0,1,133.13883,40.07324Z" fill="#fa484c"/><path d="M136.83439,7.36165a5.78222,5.78222,0,0,1,2.44151,5.55547c-.58331,3.60688-.82575,7.79971-8.87527,7.28916s-14.2568-.73938-15.33-3.9805S114.984,5.98657,119.44426,5.34455,131.88483,4.74338,136.83439,7.36165Z" fill="#fc8c8f"/><path d="M188.98454,115.60156h-.0044a.74947.74947,0,0,1-.7456-.7539c.00439-.79883.48681-5.5459.79687-8.52051a14.34557,14.34557,0,0,1-2.38525,1.30078.74995.74995,0,1,1-.59473-1.377c1.583-.68457,3.09326-1.73047,3.22168-2.2168.00635-.05957.01026-.10059.0127-.12012a.73917.73917,0,0,1,.79443-.668.74968.74968,0,0,1,.70117.76563,1.4892,1.4892,0,0,1-.01953.20312c-.29834,2.79688-1.02246,9.76172-1.02734,10.64063A.75031.75031,0,0,1,188.98454,115.60156Z" fill="#fa484c"/><path d="M191.82731,116.29785a.73462.73462,0,0,1-.1709-.01953,13.3102,13.3102,0,0,0-5.33691-.0293.75019.75019,0,0,1-.3418-1.46093,14.65763,14.65763,0,0,1,6.01953.02929.75.75,0,0,1-.16992,1.48047Z" fill="#fa484c"/><path d="M195.01628,116.14648a.74967.74967,0,0,1-.521-1.28906c5.0083-4.83984,6.33984-7.88574,5.916-9.12207-.05567-.16308-.22559-.6582-1.32569-.77637-2.70605-.30078-3.353,2.78907-3.3789,2.9209a.75005.75005,0,0,1-1.47217-.28808c.30664-1.58008,1.74121-4.46973,5.0122-4.125a2.77155,2.77155,0,0,1,2.5835,1.78222c.81983,2.3916-1.74658,5.95215-4.60449,8.98145,1.50049-.18555,3.33349-.22754,4.39648.41211a.75022.75022,0,0,1-.77441,1.28515c-1.03711-.62695-4.0166-.21093-5.64942.19629A.72641.72641,0,0,1,195.01628,116.14648Z" fill="#fa484c"/><path d="M207.3488,116.40625a3.14675,3.14675,0,0,1-2.35157-.91992,5.09112,5.09112,0,0,1-1.0664-3.6709.75011.75011,0,0,1,1.49267.15039h0a3.54432,3.54432,0,0,0,.65088,2.47656,1.80963,1.80963,0,0,0,1.52735.4541,2.78135,2.78135,0,0,0,2.59179-1.90918,1.95032,1.95032,0,0,0-.47705-2.10253,8.517,8.517,0,0,0-4.30762-1.28809.752.752,0,0,1-.71337-.57324c-.31641-1.30567-.98829-4.46094-.39356-5.56836a.76051.76051,0,0,1,.79-.38477c2.30176.40332,4.70654.53906,5.14453.29a.75646.75646,0,0,1,1.0249.27344.74457.74457,0,0,1-.26074,1.01758c-.98975.585-3.75635.27734-5.44531.01562a18.17109,18.17109,0,0,0,.47461,3.4668,9.19529,9.19529,0,0,1,4.625,1.581,3.40489,3.40489,0,0,1,.97168,3.71582,4.27954,4.27954,0,0,1-3.91162,2.96192C207.59,116.40137,207.46794,116.40625,207.3488,116.40625Z" fill="#fa484c"/><path d="M354.25848,263.41748a17.635,17.635,0,0,0,5.62057-3.0966c2.75605-2.26507,7.95928-2.82265,9.20094.14257s-.05679,6.4735.66734,8.16218,6.53225,10.678,5.01527,15.29373-5.94168-.17979-6.87606-3.14631-7.03769-9.08656-12.05752-9.27025S354.25848,263.41748,354.25848,263.41748Z" fill="#fc8c8f"/><path d="M307.94383,332.87883a17.635,17.635,0,0,0,2.09088,6.067c1.76094,3.10249,1.42142,8.32449-1.71233,9.04133s-6.36864-1.16187-8.1562-.73688-11.637,4.612-15.9257,2.32882,1.19221-5.82362,4.27475-6.23747,10.15528-5.38191,11.19383-10.29657S307.94383,332.87883,307.94383,332.87883Z" fill="#fc8c8f"/><path d="M254.66667,44c1.83659,4.0954,17.39636,56.07613,19.6781,59.084s16.65732,28.02219,16.65732,28.02219l-15.06649,5.03444-1.6243-1.39113s-6.7643-17.68812-9.14485-21.075-5.27062-18.30573-6.99978-24.00781S250.9275,52.06924,249,49.33333Z" fill="#fdc6c7"/><path d="M276.9782,144.568s-6.74989-20.743-8.57322-24.10853,9.27479-6.44087,12.13941-5.41135,10.48252,15.29957,10.48252,15.29957Z" fill="#fee8e9"/><path d="M333.63957,151.54065l6.46218,3.24785s-1.43732,9.83665-18.69031,8.74529C315.108,163.13507,333.63957,151.54065,333.63957,151.54065Z" fill="#fb7679"/><path d="M337.78956,153.43166s7.36259,17.44757,9.85706,20.75147,8.08622,10.42718,10.00851,16.06709,9.12292,19.53945,11.14244,22.20814,8.48373,5.85465,12.32561,5.85645,16.02678-1.20307,16.713.55071-3.28352,1.87173-4.53774,2.32642-5.90889.67415-6.92969,1.57024a9.74125,9.74125,0,0,1-7.0859,2.5566c-3.96365-.06775-10.99081.69374-12.96577-3.33676s-25.10005-33.97363-27.48288-36.90208-17.60169-27.43884-17.60169-27.43884l14.88635-5.54447Z" fill="#fdc6c7"/><path d="M320.60385,215.7455s-4.17547,17.73416-5.98107,25.52021c-1.83979,7.93349-5.1826,20.21765-5.1826,20.21765l50.42053,1.20593a3.209,3.209,0,0,1,2.99918,2.29344l1.01256,3.40514a3.20592,3.20592,0,0,1-2.44143,4.06035c-11.5408,2.31184-48.53624,9.65151-55.75078,10.19764-8.57264.64895-21.7088-1.26816-22.08864-15.2231s2.33678-45.84083,2.33678-45.84083Z" fill="#fa4347"/><path d="M309.479,332.44028l-6.42527-63.26518,17.5501-53.4296-28.75431-18.88039-16.859,3.90985-3.54014,5.92589s2.94928,40.52979,8.46967,59.30046c4.76762,16.211,14.91241,57.71336,17.62035,67.81912a3.25722,3.25722,0,0,0,3.25485,2.41146l5.53751-.17209A3.26694,3.26694,0,0,0,309.479,332.44028Z" fill="#fa4347"/><path d="M288.64917,131.81928c19.90941-2.44675,25.18623-2.33583,25.18623-2.33583s13.78318-2.24489,26.26635,25.305c0,0-4.46808-1.69539-7.9892-.13753-3.06315,1.35525-7.19035,3.85449-8.50012,7.03389-1.0503,2.54957-8.50594,10.47307-8.59393,16.69784a55.38108,55.38108,0,0,0,2.25665,16.8666c1.51026,4.97578,3.65892,10.40622,3.3287,20.4962,0,0-18.67512-.23938-23.82782-4.68371s-12.68913-9.89618-16.68474-9.934-8.64085,5.57306-8.64085,5.57306,3.12856-16.07091,4.08576-19.75759.966-14.26206.02015-17.54626-2.46162-7.25834-3.34927-11.3772,1.14359-9.38173,5.00332-14.73946c3.36038-4.66459,4.91709-9.97018,11.43877-11.46106" fill="#fee8e9"/><path d="M306.6512,127.064c1.40509,3.14454,9.96951,2.36194,8.24643-3.61873,0,0,2.26083,2.55266,4.37242.5149a3.76041,3.76041,0,0,0,.48123-5.23713s2.78306,2.05973,3.84639-.13627a4.23216,4.23216,0,0,0-.463-4.78659s3.2993,1.43284,4.3843-1.42488-1.18537-3.5425-2.17371-5.53139a34.21525,34.21525,0,0,1-2.18719-8.90644s2.20208.87764,1.36474-1.93827-2.71957-3.807-3.43626-6.619-3.4043-11.57525-20.86021-12.14653-21.87468,13.965-22.14619,16.74983c-.93277,9.56708.3703,19.12643,3.52863,23.4912s10.47076,12.946,16.13938,9.83967S305.71877,124.97726,306.6512,127.064Z" fill="#f91a1f"/><path d="M307.5604,121.65572s-.71818,4.6267-.05918,5.83862c1.4912,2.74236,6.33418,1.98911,6.33418,1.98911s-10.663,11.09918-19.27294,11.46805-5.91329-9.13222-5.91329-9.13222,3.62159.02535,3.30041-9.96157C291.718,114.65771,307.5604,121.65572,307.5604,121.65572Z" fill="#fdc6c7"/><path d="M300.60514,79.77541c19.41932.68294,17.16732,17.48173,13.52634,33.89612-1.8943,8.54-12.412,13.17337-15.06583,13.14422-2.65-.14443-12.88177-5.44961-14.17417-14.10116C282.46326,96.45971,281.18272,79.18718,300.60514,79.77541Z" fill="#fdc6c7"/><path d="M299.60005,111.4616l2.11535.06923a.53856.53856,0,0,0,.52644-.70395l-1.92-6.03839a.53272.53272,0,0,0-1.00573-.03292l-2.31071,5.89994a.53856.53856,0,0,0,.47929.73686Z" fill="#fda3a5"/><path d="M314.53738,111.18917a1.15317,1.15317,0,0,0,1.74325-.44148,15.17755,15.17755,0,0,1,2.9199-3.67711c1.48269-1.24248,1.692-3.16123,1.06906-4.06488a2.95628,2.95628,0,0,0-4.55046.3918C314.16807,105.37359,314.53738,111.18917,314.53738,111.18917Z" fill="#fdc6c7"/><path d="M315.43473,107.82422c-.0205,0-.041-.001-.062-.00293a.75342.75342,0,0,1-.68652-.8125c.09961-1.22852,1.97412-2.35938,2.77539-2.78809a.75006.75006,0,0,1,.70849,1.32227,5.26555,5.26555,0,0,0-1.99023,1.59668A.74515.74515,0,0,1,315.43473,107.82422Z" fill="#fdafb1"/><path d="M284.7125,110.21309a1.15317,1.15317,0,0,1-1.71065-.55452,15.17774,15.17774,0,0,0-2.67323-3.86016c-1.39828-1.33676-1.48171-3.2651-.801-4.12608a2.95628,2.95628,0,0,1,4.5151.68849C285.46127,104.4341,284.7125,110.21309,284.7125,110.21309Z" fill="#fdc6c7"/><path d="M284.08757,106.793a.75.75,0,0,1-.75-.73828,5.33625,5.33625,0,0,0-1.88086-1.71289.7502.7502,0,0,1,.79345-1.27344c.77149.48047,2.56836,1.73144,2.58741,2.96289a.75061.75061,0,0,1-.73829.76172Z" fill="#fdafb1"/><path d="M297.02152,113.86313c-2.3736.11373-2.86825.59617-3.03375,1.009a3.78252,3.78252,0,0,0,.78463,3.15553,5.56265,5.56265,0,0,0,4.72778,2.5995,5.78621,5.78621,0,0,0,4.72741-2.43955C305.07543,116.71416,307.48046,113.362,297.02152,113.86313Z" fill="#fb7679"/><path d="M300.492,90.84112c-.14605,4.4627,1.15493,10.20332,5.31586,10.87023,2.4513.3929,2.08029-2.1033,1.6747-4.78262,0,0,1.84534,6.22572,4.79154,6.0127,1.77024-.128,1.79424-3.76345,1.52918-4.7649,0,0,.26032,6.41273,2.312,4.79175s6.97887-23.25109-15.23544-23.9781Z" fill="#f91a1f"/><path d="M300.492,90.84112c-.14605,4.4627,1.84975,10.04263-.55008,10.67826-3.42235.90645-5.59833-3.46538-5.42451-5.74307,0,0,.68009,5.181-1.67768,5.51063-3.29334.46045-5.10709-3.578-4.77712-4.56,0,0,2.09845,5.02035-.4607,5.55676-6.55145,1.37322-9.0041-24.98323,14.43387-23.53454Z" fill="#f91a1f"/><path d="M299.12712,127.56641c-.0293,0-.05762,0-.08643-.001-1.85791-.06055-4.79736-1.82129-5.126-2.02148a.75007.75007,0,0,1,.78028-1.28125c.80127.48828,3.15283,1.76269,4.395,1.80273,1.106.07324,3.86963-1.19043,5.354-1.97168a.75.75,0,0,1,.69922,1.32715C304.72087,125.64355,301.01628,127.56641,299.12712,127.56641Z" fill="#fdafb1"/><path d="M283.208,101.49048s1.15295,1.12615,1.40432.54566-.127-3.21871.42011-4.3162-2.16646-1.256-2.16646-1.256Z" fill="#f91a1f"/><circle cx="307.77595" cy="104.71358" r="1.55451" fill="#fc989a"/><circle cx="291.88287" cy="104.19345" r="1.55451" fill="#fc989a"/><path d="M317.54606,99.02832a.60841.60841,0,0,1-.08349-.00488.74947.74947,0,0,1-.66309-.82715c.21826-1.97363.79736-7.21484-2.68457-11.76074a.74984.74984,0,1,1,1.19043-.91211c3.84863,5.02343,3.19873,10.90429,2.98535,12.83691A.75034.75034,0,0,1,317.54606,99.02832Z" fill="#fb5f62"/><path d="M290.716,82.69141a.75014.75014,0,0,1-.42675-1.36719c3.34716-2.31055,10.68017-1.85449,10.99169-1.83106a.74971.74971,0,1,1-.0996,1.4961c-.06983-.00293-7.12305-.44434-10.03956,1.56933A.74771.74771,0,0,1,290.716,82.69141Z" fill="#fb5f62"/><path d="M315.40055,120.32129a3.31927,3.31927,0,0,1-1.25488-.26465.75021.75021,0,0,1,.60938-1.37109,1.36031,1.36031,0,0,0,.96826.06933.81411.81411,0,0,0,.30127-.624c.31689-2.15625.63281-2.9375,1.9917-3.623.1499-.07519.30468-.14648.45849-.21777,1.14649-.5293,1.145-.65332.94922-1.14942-.71191-1.80664,1.19141-2.957,2.106-3.50976.148-.08887.27588-.165.36621-.22949a.74965.74965,0,1,1,.876,1.21679c-.11524.083-.27735.18262-.46631.29688-1.04053.62891-1.6919,1.1543-1.48633,1.6748.75635,1.91993-.85156,2.66309-1.71533,3.06153-.13868.06445-.27832.1289-.4126.19629-.69824.35156-.89258.52539-1.18262,2.50195a2.18862,2.18862,0,0,1-1.0664,1.72168A2.14663,2.14663,0,0,1,315.40055,120.32129Z" fill="#fb5f62"/><path d="M283.80632,90.376a.74053.74053,0,0,1-.15235-.01563.74914.74914,0,0,1-.583-.88574c.64063-3.11328,2.30664-4.03516,2.49414-4.12988a.74972.74972,0,0,1,.68653,1.333c-.06934.03907-1.22168.71875-1.71192,3.09961A.7498.7498,0,0,1,283.80632,90.376Z" fill="#fb5f62"/><path d="M310.652,126.58887a3.51884,3.51884,0,0,1-.97656-.15039.75026.75026,0,0,1,.417-1.44141,1.17192,1.17192,0,0,0,.96533-.01953,1.51819,1.51819,0,0,0,.30469-1.09766.75.75,0,0,1,1.49463-.12695,2.94731,2.94731,0,0,1-.84473,2.38086A2.0753,2.0753,0,0,1,310.652,126.58887Z" fill="#fb5f62"/><path d="M304.75749,171.665a1.005,1.005,0,0,1-.25-.03125c-.20606-.05371-20.68946-5.32715-24.88037-6.38281-.50049-.126-1.67334-.4209-1.52686-1.46387.12647-.89746.23438-1.67481,14.374-1.209a.99922.99922,0,0,1,.9668,1.03125.96925.96925,0,0,1-1.03223.9668c-1.96435-.06347-5.03027-.1084-7.6831-.08984,7.46728,1.91113,20.11865,5.16894,20.28076,5.21a1.00024,1.00024,0,0,1-.249,1.96875Zm-25.07178-8.48535Z" fill="#fecdce"/><path d="M309.693,211.15234a.98986.98986,0,0,1-.19873-.01953c-.3457-.07031-8.51953-1.75195-13.84228-5.63281a.9995.9995,0,1,1,1.17773-1.61523c4.97364,3.625,12.98,5.27148,13.06006,5.2871a1.00014,1.00014,0,0,1-.19678,1.98047Z" fill="#fecdce"/><path d="M284.71745,198.90137a.99726.99726,0,0,1-.61133-.209c-.08789-.06347-1.562-1.07226-4.73926-.02539a1.00042,1.00042,0,0,1-.626-1.90039c4.24658-1.39648,6.37451.1709,6.60253.35449a.99984.99984,0,0,1-.626,1.78028Z" fill="#fecdce"/><path d="M280.40983,140.19629a1.00016,1.00016,0,0,1-.76758-1.63965,31.77625,31.77625,0,0,1,3.751-3.40234.99995.99995,0,1,1,1.26758,1.54687,31.48836,31.48836,0,0,0-3.48633,3.1416A1.00038,1.00038,0,0,1,280.40983,140.19629Z" fill="#fecdce"/><path d="M296.382,283.63379c-2.08887,0-6.60938-.41309-8.67578-3.78613a.9999.9999,0,0,1,1.70508-1.04493c2.02392,3.30274,7.81152,2.80176,7.87011,2.79786a.99964.99964,0,0,1,.18994,1.99023C297.40544,283.59766,297.00016,283.63379,296.382,283.63379Z" fill="#f91a1f"/><path d="M283.73405,261.335c-.019,0-.03809-.001-.05762-.002a.99967.99967,0,0,1-.94189-1.05469l2.19531-38.75293a1.00014,1.00014,0,0,1,1.99707.11328l-2.19531,38.75293A1.00005,1.00005,0,0,1,283.73405,261.335Z" fill="#f91a1f"/><path d="M361.47184,280.85254a1.3303,1.3303,0,0,1-.72558-.21777c-1.92627-1.22754-2.04834-8.03223-2.05323-9.38379a.50043.50043,0,0,1,.91114-.28711c.42578.61523,4.14355,6.07812,3.457,8.59668a1.70857,1.70857,0,0,1-.94776,1.14257A1.53323,1.53323,0,0,1,361.47184,280.85254Zm-1.72607-7.82324c.1543,2.89746.65088,6.19726,1.53808,6.76269a.37792.37792,0,0,0,.41065.00293.70046.70046,0,0,0,.40185-.49707C362.46354,277.95117,360.95719,275.02539,359.74577,273.0293Z" fill="#fb5f62"/><path d="M357.02946,279.69043a1.20183,1.20183,0,0,1-.32324-.0459,1.554,1.554,0,0,1-1.09229-1.34277c-.36426-1.98633,1.397-6.16992,3.1416-7.46a.50049.50049,0,0,1,.79737.415c-.02979,1.165-.25733,7.03711-1.82422,8.19336A1.16565,1.16565,0,0,1,357.02946,279.69043Zm1.46289-7.13867c-1.15332,1.5625-2.13721,4.248-1.89453,5.56933.0874.47852.29932.53809.37891.56055a.15347.15347,0,0,0,.15869-.03613C357.86686,278.10547,358.32682,275.09766,358.49235,272.55176Z" fill="#fb5f62"/><path d="M298.55778,345.044a1.55647,1.55647,0,0,1-1.24023-.55274c-1.44873-1.7207.38183-7.10742.76318-8.16992a.501.501,0,0,1,.45557-.33106.54312.54312,0,0,1,.4746.30274c.24708.57519,2.38282,5.68066,1.24268,7.78906a1.76082,1.76082,0,0,1-1.28564.92383A2.32247,2.32247,0,0,1,298.55778,345.044Zm.03516-7.07129c-.66309,2.22851-1.20166,5.05371-.51026,5.874.09375.1123.27051.252.7124.1748a.75511.75511,0,0,0,.57911-.416C299.93083,342.57617,299.30729,339.9834,298.59294,337.97266Z" fill="#fb5f62"/><path d="M293.51335,343.15723a1.7189,1.7189,0,0,1-1.19-.4961c-.34033-.3164-.81152-1.06152-.1455-2.49121.89843-1.92871,3.80029-4.52832,6.30322-4.22656a.49968.49968,0,0,1,.398.69531c-.26611.61231-2.666,5.99414-5.0044,6.48047A1.7721,1.7721,0,0,1,293.51335,343.15723Zm4.124-6.207a7.04255,7.04255,0,0,0-4.55322,3.6416c-.1377.2959-.42139,1.01953-.0791,1.33789a.70664.70664,0,0,0,.666.21093C294.90885,341.88281,296.62712,339.06543,297.63737,336.9502Z" fill="#fb5f62"/><circle cx="290.71528" cy="161.69474" r="13.3273" fill="#fb7679"/><path d="M300.55337,170.66464c-6.2056-1.59664-17.86716-4.59471-20.93778-5.36813-.51288-.12938-1.71457-.43159-1.56167-1.51566.12937-.92095.24034-1.71508,14.42172-1.25026a1.04731,1.04731,0,0,1,1.01248,1.081,1.02789,1.02789,0,0,1-1.081,1.01249c-1.87207-.06188-4.74332-.10688-7.31646-.09307,5.20821,1.33323,12.69884,3.25975,16.85462,4.32919A13.31615,13.31615,0,0,1,300.55337,170.66464Z" fill="#fb5f62"/><path d="M243.61615,34.86543l-10.3406-.15549a3.19379,3.19379,0,0,0-3.22432,2.79342c-1.09871,8.75239-4.05469,35.47952-.89631,47.65a3.17533,3.17533,0,0,0,3.21832,2.35349c6.52422-.26959,24.55815-.99492,32.41126-1.10894a3.19111,3.19111,0,0,0,3.1463-3.41687c-.62208-8.86326-2.18745-32.48967-1.9222-42.25322a3.20868,3.20868,0,0,0-2.78206-3.27858Z" fill="#ffeded"/><path d="M232.98649,72.52051a.74926.74926,0,0,1-.70264-1.01172,3.32281,3.32281,0,0,1,4.45069-1.76465c2.61328.85938,4.26025.98926,5.87549.46191a.74983.74983,0,0,1,.46484,1.42579c-1.92529.6289-3.89844.49609-6.80908-.46387-1.95117-.6416-2.51758.709-2.57666.86426A.74992.74992,0,0,1,232.98649,72.52051Z" fill="#fa484c"/><path d="M240.43962,77.34668a11.81715,11.81715,0,0,1-3.08448-.417,9.11539,9.11539,0,0,0-3.73632-.04785.75037.75037,0,0,1-.31739-1.4668,10.4751,10.4751,0,0,1,4.46094.07129,8.94336,8.94336,0,0,0,3.8501.248.73337.73337,0,0,1,1.00879.28614.76259.76259,0,0,1-.29346,1.03027A4.42447,4.42447,0,0,1,240.43962,77.34668Z" fill="#fa484c"/><path d="M245.74577,76.61523a.75023.75023,0,0,1-.26514-1.45214,5.355,5.355,0,0,1,2.82178-.39844.74966.74966,0,1,1-.46973,1.42383,4.7304,4.7304,0,0,0-1.82324.3789A.75653.75653,0,0,1,245.74577,76.61523Z" fill="#fa484c"/><path d="M233.05924,82.40723a.74959.74959,0,0,1-.41308-1.376,4.48279,4.48279,0,0,1,3.01855-.7627.74954.74954,0,1,1-.35254,1.457,3.15592,3.15592,0,0,0-1.84423.56054A.74672.74672,0,0,1,233.05924,82.40723Z" fill="#fa484c"/><path d="M241.18766,81.78223a12.40056,12.40056,0,0,1-2.3584-.23633.75007.75007,0,0,1,.31446-1.4668,9.35927,9.35927,0,0,0,3.45605.05762,12.59669,12.59669,0,0,1,3.1709-.27149,10.0276,10.0276,0,0,0,1.04785-.02148.74951.74951,0,1,1,.16211,1.49023,10.27606,10.27606,0,0,1-1.22363.03125,11.1602,11.1602,0,0,0-2.80274.22852A7.59136,7.59136,0,0,1,241.18766,81.78223Z" fill="#fa484c"/><path d="M256.44091,79.06641s1.62032,4.52095-.38521,6.27774-4.17116,4.48049-3.23219,6.41184,6.47227,6.11354,5.709,8.58634-.00342,4.29785,1.42837,4.64272,1.68182-1.19515,1.67939-2.45432c0,0,1.6871,3.46881,3.26857,2.94307s-.00044-5.6271-1.87595-8.23063-5.40356-4.637-4.45084-6.40482,4.90866-7.26485,3.98894-9.798S256.44091,79.06641,256.44091,79.06641Z" fill="#f91a1f"/><circle cx="258.88555" cy="75.34133" r="6.42362" fill="#fb5f62"/><path d="M258.89665,82.51562c-.17725,0-.35547-.00683-.53418-.01953a7.1585,7.1585,0,1,1,.53418.01953ZM258.88151,69.667A5.67408,5.67408,0,0,0,258.47184,81a5.6738,5.6738,0,0,0,.82764-11.31738C259.15934,69.67187,259.01969,69.667,258.88151,69.667Z" fill="#fb5f62"/><path d="M257.36,78.64551a.74939.74939,0,0,1-.66065-.39551L254.422,74.00586a.74975.74975,0,1,1,1.32129-.709L257.05,75.73145l.6123-2.9043a.74993.74993,0,0,1,1.46778.30859l-1.03614,4.91406a.74976.74976,0,0,1-.62744.5879A.7868.7868,0,0,1,257.36,78.64551Z" fill="#fff"/><path d="M261.67839,78.05469a.75042.75042,0,0,1-.73829-.623l-.87109-5.07227a.75008.75008,0,0,1,1.47852-.2539l.87109,5.07226a.75051.75051,0,0,1-.6123.86622A.81823.81823,0,0,1,261.67839,78.05469Z" fill="#fff"/><path d="M235.83024,58.83594a.74927.74927,0,0,1-.70947-.99317c.83056-2.42675,3.24756-7.40429,4.32178-9.5791a30.1775,30.1775,0,0,1-5.65088-.10547.74975.74975,0,0,1-.65967-.831.76459.76459,0,0,1,.83057-.65918c.04443.00488,4.45068.501,6.46923-.1084.94532-.28613,1.62842-.49121,1.89209.2373.24414.67383-.3125.98047-1.14306,1.33985-.65235,1.30762-3.72217,7.50781-4.64112,10.19238A.74928.74928,0,0,1,235.83024,58.83594Z" fill="#fa484c"/><path d="M241.321,53.16211c-.01367,0-.02783,0-.042-.001l-5.89111-.32812.084-1.498,5.89014.32813a.75008.75008,0,0,1-.041,1.499Z" fill="#fa484c"/><path d="M248.05094,59.51758h-.01709c-.04248-.001-4.27929-.123-4.54785-5.33594-.168-3.26758-.18457-5.68164,1.13526-6.99609a3.66249,3.66249,0,0,1,2.94433-.91016c4.08106.22852,4.062,2.9834,4.04151,5.89941l-.001.1377c-.00293.458.01367.92871.02978,1.39453.064,1.833.12989,3.72754-.977,4.873A3.47806,3.47806,0,0,1,248.05094,59.51758Zm-.852-11.75293a2.0663,2.0663,0,0,0-1.51953.4834c-.87646.873-.83349,3.16894-.69531,5.85742.19482,3.78515,2.897,3.9082,3.06738,3.91211a2.04047,2.04047,0,0,0,1.52881-.48047c.66406-.6875.60938-2.25781.55664-3.77734-.01709-.48731-.03369-.97852-.03076-1.457l.001-.13769c.022-3.15332-.09912-4.25-2.625-4.3916C247.38444,47.76758,247.28971,47.76465,247.19889,47.76465Z" fill="#fa484c"/><path d="M257.60954,59.77832c-.04688,0-.09424-.001-.14209-.002H257.467c-2.04053-.0625-4.39746-1.58985-4.32422-5.68653l.00928-.56152c.04248-2.708.0791-5.0459,1.40234-6.24121a3.26217,3.26217,0,0,1,2.57569-.72266c3.9746.34375,4.69628,2.66407,4.55712,6.043C261.58317,55.12207,261.39128,59.77832,257.60954,59.77832Zm-.09668-1.502c1.773.05566,2.49853-1.44629,2.67529-5.73145.13428-3.25488-.58057-4.26074-3.187-4.48633a1.84375,1.84375,0,0,0-1.44141.3418c-.83886.75781-.87256,2.8916-.90771,5.15137l-.00928.56543c-.06787,3.77636,2.17969,4.13867,2.87012,4.15918Z" fill="#fa484c"/><path d="M245.98991,58.75293c-.02979,0-.06006-.002-.09033-.00488a.75078.75078,0,0,1-.65528-.835c.03369-.28028.85694-6.92383,3.57227-10.85938a.7498.7498,0,1,1,1.23437.85156c-2.50683,3.63379-3.30957,10.12207-3.31738,10.1875A.75.75,0,0,1,245.98991,58.75293Z" fill="#fa484c"/><path d="M255.82926,59.30176a.77232.77232,0,0,1-.187-.02344.75024.75024,0,0,1-.54-.91309c.10108-.39355,2.48047-9.6455,2.92481-10.956a.75028.75028,0,0,1,1.4209.48242c-.42676,1.25684-2.86817,10.751-2.89258,10.84668A.75065.75065,0,0,1,255.82926,59.30176Z" fill="#fa484c"/><path d="M252.36782,30.16129c-2.89556-.24857-6.963-1.03285-8.07179,2.06131s-1.705,6.21685,5.47351,6.98684,7.92951-1.94874,8.12106-4.87409S255.26246,30.40978,252.36782,30.16129Z" fill="#fdc6c7"/><path d="M198.7411,280.08888a2.14647,2.14647,0,1,1-4.20833.28191c0-1.32707.29167-2.40287,2.04557-2.40287C197.90541,277.96792,198.51581,278.78108,198.7411,280.08888Z" fill="#fc8c8f"/></svg>
