<svg xmlns="http://www.w3.org/2000/svg" width="200" height="200" viewBox="0 0 200 200"><title>heptagon-bleed</title><path d="M0,0V200H200V0ZM147.49963,103.85173v0a25.35322,25.35322,0,0,0-2.49849,11.08683v0a25.02008,25.02008,0,0,1-19.3597,24.58757h0a24.6393,24.6393,0,0,0-10.11609,4.93412v0a24.52541,24.52541,0,0,1-31.05062,0v0A24.6393,24.6393,0,0,0,74.3586,139.5262h0a25.02008,25.02008,0,0,1-19.3597-24.58757v0a25.35322,25.35322,0,0,0-2.49849-11.08683v0a25.29719,25.29719,0,0,1,6.90938-30.6602h0a25.03483,25.03483,0,0,0,7.00057-8.891,24.67709,24.67709,0,0,1,27.97559-13.6451h0a24.463,24.463,0,0,0,11.228,0h0a24.67709,24.67709,0,0,1,27.97559,13.6451,25.03483,25.03483,0,0,0,7.00057,8.891h0A25.29719,25.29719,0,0,1,147.49963,103.85173Z" style="fill:#fff"/></svg>