<svg xmlns="http://www.w3.org/2000/svg" width="200" height="200" viewBox="0 0 200 200"><title>heptagon-inverted</title><path d="M0,0V200H200V0ZM194.99927,107.70349v.00006a50.706,50.706,0,0,0-4.99695,22.17371,50.04027,50.04027,0,0,1-38.71948,49.17517,49.27918,49.27918,0,0,0-20.23224,9.86823v.00006a49.05066,49.05066,0,0,1-62.1012,0v-.00006a49.27918,49.27918,0,0,0-20.23224-9.86823A50.04027,50.04027,0,0,1,9.99768,129.87726a50.706,50.706,0,0,0-4.99695-22.17371v-.00006A50.59445,50.59445,0,0,1,18.81952,46.38306h.00006a50.06943,50.06943,0,0,0,14.0011-17.782A49.35421,49.35421,0,0,1,88.77191,1.31091H88.772a48.92818,48.92818,0,0,0,22.45605,0h.00006a49.35421,49.35421,0,0,1,55.95123,27.29016,50.06943,50.06943,0,0,0,14.0011,17.782h.00006A50.59445,50.59445,0,0,1,194.99927,107.70349Z" style="fill:#071127"/></svg>